<?xml version="1.0" standalone="no"?><!DOCTYPE svg PUBLIC "-//W3C//DTD SVG 1.1//EN" "http://www.w3.org/Graphics/SVG/1.1/DTD/svg11.dtd"><svg t="1582985650306" class="icon" viewBox="0 0 1024 1024" version="1.1" xmlns="http://www.w3.org/2000/svg" p-id="6352" xmlns:xlink="http://www.w3.org/1999/xlink" width="400" height="400"><defs><style type="text/css"></style></defs><path d="M909.4709375 45.9190625c-4.933125-3.1809375-22.644375-12.0253125-43.72125 7.8065625a1957.63875 1957.63875 0 0 0-7.83375 7.4146875c-54.913125 52.175625-91.1915625 86.6484375-292.6753125 18.871875-54.2221875-18.238125-109.3321875-26.3775-163.80375-24.1940625-43.629375 1.7446875-86.8884375 10.089375-128.5659375 24.793125-71.2134375 25.1165625-113.349375 60.2053125-115.10625 61.6828125a24.8484375 24.8484375 0 0 0-4.0575 4.34625c-10.3096875 6.4134375-14.593125 19.6003125-9.5353125 31.01625L456.0809375 882.378125c5.5303125 12.5025 20.146875 18.1453125 32.6465625 12.6159375 12.500625-5.533125 18.1490625-20.145 12.61875-32.6503125l-144.5625-326.62125 2.42625-4.629375c32.7946875-62.6484375 69.9665625-133.65 260.941875-116.709375 34.8225 3.0871875 68.8790625-2.6278125 101.3334375-16.9940625a203.9765625 203.9765625 0 0 0 6.0225-2.773125c29.4403125-14.083125 57.4809375-35.3859375 83.34375-63.298125 40.4746875-43.681875 76.1465625-104.9953125 97.865625-168.2203125 8.2725-24.0759375 13.764375-46.37625 15.8896875-64.498125 2.0071875-17.1234375 2.6221875-41.2134375-15.1359375-52.6809375z m-52.7765625 115.4325c-18.493125 48.2765625-45.14625 93.875625-75.050625 128.398125-47.6559375 55.003125-100.513125 80.3503125-157.115625 75.324375-97.7353125-8.6671875-170.85 3.796875-223.53375 38.1215625-33.4921875 21.8203125-54.09375 49.32375-69.493125 75.4096875l-134.5434375-303.984375c13.93125-10.0275 47.049375-31.6059375 94.2928125-48.00375 84.03-29.1571875 170.90625-29.0559375 258.208125 0.3121875 103.33125 34.756875 176.533125 46.34625 230.3709375 36.4584375 40.2075-7.3828125 67.411875-26.0334375 91.145625-46.8928125-3.01875 12.3234375-7.588125 27.380625-14.2809375 44.8565625z" p-id="6353"></path><path d="M844.8190625 624.5834375c-84.2109375-36.361875-201.1415625-58.1746875-334.26-58.1746875-7.3171875 0-14.5809375 0.0684375-21.7959375 0.2015625v59.505c7.1859375-0.13875 14.4375-0.211875 21.759375-0.211875 243.285 0 412.7615625 78.08625 412.7615625 148.1203125 0 35.6446875-41.840625 73.408125-115.081875 101.5865625v0.0834375c-72.616875 27.680625-174.6965625 47.623125-294.725625 47.623125-243.2859375 0-412.7615625-78.0890625-412.7615625-148.12125 0-35.6446875 41.8415625-74.3334375 115.0809375-102.511875v-0.07875a534.69 534.69 0 0 1 27.8484375-9.7209375v-62.2453125C117.9603125 637.1459375 38.3009375 699.8459375 38.3009375 773.9909375c-0.0159375 60.5025 53.0540625 113.4009375 140.904375 150.6553125 84.208125 36.3571875 201.13125 58.1653125 334.2384375 58.1653125 269.2228125 0 472.25625-89.2078125 472.25625-207.5821875 0.016875-60.49875-53.0465625-113.3915625-140.8809375-150.6459375z" p-id="6354"></path></svg>