<?xml version="1.0" standalone="no"?><!DOCTYPE svg PUBLIC "-//W3C//DTD SVG 1.1//EN" "http://www.w3.org/Graphics/SVG/1.1/DTD/svg11.dtd"><svg t="1575361367964" class="icon" viewBox="0 0 1024 1024" version="1.1" xmlns="http://www.w3.org/2000/svg" p-id="8673" xmlns:xlink="http://www.w3.org/1999/xlink" width="200" height="200"><defs><style type="text/css"></style></defs><path d="M792 596.032c15.36 0 28.032 12.544 28.032 27.968v280a27.968 27.968 0 1 1-56.064 0V624c0-15.36 12.608-28.032 28.032-28.032zM288 260.032h336a27.968 27.968 0 1 1 0 56H288a27.968 27.968 0 1 1 0-56z m0 168h336a27.968 27.968 0 1 1 0 56H288a27.968 27.968 0 1 1 0-56z m0 168h196.032a27.968 27.968 0 1 1 0 55.936H288a27.968 27.968 0 1 1 0-55.936z" p-id="8674"></path><path d="M652.032 736h279.936a27.968 27.968 0 1 1 0 56h-279.936a27.968 27.968 0 1 1 0-56z" p-id="8675"></path><path d="M708.032 92.032H203.904a112 112 0 0 0-112 112v615.936c0 61.888 50.176 112 112 112h364.032v-55.936H203.968a56 56 0 0 1-55.936-56.064V204.032c0-30.976 25.024-56.064 55.936-56.064h504.064c30.912 0 55.936 25.088 55.936 56.064v336h56.064v-336a112 112 0 0 0-112-112z" p-id="8676"></path></svg>