<?xml version="1.0" standalone="no"?><!DOCTYPE svg PUBLIC "-//W3C//DTD SVG 1.1//EN" "http://www.w3.org/Graphics/SVG/1.1/DTD/svg11.dtd"><svg t="1582945024307" class="icon" viewBox="0 0 1024 1024" version="1.1" xmlns="http://www.w3.org/2000/svg" p-id="1175" xmlns:xlink="http://www.w3.org/1999/xlink" width="400" height="400"><defs><style type="text/css"></style></defs><path d="M875.52 148.48L512 0 148.48 148.48 0 512l148.48 363.52L512 1024l363.52-148.48L1024 512 875.52 148.48zM762.88 727.04h-512v-40.96h92.16V440.32h46.08v240.64h117.76v-327.68h46.08V491.52h168.96v40.96H552.96v148.48h209.92v46.08z m10.24-291.84c-102.4-51.2-189.44-122.88-261.12-204.8-66.56 81.92-153.6 148.48-261.12 204.8l-25.6-40.96c107.52-56.32 199.68-122.88 271.36-204.8h30.72c76.8 87.04 168.96 153.6 271.36 204.8l-25.6 40.96z" p-id="1176"></path></svg>