<?xml version="1.0" standalone="no"?><!DOCTYPE svg PUBLIC "-//W3C//DTD SVG 1.1//EN" "http://www.w3.org/Graphics/SVG/1.1/DTD/svg11.dtd"><svg t="1575361373298" class="icon" viewBox="0 0 1024 1024" version="1.1" xmlns="http://www.w3.org/2000/svg" p-id="8801" xmlns:xlink="http://www.w3.org/1999/xlink" width="200" height="200"><defs><style type="text/css"></style></defs><path d="M487.204 238.103h-81.567v340.516h81.567c59.425 0 102.943-13.871 130.303-41.101 26.721-27.868 40.083-70.88 40.083-129.158 0-59.678-13.362-103.329-40.083-129.923-27.359-27.104-70.877-40.336-130.303-40.336z" p-id="8802"></path><path d="M778.859 61.224H245.306c-59.678 0-108.414 48.738-108.414 108.414v689.437c0 59.677 48.737 108.414 108.414 108.414h533.553c42.628 0 79.657-24.941 97.346-60.826H252.559c-22.269 0-40.591-18.197-40.591-40.59v-51.282c0-22.269 18.197-40.59 40.591-40.59h487.874c80.801 0 146.845-66.042 146.845-146.845V169.641c0-59.678-48.862-108.418-108.418-108.418zM677.696 581.291c-40.083 42.374-98.235 63.626-175.73 63.626H327.507v-473.11h174.458c77.494 0 135.647 21.25 175.73 63.625 38.048 39.703 57.518 97.346 57.518 172.931 0 74.95-19.468 132.59-57.516 172.93z" p-id="8803"></path></svg>