<?xml version="1.0" standalone="no"?><!DOCTYPE svg PUBLIC "-//W3C//DTD SVG 1.1//EN" "http://www.w3.org/Graphics/SVG/1.1/DTD/svg11.dtd"><svg t="1575361754471" class="icon" viewBox="0 0 1024 1024" version="1.1" xmlns="http://www.w3.org/2000/svg" p-id="11388" xmlns:xlink="http://www.w3.org/1999/xlink" width="200" height="200"><defs><style type="text/css"></style></defs><path d="M936.7552 654.04928c-34.65216 20.76672-138.89536 109.9776-176.3328 114.688-37.0688 4.7104-137.37984-2.62144-208.77312-9.37984-80.77312-7.5776-49.27488-40.26368-36.49536-43.74528 12.77952-3.52256 167.48544-11.8784 219.17696-17.8176 46.53056-5.36576 39.81312-51.2-12.65664-53.0432-52.38784-1.80224-289.95584-17.89952-369.78688-12.53376-79.91296 5.36576-196.608 112.10752-196.608 112.10752l4.34176 16.95744 170.14784 151.10144 22.7328-1.80224c0 0 41.73824-24.00256 76.43136-31.21152 34.69312-7.24992 226.42688 13.84448 292.6592 4.21888 66.23232-9.6256 236.83072-152.41216 274.26816-183.5008 18.18624-15.23712 31.21152-36.94592 27.40224-42.8032C1005.11744 629.51424 959.20128 640.53248 936.7552 654.04928L936.7552 654.04928zM120.95488 773.36576c-15.64672-14.21312-33.30048-10.8544-43.99104-2.29376-10.73152 8.51968-55.296 43.17184-68.03456 51.93728-19.70176 13.55776-2.2528 36.20864 9.0112 46.85824 11.18208 10.60864 131.85024 122.4704 149.66784 140.0832 17.85856 17.57184 36.20864 15.68768 49.64352 4.38272 13.39392-11.264 44.48256-37.96992 64.38912-51.93728 19.90656-13.9264 18.14528-29.85984 4.25984-42.47552C272.09728 907.264 136.68352 787.53792 120.95488 773.36576L120.95488 773.36576zM120.95488 773.36576M446.01344 174.4896l343.77728 0 0 61.44-343.77728 0 0-61.44ZM350.78144 205.2096c0-8.02816 3.2768-16.05632 9.0112-21.66784 5.65248-5.7344 13.63968-9.05216 21.7088-9.05216 8.02816 0 16.05632 3.31776 21.66784 9.05216 5.7344 5.65248 9.05216 13.63968 9.05216 21.66784 0 8.06912-3.31776 16.09728-9.05216 21.74976C397.55776 232.6528 389.57056 235.9296 381.50144 235.9296c-8.06912 0-16.09728-3.2768-21.7088-8.97024C354.0992 221.26592 350.78144 213.27872 350.78144 205.2096L350.78144 205.2096zM445.93152 316.86656l343.90016 0 0 61.44-343.90016 0 0-61.44ZM350.78144 347.58656c0-8.06912 3.2768-16.09728 9.0112-21.66784 5.65248-5.77536 13.63968-9.05216 21.7088-9.05216 8.02816 0 16.05632 3.2768 21.66784 9.05216 5.7344 5.61152 9.05216 13.59872 9.05216 21.66784S408.90368 363.68384 403.21024 369.37728C397.55776 375.02976 389.57056 378.30656 381.50144 378.30656c-8.06912 0-16.09728-3.2768-21.7088-8.97024C354.0992 363.68384 350.78144 355.69664 350.78144 347.58656L350.78144 347.58656zM445.93152 459.24352l343.90016 0 0 61.44-343.90016 0 0-61.44ZM350.78144 489.96352c0-8.02816 3.2768-16.05632 9.0112-21.66784 5.65248-5.7344 13.63968-9.05216 21.7088-9.05216 8.02816 0 16.05632 3.31776 21.66784 9.05216 5.7344 5.65248 9.05216 13.63968 9.05216 21.66784 0 8.06912-3.31776 16.09728-9.05216 21.74976-5.65248 5.69344-13.63968 8.97024-21.66784 8.97024-8.06912 0-16.09728-3.2768-21.7088-8.97024C354.0992 506.01984 350.78144 498.03264 350.78144 489.96352L350.78144 489.96352zM344.4736 506.59328M816.04608 55.82848l-491.52 0c-39.5264 0-71.68 32.1536-71.68 71.68l0 427.37664c0 16.95744 13.76256 30.72 30.72 30.72s30.72-13.76256 30.72-30.72L314.28608 127.50848c0-5.57056 4.66944-10.24 10.24-10.24l491.52 0c5.57056 0 10.24 4.66944 10.24 10.24l0 427.37664c0 16.95744 13.76256 30.72 30.72 30.72s30.72-13.76256 30.72-30.72L887.72608 127.50848C887.72608 87.98208 855.57248 55.82848 816.04608 55.82848z" p-id="11389"></path></svg>