<?xml version="1.0" standalone="no"?><!DOCTYPE svg PUBLIC "-//W3C//DTD SVG 1.1//EN" "http://www.w3.org/Graphics/SVG/1.1/DTD/svg11.dtd"><svg t="1575361386105" class="icon" viewBox="0 0 1024 1024" version="1.1" xmlns="http://www.w3.org/2000/svg" p-id="9055" xmlns:xlink="http://www.w3.org/1999/xlink" width="200" height="200"><defs><style type="text/css"></style></defs><path d="M384.501 368.5l-128 0c-8.837 0-16 7.162-16 15.998l0 96.003c0 8.835 7.163 16.002 16 16.002l128 0c8.835 0 15.998-7.166 15.998-16.002l0-96.003C400.499 375.662 393.336 368.5 384.501 368.5zM576.501 688.499l-128 0c-8.837 0-16 7.162-16 15.998L432.501 800.5c0 8.835 7.163 16.002 16 16.002l128 0c8.837 0 16-7.166 16-16.002l0-96.003C592.501 695.66 585.338 688.499 576.501 688.499zM576.501 528.5l-128 0c-8.837 0-16 7.163-16 15.998l0 96c0 8.837 7.163 16.002 16 16.002l128 0c8.837 0 16-7.165 16-16.002l0-96C592.501 535.663 585.338 528.5 576.501 528.5zM384.501 528.5l-128 0c-8.837 0-16 7.163-16 15.998l0 96c0 8.837 7.163 16.002 16 16.002l128 0c8.835 0 15.998-7.165 15.998-16.002l0-96C400.499 535.663 393.336 528.5 384.501 528.5zM384.501 688.499l-128 0c-8.837 0-16 7.162-16 15.998L240.501 800.5c0 8.835 7.163 16.002 16 16.002l128 0c8.835 0 15.998-7.166 15.998-16.002l0-96.003C400.499 695.66 393.336 688.499 384.501 688.499zM576.501 368.5l-128 0c-8.837 0-16 7.162-16 15.998l0 96.003c0 8.835 7.163 16.002 16 16.002l128 0c8.837 0 16-7.166 16-16.002l0-96.003C592.501 375.662 585.338 368.5 576.501 368.5zM928.501 80.502l-832 0c-8.837 0-16 7.162-16 15.998l0 831.997c0 8.837 7.163 16.002 16 16.002l832 0c8.837 0 16-7.165 16-16.002L944.501 96.5C944.501 87.663 937.338 80.502 928.501 80.502zM880.502 864.497c0 8.835-7.166 16.002-16.002 16.002L160.499 880.499c-8.837 0-15.998-7.166-15.998-16.002L144.501 160.5c0-8.835 7.162-15.998 15.998-15.998l704.002 0c8.835 0 16.002 7.163 16.002 15.998L880.503 864.497zM768.499 528.5l-128 0c-8.837 0-15.998 7.163-15.998 15.998l0 96c0 8.837 7.162 16.002 15.998 16.002l128 0c8.837 0 16-7.165 16-16.002l0-96C784.499 535.663 777.336 528.5 768.499 528.5zM576.501 208.502l-128 0c-8.837 0-16 7.163-16 15.998l0 96.003c0 8.837 7.163 16.003 16 16.003l128 0c8.837 0 16-7.166 16-16.003L592.501 224.5C592.501 215.665 585.338 208.502 576.501 208.502zM768.499 688.499l-128 0c-8.837 0-15.998 7.162-15.998 15.998L624.501 800.5c0 8.835 7.162 16.002 15.998 16.002l128 0c8.837 0 16-7.166 16-16.002l0-96.003C784.499 695.66 777.336 688.499 768.499 688.499z" p-id="9056"></path></svg>