<?xml version="1.0" standalone="no"?><!DOCTYPE svg PUBLIC "-//W3C//DTD SVG 1.1//EN" "http://www.w3.org/Graphics/SVG/1.1/DTD/svg11.dtd"><svg t="1582966356156" class="icon" viewBox="0 0 1170 1024" version="1.1" xmlns="http://www.w3.org/2000/svg" p-id="5572" xmlns:xlink="http://www.w3.org/1999/xlink" width="457.03125" height="400"><defs><style type="text/css"></style></defs><path d="M987.445008 1024H182.840706A183.103692 183.103692 0 0 1 0 841.159294V329.192167a183.103692 183.103692 0 0 1 182.840706-182.906453h804.604302A183.037945 183.037945 0 0 1 1170.285714 329.126421v511.967126a183.037945 183.037945 0 0 1-182.840706 182.906453zM182.840706 219.395698a109.862215 109.862215 0 0 0-109.730722 109.730723v511.967126a109.862215 109.862215 0 0 0 109.730722 109.730723h804.604302a109.862215 109.862215 0 0 0 109.730722-109.730723V329.126421a109.862215 109.862215 0 0 0-109.730722-109.730723z" p-id="5573"></path><path d="M767.983563 182.840706h-73.109984V72.846998H475.477881v109.730723H402.302151V72.846998A73.109984 73.109984 0 0 1 475.412135 0h219.395698a73.044238 73.044238 0 0 1 73.17573 72.846998zM585.142857 588.101445a36.554992 36.554992 0 0 1-36.554992-36.554992V483.564687a36.554992 36.554992 0 0 1 73.175731 0V551.612199a36.554992 36.554992 0 0 1-36.620739 36.554992z" p-id="5574"></path><path d="M585.142857 498.291878a2199.676918 2199.676918 0 0 1-528.46947-62.524815 36.554992 36.554992 0 1 1 17.554286-70.940354 2200.72886 2200.72886 0 0 0 1021.764622 0 36.554992 36.554992 0 1 1 17.554286 70.940354 2195.929374 2195.929374 0 0 1-528.403724 62.524815z" p-id="5575"></path></svg>