<?xml version="1.0" encoding="UTF-8"?>
<svg width="28px" height="28px" xmlns="http://www.w3.org/2000/svg" xmlns:xlink="http://www.w3.org/1999/xlink">
  <path d="M27.4365234,4.56445312 L15.0556641,4.56445312 C14.6806641,4.56445312 14.3701172,4.86914063 14.3701172,5.25 L14.3701172,7.21289063 C14.3701172,7.58789063 14.6748047,7.8984375 15.0556641,7.8984375 C15.4306641,7.8984375 15.7412109,7.59375 15.7412109,7.21289063 L15.7412109,5.93554688 L26.7480469,5.93554688 L26.7480469,13.3564453 L24.140625,13.3564453 C23.9560547,13.3564453 23.7744141,13.4326172 23.6484375,13.5644531 L22.5263672,14.7275391 L22.6083984,14.1591797 C22.6376953,13.9599609 22.5761719,13.7607422 22.4443359,13.6113281 C22.3154297,13.4619141 22.1279297,13.3769531 21.9287109,13.3769531 L21.3398437,13.3828125 C21.1552734,13.3828125 20.9824219,13.4560547 20.8564453,13.5878906 C20.7275391,13.7167969 20.6542969,13.8896484 20.6572266,14.0742188 C20.6601562,14.3789063 20.8623047,14.6367188 21.140625,14.7246094 L20.8681641,16.6318359 C20.8388672,16.8310547 20.9003906,17.0273438 21.0292969,17.1767578 C21.1582031,17.3291016 21.3486328,17.4140625 21.5478516,17.4140625 C21.7324219,17.4140625 21.9111328,17.3378906 22.0400391,17.2060547 L24.4306641,14.7333984 L27.4394531,14.7333984 C27.8144531,14.7333984 28.125,14.4287109 28.125,14.0478516 L28.125,5.25 C28.1191406,4.875 27.8144531,4.56445312 27.4365234,4.56445312 L27.4365234,4.56445312 Z M18.1230469,17.6220703 C19.5527344,16.6962891 20.5019531,15.0849609 20.5019531,13.2568359 C20.5019531,10.3916016 18.1699219,8.05957031 15.3046875,8.05957031 C14.7070313,8.05957031 14.1357422,8.16210938 13.5996094,8.34667969 C13.7519531,8.10644531 13.7431641,7.78417969 13.5527344,7.54980469 C12.5595703,6.328125 11.0888672,5.625 9.515625,5.625 C6.65039062,5.625 4.31835938,7.95703125 4.31835938,10.8222656 C4.31835938,12.5947266 5.21777344,14.2324219 6.69726562,15.1875 C5.34960938,15.7207031 4.18945312,16.6171875 3.32519531,17.7949219 C2.35253906,19.1191406 1.83984375,20.6865234 1.83984375,22.3271484 C1.83984375,22.7021484 2.14453125,23.0126953 2.52539062,23.0126953 C2.90332031,23.0126953 3.21386719,22.7050781 3.2109375,22.3212891 C3.2109375,18.84375 6.04101562,16.0166016 9.515625,16.0166016 C9.890625,16.0166016 10.2011719,15.7089844 10.2011719,15.3251953 C10.2011719,14.9501953 9.89648438,14.6396484 9.515625,14.6396484 C7.40917969,14.6396484 5.68945312,12.9257812 5.68945312,10.8134766 C5.68945312,8.70703125 7.40332031,6.98730469 9.515625,6.98730469 C10.6757812,6.98730469 11.7597656,7.50585937 12.4892578,8.40527344 C12.5917969,8.53125 12.7353516,8.61621094 12.8935547,8.6484375 C11.2412109,9.51855469 10.1103516,11.2558594 10.1103516,13.2509766 C10.1103516,15.0791016 11.0595703,16.6933594 12.4921875,17.6191406 C9.65039062,18.7441406 7.63769531,21.5214844 7.63769531,24.7587891 C7.63769531,25.1337891 7.94238281,25.4443359 8.32324219,25.4443359 C8.69824219,25.4443359 9.00878906,25.1396484 9.00878906,24.7587891 C9.00878906,21.28125 11.8388672,18.4541016 15.3134766,18.4541016 C18.7880859,18.4541016 21.6181641,21.2841797 21.6181641,24.7587891 C21.6181641,25.1337891 21.9228516,25.4443359 22.3037109,25.4443359 C22.6787109,25.4443359 22.9892578,25.1396484 22.9951172,24.7587891 C22.9863281,21.5214844 20.9677734,18.7441406 18.1230469,17.6220703 L18.1230469,17.6220703 Z M15.3046875,9.43066406 C17.4140625,9.43066406 19.1308594,11.1445312 19.1308594,13.2568359 C19.1308594,15.3632813 17.4169922,17.0830078 15.3046875,17.0830078 C13.1982422,17.0830078 11.4785156,15.3691406 11.4785156,13.2568359 C11.4785156,11.1503906 13.1953125,9.43066406 15.3046875,9.43066406 Z M21.8818359,11.9619141 L23.7216797,10.1220703 C23.9238281,9.91992188 23.9238281,9.59179688 23.7216797,9.38964844 L21.8818359,7.54980469 C21.5566406,7.22460938 21,7.45605469 21,7.91601563 L21,11.5986328 C21,12.0556641 21.5566406,12.2871094 21.8818359,11.9619141 L21.8818359,11.9619141 Z"></path>
</svg>
