<?xml version="1.0" standalone="no"?><!DOCTYPE svg PUBLIC "-//W3C//DTD SVG 1.1//EN" "http://www.w3.org/Graphics/SVG/1.1/DTD/svg11.dtd"><svg t="1585557398282" class="icon" viewBox="0 0 1024 1024" version="1.1" xmlns="http://www.w3.org/2000/svg" p-id="3149" xmlns:xlink="http://www.w3.org/1999/xlink" width="400" height="400"><defs><style type="text/css"></style></defs><path d="M802.816 636.928l4.096 77.824V737.28c-2.048 16.384-22.528 26.624-38.912 26.624-28.672 0-40.96-12.288-45.056-28.672v-2.048c-2.048-10.24-4.096-26.624-4.096-36.864l-2.048-96.256 169.984-178.176-247.808-51.2-122.88-212.992v4.096l-120.832 212.992-243.712 51.2 163.84 174.08-34.816 253.952 233.472-110.592L737.28 843.776l83.968 36.864c8.192 4.096 20.48 12.288 24.576 20.48 4.096 8.192 6.144 12.288 4.096 30.72-2.048 12.288-8.192 24.576-12.288 30.72-4.096 6.144-14.336 16.384-24.576 18.432-6.144 2.048-14.336 0-20.48-2.048L512 847.872 223.232 983.04c-16.384 4.096-40.96-8.192-38.912-26.624l38.912-319.488L2.048 399.36c-4.096-16.384 0-36.864 18.432-40.96l313.344-59.392L495.616 6.144c6.144-6.144 26.624-6.144 34.816 0l161.792 292.864 313.344 59.392c22.528 6.144 22.528 38.912 14.336 47.104L802.816 636.928z" fill="" p-id="3150"></path></svg>