<?xml version="1.0" standalone="no"?><!DOCTYPE svg PUBLIC "-//W3C//DTD SVG 1.1//EN" "http://www.w3.org/Graphics/SVG/1.1/DTD/svg11.dtd"><svg t="1582956852659" class="icon" viewBox="0 0 1024 1024" version="1.1" xmlns="http://www.w3.org/2000/svg" p-id="2346" xmlns:xlink="http://www.w3.org/1999/xlink" width="400" height="400"><defs><style type="text/css"></style></defs><path d="M958.989 704H746.53c-58.603 0-102.784 44.16-102.784 102.784V1024h-515.35c-38.634 0-64.405-25.6-64.405-64V64c0-38.4 25.771-64 64.406-64h772.672c38.656 0 64.405 25.6 57.941 64v640zM543.99 640h-192c-19.2 0-32 12.8-32 32s12.8 32 32 32h192c19.2 0 32-12.8 32-32s-12.8-32-32-32z m-64 128h-128c-19.2 0-32 12.8-32 32s12.8 32 32 32h128c19.2 0 32-12.8 32-32s-12.8-32-32-32z m227.755 170.667V806.784c0-23.296 15.552-38.784 38.784-38.784h131.883L707.746 938.667zM601.591 345.6c25.6-25.6 38.4-57.6 38.4-89.6 0-70.4-57.6-128-128-128s-128 57.6-128 128c0 32 12.8 64 38.4 89.6-64 32-102.4 96-102.4 166.4 0 19.2 12.8 32 32 32s32-12.8 32-32c0-70.4 57.6-128 128-128s128 57.6 128 128c0 19.2 12.8 32 32 32s32-12.8 32-32c0-70.4-38.4-134.4-102.4-166.4z m-89.6-25.6c-38.4 0-64-25.6-64-64s25.6-64 64-64 64 25.6 64 64-25.6 64-64 64z" p-id="2347"></path></svg>