<?xml version="1.0" standalone="no"?><!DOCTYPE svg PUBLIC "-//W3C//DTD SVG 1.1//EN" "http://www.w3.org/Graphics/SVG/1.1/DTD/svg11.dtd"><svg t="1585834320842" class="icon" viewBox="0 0 1024 1024" version="1.1" xmlns="http://www.w3.org/2000/svg" p-id="2297" xmlns:xlink="http://www.w3.org/1999/xlink" width="400" height="400"><defs><style type="text/css"></style></defs><path d="M513 188.7l389 155.4c6.4 2.6 10.6 8.8 10.6 15.7 0 6.9-4.2 13.1-10.6 15.7l-43.3 18.1v390.6c0 9.3-7.4 16.8-16.7 16.8-9.2 0-16.7-7.5-16.7-16.8v-378l-67 26.8v56.5L507 608.6 255.6 489.5V433l-143.8-57.5c-6.4-2.5-10.7-8.8-10.7-15.7 0-6.9 4.2-13.2 10.7-15.7l388.9-155.4c4-1.6 8.4-1.6 12.3 0z" p-id="2298"></path><path d="M499.8 656.8c4.5 2.1 9.7 2.1 14.3 0.1l244.2-115.7V707c0 6.4-3.6 12.2-9.2 15.1L514.4 840.2c-4.7 2.4-10.3 2.4-15 0L264.9 722.1c-5.7-2.8-9.3-8.7-9.3-15.1V541.1l244.2 115.7z" p-id="2299"></path></svg>