<?xml version="1.0" standalone="no"?><!DOCTYPE svg PUBLIC "-//W3C//DTD SVG 1.1//EN" "http://www.w3.org/Graphics/SVG/1.1/DTD/svg11.dtd"><svg t="1585737865599" class="icon" viewBox="0 0 1024 1024" version="1.1" xmlns="http://www.w3.org/2000/svg" p-id="2366" xmlns:xlink="http://www.w3.org/1999/xlink" width="400" height="400"><defs><style type="text/css"></style></defs><path d="M933.599422 511.890024c0-59.877136 37.591924-110.606237 90.270606-130.831892-12.5673-49.359395-31.993126-95.869403-57.357677-138.600223-51.648904 22.965066-114.0355 13.597079-156.306419-28.793813-42.280916-42.280916-51.648904-104.777489-28.683837-156.306419-42.850794-25.364551-89.350804-44.790377-138.710199-57.357677-20.335631 52.678682-71.07473 90.270606-130.831892 90.270606-59.877136 0-110.606237-37.591924-130.831891-90.270606-49.359395 12.5673-95.869403 31.993126-138.600223 57.357677 22.965066 51.648904 13.597079 114.0355-28.683837 156.306419s-104.777489 51.648904-156.306419 28.793813C32.073109 285.188729 12.657281 331.698737 0.079983 381.058132c52.678682 20.335631 90.270606 71.07473 90.270606 130.831892 0 59.877136-37.591924 110.606237-90.270606 130.831891 12.5673 49.359395 31.993126 95.869403 57.357677 138.600223 51.648904-22.965066 114.0355-13.597079 156.306418 28.793814 42.280916 42.280916 51.648904 104.777489 28.683838 156.306418 42.850794 25.364551 89.350804 44.790377 138.710199 57.357677 20.335631-52.678682 71.07473-90.270606 130.831891-90.270606 59.877136 0 110.606237 37.591924 130.831892 90.270606 49.359395-12.5673 95.869403-31.993126 138.600223-57.357677-22.965066-51.648904-13.597079-114.0355 28.683837-156.306418s104.777489-51.648904 156.306419-28.793814c25.484525-42.73082 44.900353-89.240827 57.477651-138.600223-52.678682-20.225655-90.270606-70.954756-90.270606-130.831891zM511.980004 652.42983c-77.583332 0-140.539806-62.956474-140.539806-140.539806s62.956474-140.539806 140.539806-140.539806 140.539806 62.956474 140.539806 140.539806-62.956474 140.539806-140.539806 140.539806z" p-id="2367"></path></svg>