<?xml version="1.0" encoding="UTF-8"?>
<svg width="63px" height="54px" viewBox="0 0 63 54" version="1.1" xmlns="http://www.w3.org/2000/svg" xmlns:xlink="http://www.w3.org/1999/xlink">
    <!-- Generator: Sketch 58 (84663) - https://sketch.com -->
    <title>添加图片</title>
    <desc>Created with Sketch.</desc>
    <g id="活动版块" stroke="none" stroke-width="1" fill="none" fill-rule="evenodd">
        <g id="活动发布页（未选中）" transform="translate(-1314.000000, -330.000000)" fill-rule="nonzero">
            <g id="编组-23" transform="translate(1161.000000, 213.000000)">
                <g id="编组-19" transform="translate(0.000000, 38.000000)">
                    <g id="添加图片-2" transform="translate(149.000000, 68.000000)">
                        <g id="添加图片">
                            <rect id="矩形" fill="#000000" opacity="0" x="0" y="0" width="72" height="72"></rect>
                            <path d="M49.8985937,42.6117969 L42.025,36.7069531 C40.8317969,35.8125781 39.1689062,35.8125781 37.9757031,36.7069531 L31.0442969,41.9044531 L21.803125,34.5117969 C20.644375,33.584375 19.04125,33.5140625 17.8086719,34.34375 L8.5,40.6029687 L8.5,15.5 L58,15.5 L58,40.25 C58,41.4924219 59.0075781,42.5 60.25,42.5 C61.4924219,42.5 62.5,41.4924219 62.5,40.25 L62.5,15.3108594 C62.5,12.9335938 60.5664062,11 58.1891406,11 L8.31085937,11 C5.93359375,11 4,12.9335938 4,15.3108594 L4,56.1891406 C4,58.5664062 5.93359375,60.5 8.31085937,60.5 L42.25,60.5 C43.4924219,60.5 44.5,59.4924219 44.5,58.25 C44.5,57.0075781 43.4924219,56 42.25,56 L8.5,56 L8.5,46.026875 L19.6346875,38.54 L30.9564063,47.59625 L40,40.8125 L47.1985938,46.2110937 C48.1963281,46.9613281 49.6053906,46.7546094 50.3485937,45.7617969 C51.0939063,44.7675781 50.8928125,43.3571094 49.8985937,42.6117969 Z M40,26.75 C40,30.4723437 43.0276562,33.5 46.75,33.5 C50.4723438,33.5 53.5,30.4723437 53.5,26.75 C53.5,23.0276562 50.4723438,20 46.75,20 C43.0276562,20 40,23.0276562 40,26.75 Z M49,26.75 C49,27.9903125 47.9903125,29 46.75,29 C45.5096875,29 44.5,27.9903125 44.5,26.75 C44.5,25.5096875 45.5096875,24.5 46.75,24.5 C47.9903125,24.5 49,25.5096875 49,26.75 Z M64.75,53.75 L60.25,53.75 L60.25,49.25 C60.25,48.0075781 59.2424219,47 58,47 C56.7575781,47 55.75,48.0075781 55.75,49.25 L55.75,53.75 L51.25,53.75 C50.0075781,53.75 49,54.7575781 49,56 C49,57.2424219 50.0075781,58.25 51.25,58.25 L55.75,58.25 L55.75,62.75 C55.75,63.9924219 56.7575781,65 58,65 C59.2424219,65 60.25,63.9924219 60.25,62.75 L60.25,58.25 L64.75,58.25 C65.9924219,58.25 67,57.2424219 67,56 C67,54.7575781 65.9924219,53.75 64.75,53.75 Z" id="形状" fill="#B0BEC5"></path>
                        </g>
                    </g>
                </g>
            </g>
        </g>
    </g>
</svg>