<?xml version="1.0" encoding="UTF-8"?>
<svg width="344px" height="265px" viewBox="0 0 344 265" version="1.1" xmlns="http://www.w3.org/2000/svg" xmlns:xlink="http://www.w3.org/1999/xlink">
    <!-- Generator: Sketch 58 (84663) - https://sketch.com -->
    <title>编组 10</title>
    <desc>Created with Sketch.</desc>
    <defs>
        <linearGradient x1="50%" y1="50%" x2="50%" y2="0%" id="linearGradient-1">
            <stop stop-color="#F5F7FA" stop-opacity="0" offset="0%"></stop>
            <stop stop-color="#CADFF7" offset="100%"></stop>
        </linearGradient>
        <linearGradient x1="50%" y1="50%" x2="50%" y2="0%" id="linearGradient-2">
            <stop stop-color="#F5F7FA" stop-opacity="0" offset="0%"></stop>
            <stop stop-color="#CADFF7" offset="100%"></stop>
        </linearGradient>
        <linearGradient x1="100%" y1="86.6046083%" x2="0%" y2="0%" id="linearGradient-3">
            <stop stop-color="#FFC944" offset="0%"></stop>
            <stop stop-color="#FFF7C6" offset="100%"></stop>
        </linearGradient>
        <linearGradient x1="50%" y1="100%" x2="50%" y2="0%" id="linearGradient-4">
            <stop stop-color="#FF7C00" offset="0%"></stop>
            <stop stop-color="#FED431" offset="100%"></stop>
        </linearGradient>
        <linearGradient x1="85.3553391%" y1="85.3553391%" x2="14.6446609%" y2="14.6446609%" id="linearGradient-5">
            <stop stop-color="#FFCA44" offset="0%"></stop>
            <stop stop-color="#FFF1B5" offset="100%"></stop>
        </linearGradient>
        <linearGradient x1="50%" y1="100%" x2="50%" y2="0%" id="linearGradient-6">
            <stop stop-color="#FFF4BD" offset="0%"></stop>
            <stop stop-color="#FFCA44" offset="100%"></stop>
        </linearGradient>
        <linearGradient x1="50%" y1="88.4174972%" x2="50%" y2="-7.12435118%" id="linearGradient-7">
            <stop stop-color="#FFCA45" offset="0%"></stop>
            <stop stop-color="#FFFFFF" offset="100%"></stop>
        </linearGradient>
        <linearGradient x1="50%" y1="50%" x2="-2.85857652%" y2="68.5255196%" id="linearGradient-8">
            <stop stop-color="#FFCA47" offset="0%"></stop>
            <stop stop-color="#FFF0B2" offset="100%"></stop>
        </linearGradient>
        <linearGradient x1="90.4895802%" y1="99.2126724%" x2="4.99174114%" y2="19.1905785%" id="linearGradient-9">
            <stop stop-color="#FF8B28" offset="0%"></stop>
            <stop stop-color="#EFBC48" offset="100%"></stop>
        </linearGradient>
        <ellipse id="path-10" cx="75.5428571" cy="75" rx="75.4571429" ry="75"></ellipse>
        <path d="M62,78 C96.2416545,78 124,64.9379779 124,48.825157 C124,32.7123362 96.3671462,0 62.1254917,0 C27.8838372,0 0,32.7123362 0,48.825157 C0,64.9379779 27.7583455,78 62,78 Z" id="path-12"></path>
        <linearGradient x1="50%" y1="65.2392904%" x2="50%" y2="-27.1732481%" id="linearGradient-14">
            <stop stop-color="#FFA028" offset="0%"></stop>
            <stop stop-color="#EFC248" offset="100%"></stop>
        </linearGradient>
        <linearGradient x1="50%" y1="100%" x2="50%" y2="0%" id="linearGradient-15">
            <stop stop-color="#FFC943" offset="0%"></stop>
            <stop stop-color="#FFF8C9" offset="100%"></stop>
        </linearGradient>
        <linearGradient x1="101.857305%" y1="66.5919576%" x2="-9.10728217%" y2="37.4064986%" id="linearGradient-16">
            <stop stop-color="#FF8426" offset="0%"></stop>
            <stop stop-color="#FFDE91" offset="100%"></stop>
        </linearGradient>
        <linearGradient x1="0%" y1="23.4157987%" x2="100%" y2="100.842699%" id="linearGradient-17">
            <stop stop-color="#FFCC4A" offset="0%"></stop>
            <stop stop-color="#FFF2B7" offset="100%"></stop>
        </linearGradient>
        <linearGradient x1="50%" y1="100%" x2="50%" y2="41.1856105%" id="linearGradient-18">
            <stop stop-color="#FDD25D" offset="0%"></stop>
            <stop stop-color="#FFFFFF" stop-opacity="0" offset="100%"></stop>
        </linearGradient>
    </defs>
    <g id="百科" stroke="none" stroke-width="1" fill="none" fill-rule="evenodd">
        <g id="百科活动缺省页" transform="translate(-788.000000, -979.000000)">
            <g id="编组-11" transform="translate(788.000000, 979.000000)">
                <g id="编组-10">
                    <g id="编组-21">
                        <path d="M35.5909091,16 C42.8189866,16 49.2789429,19.2438432 53.5560641,24.3361203 C54.4943518,24.161626 55.4636212,24.0701754 56.4545454,24.0701754 C65.040063,24.0701754 72,30.9351426 72,39.4035088 C72,47.8718749 65.040063,54.736842 56.4545454,54.736842 C55.2520179,54.736842 54.081381,54.6021643 52.9572927,54.3472667 C48.6892747,59.0447367 42.4899856,62 35.5909091,62 C28.7606084,62 22.6162127,59.1033641 18.3514886,54.4875703 C17.4422263,54.6512753 16.5039712,54.736842 15.5454546,54.736842 C6.95993713,54.736842 0,47.8718749 0,39.4035088 C0,30.9351426 6.95993713,24.0701754 15.5454546,24.0701754 C16.2845322,24.0701754 17.0115636,24.1210482 17.7231456,24.2194373 C22.0022496,19.1941574 28.4184013,16 35.5909091,16 Z" id="形状结合" fill="url(#linearGradient-1)" fill-rule="nonzero"></path>
                        <path d="M233.420455,0 C243.660231,0 252.811836,4.65420986 258.871091,11.9605205 C260.200332,11.7101591 261.573463,11.5789473 262.977273,11.5789473 C275.140089,11.5789473 285,21.4286829 285,33.5789474 C285,45.7292118 275.140089,55.5789472 262.977273,55.5789472 C261.273692,55.5789472 259.61529,55.3857141 258.022831,55.0199914 C251.976473,61.7598396 243.194146,66 233.420455,66 C223.744195,66 215.039635,61.8439572 208.997942,55.2212965 C207.709821,55.4561776 206.380626,55.5789472 205.022727,55.5789472 C192.859911,55.5789472 183,45.7292118 183,33.5789474 C183,21.4286829 192.859911,11.5789473 205.022727,11.5789473 C206.069754,11.5789473 207.099715,11.6519387 208.10779,11.7931057 C214.169854,4.58292154 223.259402,0 233.420455,0 Z" id="形状结合备份" fill="url(#linearGradient-2)" fill-rule="nonzero"></path>
                        <ellipse id="椭圆形" fill="#6F7D8F" fill-rule="nonzero" opacity="0.300000012" style="mix-blend-mode: multiply;" cx="155" cy="254" rx="131" ry="11"></ellipse>
                        <path d="M39,104 C39.9664984,104 40.75,104.783502 40.75,105.75 L40.75,109.25 L44.25,109.25 C45.2164984,109.25 46,110.033502 46,111 C46,111.966498 45.2164984,112.75 44.25,112.75 L40.75,112.75 L40.75,116.25 C40.75,117.216498 39.9664984,118 39,118 C38.0335016,118 37.25,117.216498 37.25,116.25 L37.25,112.75 L33.75,112.75 C32.7835016,112.75 32,111.966498 32,111 C32,110.033502 32.7835016,109.25 33.75,109.25 L37.25,109.25 L37.25,105.75 C37.25,104.783502 38.0335016,104 39,104 Z" id="形状结合" fill="url(#linearGradient-3)" fill-rule="nonzero"></path>
                        <path d="M23.8179778,151.04996 C20.504269,151.04996 17.8179778,153.736251 17.8179778,157.04996 C17.8179778,160.363668 20.504269,163.04996 23.8179778,163.04996 C27.1316866,163.04996 29.8179778,160.363668 29.8179778,157.04996 C29.8179778,153.736251 27.1316866,151.04996 23.8179778,151.04996 Z M24.3179778,153.04996 C26.2509741,153.04996 27.8179778,154.616963 27.8179778,156.54996 C27.8179778,158.482956 26.2509741,160.04996 24.3179778,160.04996 C22.3849815,160.04996 20.8179778,158.482956 20.8179778,156.54996 C20.8179778,154.616963 22.3849815,153.04996 24.3179778,153.04996 Z" id="椭圆形" fill="url(#linearGradient-4)" fill-rule="nonzero"></path>
                        <path d="M279.563018,120.563018 C280.313707,119.812328 281.530818,119.812327 282.281509,120.563018 L285,123.281509 L287.718491,120.563018 C288.469181,119.812328 289.686292,119.812327 290.436982,120.563018 C291.187673,121.313708 291.187672,122.530819 290.436982,123.281509 L287.718491,126 L290.436982,128.718491 C291.187673,129.469182 291.187672,130.686293 290.436982,131.436982 C289.686293,132.187672 288.469182,132.187673 287.718491,131.436982 L285,128.718491 L282.281509,131.436982 C281.530819,132.187672 280.313708,132.187673 279.563018,131.436982 C278.812327,130.686292 278.812328,129.469181 279.563018,128.718491 L282.281509,126 L279.563018,123.281509 C278.812327,122.530818 278.812328,121.313707 279.563018,120.563018 Z" id="形状结合备份-2" fill="url(#linearGradient-5)" fill-rule="nonzero"></path>
                        <path d="M265,191 L41,191 L71.3042961,91.90048 C72.1947652,88.9877867 74.876543,87 77.9136787,87 L228.086322,87 C231.123454,87 233.805235,88.9877867 234.695704,91.90048 L265,191 Z" id="Fill-3" fill="url(#linearGradient-6)" fill-rule="nonzero"></path>
                        <path d="M51,183.540541 L76.8988842,99.8138814 C77.7837289,96.9526595 80.4485681,95 83.4672077,95 L222.532793,95 C225.551432,95 228.216271,96.9526595 229.101116,99.8138814 L255,183.540541 L242.996202,221 L61.6305032,221 L51,183.540541 Z" id="Fill-5" fill="url(#linearGradient-7)" fill-rule="nonzero"></path>
                        <path d="M214,126 C247.434611,120.002496 268.102375,115.440067 273.327382,77.0749864 C273.636611,74.8044402 272.383289,71.5892793 270.206276,70.9698108 C259.837341,68.0193307 247.207125,87.0091225 268.083201,85.8807529 C291.398275,84.6205535 275.618575,69.6885944 306,70.0049555" id="路径-27" stroke="url(#linearGradient-8)" stroke-width="2" stroke-linecap="round" stroke-dasharray="3"></path>
                        <path d="M53.7276292,65.4888485 C55.1147596,66.0842572 55.9285076,66.5770099 56.9489406,67.1380734 C57.9033245,67.6873282 58.8471663,68.2397795 59.7554966,68.8239189 C61.5903953,69.9748432 63.3494699,71.1942376 65.0624166,72.4785559 C68.4883346,75.0371792 71.709597,77.8688816 74.6630489,80.9527895 C77.6010872,84.0750284 80.213652,87.5306265 82.388051,91.195489 C84.529762,94.9130151 86.0424339,98.9604413 86.9575717,102.99076 C87.1555951,103.851218 86.6410837,104.726708 85.8179097,104.949021 C85.2141875,105.110249 84.6123957,104.87795 84.2544329,104.408902 L84.1809355,104.311122 C81.9148245,101.33079 79.3736249,98.8340838 76.5142345,96.8268018 C73.6135679,94.8593235 70.5663759,93.2810077 67.3785219,92.0436865 C64.1608975,90.8399505 60.8707395,89.9228973 57.5406413,89.2799159 C55.8799108,88.9548419 54.2036885,88.6981363 52.5483277,88.525154 C51.7182965,88.4211843 50.900589,88.3680526 50.0876826,88.309827 C49.3379052,88.282487 48.3746869,88.2079862 47.960723,88.3116767 C41.3410626,89.9986862 34.7790854,85.7822701 33.2983361,78.8927117 C31.8194922,72.0071231 35.9823667,65.0554106 42.601062,63.3714223 C45.2266937,62.7026322 47.8414121,62.9622004 50.1354377,63.9475324 L53.7276292,65.4888485 Z" id="Fill-3" fill="url(#linearGradient-9)" fill-rule="nonzero"></path>
                        <circle id="椭圆形" fill="#FFCA45" fill-rule="nonzero" cx="168" cy="168" r="4"></circle>
                        <g id="编组-4" transform="translate(78.000000, 51.000000)">
                            <g id="路径-18">
                                <mask id="mask-11" fill="white">
                                    <use xlink:href="#path-10"></use>
                                </mask>
                                <use id="蒙版" fill="#739EE5" xlink:href="#path-10"></use>
                                <path d="M0,75 C22.1475302,106.333333 45.0889977,122 68.8244024,122 C104.42751,122 123.835803,116.432992 146,75 C143.939859,137.438066 123.007768,168.770989 83.2037245,168.998767 C43.3996814,169.226545 15.6651065,137.893623 0,75 Z" id="路径-21" fill="#6692DB" mask="url(#mask-11)"></path>
                                <path d="M27.3230014,17.3913043 C28.8364323,17.4206512 28.8364323,21.9824339 27.3230014,31.0766527 C25.052855,44.7179809 57.8754523,60.7993123 68.8900041,60.7993123 C79.9045559,60.7993123 36.5637182,78.5024314 18.0813723,70.1538754 C5.75980844,64.5881715 -1.21450621,64.5881715 -2.84157159,70.1538754 C-3.6283369,37.5318218 -3.00767485,20.5825466 -0.979585436,19.3060497 C1.04850397,18.0295528 10.4826996,17.3913043 27.3230014,17.3913043 Z" id="路径-19" fill="#B0EACD" mask="url(#mask-11)"></path>
                                <path d="M121.806073,15.2173913 C110.573293,31.4535435 109.372366,42.4260214 118.203292,48.1348252 C127.034217,53.843629 123.128358,57.5225809 106.485714,59.1716808 C113.22231,70.7760674 121.334469,74.6387261 130.82219,70.7596568 C140.309911,66.8805876 150.491703,66.8805876 161.367565,70.7596568 L167.285714,15.2173913 L121.806073,15.2173913 Z" id="路径-22" fill="#B0EACD" mask="url(#mask-11)"></path>
                            </g>
                            <g id="路径-25" transform="translate(12.000000, 7.000000)">
                                <mask id="mask-13" fill="white">
                                    <use xlink:href="#path-12"></use>
                                </mask>
                                <use id="蒙版" fill="#FFFFFF" xlink:href="#path-12"></use>
                                <path d="M35.9822885,-10.8616591 C31.1585582,-1.41142368 29.8374915,5.05164606 32.0190883,8.5275501 C35.2914836,13.7414062 92.9483263,23.9937633 92.9483263,8.5275501 C92.9483263,2.47788905 93.7862356,-6.05242478 88.7138128,-10.8616591 C86.3319335,-13.1199518 80.3761299,-15.1660654 70.846402,-17 L38.6496273,-13.4165068 L35.9822885,-10.8616591 Z" fill="#B0EACD" mask="url(#mask-13)"></path>
                            </g>
                            <g id="编组-3" transform="translate(50.000000, 94.000000)">
                                <g id="编组-2" transform="translate(10.000000, 11.500000) rotate(-85.000000) translate(-10.000000, -11.500000) translate(0.000000, 3.000000)">
                                    <path d="M17.9005366,4 C17.335845,11.1618166 13.0356661,13.8118092 5,11.9499779 C7.17205,15.6694496 8.9070711,17.3343061 10.2050633,16.9445473 C11.5030555,16.5547886 14.0682133,15.8787353 17.9005366,14.9163875 L20,10.5 L20,5.903217 L17.9005366,4 Z" id="路径-24" fill="#6692DB"></path>
                                    <path d="M0,0 C4.09438369,12.8970984 9.07100404,18.4558815 14.9298611,16.6763493 C20.7887181,14.896817 21.5698732,10.1429237 17.2733264,2.41466944" id="路径-23" stroke="#333333" stroke-width="2" stroke-linecap="round"></path>
                                </g>
                                <g id="编组-2备份" transform="translate(42.000000, 11.500000) scale(-1, 1) rotate(-85.000000) translate(-42.000000, -11.500000) translate(32.000000, 3.000000)">
                                    <path d="M17.9005366,4 C17.335845,11.1618166 13.0356661,13.8118092 5,11.9499779 C7.17205,15.6694496 8.9070711,17.3343061 10.2050633,16.9445473 C11.5030555,16.5547886 14.0682133,15.8787353 17.9005366,14.9163875 L20,10.5 L20,5.903217 L17.9005366,4 Z" id="路径-24" fill="#6692DB"></path>
                                    <path d="M0,0 C4.09438369,12.8970984 9.07100404,18.4558815 14.9298611,16.6763493 C20.7887181,14.896817 21.5698732,10.1429237 17.2733264,2.41466944" id="路径-23" stroke="#333333" stroke-width="2" stroke-linecap="round"></path>
                                </g>
                            </g>
                            <path d="M119.713823,60.0006475 C124.245637,60.7487069 122.292255,68.4108616 114.713823,65.3933244 C109.661534,63.3816329 104.329157,63.3816329 98.7166926,65.3933244 C88.213448,69.21478 84.7718046,67.417221 88.3917623,60.0006475 C93.8216989,48.8757872 98.7940541,56.7515744 107.336326,58.3757872 C115.878598,60 115.182008,59.2525881 119.713823,60.0006475 Z" id="路径-40备份" fill="#91D5FF"></path>
                            <path d="M67.7138226,61.8457686 C72.245637,62.593828 70.2922554,70.2559826 62.7138226,67.2384455 C57.6615341,65.226754 52.3291574,65.226754 46.7166926,67.2384455 C36.213448,71.0599011 32.7718046,69.2623421 36.3917623,61.8457686 C41.8216989,50.7209083 46.7940541,58.5966955 55.3363261,60.2209083 C63.8785981,61.8451211 63.1820082,61.0977092 67.7138226,61.8457686 Z" id="路径-40备份-2" fill="#91D5FF" transform="translate(52.563476, 62.593828) scale(-1, 1) translate(-52.563476, -62.593828) "></path>
                            <g id="编组" transform="translate(53.000000, 37.000000)">
                                <ellipse id="椭圆形" fill="#333333" cx="9" cy="13.5" rx="9" ry="13.5"></ellipse>
                                <ellipse id="椭圆形" fill="#FFFFFF" cx="12" cy="10" rx="4" ry="5"></ellipse>
                                <circle id="椭圆形" fill="#FFFFFF" cx="7.5" cy="20.5" r="2.5"></circle>
                            </g>
                            <g id="编组备份" transform="translate(82.000000, 37.000000)">
                                <ellipse id="椭圆形" fill="#333333" cx="9" cy="13.5" rx="9" ry="13.5"></ellipse>
                                <ellipse id="椭圆形" fill="#FFFFFF" cx="12" cy="10" rx="4" ry="5"></ellipse>
                                <circle id="椭圆形" fill="#FFFFFF" cx="7.5" cy="20.5" r="2.5"></circle>
                            </g>
                            <path d="M70.1269513,75 C78.0423171,72.5324596 83.6666667,72.5324596 87,75" id="路径-125" stroke="#333333" stroke-width="2" stroke-linecap="round"></path>
                        </g>
                        <circle id="椭圆形" fill="url(#linearGradient-14)" fill-rule="nonzero" cx="75" cy="132" r="15"></circle>
                        <path d="M203.75748,155.717263 L198.782237,185.334684 C198.227823,188.633947 195.351629,191.052631 191.980324,191.052631 L114.019676,191.052631 C110.649061,191.052631 107.772177,188.633947 107.217764,185.334684 L102.242521,155.717263 C101.688107,152.418 98.811913,150 95.4406083,150 L45.8957379,150 C41.9093373,150 38.7531783,153.343737 39.0152146,157.290947 L45.0034351,247.606737 C45.2420261,251.203632 48.2513069,254 51.8839583,254 L254.116042,254 C257.748693,254 260.758663,251.203632 260.996565,247.606737 L266.984785,157.290947 C267.246822,153.343737 264.090663,150 260.104262,150 L210.559392,150 C207.188777,150 204.311894,152.418 203.75748,155.717263" id="Fill-1" fill="url(#linearGradient-15)" fill-rule="nonzero"></path>
                        <path d="M224.037465,147.206004 C228.046005,145.833502 232.099991,145.180446 236.370364,145.026596 C240.615356,144.890578 245.013688,145.267652 249.372615,146.357039 C253.708944,147.439314 258.133192,149.019083 262.217481,151.336922 C266.416782,153.536863 270.221021,156.420871 273.922513,159.563259 L274.35621,159.930531 C279.757605,164.513114 280.563954,172.724291 276.159621,178.270536 C271.755289,183.816781 263.809992,184.597654 258.408597,180.01507 C256.830002,178.678035 255.62182,176.969463 254.845051,175.17137 C253.609359,172.287919 252.237291,169.30448 250.364365,166.678169 C248.581869,163.914137 246.317151,161.512689 243.759388,159.242234 C241.19211,156.972535 238.208028,155.081012 234.947113,153.533839 C231.714349,151.991364 228.07192,150.820564 224.501123,150.289995 L224.315961,150.262109 C223.481348,150.137236 222.899053,149.339584 223.014616,148.47881 C223.095631,147.86706 223.507302,147.389389 224.037465,147.206004" id="Fill-1" fill="url(#linearGradient-16)" fill-rule="nonzero"></path>
                        <g id="编组-4" transform="translate(320.000000, 48.500000) scale(-1, 1) translate(-320.000000, -48.500000) translate(296.000000, 31.000000)" fill-rule="nonzero">
                            <polygon id="路径-18" fill="url(#linearGradient-17)" points="0 0 11.046449 31.4219292 24 25.4093861 35.4492497 35 35.4492497 20.1981081 48 15.3300799"></polygon>
                            <polygon id="路径-19" fill="#FF9B41" points="0 0 35 20.1981081 35 35 26.6473563 23.8255297"></polygon>
                        </g>
                    </g>
                    <polygon id="路径-32" fill="url(#linearGradient-18)" fill-rule="nonzero" points="93.6714283 204 47 110 289 110 243.713392 203.999999"></polygon>
                </g>
            </g>
        </g>
    </g>
</svg>