<?xml version="1.0" encoding="UTF-8"?>
<svg width="20px" height="20px" viewBox="0 0 20 20" version="1.1" xmlns="http://www.w3.org/2000/svg" xmlns:xlink="http://www.w3.org/1999/xlink">
    <!-- Generator: Sketch 58 (84663) - https://sketch.com -->
    <title>添加</title>
    <desc>Created with Sketch.</desc>
    <g id="百科" stroke="none" stroke-width="1" fill="none" fill-rule="evenodd">
        <g id="百科闲聊缺省页备份" transform="translate(-634.000000, -1504.000000)" fill-rule="nonzero">
            <g id="编组-13备份" transform="translate(617.000000, 1496.000000)">
                <g id="编组-11" transform="translate(16.000000, 7.000000)">
                    <g id="添加-2">
                        <g id="添加">
                            <rect id="矩形" fill="#000000" opacity="0" x="0" y="0" width="22" height="22"></rect>
                            <path d="M17.6932091,1.33203125 L4.30679087,1.33203125 C2.6638765,1.33203125 1.33203125,2.6638765 1.33203125,4.30679087 L1.33203125,17.6932091 C1.33203125,19.3361235 2.6638765,20.6679687 4.30679087,20.6679687 L17.6932091,20.6679687 C19.3361235,20.6679687 20.6679687,19.3361235 20.6679687,17.6932091 L20.6679687,4.30679087 C20.6679687,2.6638765 19.3361235,1.33203125 17.6932091,1.33203125 L17.6932091,1.33203125 Z M19.1805889,17.6932091 C19.1805889,18.5146663 18.5146663,19.1805889 17.6932091,19.1805889 L4.30679087,19.1805889 C3.48533369,19.1805889 2.81941106,18.5146663 2.81941106,17.6932091 L2.81941106,4.30679087 C2.81941106,3.48533369 3.48533369,2.81941106 4.30679087,2.81941106 L17.6932091,2.81941106 C18.5146663,2.81941106 19.1805889,3.48533369 19.1805889,4.30679087 L19.1805889,17.6932091 Z" id="形状" fill="#568ED0"></path>
                            <polygon id="路径" fill="#568ED0" points="5.79417067 10.2563101 16.2058293 10.2563101 16.2058293 11.7436899 5.79417067 11.7436899"></polygon>
                            <polygon id="路径" fill="#568ED0" points="10.2563101 5.79417067 11.7436899 5.79417067 11.7436899 16.2058293 10.2563101 16.2058293"></polygon>
                        </g>
                    </g>
                </g>
            </g>
        </g>
    </g>
</svg>