<?xml version="1.0" encoding="UTF-8"?>
<svg width="18px" height="18px" viewBox="0 0 18 18" version="1.1" xmlns="http://www.w3.org/2000/svg" xmlns:xlink="http://www.w3.org/1999/xlink">
    <!-- Generator: Sketch 58 (84663) - https://sketch.com -->
    <title>73删减备份</title>
    <desc>Created with Sketch.</desc>
    <g id="活动版块" stroke="none" stroke-width="1" fill="none" fill-rule="evenodd">
        <g id="报名表" transform="translate(-788.000000, -525.000000)" fill-rule="nonzero">
            <g id="73删减备份-2" transform="translate(787.000000, 524.000000)">
                <g id="73删减备份">
                    <rect id="矩形" fill="#000000" opacity="0" x="0" y="0" width="20" height="20"></rect>
                    <path d="M9.98972656,17.2678516 C5.97230469,17.2678516 2.70375,14.0044531 2.70375,9.99314453 C2.70375,5.98193359 5.97230469,2.7184375 9.98972656,2.7184375 C14.0072656,2.7184375 17.2757031,5.98193359 17.2757031,9.99314453 C17.2757031,14.0044727 14.0072656,17.2678516 9.98972656,17.2678516 M9.98972656,1.26353516 C5.16863281,1.26353516 1.24658203,5.17951172 1.24658203,9.99316406 C1.24658203,14.8068359 5.16863281,18.722793 9.98972656,18.722793 C14.8108594,18.722793 18.7328711,14.8068359 18.7328711,9.99316406 C18.7328711,5.17951172 14.8108398,1.26353516 9.98972656,1.26353516 M12.9198633,9.27689453 L7.09117187,9.27689453 C6.68873047,9.27689453 6.36253906,9.60257812 6.36253906,10.0043164 C6.36253906,10.4061523 6.68873047,10.7318359 7.09117187,10.7318359 L12.9198633,10.7318359 C13.3223242,10.7318359 13.6485156,10.4061523 13.6485156,10.0043164 C13.6485156,9.60257812 13.3223242,9.27689453 12.9198633,9.27689453" id="形状" fill="#4895EF"></path>
                </g>
            </g>
        </g>
    </g>
</svg>