<svg class="icon" style="width: 1.0673828125em; height: 1em;vertical-align: middle;fill: currentColor;overflow: hidden;" viewBox="0 0 1093 1024" version="1.1" xmlns="http://www.w3.org/2000/svg"><path d="M1025.92452 0H67.700603A67.700603 67.700603 0 0 0 0 67.700603v649.795594a67.700603 67.700603 0 0 0 67.700603 67.700602h101.550904v216.928355a21.872502 21.872502 0 0 0 37.339486 15.466984l232.395339-232.395339H1025.92452a67.700603 67.700603 0 0 0 67.700603-67.700602V67.700603A67.700603 67.700603 0 0 0 1025.92452 0z m23.929559 717.496197a23.955598 23.955598 0 0 1-23.929559 23.929559H429.820712a21.872502 21.872502 0 0 0-15.466984 6.405518l-201.461371 201.461371v-185.994387a21.872502 21.872502 0 0 0-21.872502-21.872502H67.700603a23.981637 23.981637 0 0 1-23.929559-23.929559V67.700603a23.981637 23.981637 0 0 1 23.929559-23.955598h958.223917a23.955598 23.955598 0 0 1 23.929559 23.929559z m0 0"  /><path d="M292.518682 301.970727a91.135427 91.135427 0 1 0 91.135427 91.135427 91.317698 91.317698 0 0 0-91.135427-91.135427z m0 137.640534a46.42699 46.42699 0 1 1 46.453029-46.426991 46.479068 46.479068 0 0 1-46.453029 46.426991z m0 0"  /><path d="M801.106441 301.970727a91.135427 91.135427 0 1 0 91.135427 91.135427 91.317698 91.317698 0 0 0-91.135427-91.135427z m0 137.640534a46.42699 46.42699 0 1 1 46.42699-46.426991 46.479068 46.479068 0 0 1-46.42699 46.426991z m0 0"  /><path d="M546.786523 301.970727a91.135427 91.135427 0 1 0 91.135427 91.135427 91.317698 91.317698 0 0 0-91.135427-91.135427z m0 137.640534a46.42699 46.42699 0 1 1 46.453029-46.426991 46.505106 46.505106 0 0 1-46.453029 46.426991z m0 0"  /></svg>