<svg class="icon" style="width: 1.796875em; height: 1em;vertical-align: middle;fill: currentColor;overflow: hidden;" viewBox="0 0 1840 1024" version="1.1" xmlns="http://www.w3.org/2000/svg"><path d="M1720.781955 873.094737l-11.933835-44.655639s-51.969925-98.935338-54.279699-103.554887c-2.309774-4.619549 6.929323-23.482707 6.929323-23.482707 37.726316-136.661654 25.792481-200.180451 25.792482-200.180451-25.407519-113.178947-75.452632-147.825564-77.377444-149.365414-1.924812-1.154887-3.849624-2.309774-5.389474-3.849624-164.378947-105.479699-373.413534-152.830075-555.115789-60.439098 13.088722 26.177444 37.341353 95.085714 11.16391 204.8 0 0-26.947368 108.944361-81.996993 168.998497-36.186466 39.266165-76.222556 66.598496-99.705263 80.842105 12.703759 18.863158 27.332331 37.341353 43.115789 54.279699 8.854135 9.239098 18.093233 18.093233 27.717294 26.177444 13.858647 10.393985 38.111278 24.637594 78.53233 38.49624 75.452632 25.792481 155.524812 28.102256 223.663158 25.792481 60.054135-1.924812 167.458647-29.642105 177.852632-33.106766h-1.53985c2.694737-0.384962 3.079699-0.384962 1.53985 0 5.004511-0.384962 22.712782-3.079699 59.669173-18.863158 44.655639-18.863158 82.381955-6.929323 82.381955-6.929324s68.138346 40.03609 112.793985 58.899248c45.425564 19.24812 36.186466-13.858647 36.186466-13.858646z m-372.643609-166.688722c-9.239098 7.314286-18.478195 15.013534-27.717293 22.32782-4.619549 3.464662-10.009023 6.159398-15.783459 5.004511-3.464662-0.769925-6.544361-3.079699-9.239098-5.389474-16.553383-13.858647-31.95188-29.642105-48.890225-43.115789-36.956391-29.642105-72.757895-62.36391-99.705263-101.630075-11.933835-17.323308-21.557895-36.186466-26.562406-56.589474-7.699248-33.106767-0.769925-71.603008 24.252631-95.855639 25.407519-25.022556 66.983459-30.41203 100.090226-20.78797 13.088722 3.849624 25.407519 10.009023 35.416541 19.24812 7.314286 6.544361 13.473684 14.628571 18.478195 22.712782 2.694737 4.234586 13.858647 21.172932 12.318797 25.792481 7.699248-23.097744 20.403008-45.425564 38.881203-61.978947 25.792481-23.097744 64.288722-17.708271 95.085715-8.854135 33.491729 9.62406 51.969925 47.350376 56.204511 81.227067 12.318797 99.320301-85.461654 165.148872-152.830075 217.888722z" fill="#F29797" /><path d="M1723.091729 875.404511l-11.933834-44.655639s-51.969925-98.935338-54.2797-103.554887c-2.309774-4.619549 6.929323-23.482707 6.929324-23.482707 37.726316-136.661654 25.792481-200.180451 25.792481-200.180451-25.407519-113.178947-75.452632-147.825564-77.377444-149.365413-1.154887-0.769925-1.924812-1.53985-3.079699-1.924812 16.938346 22.32782 38.111278 60.82406 52.354887 123.187969 0 0 11.933835 63.518797-25.792481 200.180452 0 0-9.239098 18.863158-6.929323 23.482706 2.309774 4.619549 54.279699 103.554887 54.279699 103.554888l11.933835 44.655639s9.239098 33.106767-35.416542 14.243609c-44.655639-18.863158-112.793985-58.899248-112.793985-58.899248s-37.726316-11.933835-82.381955 6.929323c-37.341353 15.783459-54.664662 18.478195-59.669172 18.863158-10.393985 3.464662-117.798496 30.796992-177.852632 33.106767-68.138346 2.309774-148.210526 0-223.663158-25.792482-40.03609-13.858647-64.288722-28.102256-78.532331-38.49624-1.924812-1.924812-4.234586-3.464662-6.159398-5.389474 2.309774 2.309774 4.619549 5.004511 6.929323 7.314286 8.854135 9.239098 18.093233 18.093233 27.717293 26.177443 13.858647 10.393985 38.111278 24.637594 78.532331 38.496241 75.452632 25.792481 155.524812 28.102256 223.663158 25.792481 60.054135-1.924812 167.458647-29.642105 177.852632-33.106767h-1.53985c2.694737-0.384962 3.079699-0.384962 1.53985 0 5.004511-0.384962 22.712782-3.079699 59.669173-18.863158 44.655639-18.863158 82.381955-6.929323 82.381954-6.929323s68.138346 40.03609 112.793985 58.899248c44.270677 18.863158 35.031579-14.243609 35.031579-14.243609z" fill="#E57070" /><path d="M1402.803008 828.439098h1.539849c1.53985-0.384962 1.154887-0.384962-1.539849 0z" fill="#E57070" /><path d="M1314.261654 903.121805c-5.774436 0-10.778947-4.234586-11.548872-10.009023-0.769925-6.544361 3.464662-12.318797 10.009023-13.473684 58.514286-8.469173 120.493233-23.867669 183.627067-45.425564 21.557895-7.314286 45.810526-15.783459 72.757895-5.774436 11.933835 4.619549 24.637594 10.393985 40.03609 18.478195 5.774436 3.079699 8.084211 10.009023 5.004511 15.783459-3.079699 5.774436-10.009023 8.084211-15.783458 5.004511-14.628571-7.699248-26.177444-13.088722-37.341354-17.323308-17.708271-6.544361-33.876692-1.924812-56.974436 5.774436-64.673684 22.32782-127.807519 37.726316-187.861654 46.580451-0.769925 0-1.53985 0.384962-1.924812 0.384963z" fill="#493B4E" /><path d="M1257.287218 909.281203c-6.159398 0-11.16391-4.619549-11.548872-10.778947-0.384962-6.544361 4.234586-11.933835 10.778947-12.70376 11.16391-0.769925 22.712782-1.924812 33.876692-3.079699 6.544361-0.769925 12.318797 3.849624 13.088722 10.393985 0.769925 6.544361-3.849624 12.318797-10.393985 13.088722-11.933835 1.53985-23.482707 2.309774-35.031579 3.464661-0.384962-0.384962-0.769925-0.384962-0.769925-0.384962zM1194.153383 910.821053c-65.058647-1.154887-126.267669-11.548872-181.702255-31.566918-59.284211-21.172932-117.028571-68.908271-162.454136-134.736842l-6.929323-10.009022 10.009023-6.544361c20.78797-13.473684 60.82406-41.960902 95.855639-83.15188 51.584962-60.054135 75.837594-169.768421 76.222556-170.923308 23.097744-110.869173-2.694737-179.007519-15.013534-202.875188l-5.004511-10.009023 10.009023-5.389473c105.864662-58.129323 230.977444-71.603008 361.479699-39.651128 6.159398 1.53985 10.009023 8.084211 8.469173 14.243609-1.53985 6.159398-8.084211 10.009023-14.243609 8.469173-120.878195-29.642105-236.366917-18.478195-334.917293 32.336842 14.243609 32.721805 34.261654 102.784962 12.318797 208.264661-1.154887 4.619549-25.792481 116.643609-81.227068 181.317294-31.181955 36.186466-65.058647 63.133835-90.851128 80.842105 41.57594 56.589474 92.006015 97.780451 143.97594 116.258647 53.124812 18.863158 111.639098 28.87218 174.003007 30.027067 6.544361 0 11.548872 5.389474 11.548873 11.933835 0 6.159398-5.004511 11.16391-11.548873 11.16391zM1708.078195 914.285714c-10.778947 0-21.172932-3.464662-30.796992-6.929323-6.159398-2.309774-9.239098-9.239098-6.929323-15.013534 2.309774-6.159398 9.239098-9.239098 15.013534-6.929323 8.084211 3.079699 16.938346 6.159398 25.407518 5.389474 2.694737-0.384962 5.004511-1.154887 6.159399-1.924813 2.694737-2.309774 3.849624-8.084211 3.079699-14.628571-6.929323-42.345865-29.642105-81.61203-51.2-119.338346-2.694737-4.619549-5.389474-9.239098-7.699248-13.473684-1.924812-3.464662-4.234586-7.699248-5.389474-13.088722-1.154887-7.314286 1.154887-13.858647 2.694737-18.863158 11.16391-33.491729 17.323308-65.828571 23.482707-99.705263 1.924812-9.62406 3.464662-20.018045 5.774436-30.027068 6.544361-89.696241-18.478195-167.843609-70.44812-219.813533-12.318797-12.318797-25.792481-23.097744-41.190978-32.336842-47.735338-30.796992-97.395489-54.664662-147.825564-71.98797-6.159398-2.309774-9.239098-8.854135-7.314285-15.013534 2.309774-6.159398 8.854135-9.239098 15.013533-7.314286 51.969925 18.093233 103.169925 42.730827 152.445113 73.52782 16.553383 10.393985 31.566917 22.32782 45.040602 35.801503 56.974436 56.974436 84.306767 142.051128 77.377443 239.061654v1.53985c-1.924812 10.393985-3.849624 20.78797-5.774436 30.41203-6.159398 34.646617-12.318797 67.753383-24.252631 103.169925-0.769925 2.309774-1.924812 5.774436-1.53985 7.699248 0.384962 1.154887 1.53985 3.464662 2.309774 5.389474 2.694737 4.619549 5.004511 8.854135 7.699249 13.473684 22.712782 39.651128 46.195489 80.842105 53.894736 127.422556 2.694737 15.398496-1.924812 29.257143-11.548872 36.956391-5.004511 3.849624-11.16391 6.159398-18.478195 6.929324-1.924812-0.384962-3.464662-0.384962-5.004512-0.384963zM1639.169925 888.493233c-1.924812 0-3.849624-0.384962-5.389474-1.53985-5.389474-3.079699-10.778947-5.774436-16.553383-8.854135-6.159398-3.464662-12.703759-6.929323-19.248121-10.393985-5.774436-3.079699-8.084211-10.009023-5.004511-15.783458 3.079699-5.774436 10.009023-8.084211 15.783459-5.004512 6.544361 3.464662 13.088722 7.314286 19.633082 10.778948 5.389474 3.079699 10.778947 5.774436 16.168421 8.854135 5.774436 3.079699 7.699248 10.009023 5.004512 15.783459-1.924812 3.849624-6.159398 6.159398-10.393985 6.159398z" fill="#493B4E" /><path d="M598.231579 388.81203c9.62406-28.87218 25.407519-56.589474 48.505263-76.992481 32.336842-28.487218 79.687218-21.942857 117.798496-11.16391 41.190977 11.933835 64.673684 58.514286 70.063158 100.86015 15.398496 122.803008-105.864662 204.415038-189.786466 269.858647-11.548872 9.239098-23.097744 18.863158-34.646616 27.717293-5.389474 4.234586-12.703759 7.699248-19.248121 6.159399-4.234586-1.154887-8.084211-3.849624-11.548872-6.929323-20.78797-17.323308-39.651128-36.571429-60.82406-53.509775-45.810526-36.571429-90.466165-77.377444-123.957895-125.882707-14.628571-21.172932-26.947368-44.655639-32.721804-70.063158-9.62406-40.806015-1.154887-88.541353 30.027067-118.953383 31.566917-31.181955 83.15188-37.726316 124.342857-25.792481 16.168421 4.619549 31.566917 12.703759 43.885715 24.252631 8.854135 8.469173 16.553383 18.093233 23.097744 28.487218 2.694737 5.389474 16.938346 26.177444 15.013534 31.95188z" fill="#EA4747" /><path d="M224.818045 762.610526c0.384962 3.464662-0.384962 6.929323-1.154887 10.393985-12.318797 50.045113-13.858647 147.055639-13.858647 147.055639l37.726316-30.796992s15.013534-13.858647 31.566917-29.257143c19.24812-17.323308 40.806015-36.571429 45.810527-39.266165 9.239098-4.619549 49.275188-6.929323 49.275188-6.929324l94.315789 4.619549 80.072181-4.619549 46.965413-4.619549 61.209023-11.933834c35.416541-4.619549 108.174436-33.106767 108.174436-33.106767l70.44812-28.102256c33.106767-25.792481 68.138346-51.584962 68.138346-51.584962l33.106767-33.106767 42.345864-68.138346s33.106767-77.762406 42.345865-133.966917 0-80.07218 0-89.311278-4.619549-46.965414-23.482707-72.757895c-18.863158-25.792481-75.067669-71.218045-115.488721-98.935338C793.022556 127.037594 774.159398 129.347368 719.879699 112.793985s-112.409023-15.398496-112.409022-15.398496l-0.384963-0.769925c-1.154887 0-2.309774 0-3.849624 0.384962C446.941353 111.639098 302.965414 201.335338 194.790977 319.518797c-13.858647 15.013534-25.022556 30.796992-34.261654 47.350376-43.885714 77.762406-41.190977 170.153383-10.009022 256.384962 22.32782 44.270677 39.651128 85.461654 67.753383 126.652632 3.464662 3.464662 6.159398 7.699248 6.544361 12.703759z m168.228572-431.157894c31.181955-30.796992 82.381955-37.726316 123.187969-25.792482 16.168421 4.619549 31.181955 12.703759 43.500752 23.86767 8.854135 8.084211 16.553383 17.708271 22.712782 28.102255 3.079699 5.004511 16.938346 25.792481 15.013534 31.566917 9.239098-28.487218 25.407519-56.204511 47.735338-76.222556 31.95188-28.487218 79.302256-21.942857 117.028572-11.16391 41.190977 11.548872 64.288722 58.129323 69.293233 100.090226 15.398496 122.033083-105.094737 203.26015-187.861654 267.933834-11.548872 9.239098-22.712782 18.478195-34.261654 27.717294-5.389474 4.234586-12.318797 7.699248-19.248121 5.774436-4.234586-1.154887-8.084211-3.849624-11.548872-6.929324-20.403008-17.323308-39.266165-36.186466-60.439098-53.124812-45.425564-36.186466-89.696241-76.992481-122.803007-125.112782-14.628571-21.172932-26.562406-44.270677-32.721805-69.293233-8.854135-40.03609-0.384962-87.386466 30.412031-117.413533z" fill="#F29797" /><path d="M988.968421 277.557895c-7.314286-9.239098-15.783459-17.323308-24.637594-25.022557-11.16391-10.009023-22.712782-19.24812-34.261654-28.487218 1.154887 1.154887 2.309774 1.924812 3.464662 3.0797 8.854135 7.699248 17.323308 15.783459 24.637594 25.022556 51.2 65.828571 43.115789 158.989474 21.942857 234.442105-21.557895 76.992481-65.058647 158.219549-132.427068 204.8-143.590977 99.705263-330.682707 122.418045-501.990977 112.409023-24.637594-1.53985-47.350376-2.309774-68.138346 12.318797-23.097744 16.553383-43.115789 37.341353-63.90376 57.359398l-1.924812 44.270677 39.266166-32.336842 46.195488-41.57594 13.473685-11.933835s28.487218-11.548872 51.969924-3.464661c4.619549 0 8.854135 0.384962 13.858647 0.769925 171.308271 10.009023 358.4-12.703759 501.990978-112.409023C945.852632 669.834586 989.353383 588.992481 1010.911278 512c20.78797-75.452632 28.87218-168.613534-21.942857-234.442105z" fill="#E57070" /><path d="M1310.796992 478.508271c7.699248-23.097744 20.403008-45.425564 38.881203-61.978948 25.792481-23.097744 64.288722-17.708271 95.085715-8.854135 33.491729 9.62406 51.969925 47.350376 56.204511 81.227068 12.318797 99.320301-85.461654 165.148872-152.830075 217.888721-9.239098 7.314286-18.478195 15.013534-27.717293 22.32782-4.619549 3.464662-10.009023 6.159398-15.783459 5.004511-3.464662-0.769925-6.544361-3.079699-9.239098-5.389473-16.553383-13.858647-31.95188-29.642105-48.890225-43.11579-36.956391-29.642105-72.757895-62.36391-99.705263-101.630075-11.933835-17.323308-21.557895-36.186466-26.562406-56.589474-7.699248-33.106767-0.769925-71.603008 24.252631-95.855639 25.407519-25.022556 66.983459-30.41203 100.090226-20.78797 13.088722 3.849624 25.407519 10.009023 35.416541 19.248121 7.314286 6.544361 13.473684 14.628571 18.478195 22.712781 2.694737 4.234586 13.858647 21.172932 12.318797 25.792482z" fill="#EA4747" /><path d="M332.992481 179.777444c-4.234586 0-8.084211-1.924812-10.009022-5.774436-3.079699-5.774436-1.154887-12.703759 4.234586-16.168422 17.708271-10.393985 36.186466-20.018045 54.279699-28.102255 5.774436-2.694737 12.703759 0 15.783459 5.774436 2.694737 5.774436 0 12.703759-5.774436 15.783459-17.708271 8.084211-35.031579 17.323308-52.354887 27.33233-2.309774 0.769925-4.234586 1.154887-6.159399 1.154888z" fill="#493B4E" /><path d="M316.82406 189.401504c-3.849624 0-7.699248-1.924812-10.009022-5.774436-3.464662-5.389474-1.53985-12.703759 3.849624-16.168421 5.389474-3.464662 10.778947-6.544361 16.553383-9.624061s12.703759-1.154887 16.168421 4.234587c3.079699 5.774436 1.154887 12.703759-4.234586 16.168421-5.389474 3.079699-10.778947 6.159398-15.783459 9.62406-2.309774 1.154887-4.619549 1.53985-6.544361 1.53985zM181.317293 780.703759c-0.769925 0-1.924812 0-2.694737-0.384962-6.159398-1.53985-10.009023-8.084211-8.469173-14.243609 0.384962-2.309774 1.154887-5.004511 1.154888-6.544361-0.384962-1.924812-2.309774-5.004511-4.234587-7.699248-22.32782-32.721805-37.726316-64.673684-54.279699-98.550376-4.619549-9.62406-9.62406-19.633083-14.628571-29.642105l-0.384963-1.154887c-35.031579-97.395489-31.181955-191.711278 10.778947-266.393985 10.009023-17.708271 21.942857-34.261654 35.801504-49.660151C174.772932 273.323308 207.494737 242.526316 241.756391 215.578947c5.004511-3.849624 12.318797-3.079699 16.553383 1.924812 3.849624 5.004511 3.079699 12.318797-1.924812 16.553384-33.106767 26.562406-65.058647 56.204511-94.700751 88.541353-12.703759 13.858647-23.867669 29.257143-32.721805 45.040602-38.496241 68.138346-41.960902 155.524812-9.239098 245.990977 5.004511 10.009023 9.62406 19.633083 14.243609 29.257143 16.168421 33.106767 31.181955 64.288722 52.354888 95.470677 3.079699 4.234586 6.929323 10.393985 8.08421 18.093233 0.769925 5.774436-0.769925 10.778947-1.53985 14.628571-1.53985 5.774436-6.544361 9.62406-11.548872 9.62406zM157.834586 900.427068h-0.769924c-6.544361-0.384962-11.548872-5.774436-11.16391-12.318797 1.154887-19.24812 4.234586-40.03609 10.009022-65.058647 1.53985-6.159398 7.699248-10.393985 13.858647-8.854135 6.159398 1.53985 10.393985 7.699248 8.854135 13.858646-5.389474 23.867669-8.469173 43.500752-9.239097 61.209023-0.384962 6.159398-5.389474 11.16391-11.548873 11.16391z" fill="#493B4E" /><path d="M181.702256 963.945865c-4.619549 0-8.854135-0.769925-13.088722-2.309775-11.933835-5.004511-20.403008-17.708271-21.942857-33.876692-1.53985-12.703759-1.53985-25.792481-0.769925-39.651127 0.384962-6.544361 5.774436-11.548872 12.318797-11.16391 6.544361 0.384962 11.548872 5.774436 11.16391 12.318797-0.769925 12.703759-0.384962 24.637594 0.769924 35.801504 0.769925 6.159398 3.079699 12.703759 7.699249 14.628571 1.924812 0.769925 4.234586 0.769925 7.314285 0.384962 8.854135-1.53985 17.323308-7.314286 24.637594-12.703759 5.389474-3.849624 12.703759-2.694737 16.553384 2.694737s2.694737 12.703759-2.694737 16.553383c-9.62406 6.929323-20.78797 14.628571-34.646617 16.938346-2.309774 0-5.004511 0.384962-7.314285 0.384963zM264.469173 906.586466c-3.079699 0-6.159398-1.154887-8.469173-3.464661-4.619549-4.619549-4.619549-11.933835 0-16.553384l3.849624-3.849624 9.239098-9.239098c4.619549-4.619549 11.933835-4.234586 16.553383 0.384963 4.619549 4.619549 4.234586 11.933835-0.384962 16.553383l-9.239098 9.239098-3.849624 3.849624c-1.924812 2.309774-4.619549 3.079699-7.699248 3.079699z" fill="#493B4E" /><path d="M284.487218 887.338346c-3.079699 0-6.159398-1.154887-8.469173-3.849624-4.619549-4.619549-4.234586-12.318797 0.384963-16.553384 2.309774-2.309774 4.619549-4.234586 6.929323-6.544361 4.619549-4.234586 12.318797-4.234586 16.553383 0.769925 4.234586 4.619549 4.234586 12.318797-0.769925 16.553384-2.309774 1.924812-4.619549 4.234586-6.929323 6.544361-1.924812 1.924812-5.004511 3.079699-7.699248 3.079699z" fill="#493B4E" /><path d="M301.040602 872.324812c-3.464662 0-6.544361-1.53985-8.854136-4.234586-4.234586-5.004511-3.849624-12.318797 1.154887-16.553384 6.929323-6.159398 13.473684-11.16391 20.018045-16.168421 24.252632-17.708271 51.584962-16.168421 75.837594-14.628571 58.129323 3.464662 114.333835 2.694737 167.073685-1.924812 6.544361-0.384962 12.318797 4.234586 12.703759 10.778947 0.769925 6.544361-4.234586 12.318797-10.778947 12.703759-53.894737 5.004511-111.254135 5.774436-170.538346 1.924812-21.942857-1.154887-42.730827-2.694737-60.439098 10.393985-5.774436 4.234586-11.933835 9.239098-18.478195 14.628572-2.309774 1.924812-5.004511 3.079699-7.699248 3.079699zM619.404511 834.598496c-5.774436 0-10.778947-4.234586-11.548872-10.009022-1.154887-6.544361 3.464662-12.318797 9.62406-13.473685 71.218045-11.548872 136.276692-31.566917 193.251128-59.28421 5.774436-2.694737 12.703759-0.384962 15.783459 5.389474 2.694737 5.774436 0.384962 12.703759-5.389474 15.783458-58.899248 28.87218-126.267669 49.66015-199.795489 61.593985-0.384962-0.384962-1.154887 0-1.924812 0zM856.541353 752.216541c-3.849624 0-8.084211-1.924812-10.009022-5.774436-3.464662-5.389474-1.53985-12.703759 4.234586-16.168421 11.16391-6.929323 22.32782-13.858647 33.106767-21.557895 5.389474-3.849624 12.703759-2.309774 16.553384 2.694737 3.849624 5.389474 2.309774 12.703759-2.694737 16.553384-11.16391 7.699248-22.712782 15.398496-34.646617 22.327819-2.694737 1.154887-4.619549 1.924812-6.544361 1.924812zM931.993985 693.317293c-2.694737 0-5.774436-1.154887-8.084211-3.079699-4.619549-4.234586-5.004511-11.933835-0.769924-16.553383 38.496241-41.57594 69.678195-100.475188 87.771428-165.918797 18.478195-67.368421 30.41203-161.684211-20.018045-227.12782-6.929323-8.854135-15.783459-16.938346-23.097744-23.867669-82.766917-74.297744-166.303759-120.878195-255.230075-142.051128-83.15188-19.633083-168.613534-16.168421-254.075188 10.778947a11.691308 11.691308 0 0 1-6.929324-22.327819c89.696241-28.102256 179.392481-31.95188 266.778948-11.16391 92.77594 21.942857 179.777444 70.44812 265.62406 147.440602 8.469173 7.699248 18.093233 16.553383 26.177443 27.33233 56.204511 73.52782 43.885714 175.157895 23.86767 247.91579-19.24812 68.908271-51.969925 131.27218-93.160903 175.542857-2.309774 1.924812-5.389474 3.079699-8.854135 3.079699z" fill="#493B4E" /><path d="M414.219549 140.126316c-4.619549 0-9.239098-2.694737-10.778947-7.314286-2.309774-6.159398 0.384962-12.703759 6.54436-15.398496 13.858647-5.389474 27.717293-10.393985 41.57594-15.013534a11.691308 11.691308 0 0 1 6.929324 22.32782c-13.473684 4.234586-26.947368 8.854135-40.036091 14.243609-1.154887 0.769925-2.694737 1.154887-4.234586 1.154887zM249.070677 236.75188c-3.464662 0-6.929323-1.53985-9.239098-4.619549-3.849624-5.004511-3.079699-12.318797 1.924812-16.553384 11.16391-8.854135 22.712782-17.323308 34.261654-25.407518 5.389474-3.849624 12.703759-2.309774 16.553384 3.079699s2.309774 12.703759-3.0797 16.553383c-11.16391 7.699248-22.32782 16.168421-33.106767 24.637594-1.924812 1.53985-4.619549 2.309774-7.314285 2.309775z" fill="#493B4E" /><path d="M233.67218 331.067669c32.721805-41.190977 75.837594-76.222556 118.183459-107.019549M232.132331 342.616541c-1.924812-0.384962-4.234586-1.154887-5.774436-2.309774-5.004511-3.849624-5.774436-11.548872-1.924812-16.553384 35.801504-45.040602 83.15188-82.381955 120.493233-109.329323 5.389474-3.849624 12.703759-2.694737 16.553383 2.694737s2.694737 12.703759-2.694737 16.553383C322.598496 259.849624 276.78797 295.651128 242.911278 338.766917c-2.694737 2.694737-6.929323 4.234586-10.778947 3.849624z" fill="#FFFFFF" /><path d="M351.855639 223.663158c11.16391-8.084211 22.712782-16.168421 34.646617-23.867669M350.315789 235.596992c-3.079699-0.384962-6.159398-1.924812-8.08421-4.619548-3.849624-5.389474-2.694737-12.703759 2.694737-16.553384 11.548872-8.469173 23.482707-16.553383 35.031579-24.252631 5.389474-3.464662 12.703759-1.924812 16.168421 3.464661 3.464662 5.389474 1.924812 12.703759-3.464662 16.168421-11.548872 7.314286-22.712782 15.398496-34.261654 23.482707-2.309774 1.924812-5.389474 2.694737-8.084211 2.309774z" fill="#FFFFFF" /><path d="M202.490226 1024l9.239097-120.108271" fill="#F29797" /><path d="M263.699248 868.475188L242.526316 922.754887" fill="#F29797" /><path d="M206.498434 372.056861a11.933835 11.933835 0 1 0 1.220016-23.836467 11.933835 11.933835 0 1 0-1.220016 23.836467Z" fill="#FFFFFF" /><path d="M477.738346 418.839098m-98.935338 0a98.935338 98.935338 0 1 0 197.870676 0 98.935338 98.935338 0 1 0-197.870676 0Z" fill="#F29797" /><path d="M401.834787 435.408615a11.933835 11.933835 0 1 0 1.220016-23.836467 11.933835 11.933835 0 1 0-1.220016 23.836467Z" fill="#FFFFFF" /><path d="M405.750376 402.670677c-4.619549-2.309774-6.929323-7.699248-4.619549-12.318797 13.088722-28.87218 38.111278-50.430075 68.523308-59.284211 5.004511-1.53985 10.393985 1.53985 11.548873 6.544361 1.53985 5.004511-1.53985 10.393985-6.544361 11.548872-25.022556 7.314286-45.810526 25.022556-56.589474 48.890226-1.924812 5.004511-7.314286 6.929323-12.318797 4.619549z" fill="#FFFFFF" /><path d="M1209.936842 496.601504m-68.138346 0a68.138346 68.138346 0 1 0 136.276692 0 68.138346 68.138346 0 1 0-136.276692 0Z" fill="#F29797" /><path d="M1157.37183 507.825218a8.084211 8.084211 0 1 0 0.826463-16.147285 8.084211 8.084211 0 1 0-0.826463 16.147285Z" fill="#FFFFFF" /><path d="M1160.276692 485.437594c-3.079699-1.53985-4.619549-5.389474-3.0797-8.469173 9.239098-20.018045 26.177444-34.646617 47.350376-40.806015 3.464662-1.154887 6.929323 1.154887 8.084211 4.619549 1.154887 3.464662-1.154887 6.929323-4.619549 8.08421-17.323308 5.004511-31.566917 17.323308-39.266165 33.876692-1.53985 2.694737-5.389474 4.234586-8.469173 2.694737z" fill="#FFFFFF" /></svg>