<?xml version="1.0" encoding="UTF-8"?>
<svg width="21px" height="19px" viewBox="0 0 21 19" version="1.1" xmlns="http://www.w3.org/2000/svg" xmlns:xlink="http://www.w3.org/1999/xlink">
    <!-- Generator: Sketch 58 (84663) - https://sketch.com -->
    <title>聊天</title>
    <desc>Created with Sketch.</desc>
    <g id="活动版块" stroke="none" stroke-width="1" fill="none" fill-rule="evenodd">
        <g id="活动列表页（线下城市划分）" transform="translate(-1451.000000, -36.000000)" fill-rule="nonzero">
            <g id="聊天-2" transform="translate(1450.000000, 34.000000)">
                <g id="聊天">
                    <rect id="矩形" fill="#000000" opacity="0" x="0" y="0" width="23" height="23"></rect>
                    <path d="M18.19783,2.07 L9.028765,2.07 C7.13199396,2.07450341 5.55295711,3.52735309 5.390855,5.41719 L4.802055,5.41719 C2.78357799,5.42200904 1.14999576,7.05973224 1.14999576,9.078215 L1.14999576,14.540715 C1.14747213,16.2096111 2.27512157,17.6685102 3.890795,18.086625 C3.96917329,18.1080944 4.022859,18.1801813 4.020975,18.261425 L4.01419,19.547125 C4.00926864,19.9915408 4.24004349,20.4053347 4.62073236,20.6346939 C5.00142123,20.864053 5.47509782,20.8746801 5.86569,20.662625 L10.380015,18.224625 C10.406539,18.2102614 10.4362165,18.2027136 10.46638,18.20266 L15.19656,18.20266 C17.2151083,18.1979675 18.8489257,16.5601887 18.84873,14.541635 L18.84873,9.079135 C18.8488624,7.06060746 17.2150819,5.42286574 15.19656,5.41811 L6.956005,5.41811 C7.10959216,4.39104226 7.99028113,3.63011409 9.028765,3.627215 L18.19783,3.627215 C19.3577819,3.62994162 20.2966466,4.57106985 20.29658,5.731025 L20.29658,10.304 C20.2965028,10.7930937 20.1264088,11.2669502 19.81542,11.64444 C19.5411402,11.9748651 19.5866549,12.4650752 19.91708,12.739355 C20.2475051,13.0136348 20.7377152,12.9681201 21.011995,12.637695 C21.5534832,11.980501 21.8497194,11.1555359 21.85,10.304 L21.85,5.731025 C21.85,3.71249746 20.2163519,2.07475574 18.19783,2.07 Z M17.296,9.078215 L17.296,14.540715 C17.296,15.7006963 16.3572283,16.6418616 15.19725,16.644525 L10.466725,16.644525 C10.1793502,16.6448188 9.89652843,16.7163342 9.643555,16.852675 L5.57037,19.053315 L5.574395,18.27005 C5.58132245,17.4756975 5.04688554,16.7785069 4.278,16.57886 C3.34984747,16.3383179 2.70223524,15.4999893 2.70387687,14.541175 L2.70387687,9.078675 C2.70387687,7.91871985 3.64267805,6.97759162 4.80263,6.974865 L15.197365,6.974865 C16.3571188,6.9775913 17.296,7.91845803 17.296,9.078215 L17.296,9.078215 Z M7.54814137,11.956895 C7.54680716,11.5058902 7.18035065,11.1412337 6.72934476,11.14212 C6.27833886,11.1430095 5.913321,11.5091061 5.91376356,11.9601126 C5.91420693,12.4111192 6.27994323,12.7765 6.73095,12.7765 C6.94802608,12.7762563 7.15610597,12.6897499 7.3093754,12.5360275 C7.46264482,12.3823051 7.54853682,12.1739709 7.54814137,11.956895 L7.54814137,11.956895 Z M10.7321457,11.956895 C10.7310659,11.5058145 10.3646976,11.1409209 9.91361645,11.14166 C9.46253529,11.1424013 9.09736649,11.5084952 9.09776733,11.9595768 C9.09816884,12.4106584 9.46398824,12.7761022 9.91507,12.77604 C10.1320463,12.7757657 10.3400269,12.689309 10.4932582,12.5356895 C10.6464895,12.3820699 10.7324197,12.1738713 10.7321457,11.956895 L10.7321457,11.956895 Z M13.9162655,11.956895 C13.9151859,11.5058295 13.548841,11.1409421 13.0977748,11.14166 C12.6467086,11.14238 12.2815288,11.5084335 12.2818873,11.9595001 C12.2822464,12.4105668 12.6480082,12.77604 13.099075,12.77604 C13.5509234,12.7754687 13.9167734,12.4087435 13.9162655,11.956895 L13.9162655,11.956895 Z" id="形状" fill="#4895EF"></path>
                </g>
            </g>
        </g>
    </g>
</svg>