<?xml version="1.0" encoding="UTF-8"?>
<svg width="19px" height="18px" viewBox="0 0 19 18" version="1.1" xmlns="http://www.w3.org/2000/svg" xmlns:xlink="http://www.w3.org/1999/xlink">
    <!-- Generator: Sketch 58 (84663) - https://sketch.com -->
    <title>上市公司</title>
    <desc>Created with Sketch.</desc>
    <g id="简历投递" stroke="none" stroke-width="1" fill="none" fill-rule="evenodd">
        <g id="简历投递职位详情页" transform="translate(-1232.000000, -553.000000)" fill-rule="nonzero">
            <g id="上市公司-2" transform="translate(1231.000000, 551.000000)">
                <g id="上市公司">
                    <rect id="矩形" fill="#000000" opacity="0" x="0" y="0" width="21" height="21"></rect>
                    <path d="M19.05575,13.6109167 L18.2775833,13.6109167 L18.2775833,4.27758333 L19.05575,4.27758333 C19.4851974,4.27758333 19.8333333,3.92944741 19.8333333,3.5 C19.8333333,3.07055258 19.4851974,2.72241666 19.05575,2.72241666 L1.94424999,2.72241666 C1.51480258,2.72241666 1.16666666,3.07055258 1.16666666,3.5 C1.16666666,3.92944741 1.51480258,4.27758333 1.94424999,4.27758333 L2.72241666,4.27758333 L2.72241666,13.6109167 L1.94424999,13.6109167 C1.51464149,13.6109167 1.16637499,13.9591832 1.16637499,14.3887917 C1.16637499,14.8184002 1.51464149,15.1666667 1.94424999,15.1666667 L6.90841668,15.1666667 L5.52650001,17.9299167 C5.33432793,18.3140997 5.4899836,18.7813279 5.87416668,18.9735 C6.25834975,19.1656721 6.72557793,19.0100164 6.91775001,18.6258333 L8.64733332,15.1666667 L9.72241668,15.1666667 L9.72241668,17.5 C9.72241668,17.9296085 10.0706832,18.277875 10.5002917,18.277875 C10.9299002,18.277875 11.2781667,17.9296085 11.2781667,17.5 L11.2781667,15.1666667 L12.3526667,15.1666667 L14.08225,18.6258333 C14.2065635,18.8744604 14.4540749,19.0378808 14.7315491,19.0545357 C15.0090232,19.0711905 15.2743052,18.9385496 15.4274658,18.7065774 C15.5806264,18.4746051 15.5983969,18.1785437 15.4740833,17.9299167 L14.0915833,15.1666667 L19.05575,15.1666667 C19.4853585,15.1666667 19.833625,14.8184002 19.833625,14.3887917 C19.833625,13.9591832 19.4853585,13.6109167 19.05575,13.6109167 Z M4.27758333,13.6109167 L4.27758333,4.27758333 L16.7224167,4.27758333 L16.7224167,13.6109167 L4.27758333,13.6109167 Z" id="形状" fill="#4895EF"></path>
                    <path d="M12.8665833,7.42233333 L11.4724167,8.81649999 L10.0776667,7.42233333 C9.77401127,7.11872518 9.28173871,7.11872518 8.97808332,7.42233333 L7.03325001,9.36658332 C6.72944737,9.67022487 6.72931678,10.1626557 7.03295832,10.4664583 C7.33659987,10.770261 7.82903068,10.7703916 8.13283332,10.46675 L9.52758333,9.07258332 L10.92175,10.46675 C11.0673661,10.6131584 11.2653401,10.6954767 11.4718333,10.6954767 C11.6783266,10.6954767 11.8763006,10.6131584 12.0219167,10.46675 L13.96675,8.52191667 C14.1631716,8.32539083 14.2398274,8.03900375 14.1678419,7.77063469 C14.0958563,7.50226562 13.8861658,7.29268622 13.6177586,7.22084301 C13.3493514,7.1489998 13.063005,7.22580748 12.8665833,7.42233333 L12.8665833,7.42233333 Z" id="路径" fill="#4895EF"></path>
                </g>
            </g>
        </g>
    </g>
</svg>