<?xml version="1.0" encoding="UTF-8"?>
<svg width="17px" height="21px" viewBox="0 0 17 21" version="1.1" xmlns="http://www.w3.org/2000/svg" xmlns:xlink="http://www.w3.org/1999/xlink">
    <!-- Generator: Sketch 58 (84663) - https://sketch.com -->
    <title>公司</title>
    <desc>Created with Sketch.</desc>
    <g id="简历投递" stroke="none" stroke-width="1" fill="none" fill-rule="evenodd">
        <g id="简历投递职位详情页" transform="translate(-1233.000000, -480.000000)" fill-rule="nonzero">
            <g id="公司-2" transform="translate(1231.000000, 480.000000)">
                <g id="公司">
                    <rect id="矩形" fill="#000000" opacity="0" x="0" y="0" width="21" height="21"></rect>
                    <path d="M17.0625,20.8215 L3.9375,20.8215 L3.9375,3.759 C3.9375,2.6735625 4.8208125,1.79025 5.90625,1.79025 L15.09375,1.79025 C16.1791875,1.79025 17.0625,2.6735625 17.0625,3.759 L17.0625,20.8215 Z M5.25,19.509 L15.75,19.509 L15.75,3.759 C15.75,3.39656313 15.4561869,3.10275 15.09375,3.10275 L5.90625,3.10275 C5.54381313,3.10275 5.25,3.39656313 5.25,3.759 L5.25,19.509 Z M18.375,21 L2.625,21 C2.26256313,21 1.96875,20.7061869 1.96875,20.34375 C1.96875,19.9813131 2.26256313,19.6875 2.625,19.6875 L18.375,19.6875 C18.7374369,19.6875 19.03125,19.9813131 19.03125,20.34375 C19.03125,20.7061869 18.7374369,21 18.375,21 Z M9.84375,17.0625 L7.21875,17.0625 C6.85631313,17.0625 6.5625,16.7686869 6.5625,16.40625 C6.5625,16.0438131 6.85631313,15.75 7.21875,15.75 L9.84375,15.75 C10.2061869,15.75 10.5,16.0438131 10.5,16.40625 C10.5,16.7686869 10.2061869,17.0625 9.84375,17.0625 Z M9.84375,12.1576875 L7.21875,12.1576875 C6.85631313,12.1576875 6.5625,11.8638744 6.5625,11.5014375 C6.5625,11.1390006 6.85631313,10.8451875 7.21875,10.8451875 L9.84375,10.8451875 C10.2061869,10.8451875 10.5,11.1390006 10.5,11.5014375 C10.5,11.8638744 10.2061869,12.1576875 9.84375,12.1576875 Z M9.84375,7.875 L7.21875,7.875 C6.85631313,7.875 6.5625,7.58118687 6.5625,7.21875 C6.5625,6.85631313 6.85631313,6.5625 7.21875,6.5625 L9.84375,6.5625 C10.2061869,6.5625 10.5,6.85631313 10.5,7.21875 C10.5,7.58118687 10.2061869,7.875 9.84375,7.875 Z M13.78125,17.0625 L12.46875,17.0625 C12.1063131,17.0625 11.8125,16.7686869 11.8125,16.40625 C11.8125,16.0438131 12.1063131,15.75 12.46875,15.75 L13.78125,15.75 C14.1436869,15.75 14.4375,16.0438131 14.4375,16.40625 C14.4375,16.7686869 14.1436869,17.0625 13.78125,17.0625 Z M13.78125,12.1576875 L12.46875,12.1576875 C12.1063131,12.1576875 11.8125,11.8638744 11.8125,11.5014375 C11.8125,11.1390006 12.1063131,10.8451875 12.46875,10.8451875 L13.78125,10.8451875 C14.1436869,10.8451875 14.4375,11.1390006 14.4375,11.5014375 C14.4375,11.8638744 14.1436869,12.1576875 13.78125,12.1576875 Z M13.78125,7.875 L12.46875,7.875 C12.1063131,7.875 11.8125,7.58118687 11.8125,7.21875 C11.8125,6.85631313 12.1063131,6.5625 12.46875,6.5625 L13.78125,6.5625 C14.1436869,6.5625 14.4375,6.85631313 14.4375,7.21875 C14.4375,7.58118687 14.1436869,7.875 13.78125,7.875 Z M10.5,2.3165625 C10.1375631,2.3165625 9.84375,2.02274937 9.84375,1.6603125 L9.84375,0.65625 C9.84375,0.293813133 10.1375631,0 10.5,0 C10.8624369,0 11.15625,0.293813133 11.15625,0.65625 L11.15625,1.6603125 C11.15625,2.02274937 10.8624369,2.3165625 10.5,2.3165625 Z" id="形状" fill="#4895EF"></path>
                </g>
            </g>
        </g>
    </g>
</svg>