<?xml version="1.0" encoding="UTF-8"?>
<svg width="37px" height="32px" viewBox="0 0 37 32" version="1.1" xmlns="http://www.w3.org/2000/svg" xmlns:xlink="http://www.w3.org/1999/xlink">
    <!-- Generator: Sketch 58 (84663) - https://sketch.com -->
    <title>办公室</title>
    <desc>Created with Sketch.</desc>
    <g id="百科" stroke="none" stroke-width="1" fill="none" fill-rule="evenodd">
        <g id="百科首页" transform="translate(-360.000000, -3063.000000)" fill-rule="nonzero">
            <g id="办公室-2" transform="translate(360.000000, 3060.000000)">
                <g id="办公室">
                    <rect id="矩形" fill="#000000" opacity="0" x="0" y="0" width="37" height="37"></rect>
                    <path d="M19.1166667,27.1333333 L19.1166667,29.6 C19.1166667,30.0406276 18.8815947,30.4477843 18.5,30.668098 C18.1184054,30.8884118 17.6482613,30.8884118 17.2666667,30.668098 C16.885072,30.4477843 16.65,30.0406276 16.65,29.6 L16.65,27.1333333 L15.4166667,27.1333333 L15.4166667,31.45 L20.35,31.45 L20.35,27.1333333 L19.1166667,27.1333333 Z M34.80035,31.45 L35.15,31.45 C35.8311512,31.45 36.3833333,32.0021821 36.3833333,32.6833333 C36.3833333,33.3644845 35.8311512,33.9166667 35.15,33.9166667 L1.85,33.9166667 C1.16884881,33.9166667 0.616666661,33.3644845 0.616666661,32.6833333 C0.616666661,32.0021821 1.16884881,31.45 1.85,31.45 L12.95,31.45 L12.95,27.1333333 L5.55,27.1333333 C4.73224916,27.1333333 3.94799126,26.8084831 3.3697541,26.2302459 C2.79151694,25.6520087 2.46666668,24.8677508 2.46666668,24.05 L2.46666668,6.78333332 C2.46666668,5.08045535 3.84712203,3.7 5.55,3.7 L30.2166667,3.7 C31.9195447,3.7 33.3,5.08045535 33.3,6.78333332 L33.3,24.05 C33.3,25.752878 31.9195447,27.1333333 30.2166667,27.1333333 L22.8166667,27.1333333 L22.8166667,31.45 L26.8663167,31.45 C27.4219334,29.6801667 28.6719167,28.3666667 30.8333333,28.3666667 C32.99475,28.3666667 34.2447333,29.6801667 34.80035,31.45 Z M32.1073667,31.45 C31.7978,31.0356 31.3686,30.8333333 30.8333333,30.8333333 C30.2980666,30.8333333 29.8688666,31.0356 29.5593,31.45 L32.1073667,31.45 Z M30.2166667,24.6666667 C30.5572423,24.6666667 30.8333333,24.3905756 30.8333333,24.05 L30.8333333,6.78333332 C30.8333333,6.44275775 30.5572423,6.16666668 30.2166667,6.16666668 L5.55,6.16666668 C5.20942441,6.16666668 4.93333332,6.44275773 4.93333332,6.78333332 L4.93333332,24.05 C4.93333332,24.2135502 4.99830337,24.3704018 5.11395081,24.4860492 C5.22959825,24.6016966 5.38644983,24.6666667 5.55,24.6666667 L30.2166667,24.6666667 L30.2166667,24.6666667 Z" id="形状" fill="#4895EF"></path>
                    <path d="M22.5595167,8.63333332 L16.90715,22.2 L14.4404833,22.2 L20.09285,8.63333332 L22.5595167,8.63333332 Z M25.0261833,8.63333332 L28.3666667,8.63333332 L28.3666667,22.2 L19.3738167,22.2 L25.0261833,8.63333332 L25.0261833,8.63333332 Z M16.39285,8.63333332 L10.7404833,22.2 L7.4,22.2 L7.4,8.63333332 L16.39285,8.63333332 Z" id="形状" fill="#CBE1FA"></path>
                </g>
            </g>
        </g>
    </g>
</svg>