<?xml version="1.0" encoding="UTF-8"?>
<svg width="37px" height="38px" viewBox="0 0 37 38" version="1.1" xmlns="http://www.w3.org/2000/svg" xmlns:xlink="http://www.w3.org/1999/xlink">
    <!-- Generator: Sketch 58 (84663) - https://sketch.com -->
    <title>编组</title>
    <desc>Created with Sketch.</desc>
    <g id="百科" stroke="none" stroke-width="1" fill="none" fill-rule="evenodd">
        <g id="百科首页" transform="translate(-1051.000000, -1762.000000)" fill-rule="nonzero">
            <g id="编组-28" transform="translate(1051.000000, 1762.000000)">
                <g id="编组-35">
                    <g id="编组">
                        <path d="M3.96428571,29.2299859 L5.72619048,29.2299859 L5.72619048,37 L3.96428571,37 L3.96428571,29.2299859 Z M3.96428571,12.5799556 L5.72619048,12.5799556 L5.72619048,22.3849062 L3.96428571,22.3849062 L3.96428571,12.5799556 Z M3.96428571,0 L5.72619048,0 L5.72619048,5.91994349 L3.96428571,5.91994349 L3.96428571,0 Z" id="形状" fill="#CBE1FA"></path>
                        <path d="M4.44003229,14.2564838 C2.03494753,14.2564838 0,12.4170864 0,10.0260905 C0,7.63509454 2.03494753,5.61169717 4.44003229,5.61169717 C6.84511706,5.61169717 8.88006458,7.63489388 8.88006458,10.0260905 C8.88006458,12.4172871 6.84511706,14.2564838 4.44003229,14.2564838 Z M4.44003229,12.4170864 C5.73510898,12.4170864 6.84511706,11.3134881 6.84511706,10.0258898 C6.84511706,8.73829155 5.73510898,7.63469323 4.44003229,7.63469323 C3.1449556,7.63469323 2.03494753,8.55429161 2.03494753,10.0258898 C2.03514935,11.4972874 2.9600888,12.4170864 4.44003229,12.4170864 Z M4.44003229,30.8333333 C2.03494753,30.8333333 0,28.8101366 0,26.41894 C0,24.0279441 2.03494753,22.0045467 4.44003229,22.0045467 C6.84511706,22.0045467 8.88006458,24.0279441 8.88006458,26.41894 C8.88006458,28.8101366 6.84511706,30.8333333 4.44003229,30.8333333 Z M4.44003229,28.8101366 C5.73510898,28.8101366 6.84511706,27.7065383 6.84511706,26.41894 C6.84511706,25.1315424 5.73510898,24.0279441 4.44003229,24.0279441 C3.1449556,24.0279441 2.03494753,25.1315424 2.03494753,26.41894 C2.03514935,27.7065383 2.9600888,28.8101366 4.44003229,28.8101366 Z M15.1699758,4.4047619 L34.5949152,4.4047619 C36.2599273,4.4047619 37,5.14056101 37,6.7959585 C37,8.45135599 36.2599273,9.18715509 34.5949152,9.18715509 L15.1699758,9.18715509 C13.5049637,9.18715509 12.764891,8.45135599 12.764891,6.7959585 C12.764891,5.14056101 13.5049637,4.4047619 15.1699758,4.4047619 Z" id="形状" fill="#4895EF"></path>
                        <path d="M14.6622657,11.8928571 L24.5401152,11.8928571 C25.8474163,11.8928571 26.4285714,12.5028435 26.4285714,13.875 C26.4285714,15.2471565 25.8474163,15.8571429 24.5401152,15.8571429 L14.6622657,15.8571429 C13.354766,15.8571429 12.7738095,15.247365 12.7738095,13.875 C12.7738095,12.502635 13.354766,11.8928571 14.6622657,11.8928571 L14.6622657,11.8928571 Z" id="路径" fill="#CBE1FA"></path>
                        <path d="M15.1780092,21.1428571 L34.5958003,21.1428571 C36.2601997,21.1428571 37,21.8881533 37,23.5653745 C37,25.2425958 36.2601997,25.9880952 34.5958003,25.9880952 L15.1780092,25.9880952 C13.5136098,25.9880952 12.7738095,25.2425958 12.7738095,23.5653745 C12.7738095,21.8881533 13.5136098,21.1428571 15.1780092,21.1428571 Z" id="路径" fill="#4895EF"></path>
                        <path d="M14.6622657,28.1904762 L24.5401152,28.1904762 C25.8474163,28.1904762 26.4285714,28.8008153 26.4285714,30.172619 C26.4285714,31.5448397 25.8474163,32.1547619 24.5401152,32.1547619 L14.6622657,32.1547619 C13.354766,32.1547619 12.7738095,31.5448397 12.7738095,30.172619 C12.7738095,28.8008153 13.354766,28.1904762 14.6622657,28.1904762 Z" id="路径" fill="#CBE1FA"></path>
                    </g>
                </g>
            </g>
        </g>
    </g>
</svg>