<?xml version="1.0" encoding="UTF-8"?>
<svg width="19px" height="19px" viewBox="0 0 19 19" version="1.1" xmlns="http://www.w3.org/2000/svg" xmlns:xlink="http://www.w3.org/1999/xlink">
    <!-- Generator: Sketch 58 (84663) - https://sketch.com -->
    <title>客服</title>
    <desc>Created with Sketch.</desc>
    <g id="导航栏+首页优化" stroke="none" stroke-width="1" fill="none" fill-rule="evenodd">
        <g id="首页未登录" transform="translate(-1632.000000, -997.000000)" fill-rule="nonzero">
            <g id="编组-18" transform="translate(1631.000000, 891.000000)">
                <g id="客服" transform="translate(0.000000, 105.000000)">
                    <rect id="矩形" fill="#000000" opacity="0" x="0" y="0" width="21" height="21"></rect>
                    <path d="M17.326415,9.7707832 C16.8751201,9.7707832 16.5092197,9.40488281 16.5092197,8.95358789 C16.5092197,5.57390039 13.7597783,2.82466406 10.3802959,2.82466406 C7.00079297,2.82466406 4.25135156,5.5739209 4.25135156,8.95358789 C4.25135156,9.40488281 3.88545117,9.7707832 3.43415625,9.7707832 C2.98286133,9.7707832 2.61696094,9.40488281 2.61696094,8.95358789 C2.61696094,4.67291016 6.09959766,1.19027344 10.3802754,1.19027344 C14.6609326,1.19027344 18.1435898,4.67291016 18.1435898,8.95358789 C18.1435898,9.40490332 17.77771,9.7707832 17.326415,9.7707832 Z" id="路径" fill="#4895EF"></path>
                    <path d="M3.7230498,10.0836299 C4.17375,10.0836299 4.54024512,10.4503301 4.54024512,10.9008252 L4.54024512,12.5351953 C4.54024512,12.9856904 4.17375,13.3523906 3.7230498,13.3523906 C3.27234961,13.3523906 2.90585449,12.9856904 2.90585449,12.5351953 L2.90585449,10.9008252 C2.90585449,10.4503301 3.27237012,10.0836299 3.7230498,10.0836299 M3.7230498,8.44923926 C2.36898047,8.44923926 1.27148438,9.54694043 1.27148438,10.9008252 L1.27148438,12.5351953 C1.27148438,13.8890801 2.36898047,14.9867607 3.7230498,14.9867607 C5.07691406,14.9867607 6.17461523,13.8890801 6.17461523,12.5351953 L6.17461523,10.9008252 C6.17461523,9.54694043 5.07693457,8.44923926 3.7230498,8.44923926 Z M17.2769502,10.0836299 C17.7276504,10.0836299 18.0941455,10.4503301 18.0941455,10.9008252 L18.0941455,12.5351953 C18.0941455,12.9856904 17.7276504,13.3523906 17.2769502,13.3523906 C16.82625,13.3523906 16.4597549,12.9856904 16.4597549,12.5351953 L16.4597549,10.9008252 C16.4597549,10.4503301 16.82625,10.0836299 17.2769502,10.0836299 M17.2769502,8.44923926 C15.9228809,8.44923926 14.8253643,9.54694043 14.8253643,10.9008252 L14.8253643,12.5351953 C14.8253643,13.8890801 15.9228809,14.9867607 17.2769502,14.9867607 C18.6308145,14.9867607 19.7285156,13.8890801 19.7285156,12.5351953 L19.7285156,10.9008252 C19.7285156,9.54694043 18.6308145,8.44923926 17.2769502,8.44923926 Z" id="形状" fill="#4895EF"></path>
                    <path d="M11.5240781,19.8097266 C11.0727832,19.8097266 10.7068828,19.4438057 10.7068828,18.9925107 C10.7068828,18.5412158 11.0727832,18.1753154 11.5240781,18.1753154 C13.6257187,18.1753154 15.4861465,16.7627988 16.0485732,14.7405645 C16.1694668,14.3060449 16.6197773,14.0522607 17.054707,14.172375 C17.4896367,14.2932891 17.7439951,14.7437637 17.6231016,15.1786934 C16.8649482,17.905207 14.3569043,19.8097266 11.5240781,19.8097266 Z" id="路径" fill="#4895EF"></path>
                </g>
            </g>
        </g>
    </g>
</svg>