<?xml version="1.0" encoding="UTF-8"?>
<svg width="33px" height="37px" viewBox="0 0 33 37" version="1.1" xmlns="http://www.w3.org/2000/svg" xmlns:xlink="http://www.w3.org/1999/xlink">
    <!-- Generator: Sketch 58 (84663) - https://sketch.com -->
    <title>胸章，勋章，奖章，表彰，荣誉</title>
    <desc>Created with Sketch.</desc>
    <g id="百科" stroke="none" stroke-width="1" fill="none" fill-rule="evenodd">
        <g id="百科首页企业荣誉也要加进去" transform="translate(-362.000000, -3709.000000)" fill-rule="nonzero">
            <g id="胸章，勋章，奖章，表彰，荣誉-2" transform="translate(360.000000, 3709.000000)">
                <g id="胸章，勋章，奖章，表彰，荣誉">
                    <rect id="矩形" fill="#000000" opacity="0" x="0" y="0" width="37" height="37"></rect>
                    <polygon id="路径" fill="#CBE1FA" points="18.8876738 20.7855782 14.1885981 20.7855782 14.1885981 35.4597474 18.8876738 33.5540111 23.5867494 35.4597474 23.5867494 20.7855782"></polygon>
                    <polygon id="路径" fill="#4895EF" points="24.2028505 36.3786778 18.8876738 34.2197136 13.5698864 36.3786778 13.5698864 32.5802582 14.8073097 32.5802582 14.8073097 34.5434276 18.8876738 32.8856982 22.9680378 34.5434276 22.9680378 21.4016793 14.1885981 21.4016793 14.1885981 20.1668666 24.2028505 20.1668666"></polygon>
                    <polygon id="路径" fill="#0686D8" points="13.5698864 27.4739293 14.8046991 27.4739293 14.8046991 31.2358005 13.5698864 31.2358005"></polygon>
                    <path d="M30.7110704,16.3162351 C30.7110704,17.8408241 29.3039582,19.0756368 28.7531221,20.4018204 C28.1840118,21.7776053 28.2832146,23.6389614 27.2468073,24.6753687 C26.2104,25.7117759 24.3490439,25.6125732 22.973259,26.1816835 C21.6470754,26.7325196 20.4122628,28.1396317 18.8876738,28.1396317 C17.3630847,28.1396317 16.1256615,26.7325195 14.7994779,26.1816835 C13.4263035,25.6125732 11.5623368,25.7117759 10.5259296,24.6753687 C9.48952232,23.6389614 9.59133562,21.7776053 9.01961477,20.4018204 C8.46877868,19.0756368 7.06427714,17.8408241 7.06427714,16.3162351 C7.06427714,14.7916461 8.46877864,13.5542228 9.01961477,12.2280392 C9.59133566,10.8522543 9.48952235,8.99089818 10.5259296,7.95449092 C11.5623368,6.91808367 13.4263035,7.01728638 14.7994779,6.44817612 C16.1256615,5.89734003 17.3604741,4.4902279 18.8876738,4.4902279 C20.4148734,4.4902279 21.6470754,5.89734003 22.973259,6.44817612 C24.349044,7.01728642 26.2130107,6.91808371 27.2468073,7.95449092 C28.2806039,8.99089814 28.1840118,10.8522543 28.7531221,12.2280392 C29.3039582,13.5542228 30.7110704,14.7890355 30.7110704,16.3162351 Z" id="路径" fill="#FFFFFF"></path>
                    <path d="M18.8876738,28.7557327 C17.731179,28.7557327 16.7522049,28.1056939 15.8880971,27.5287519 C15.4723652,27.2268807 15.0292331,26.9646724 14.5645241,26.7455726 C14.0564718,26.558117 13.5320974,26.4182838 12.9981655,26.327877 C11.9539265,26.1111974 10.8600861,25.886686 10.0795174,25.1035067 C9.29894869,24.3203274 9.0822691,23.2343188 8.87603189,22.1900797 C8.78571888,21.6563962 8.64677837,21.1320923 8.46094689,20.6237212 C8.24177439,20.1582255 7.97957436,19.7142335 7.6777676,19.2975376 C7.10343611,18.4334297 6.45078672,17.4701192 6.45078672,16.3005715 C6.45078672,15.1310238 7.10343611,14.1651027 7.6777676,13.3036055 C7.97962531,12.8860214 8.24182362,12.4411583 8.46094689,11.9748113 C8.6446332,11.4773737 8.78354619,10.9645314 8.87603189,10.4423905 C9.09271148,9.39815143 9.31722289,8.30170044 10.1004022,7.52113171 C10.8835815,6.74056298 11.9695901,6.51344105 13.0216609,6.29676146 C13.5507716,6.20499736 14.0706121,6.06608199 14.5749665,5.88167642 C15.0396037,5.66244126 15.4827235,5.40024023 15.8985395,5.09849713 C16.7626473,4.52416564 17.7416214,3.87151625 18.8981161,3.87151625 C20.0546109,3.87151625 21.0309744,4.52416564 21.8950822,5.09849713 C22.3117781,5.4003039 22.7557701,5.66250392 23.2212658,5.88167642 C23.7298484,6.0668348 24.2540904,6.20575893 24.7876243,6.29676146 C25.8318634,6.51344105 26.9257038,6.73795246 27.7088831,7.52113171 C28.4920624,8.30431097 28.6904678,9.39815143 28.909758,10.4423905 C28.9975778,10.9766111 29.1365796,11.501146 29.324843,12.008749 C29.5430018,12.4756047 29.8052524,12.9205565 30.1080223,13.3375432 C30.6823538,14.1990404 31.3350032,15.1649615 31.3350032,16.3345093 C31.3350032,17.504057 30.6823538,18.4673675 30.1054117,19.3314753 C29.8034769,19.7480873 29.5412696,20.1920917 29.3222324,20.6576589 C29.133969,21.165262 28.9949672,21.6897969 28.9071474,22.2240175 C28.6878572,23.2682565 28.4633458,24.3620969 27.6827771,25.1452762 C26.9022084,25.9284556 25.8135892,26.1503563 24.7615184,26.3670359 C24.2275479,26.4572653 23.7031572,26.5971028 23.1951598,26.7847315 C22.7295926,27.0037688 22.2855882,27.2659761 21.8689762,27.5679108 C21.0231426,28.1056939 20.0441685,28.7557327 18.8876738,28.7557327 L18.8876738,28.7557327 Z M18.8876738,5.10893955 C18.1044945,5.10893955 17.3604741,5.60495309 16.5746843,6.12968319 C16.0921655,6.47476431 15.5771877,6.77203505 15.0370423,7.01728638 C14.4620173,7.23498996 13.8676119,7.39757731 13.2618359,7.50285754 C12.3481267,7.69082058 11.4840189,7.87095179 10.96451,8.39046073 C10.445001,8.90996967 10.2648698,9.77668806 10.0742962,10.7034502 C9.96901596,11.3092263 9.80642861,11.9036316 9.58872503,12.4786566 C9.34287682,13.018495 9.04563854,13.5334166 8.70112184,14.0162986 C8.1790023,14.7994779 7.6803782,15.5461088 7.6803782,16.3292881 C7.6803782,17.1124674 8.17639174,17.8538771 8.70112184,18.6422776 C9.04616759,19.1238963 9.34344119,19.6380048 9.58872503,20.177309 C9.80609606,20.753337 9.96867254,21.3485766 10.0742962,21.9551259 C10.2648698,22.8688351 10.4423904,23.7303323 10.9618994,24.2524519 C11.4814083,24.7745714 12.3455161,24.952092 13.2592253,25.140055 C13.8659249,25.245004 14.4612278,25.4075978 15.0370423,25.6256262 C15.5769466,25.872377 16.091865,26.1704876 16.5746843,26.51584 C17.3578635,27.0379595 18.1044945,27.533973 18.8876738,27.533973 C19.670853,27.533973 20.4122628,27.0379595 21.2006632,26.51584 C21.683128,26.1699383 22.198101,25.871796 22.7383052,25.6256262 C23.3133302,25.4079226 23.9077356,25.2453353 24.5135116,25.140055 C25.4272208,24.952092 26.2913286,24.7719608 26.8108375,24.2524519 C27.3303464,23.7329429 27.5104776,22.8688351 27.6984407,21.9551259 C27.8066499,21.343799 27.972735,20.7441443 28.1944543,20.164256 C28.441205,19.6243516 28.7393157,19.1094332 29.084668,18.626614 C29.6067876,17.8434347 30.1054117,17.0968038 30.1054117,16.3162351 C30.1054117,15.5356664 29.6093981,14.7890355 29.084668,14.0032456 C28.7393157,13.5204264 28.441205,13.005508 28.1944543,12.4656036 C27.9770832,11.8895756 27.8145068,11.294336 27.7088831,10.6877866 C27.5209201,9.77407747 27.3433994,8.91258027 26.8212799,8.39046073 C26.2991604,7.86834119 25.4376632,7.69343117 24.523954,7.50285754 C23.9181779,7.39757731 23.3237726,7.23498996 22.7487476,7.01728638 C22.2074889,6.7715633 21.6916072,6.47340113 21.208495,6.1270726 C20.4122628,5.60495306 19.6682424,5.10893955 18.8876738,5.10893955 L18.8876738,5.10893955 Z" id="形状" fill="#4895EF"></path>
                    <path d="M18.8876738,28.7557327 C17.731179,28.7557327 16.7522049,28.1056939 15.8880971,27.5287519 C15.4723652,27.2268807 15.0292331,26.9646724 14.5645241,26.7455726 C14.0564718,26.558117 13.5320974,26.4182838 12.9981655,26.327877 C11.9539265,26.1111974 10.8600861,25.886686 10.0795174,25.1035067 C9.29894869,24.3203274 9.0822691,23.2343188 8.87603189,22.1900797 C8.78571888,21.6563962 8.64677837,21.1320923 8.46094689,20.6237212 C8.24177439,20.1582255 7.97957436,19.7142335 7.6777676,19.2975376 C7.10343611,18.4334297 6.45078672,17.4701192 6.45078672,16.3005715 C6.45078672,15.1310238 7.10343611,14.1651027 7.6777676,13.3036055 C7.97962531,12.8860214 8.24182362,12.4411583 8.46094689,11.9748113 C8.6446332,11.4773737 8.78354619,10.9645314 8.87603189,10.4423905 C9.09271148,9.39815143 9.31722289,8.30170044 10.1004022,7.52113171 C10.8835815,6.74056298 11.9695901,6.51344105 13.0216609,6.29676146 C13.5507716,6.20499736 14.0706121,6.06608199 14.5749665,5.88167642 C15.0396037,5.66244126 15.4827235,5.40024023 15.8985395,5.09849713 C16.7626473,4.52416564 17.7416214,3.87151625 18.8981161,3.87151625 C20.0546109,3.87151625 21.0309744,4.52416564 21.8950822,5.09849713 C22.3117781,5.4003039 22.7557701,5.66250392 23.2212658,5.88167642 C23.7298484,6.0668348 24.2540904,6.20575893 24.7876243,6.29676146 C25.8318634,6.51344105 26.9257038,6.73795246 27.7088831,7.52113171 C28.4920624,8.30431097 28.6904678,9.39815143 28.909758,10.4423905 C28.9975778,10.9766111 29.1365796,11.501146 29.324843,12.008749 C29.5430018,12.4756047 29.8052524,12.9205565 30.1080223,13.3375432 C30.6823538,14.1990404 31.3350032,15.1649615 31.3350032,16.3345093 C31.3350032,17.504057 30.6823538,18.4673675 30.1054117,19.3314753 C29.8034769,19.7480873 29.5412696,20.1920917 29.3222324,20.6576589 C29.133969,21.165262 28.9949672,21.6897969 28.9071474,22.2240175 C28.6878572,23.2682565 28.4633458,24.3620969 27.6827771,25.1452762 C26.9022084,25.9284556 25.8135892,26.1503563 24.7615184,26.3670359 C24.2275479,26.4572653 23.7031572,26.5971028 23.1951598,26.7847315 C22.7295926,27.0037688 22.2855882,27.2659761 21.8689762,27.5679108 C21.0231426,28.1056939 20.0441685,28.7557327 18.8876738,28.7557327 L18.8876738,28.7557327 Z M18.8876738,5.10893955 C18.1044945,5.10893955 17.3604741,5.60495309 16.5746843,6.12968319 C16.0921655,6.47476431 15.5771877,6.77203505 15.0370423,7.01728638 C14.4620173,7.23498996 13.8676119,7.39757731 13.2618359,7.50285754 C12.3481267,7.69082058 11.4840189,7.87095179 10.96451,8.39046073 C10.445001,8.90996967 10.2648698,9.77668806 10.0742962,10.7034502 C9.96901596,11.3092263 9.80642861,11.9036316 9.58872503,12.4786566 C9.34287682,13.018495 9.04563854,13.5334166 8.70112184,14.0162986 C8.1790023,14.7994779 7.6803782,15.5461088 7.6803782,16.3292881 C7.6803782,17.1124674 8.17639174,17.8538771 8.70112184,18.6422776 C9.04616759,19.1238963 9.34344119,19.6380048 9.58872503,20.177309 C9.80609606,20.753337 9.96867254,21.3485766 10.0742962,21.9551259 C10.2648698,22.8688351 10.4423904,23.7303323 10.9618994,24.2524519 C11.4814083,24.7745714 12.3455161,24.952092 13.2592253,25.140055 C13.8659249,25.245004 14.4612278,25.4075978 15.0370423,25.6256262 C15.5769466,25.872377 16.091865,26.1704876 16.5746843,26.51584 C17.3578635,27.0379595 18.1044945,27.533973 18.8876738,27.533973 C19.670853,27.533973 20.4122628,27.0379595 21.2006632,26.51584 C21.683128,26.1699383 22.198101,25.871796 22.7383052,25.6256262 C23.3133302,25.4079226 23.9077356,25.2453353 24.5135116,25.140055 C25.4272208,24.952092 26.2913286,24.7719608 26.8108375,24.2524519 C27.3303464,23.7329429 27.5104776,22.8688351 27.6984407,21.9551259 C27.8066499,21.343799 27.972735,20.7441443 28.1944543,20.164256 C28.441205,19.6243516 28.7393157,19.1094332 29.084668,18.626614 C29.6067876,17.8434347 30.1054117,17.0968038 30.1054117,16.3162351 C30.1054117,15.5356664 29.6093981,14.7890355 29.084668,14.0032456 C28.7393157,13.5204264 28.441205,13.005508 28.1944543,12.4656036 C27.9770832,11.8895756 27.8145068,11.294336 27.7088831,10.6877866 C27.5209201,9.77407747 27.3433994,8.91258027 26.8212799,8.39046073 C26.2991604,7.86834119 25.4376632,7.69343117 24.523954,7.50285754 C23.9181779,7.39757731 23.3237726,7.23498996 22.7487476,7.01728638 C22.2074889,6.7715633 21.6916072,6.47340113 21.208495,6.1270726 C20.4122628,5.60495306 19.6682424,5.10893955 18.8876738,5.10893955 L18.8876738,5.10893955 Z" id="形状" fill="#4895EF"></path>
                    <path d="M16.9625111,23.8651458 C19.6601696,24.5532718 22.5200197,23.7499428 24.4647835,21.757765 C26.4095473,19.7655872 27.143769,16.8872199 26.3908743,14.2069162 C25.6379796,11.5266124 23.5123512,9.45157415 20.8146927,8.76344823 C16.6444741,7.69969767 12.4015037,10.2179876 11.3377531,14.3882062 C10.2740026,18.5584249 12.7922925,22.8013952 16.9625111,23.8651458 Z" id="路径" fill="#CBE1FA"></path>
                    <path d="M18.8876738,24.72497 C15.4853645,24.72497 12.4181177,22.6753287 11.1163543,19.5319038 C9.81459093,16.3884789 10.5347086,12.7704045 12.9408779,10.3649819 C15.3470472,7.95955944 18.9653449,7.24056495 22.1083656,8.54330402 C25.2513863,9.84604309 27.3000752,12.913926 27.2990197,16.3162351 C27.2932629,20.9588838 23.530324,24.7206548 18.8876738,24.72497 L18.8876738,24.72497 Z M18.8876738,9.13970224 C14.9241841,9.13970224 11.7111409,12.3527454 11.7111409,16.3162351 C11.7111409,20.2797247 14.9241841,23.4927679 18.8876737,23.4927679 C22.8511634,23.4927679 26.0642066,20.2797247 26.0642066,16.3162351 C26.061329,12.3535153 22.8503923,9.14141044 18.8876738,9.13709165 L18.8876738,9.13970224 Z" id="形状" fill="#0686D8"></path>
                    <path d="M22.1248148,21.4382276 L19.0443096,19.8718691 C18.9849433,19.8393635 18.9131022,19.8393635 18.853736,19.8718691 L15.8150004,21.5191561 C15.746292,21.5566809 15.6622611,21.5520676 15.5980735,21.5072469 C15.5338858,21.4624262 15.5006098,21.385127 15.512171,21.3076977 L16.0525647,17.8930361 C16.0639216,17.8259468 16.041456,17.7575733 15.992521,17.7102942 L13.4863473,15.3294292 C13.429546,15.276314 13.4079573,15.1954846 13.4307103,15.1211212 C13.4534632,15.0467578 13.5165844,14.9918471 13.5933818,14.9796091 L17.0106541,14.4366048 C17.0771819,14.4261003 17.1340278,14.3829757 17.1620687,14.3217385 L18.65272,11.1890214 C18.6878182,11.1196078 18.7589845,11.0758456 18.8367671,11.0758456 C18.9145497,11.0758456 18.985716,11.1196078 19.0208142,11.1890214 L20.5871728,14.2695266 C20.6183093,14.3299442 20.6765899,14.371712 20.7438086,14.3817823 L24.1741339,14.8412474 C24.2515898,14.8509546 24.3166789,14.9040877 24.3416976,14.9780316 C24.3667162,15.0519756 24.3472603,15.1337141 24.2916108,15.1884569 L21.8480914,17.6345869 C21.801241,17.6830596 21.7799607,17.7507695 21.7906583,17.8173287 L22.4198123,21.2111056 C22.4364715,21.2888435 22.4069638,21.3692351 22.3439686,21.4177358 C22.2809734,21.4662365 22.1957094,21.4742091 22.1248148,21.4382276 L22.1248148,21.4382276 Z" id="路径" fill="#FFFFFF"></path>
                    <path d="M15.7157977,22.1639737 C15.4752026,22.1630772 15.2469882,22.0571904 15.0909478,21.8740561 C14.9349074,21.6909219 14.8665924,21.4487919 14.9039018,21.2111056 L15.4025259,18.0131235 L13.0529881,15.7810626 C12.8168259,15.5658674 12.7266865,15.2333606 12.8218266,14.9283525 C12.9169667,14.6233445 13.1801627,14.4010524 13.4967897,14.3582869 L16.7078247,13.8622733 L18.1044945,10.9357934 C18.23941,10.6524474 18.5242557,10.4709976 18.8380724,10.4684964 C19.1530583,10.4553043 19.4452465,10.6322633 19.5794821,10.9175192 L21.0518592,13.8048402 L24.2628942,14.2303676 C24.5735036,14.2698148 24.8345116,14.4827539 24.9355196,14.779118 C25.0365275,15.075482 24.9598902,15.4034988 24.738023,15.6244267 L22.4511395,17.919142 L23.0411345,21.1040711 C23.0973725,21.4119956 22.9744917,21.725223 22.7238784,21.912768 C22.4732651,22.1003131 22.1380967,22.1298642 21.8585338,21.9890637 L18.9581599,20.5166867 L16.1073873,22.0621604 C15.9875409,22.1286004 15.852828,22.1636258 15.7157977,22.1639737 L15.7157977,22.1639737 Z M14.5149227,15.4573485 L16.4180484,17.263882 C16.6163481,17.4514628 16.7075019,17.7259044 16.660834,17.9948494 L16.2535807,20.5767304 L18.5587384,19.3184224 C18.7969003,19.1948882 19.0802605,19.1948882 19.3184224,19.3184224 L21.6679602,20.5088549 L21.1928315,17.9295844 C21.1431474,17.6633705 21.2281504,17.3897975 21.4199534,17.1986171 L23.2734777,15.3450928 L20.6628801,15.0004939 C20.3935508,14.9651227 20.1590655,14.7990289 20.0363367,14.5566923 L18.8485148,12.222818 L17.7207366,14.5880195 C17.6039756,14.8336253 17.3733417,15.0056235 17.1046356,15.0474847 L14.5149227,15.4573485 Z" id="形状" fill="#4895EF"></path>
                    <polygon id="路径" fill="#4895EF" points="18.4882523 0.777958098 19.723065 0.777958098 19.723065 3.36506032 18.4882523 3.36506032"></polygon>
                    <polygon id="路径" fill="#4895EF" points="22.9894447 3.90728144 23.8741763 1.47916461 25.0343258 1.90182038 24.1495943 4.33019827"></polygon>
                    <polygon id="路径" fill="#4895EF" points="27.0262118 5.95999436 28.6904678 3.9790729 29.6360263 4.77347775 27.9715092 6.75413815"></polygon>
                    <polygon id="路径" fill="#4895EF" points="30.1218585 9.26736048 32.3617512 7.9774642 32.9778522 9.04728708 30.7382206 10.3371834"></polygon>
                    <polygon id="路径" fill="#4895EF" points="31.8960206 13.4383123 34.444486 12.9939886 34.6567276 14.2105271 32.1080011 14.6548508"></polygon>
                    <polygon id="路径" fill="#4895EF" points="31.9161222 19.1800607 32.1322797 17.9640443 34.6768292 18.4164609 34.4606717 19.6322162"></polygon>
                    <polygon id="路径" fill="#4895EF" points="30.1902561 23.366415 30.810012 22.2986806 33.0475552 23.5971918 32.4277993 24.6649263"></polygon>
                    <polygon id="路径" fill="#4895EF" points="27.1358569 26.7098074 28.0837649 25.9182742 29.7401891 27.9023284 28.7925422 28.6936005"></polygon>
                    <polygon id="路径" fill="#4895EF" points="8.71678545 27.9581952 10.3865237 25.9819728 11.3294715 26.7789882 9.6597333 28.7552106"></polygon>
                    <polygon id="路径" fill="#4895EF" points="5.39245042 23.667678 7.63652015 22.3858746 8.24896634 23.458047 6.00489664 24.7398504"></polygon>
                    <polygon id="路径" fill="#4895EF" points="3.72923871 18.5052212 6.27639878 18.067424 6.48550764 19.2844846 3.93834757 19.7220208"></polygon>
                    <polygon id="路径" fill="#4895EF" points="3.71618569 14.29746 3.93625909 13.0824878 6.47924221 13.5432583 6.25916885 14.7582304"></polygon>
                    <polygon id="路径" fill="#4895EF" points="5.36530023 9.12325549 5.98792774 8.05708741 8.22181614 9.36186412 7.5991886 10.4280322"></polygon>
                    <polygon id="路径" fill="#4895EF" points="8.68389191 4.82908347 9.63414943 4.04042193 11.2848303 6.02891412 10.3345728 6.81757567"></polygon>
                    <polygon id="路径" fill="#4895EF" points="13.2746278 1.92479362 14.4371269 1.50892544 15.3085444 3.94487406 14.1457842 4.36074224"></polygon>
                    <path d="M26.0067734,30.246384 C26.0067734,30.6097159 26.3013121,30.9042546 26.664644,30.9042546 C27.0279759,30.9042546 27.3225146,30.6097159 27.3225146,30.246384 C27.3225146,29.8830521 27.0279759,29.5885134 26.664644,29.5885134 C26.3013121,29.5885134 26.0067734,29.8830521 26.0067734,30.246384 Z" id="路径" fill="#4895EF"></path>
                    <path d="M10.6434117,31.893671 C10.641966,32.2566596 10.3467926,32.5498881 9.98380242,32.5489311 C9.62081226,32.5479694 9.32719283,32.2531848 9.32767048,31.8901937 C9.32814929,31.5272026 9.62254444,31.2331899 9.98553586,31.2331899 C10.1604673,31.2331899 10.3281961,31.3028579 10.4516461,31.4267978 C10.5750961,31.5507376 10.6441007,31.718741 10.6434117,31.893671 Z" id="路径" fill="#4895EF"></path>
                    <path d="M4.06992166,34.4311719 C4.06992166,34.9992385 4.53043059,35.4597474 5.09849713,35.4597474 C5.66656367,35.4597474 6.1270726,34.9992385 6.1270726,34.4311719 C6.1270726,33.8631054 5.66656367,33.4025965 5.09849713,33.4025965 C4.53043059,33.4025965 4.06992166,33.8631054 4.06992166,34.4311719 L4.06992166,34.4311719 Z" id="路径" fill="#4895EF"></path>
                    <path d="M2.04670851,28.3537007 C2.04670851,28.7202427 2.24225631,29.0589414 2.55969094,29.2422124 C2.87712558,29.4254833 3.26822118,29.4254833 3.58565582,29.2422124 C3.90309046,29.0589414 4.09863825,28.7202427 4.09863825,28.3537007 C4.09863825,27.787076 3.63929813,27.3277358 3.07267338,27.3277358 C2.50604863,27.3277358 2.04670851,27.787076 2.04670851,28.3537007 Z" id="路径" fill="#4895EF"></path>
                    <path d="M30.7632823,33.4156495 C30.7632823,33.7535337 30.5597458,34.0581476 30.2475815,34.1874503 C29.9354171,34.316753 29.5761005,34.2452805 29.3371803,34.0063603 C29.09826,33.7674401 29.0267875,33.4081234 29.1560902,33.0959591 C29.2853929,32.7837948 29.5900069,32.5802582 29.9278911,32.5802582 C30.3892649,32.5802582 30.7632823,32.9542756 30.7632823,33.4156495 L30.7632823,33.4156495 Z M34.0082578,29.2517463 C34.0093115,29.7662001 33.700225,30.2305851 33.2252345,30.4281904 C32.750244,30.6257958 32.2029813,30.5176688 31.8388331,30.1542683 C31.4746849,29.7908679 31.3654333,29.2438286 31.5620619,28.7684329 C31.7586905,28.2930373 32.2224392,27.9829958 32.7368941,27.9829958 C33.4380292,27.9829958 34.0068154,28.5506127 34.0082578,29.2517463 L34.0082578,29.2517463 Z" id="形状" fill="#4895EF"></path>
                </g>
            </g>
        </g>
    </g>
</svg>