<?xml version="1.0" encoding="UTF-8"?>
<svg width="15px" height="19px" viewBox="0 0 15 19" version="1.1" xmlns="http://www.w3.org/2000/svg" xmlns:xlink="http://www.w3.org/1999/xlink">
    <!-- Generator: Sketch 58 (84663) - https://sketch.com -->
    <title>地址</title>
    <desc>Created with Sketch.</desc>
    <g id="简历投递" stroke="none" stroke-width="1" fill="none" fill-rule="evenodd">
        <g id="简历投递职位详情页" transform="translate(-1234.000000, -932.000000)" fill-rule="nonzero">
            <g id="地址-2" transform="translate(1231.000000, 931.000000)">
                <g id="地址">
                    <rect id="矩形" fill="#000000" opacity="0" x="0" y="0" width="21" height="21"></rect>
                    <path d="M10.5,7.0546875 C11.0258203,7.0546875 11.5202637,7.25956055 11.8920703,7.63136719 C12.263877,8.00317383 12.46875,8.49761719 12.46875,9.0234375 C12.46875,9.54925781 12.263877,10.0437012 11.8920703,10.4155078 C11.5202637,10.7873145 11.0258203,10.9921875 10.5,10.9921875 C9.97417969,10.9921875 9.47973633,10.7873145 9.10792969,10.4155078 C8.34032227,9.64790039 8.34032227,8.39897461 9.10792969,7.63136719 C9.47973633,7.25956055 9.97417969,7.0546875 10.5,7.0546875 M10.5,5.7421875 C9.66020508,5.7421875 8.82041016,6.06251953 8.17974609,6.70318359 C6.89841797,7.98451172 6.89841797,10.0621582 8.17974609,11.3434863 C8.82041016,11.9843555 9.66020508,12.3046875 10.5,12.3046875 C11.3397949,12.3046875 12.1795898,11.9843555 12.8202539,11.3436914 C14.101582,10.0623633 14.101582,7.9847168 12.8202539,6.70338867 C12.1795898,6.06251953 11.3397949,5.7421875 10.5,5.7421875 Z M10.5,2.7890625 C12.3046875,2.7890625 14.022832,3.57389648 15.2137207,4.94258789 C17.3491992,7.39614258 17.1428906,11.1972656 14.7442969,13.5958594 L10.5,17.8401562 L6.25570313,13.5958594 C3.85710938,11.1972656 3.65080078,7.39614258 5.7862793,4.94258789 C6.97716797,3.57389648 8.6953125,2.7890625 10.5,2.7890625 M10.5,1.4765625 C8.40348633,1.4765625 6.30717773,2.3446582 4.79616211,4.08084961 C2.16952148,7.09898437 2.4984668,11.6945801 5.32772461,14.5238379 L10.0359082,19.2322266 C10.164082,19.3604004 10.332041,19.4243848 10.5,19.4243848 C10.667959,19.4243848 10.835918,19.3604004 10.9640918,19.2322266 L15.6724805,14.5238379 C18.5017383,11.6945801 18.8306836,7.09898437 16.204043,4.08084961 C14.6928223,2.3446582 12.5965137,1.4765625 10.5,1.4765625 Z" id="形状" fill="#4895EF"></path>
                </g>
            </g>
        </g>
    </g>
</svg>