<?xml version="1.0" encoding="UTF-8"?>
<svg width="19px" height="15px" viewBox="0 0 19 15" version="1.1" xmlns="http://www.w3.org/2000/svg" xmlns:xlink="http://www.w3.org/1999/xlink">
    <!-- Generator: Sketch 58 (84663) - https://sketch.com -->
    <title>心</title>
    <desc>Created with Sketch.</desc>
    <g id="简历投递" stroke="none" stroke-width="1" fill="none" fill-rule="evenodd">
        <g id="简历投递职位详情页收藏按钮" transform="translate(-1241.000000, -213.000000)" fill-rule="nonzero">
            <g id="编组-8" transform="translate(360.000000, 121.000000)">
                <g id="编组-13" transform="translate(871.000000, 80.000000)">
                    <g id="心-2" transform="translate(9.000000, 9.000000)">
                        <g id="心">
                            <rect id="矩形" fill="#000000" opacity="0" x="0" y="0" width="21" height="21"></rect>
                            <path d="M14.3730291,3.18983729 C12.8396827,3.18983729 11.4138464,4.6806875 10.4755935,5.79966981 C9.53763448,4.68043566 8.11213397,3.18983729 6.57796915,3.18983729 C3.81372331,3.18983729 1.56497197,5.35915749 1.56497197,8.02556766 C1.56497197,9.61635212 2.37046884,10.7323545 3.01783792,11.6290555 C4.89948517,14.2335157 9.63087427,17.4745792 9.83124643,17.6112176 C10.0242316,17.7427564 10.2501014,17.8086937 10.4752158,17.8086937 C10.7009178,17.8086937 10.9263469,17.7427564 11.1191013,17.6112176 C11.3197252,17.4745792 16.0515341,14.2335157 17.9325937,11.6290555 C18.5803615,10.7323755 19.3860473,9.61635212 19.3860473,8.02556766 C19.3860473,5.35913651 17.137254,3.18983729 14.3730291,3.18983729 L14.3730291,3.18983729 Z" id="路径" fill="#FFE0B2"></path>
                        </g>
                    </g>
                </g>
            </g>
        </g>
    </g>
</svg>