<?xml version="1.0" encoding="UTF-8"?>
<svg width="94px" height="82px" viewBox="0 0 94 82" version="1.1" xmlns="http://www.w3.org/2000/svg" xmlns:xlink="http://www.w3.org/1999/xlink">
    <!-- Generator: Sketch 58 (84663) - https://sketch.com -->
    <title>编组 36</title>
    <desc>Created with Sketch.</desc>
    <defs>
        <ellipse id="path-1" cx="36.7774436" cy="37" rx="36.7357143" ry="37"></ellipse>
        <path d="M25,38 C38.8071187,38 50,31.6364508 50,23.786615 C50,15.9367792 38.8577202,0 25.0506015,0 C11.2434828,0 0,15.9367792 0,23.786615 C0,31.6364508 11.1928813,38 25,38 Z" id="path-3"></path>
    </defs>
    <g id="简历投递" stroke="none" stroke-width="1" fill="none" fill-rule="evenodd">
        <g id="简历投递职位详情页申请岗位完成度" transform="translate(-899.000000, -425.000000)">
            <g id="编组-39" transform="translate(623.000000, 399.000000)">
                <g id="编组-38" transform="translate(67.000000, 22.000000)">
                    <g id="编组-40" transform="translate(209.000000, 0.000000)">
                        <g id="编组-36">
                            <g id="感叹号" transform="translate(85.000000, 40.000000) rotate(5.000000) translate(-85.000000, -40.000000) translate(49.000000, 4.000000)" fill-rule="nonzero">
                                <rect id="矩形" fill="#000000" opacity="0" x="0" y="0" width="72" height="72"></rect>
                                <path d="M30.8118802,46.7998631 C31.1827912,48.8852647 32.9460434,50.3998528 35.0029139,50.3998528 C37.0597845,50.3998528 38.8230367,48.8852647 39.1939477,46.7998631 L41.9879702,7.19997898 C41.9798812,3.22699917 38.8572984,0.00833785303 35.0029139,0 C33.0421717,0.0498403974 31.1865605,0.924313617 29.8672216,2.42024057 C28.5478826,3.91616753 27.8796767,5.90331382 28.0178577,7.91997685 L30.8118802,46.7998631 Z M35.0029139,57.5998316 C32.1777224,57.5998316 29.6307174,59.3540502 28.5495634,62.0444979 C27.4684094,64.7349457 28.0660212,67.831785 30.0637333,69.8909646 C32.0614454,71.9501441 35.0658426,72.5661437 37.6759793,71.4517238 C40.2861159,70.3373038 41.9879702,67.7119302 41.9879702,64.7998105 C42.1018846,62.8566338 41.4026203,60.9562714 40.0671709,59.5797317 C38.7317216,58.2031921 36.8880858,57.4824122 35.0029139,57.5998316 Z" id="形状" fill="#FF6E40"></path>
                            </g>
                            <g id="编组" transform="translate(0.000000, 12.000000)">
                                <g id="路径-18">
                                    <mask id="mask-2" fill="white">
                                        <use xlink:href="#path-1"></use>
                                    </mask>
                                    <use id="蒙版" fill="#739EE5" xlink:href="#path-1"></use>
                                    <path d="M0,37 C10.7823502,52.4577778 21.9512226,60.1866667 33.506617,60.1866667 C50.8397086,60.1866667 60.2884832,57.4402759 71.0789474,37 C70.0759842,67.8027794 59.8853606,83.2603544 40.5070764,83.3727251 C21.1287923,83.4850957 7.62643345,68.0275207 0,37 Z" id="路径-21" fill="#6692DB" mask="url(#mask-2)"></path>
                                    <path d="M13.3019875,8.57971014 C14.0387894,8.5941879 14.0387894,10.8446674 13.3019875,15.3311487 C12.1967847,22.0608706 28.176207,29.9943274 33.5385546,29.9943274 C38.9009022,29.9943274 17.8007575,38.7278662 8.80277338,34.6092452 C2.80411727,31.8634979 -0.591272758,31.8634979 -1.3833967,34.6092452 C-1.76642717,18.5156988 -1.46426275,10.1540563 -0.476903436,9.52431785 C0.510455882,8.89457938 5.10341953,8.57971014 13.3019875,8.57971014 Z" id="路径-19" fill="#B0EACD" mask="url(#mask-2)"></path>
                                    <path d="M59.3003248,7.50724638 C53.8317349,15.5170814 53.2470732,20.9301706 57.5463395,23.7465138 C61.8456058,26.562857 59.9440691,28.3778066 51.8417293,29.1913625 C55.1213879,34.9161932 59.0707282,36.8217715 63.6897503,34.9080974 C68.3087724,32.9944232 73.2656974,32.9944232 78.5605253,34.9080974 L81.4417293,7.50724638 L59.3003248,7.50724638 Z" id="路径-22" fill="#B0EACD" mask="url(#mask-2)"></path>
                                </g>
                                <g id="路径-25" transform="translate(6.000000, 6.000000)">
                                    <mask id="mask-4" fill="white">
                                        <use xlink:href="#path-3"></use>
                                    </mask>
                                    <use id="蒙版" fill="#FFFFFF" xlink:href="#path-3"></use>
                                    <path d="M15.1352881,-5.26607477 C13.1713516,-0.622851371 12.6334917,2.55267551 13.5217084,4.26050587 C14.8540334,6.82225142 38.3284761,11.8595846 38.3284761,4.26050587 C38.3284761,1.2881008 38.669623,-2.90313371 36.6044336,-5.26607477 C35.6346739,-6.37565109 33.2098243,-7.38097659 29.3298849,-8.28205128 L16.2212701,-6.52135871 L15.1352881,-5.26607477 Z" fill="#B0EACD" mask="url(#mask-4)"></path>
                                </g>
                                <g id="编组-2" transform="translate(11.004558, 48.435527) rotate(-95.000000) translate(-11.004558, -48.435527) translate(6.004558, 43.935527)">
                                    <path d="M8.71473492,1.97333333 C8.43981928,5.50649617 6.34631114,6.81382587 2.43421053,5.89532241 C3.49165592,7.73026179 4.33633725,8.55159099 4.9682545,8.35931002 C5.60017176,8.16702905 6.84899856,7.83350943 8.71473492,7.35875117 L9.73684211,5.18 L9.73684211,2.91225372 L8.71473492,1.97333333 Z" id="路径-24" fill="#6692DB"></path>
                                    <path d="M0,0 C1.99331837,6.36256855 4.4161467,9.10490154 7.26848499,8.22699896 C10.1208233,7.34909639 10.5011225,5.00384238 8.40938259,1.19123692" id="路径-23" stroke="#333333" stroke-width="2" stroke-linecap="round"></path>
                                </g>
                                <g id="编组-2备份" transform="translate(53.270215, 47.870423) scale(-1, 1) rotate(61.000000) translate(-53.270215, -47.870423) translate(48.270215, 43.370423)">
                                    <path d="M8.71473492,1.97333333 C8.43981928,5.50649617 6.34631114,6.81382587 2.43421053,5.89532241 C3.49165592,7.73026179 4.33633725,8.55159099 4.9682545,8.35931002 C5.60017176,8.16702905 6.84899856,7.83350943 8.71473492,7.35875117 L9.73684211,5.18 L9.73684211,2.91225372 L8.71473492,1.97333333 Z" id="路径-24" fill="#6692DB"></path>
                                    <path d="M0,0 C1.99331837,6.36256855 4.4161467,9.10490154 7.26848499,8.22699896 C10.1208233,7.34909639 10.5011225,5.00384238 8.40938259,1.19123692" id="路径-23" stroke="#333333" stroke-width="2" stroke-linecap="round"></path>
                                </g>
                                <ellipse id="椭圆形备份-5" fill="#FFD9D9" transform="translate(15.335526, 31.573333) scale(-1, 1) rotate(89.000000) translate(-15.335526, -31.573333) " cx="15.3355263" cy="31.5733333" rx="4.19331668" ry="4.86844092"></ellipse>
                                <ellipse id="椭圆形备份-6" fill="#FFD9D9" transform="translate(41.138158, 33.546667) scale(-1, 1) rotate(92.000000) translate(-41.138158, -33.546667) " cx="41.1381579" cy="33.5466667" rx="4.19326676" ry="4.8685005"></ellipse>
                                <g id="编组-3" transform="translate(16.000000, 14.000000)">
                                    <ellipse id="椭圆形" fill="#333333" cx="4.5" cy="7" rx="4.5" ry="7"></ellipse>
                                    <ellipse id="椭圆形" fill="#FFFFFF" cx="4.73684211" cy="6.75" rx="2.36842105" ry="4.75"></ellipse>
                                </g>
                                <g id="编组-4" transform="translate(33.000000, 16.000000)">
                                    <ellipse id="椭圆形备份" fill="#333333" cx="4.5" cy="7" rx="4.5" ry="7"></ellipse>
                                    <ellipse id="椭圆形备份-2" fill="#FFFFFF" cx="3.78947368" cy="6.75" rx="2.36842105" ry="4.75"></ellipse>
                                </g>
                                <ellipse id="椭圆形" stroke="#E43F5A" fill="#EC5858" cx="28" cy="35" rx="2.5" ry="5.5"></ellipse>
                                <ellipse id="椭圆形" fill="#FFA4A4" cx="28" cy="38" rx="2" ry="3"></ellipse>
                            </g>
                        </g>
                    </g>
                </g>
            </g>
        </g>
    </g>
</svg>