<?xml version="1.0" encoding="UTF-8"?>
<svg width="19px" height="17px" viewBox="0 0 19 17" version="1.1" xmlns="http://www.w3.org/2000/svg" xmlns:xlink="http://www.w3.org/1999/xlink">
    <!-- Generator: Sketch 58 (84663) - https://sketch.com -->
    <title>sq-like</title>
    <desc>Created with Sketch.</desc>
    <g id="简历投递" stroke="none" stroke-width="1" fill="none" fill-rule="evenodd">
        <g id="简历投递职位详情页" transform="translate(-1242.000000, -212.000000)" fill-rule="nonzero">
            <g id="编组-13" transform="translate(1232.000000, 201.000000)">
                <g id="sq-like-2" transform="translate(9.000000, 9.000000)">
                    <g id="sq-like">
                        <rect id="矩形" fill="#000000" opacity="0" x="0" y="0" width="21" height="21"></rect>
                        <path d="M10.0713236,18.1879066 C9.74442826,17.9670523 2.05692041,12.7236943 1.33018313,7.95249521 C1.13633756,6.67930942 1.43244679,5.54049554 2.21030541,4.56765814 C3.17619654,3.35952824 4.36048659,2.68273712 5.73026988,2.55615093 C5.88574736,2.54182966 6.04180215,2.53472426 6.19793781,2.53472426 C8.02993271,2.53472426 9.66642417,3.49255707 10.4998741,4.08208935 C11.3331351,3.49270394 12.9700253,2.53516516 14.8064063,2.53516516 C14.9618899,2.53516516 15.1177512,2.54221638 15.2696462,2.55612995 C16.6393665,2.6827371 17.8237825,3.35950726 18.7901143,4.56765814 C19.5676791,5.54066344 19.8636415,6.67947732 19.6698169,7.95249521 C18.9428488,12.7236943 11.2553409,17.9670523 10.9284455,18.1879066 L10.4998951,18.4776152 L10.0713236,18.1879066 Z M6.19888215,4.06643395 C6.08681813,4.06643395 5.97462819,4.07159644 5.86546023,4.08179555 C4.91532942,4.17123691 4.11096578,4.64297607 3.40647341,5.52400072 C2.89987688,6.15775004 2.71604152,6.87644975 2.84445347,7.72119003 C3.07458344,9.23436909 4.23937771,11.0411391 6.30645522,13.0912601 C7.96462499,14.7357891 9.76633742,16.0869161 10.4998951,16.6161772 C11.2335157,16.0868531 13.035396,14.7356213 14.6934189,13.0911972 C16.7605803,11.0410132 17.9254166,9.23411727 18.1555465,7.72074934 C18.2840004,6.87609302 18.1001441,6.1575192 17.5935266,5.52400072 C16.8892861,4.64299703 16.0849224,4.17123689 15.1344978,4.08179555 C15.0246782,4.07165121 14.9144479,4.06659522 14.8041608,4.06664381 C12.8684122,4.06664381 11.0740868,5.5632651 10.9986429,5.62697791 L10.4991396,6.05500371 L9.99961526,5.62576073 C9.99525021,5.62204625 9.52808596,5.22766063 8.82474783,4.84005344 C8.184388,4.48711473 7.20899031,4.06643395 6.19888215,4.06643395 Z M10.4998951,18.4058019 L10.1046281,18.138611 C9.77857213,17.9183234 2.11215496,12.6913343 1.38898526,7.94353428 C1.19767897,6.68713711 1.48969597,5.56412553 2.25676791,4.60480295 C3.21193532,3.41004101 4.38233279,2.74044799 5.73574717,2.61537277 C7.77852317,2.42589223 9.65805083,3.55398239 10.4998741,4.15505686 C11.3416763,3.55400337 13.2221274,2.42820067 15.2642319,2.61537277 C16.6176462,2.74046895 17.7880437,3.41004099 18.7436728,4.60480295 C19.510283,5.56410455 19.802321,6.68713713 19.6110147,7.94353428 C18.8876142,12.6913343 11.221197,17.9183234 10.8951411,18.138611 L10.4998951,18.4058019 Z M6.19888215,4.00696029 C6.08620954,4.00696029 5.97307524,4.01201786 5.85994096,4.02259469 C4.89258082,4.11365196 4.07491221,4.59284105 3.36003189,5.4868559 C2.84243882,6.13437189 2.65457419,6.86786658 2.78565133,7.73015096 C3.33014817,11.3103026 8.94688501,15.5724709 10.4998951,16.6895225 C12.0529051,15.5724709 17.6698728,11.3103026 18.2143697,7.72968927 C18.3454258,6.86786658 18.157813,6.13437189 17.6399891,5.4868559 C16.9253396,4.59284105 16.107671,4.11365194 15.14008,4.02259469 C13.0370539,3.82669252 10.9809309,5.56410455 10.960239,5.58158569 L10.4992025,5.97662184 L10.038397,5.58066231 C10.0200134,5.56504889 8.17681212,4.00696029 6.19888215,4.00696029 Z" id="形状" fill="#FF3D00"></path>
                    </g>
                </g>
            </g>
        </g>
    </g>
</svg>