<?xml version="1.0" encoding="UTF-8"?>
<svg width="39px" height="39px" viewBox="0 0 39 39" version="1.1" xmlns="http://www.w3.org/2000/svg" xmlns:xlink="http://www.w3.org/1999/xlink">
    <!-- Generator: Sketch 58 (84663) - https://sketch.com -->
    <title>LinkedIN备份</title>
    <desc>Created with Sketch.</desc>
    <g id="注册流程优化" stroke="none" stroke-width="1" fill="none" fill-rule="evenodd">
        <g id="登录页面" transform="translate(-1330.000000, -644.000000)" fill-rule="nonzero">
            <g id="编组-12" transform="translate(1152.000000, 644.000000)">
                <g id="LinkedIN备份-2" transform="translate(178.000000, 0.000000)">
                    <g id="LinkedIN备份">
                        <rect id="矩形" fill="#000000" opacity="0" x="0" y="0" width="39" height="39"></rect>
                        <path d="M0,19.5 C0,8.73031251 8.73031251,0 19.5,0 C30.2696875,0 39,8.73031251 39,19.5 C39,30.2696875 30.2696875,39 19.5,39 C8.73031251,39 0,30.2696875 0,19.5 Z" id="路径" fill="#0077B5"></path>
                        <path d="M14.0716875,12.0436875 C14.0716875,13.3185 13.112125,14.3381875 11.5708125,14.3381875 L11.542375,14.3381875 C10.05875,14.3381875 9.09999999,13.3185 9.09999999,12.0436875 C9.09999999,10.74125 10.088,9.75 11.6000625,9.75 C13.112125,9.75 14.0424375,10.74125 14.0716875,12.0436875 L14.0716875,12.0436875 Z M13.7808125,16.150875 L13.7808125,29.42875 L9.36162501,29.42875 L9.36162501,16.150875 L13.7808125,16.150875 Z M29.7171875,29.42875 L29.7171875,21.815625 C29.7171875,17.736875 27.53725,15.838875 24.6293125,15.838875 C22.2828125,15.838875 21.2330625,17.1275 20.6464375,18.0318125 L20.6464375,16.150875 L16.2264375,16.150875 C16.2849375,17.39725 16.2264375,29.42875 16.2264375,29.42875 L20.6464375,29.42875 L20.6464375,22.0130625 C20.6464375,21.6165625 20.674875,21.220875 20.791875,20.9365 C21.1111875,20.1435 21.838375,19.322875 23.0595625,19.322875 C24.6585625,19.322875 25.298,20.5408125 25.298,22.3250625 L25.298,29.42875 L29.7171875,29.42875 Z" id="形状" fill="#FFFFFF"></path>
                    </g>
                </g>
            </g>
        </g>
    </g>
</svg>