<?xml version="1.0" encoding="UTF-8"?>
<svg width="31px" height="33px" viewBox="0 0 31 33" version="1.1" xmlns="http://www.w3.org/2000/svg" xmlns:xlink="http://www.w3.org/1999/xlink">
    <!-- Generator: Sketch 58 (84663) - https://sketch.com -->
    <title>产品超市</title>
    <desc>Created with Sketch.</desc>
    <g id="百科" stroke="none" stroke-width="1" fill="none" fill-rule="evenodd">
        <g id="百科首页" transform="translate(-363.000000, -1764.000000)" fill-rule="nonzero">
            <g id="编组-27备份" transform="translate(360.000000, 1762.000000)">
                <g id="产品超市-2">
                    <g id="产品超市">
                        <rect id="矩形" fill="#000000" opacity="0" x="0" y="0" width="37" height="37"></rect>
                        <path d="M10.3672266,4.1303418 L10.3672266,4.1303418 C14.4143424,4.1303418 16.4379004,6.15389974 16.4379004,10.2010156 L16.4379004,10.2010156 C16.4379004,14.2481315 14.4143424,16.2716895 10.3672266,16.2716895 L10.3672266,16.2716895 C6.32011068,16.2716895 4.29655273,14.2481315 4.29655273,10.2010156 L4.29655273,10.2010156 C4.29655273,6.15389974 6.32011068,4.1303418 10.3672266,4.1303418 Z" id="路径" fill="#CBE1FA"></path>
                        <path d="M10.9908789,17.4279395 L9.74321289,17.4279395 C6.10174805,17.4279395 3.13994141,14.4650488 3.13994141,10.824668 L3.13994141,9.57700195 C3.13994141,5.93625977 6.10283203,2.97373047 9.74321289,2.97373047 L10.9908789,2.97373047 C14.6323437,2.97373047 17.5941504,5.93662109 17.5941504,9.57700195 L17.5941504,10.824668 C17.5941504,14.4657715 14.6337891,17.4279395 10.9908789,17.4279395 Z M9.74321289,5.28731445 C7.37506337,5.29010067 5.45582597,7.20885321 5.45244141,9.57700195 L5.45244141,10.824668 C5.45503021,13.1933225 7.37455838,15.1128506 9.74321289,15.1154395 L10.9908789,15.1154395 C13.3595334,15.1128506 15.2790616,13.1933225 15.2816504,10.824668 L15.2816504,9.57700195 C15.2788629,7.20842988 13.359451,5.28901796 10.9908789,5.28623047 L9.74321289,5.28731445 Z M33.3964746,16.8042871 L20.1899316,16.8042871 L20.1899316,3.59774414 L33.3964746,3.59774414 L33.3964746,16.8042871 Z M22.5024316,14.4917871 L31.0839746,14.4917871 L31.0839746,5.91024414 L22.5024316,5.91024414 L22.5024316,14.4917871 Z M16.9697754,33.6121875 L3.76431641,33.6121875 L3.76431641,20.4049219 L16.9697754,20.4049219 L16.9697754,33.6121875 Z M6.07681641,31.2996875 L14.6572754,31.2996875 L14.6572754,22.7174219 L6.07681641,22.7174219 L6.07681641,31.2996875 Z M33.3964746,33.6121875 L20.1899316,33.6121875 L20.1899316,20.4049219 L33.3964746,20.4049219 L33.3964746,33.6121875 Z M22.5024316,31.2996875 L31.0839746,31.2996875 L31.0839746,22.7174219 L22.5024316,22.7174219 L22.5024316,31.2996875 Z" id="形状" fill="#4895EF"></path>
                    </g>
                </g>
            </g>
        </g>
    </g>
</svg>