<?xml version="1.0" encoding="UTF-8"?>
<svg width="21px" height="21px" viewBox="0 0 21 21" version="1.1" xmlns="http://www.w3.org/2000/svg" xmlns:xlink="http://www.w3.org/1999/xlink">
    <!-- Generator: Sketch 58 (84663) - https://sketch.com -->
    <title>上传图片</title>
    <desc>Created with Sketch.</desc>
    <g id="注册流程优化" stroke="none" stroke-width="1" fill="none" fill-rule="evenodd">
        <g id="注册页面填写基本信息1.0" transform="translate(-1136.000000, -426.000000)" fill-rule="nonzero">
            <g id="编组-7" transform="translate(1065.000000, 291.000000)">
                <g id="上传图片-2" transform="translate(68.000000, 134.000000)">
                    <g id="上传图片">
                        <rect id="矩形" fill="#000000" opacity="0" x="0" y="0" width="26" height="26"></rect>
                        <path d="M16.7307692,22 L5.42307692,22 C4.08533654,22 3,20.9120087 3,19.5766318 L3,3.42336819 C3,2.085467 4.08786058,1 5.42307692,1 L21.5769231,1 C22.9146635,1 24,2.08799135 24,3.42336819 L24,14.7324198 C24,15.1792283 23.6390625,15.5402092 23.1923077,15.5402092 C22.7455529,15.5402092 22.3846154,15.1792283 22.3846154,14.7324198 L22.3846154,3.42336819 C22.3846154,2.97655968 22.0211538,2.6155788 21.5769231,2.6155788 L5.42307692,2.6155788 C4.97632212,2.6155788 4.61538462,2.97908402 4.61538462,3.42336819 L4.61538462,19.5766318 C4.61538462,20.0234403 4.97884615,20.3844212 5.42307692,20.3844212 L16.7307692,20.3844212 C17.177524,20.3844212 17.5384615,20.7454021 17.5384615,21.1922106 C17.5384615,21.6390191 17.177524,22 16.7307692,22 Z M3.80769231,17.1532636 C3.60072115,17.1532636 3.39375,17.075009 3.23725962,16.9159755 C2.92175481,16.6004327 2.92175481,16.0879913 3.23725962,15.7724486 L7.26057692,11.751172 C7.99759615,11.0140642 9.12079327,10.8297872 10.0546875,11.2967905 L14.4364183,13.4879192 C14.746875,13.6444284 15.1204327,13.5838442 15.3652644,13.3364587 L22.619351,6.08150018 C22.9348558,5.76595745 23.4472356,5.76595745 23.7627404,6.08150018 C24.0782452,6.39704291 24.0782452,6.90948431 23.7627404,7.22502705 L16.5086538,14.4799856 C15.7716346,15.2170934 14.6484375,15.4013704 13.7145433,14.9343671 L9.3328125,12.7432384 C9.02235577,12.5867292 8.64879808,12.6473134 8.40396635,12.8946989 L4.378125,16.9159755 C4.22163462,17.075009 4.01466346,17.1532636 3.80769231,17.1532636 Z M10.2692308,9.07536964 C8.93401442,9.07536964 7.84615385,7.98737829 7.84615385,6.65200144 C7.84615385,5.31662459 8.93401442,4.22863325 10.2692308,4.22863325 C11.6044471,4.22863325 12.6923077,5.31662459 12.6923077,6.65200144 C12.6923077,7.98737829 11.6044471,9.07536964 10.2692308,9.07536964 Z M10.2692308,5.84421204 C9.825,5.84421204 9.46153846,6.20771727 9.46153846,6.65200144 C9.46153846,7.09628561 9.825,7.45979084 10.2692308,7.45979084 C10.7134615,7.45979084 11.0769231,7.09628561 11.0769231,6.65200144 C11.0769231,6.20771727 10.7134615,5.84421204 10.2692308,5.84421204 Z M19.9615385,22 C19.5147837,22 19.1538462,21.6390191 19.1538462,21.1922106 L19.1538462,16.3454742 C19.1538462,15.8986657 19.5147837,15.5376848 19.9615385,15.5376848 C20.4082933,15.5376848 20.7692308,15.8986657 20.7692308,16.3454742 L20.7692308,21.1922106 C20.7692308,21.6390191 20.4082933,22 19.9615385,22 Z M23.1923077,18.7688424 C22.9929087,18.7688424 22.7960337,18.6956365 22.6395433,18.5492247 L19.9615385,16.0349802 L17.2835337,18.551749 C16.9579327,18.8571944 16.4480769,18.8420483 16.1426683,18.5164082 C15.8372596,18.1907681 15.8524038,17.6808511 16.1780048,17.3754057 L19.009976,14.7147494 C19.2421875,14.4294987 19.5905048,14.2628922 19.9615385,14.2628922 C20.3325721,14.2628922 20.6808894,14.4294987 20.913101,14.7147494 L23.7450721,17.3754057 C24.0706731,17.6808511 24.0858173,18.1932925 23.7804087,18.5164082 C23.6213942,18.6830148 23.406851,18.7688424 23.1923077,18.7688424 Z" id="形状" fill="#4895EF"></path>
                    </g>
                </g>
            </g>
        </g>
    </g>
</svg>