<?xml version="1.0" encoding="UTF-8"?>
<svg width="17px" height="17px" viewBox="0 0 17 17" version="1.1" xmlns="http://www.w3.org/2000/svg" xmlns:xlink="http://www.w3.org/1999/xlink">
    <!-- Generator: Sketch 58 (84663) - https://sketch.com -->
    <title>编组 21</title>
    <desc>Created with Sketch.</desc>
    <g id="简历投递" stroke="none" stroke-width="1" fill="none" fill-rule="evenodd">
        <g id="简历投递职位详情页申请岗位浏览简历" transform="translate(-1356.000000, -115.000000)" fill-rule="nonzero">
            <g id="编组-98" transform="translate(534.000000, 102.000000)">
                <g id="编组-97" transform="translate(62.000000, 7.000000)">
                    <g id="编组-22" transform="translate(754.000000, -0.000000)">
                        <g id="编组-21" transform="translate(0.000000, -0.000000)">
                            <rect id="矩形" fill="#000000" opacity="0" x="-5.32907052e-15" y="-5.32907052e-15" width="29" height="29"></rect>
                            <path d="M16.1916667,14.5 L22.5958333,8.09583334 C23.0791667,7.6125 23.0791667,6.8875 22.5958333,6.40416666 C22.1125,5.92083331 21.3875,5.92083331 20.9041667,6.40416666 L14.5,12.8083333 L8.09583334,6.40416666 C7.6125,5.92083331 6.8875,5.92083331 6.40416666,6.40416666 C5.92083331,6.8875 5.92083331,7.6125 6.40416666,8.09583334 L12.8083333,14.5 L6.40416666,20.9041667 C5.92083331,21.3875 5.92083331,22.1125 6.40416666,22.5958333 C6.64583331,22.8375 6.8875,22.9583333 7.25,22.9583333 C7.6125,22.9583333 7.85416666,22.8375 8.09583334,22.5958333 L14.5,16.1916667 L20.9041667,22.5958333 C21.1458333,22.8375 21.5083333,22.9583333 21.75,22.9583333 C21.9916667,22.9583333 22.3541667,22.8375 22.5958333,22.5958333 C23.0791667,22.1125 23.0791667,21.3875 22.5958333,20.9041667 L16.1916667,14.5 Z" id="路径" fill="#4F69ED"></path>
                        </g>
                    </g>
                </g>
            </g>
        </g>
    </g>
</svg>