<?xml version="1.0" encoding="UTF-8"?>
<svg width="17px" height="17px" viewBox="0 0 17 17" version="1.1" xmlns="http://www.w3.org/2000/svg" xmlns:xlink="http://www.w3.org/1999/xlink">
    <!-- Generator: Sketch 58 (84663) - https://sketch.com -->
    <title>设 置</title>
    <desc>Created with Sketch.</desc>
    <g id="活动版块" stroke="none" stroke-width="1" fill="none" fill-rule="evenodd">
        <g id="活动发布页（选中+校园组织）" transform="translate(-868.000000, -770.000000)" fill-rule="nonzero">
            <g id="编组-10" transform="translate(417.000000, 763.000000)">
                <g id="设-置-2" transform="translate(449.000000, 5.000000)">
                    <g id="设-置">
                        <rect id="矩形" fill="#000000" opacity="0" x="0" y="0" width="20" height="20"></rect>
                        <path d="M17.5011161,10.5 C17.5011161,9.50580357 18.1253348,8.66339286 19,8.32756696 C18.7912946,7.50792411 18.46875,6.73571429 18.0475446,6.02611607 C17.1899554,6.40747768 16.1540179,6.25189732 15.4520089,5.54799107 C14.75,4.84598214 14.5944196,3.80814732 14.9757813,2.95245536 C14.2642857,2.53125 13.4920759,2.20870536 12.672433,2 C12.3347098,2.87466518 11.4922991,3.49888393 10.5,3.49888393 C9.50580357,3.49888393 8.66339286,2.87466518 8.32756696,2 C7.50792411,2.20870536 6.73571429,2.53125 6.02611607,2.95245536 C6.40747768,3.81004464 6.25189732,4.84598214 5.54988839,5.54799107 C4.84787946,6.25 3.81004464,6.40558036 2.95435268,6.02611607 C2.53125,6.73571429 2.20870536,7.50792411 2,8.32756696 C2.87466518,8.66529018 3.49888393,9.50770089 3.49888393,10.5 C3.49888393,11.4941964 2.87466518,12.3366071 2,12.672433 C2.20870536,13.4920759 2.53125,14.2642857 2.95245536,14.9738839 C3.81004464,14.5925223 4.84598214,14.7481027 5.54799107,15.4520089 C6.25,16.1540179 6.40558036,17.1918527 6.02421875,18.0475446 C6.73571429,18.46875 7.50792411,18.7912946 8.32756696,19 C8.66529018,18.1253348 9.50770089,17.5011161 10.5,17.5011161 C11.4941964,17.5011161 12.3366071,18.1253348 12.672433,19 C13.4920759,18.7912946 14.2642857,18.46875 14.9738839,18.0475446 C14.5925223,17.1899554 14.7481027,16.1540179 15.4501116,15.4520089 C16.1521205,14.75 17.1899554,14.5944196 18.0456473,14.9738839 C18.46875,14.2642857 18.7912946,13.4920759 19,12.672433 C18.1253348,12.3366071 17.5011161,11.4941964 17.5011161,10.5 Z M10.5,12.8337054 C9.21171875,12.8337054 8.16629464,11.7882813 8.16629464,10.5 C8.16629464,9.21171875 9.21171875,8.16629464 10.5,8.16629464 C11.7882813,8.16629464 12.8337054,9.21171875 12.8337054,10.5 C12.8337054,11.7882813 11.7882813,12.8337054 10.5,12.8337054 Z" id="形状" fill="#4895EF"></path>
                    </g>
                </g>
            </g>
        </g>
    </g>
</svg>