<?xml version="1.0" encoding="UTF-8"?>
<svg width="16px" height="17px" viewBox="0 0 16 17" version="1.1" xmlns="http://www.w3.org/2000/svg" xmlns:xlink="http://www.w3.org/1999/xlink">
    <!-- Generator: Sketch 58 (84663) - https://sketch.com -->
    <title>编辑备份 5</title>
    <desc>Created with Sketch.</desc>
    <g id="活动版块" stroke="none" stroke-width="1" fill="none" fill-rule="evenodd">
        <g id="模板管理" transform="translate(-1033.000000, -692.000000)" fill-rule="nonzero">
            <g id="编辑备份-7" transform="translate(1032.000000, 692.000000)">
                <g id="编辑备份-5">
                    <rect id="矩形" fill="#000000" opacity="0" x="0" y="0" width="17" height="17"></rect>
                    <path d="M13.6680664,15.5855469 L3.80839844,15.5855469 C2.61972656,15.5855469 1.65351562,14.6193359 1.65351562,13.4306641 L1.65351562,3.57099609 C1.65351562,2.38232422 2.61972656,1.41611328 3.80839844,1.41611328 L8.7390625,1.41611328 C9.13085937,1.41611328 9.44794922,1.73320312 9.44794922,2.125 C9.44794922,2.51679687 9.13085937,2.83388672 8.7390625,2.83388672 L3.80839844,2.83388672 C3.40166016,2.83388672 3.07128906,3.16425781 3.07128906,3.57099609 L3.07128906,13.4306641 C3.07128906,13.8374023 3.40166016,14.1677734 3.80839844,14.1677734 L13.6680664,14.1677734 C14.0748047,14.1677734 14.4051758,13.8374023 14.4051758,13.4306641 L14.4051758,8.5 C14.4051758,8.10820312 14.7222656,7.79111328 15.1140625,7.79111328 C15.5058594,7.79111328 15.8229492,8.10820312 15.8229492,8.5 L15.8229492,13.4306641 C15.8229492,14.6193359 14.8567383,15.5855469 13.6680664,15.5855469 Z" id="路径" fill="#4895EF"></path>
                    <path d="M8.01855469,12.559082 C7.98867187,12.559082 7.96044922,12.5574219 7.93056641,12.5541016 L5.69765625,12.2751953 C5.37558594,12.2353516 5.12324219,11.9813477 5.08339844,11.6609375 L4.80449219,9.42802734 C4.77792969,9.21054687 4.85263672,8.99306641 5.00703125,8.83867187 L11.2259766,2.61972656 C12.0743164,1.77138672 13.4539062,1.77138672 14.3022461,2.61972656 L14.7388672,3.05634766 C15.1505859,3.46640625 15.3763672,4.01259766 15.3763672,4.5953125 C15.3763672,5.17636719 15.1505859,5.72255859 14.7388672,6.13427734 L8.51992187,12.3515625 C8.38544922,12.4860352 8.20449219,12.559082 8.01855469,12.559082 Z M6.41982422,10.9371094 L7.76123047,11.1047852 L13.7344727,5.13154297 C13.8772461,4.98876953 13.9569336,4.79785156 13.9569336,4.5953125 C13.9569336,4.39277344 13.8772461,4.20185547 13.7344727,4.05908203 L13.2978516,3.62246094 C13.0006836,3.32695313 12.5208984,3.32695313 12.2253906,3.62246094 L6.25214844,9.59570313 L6.41982422,10.9371094 Z" id="形状" fill="#4895EF"></path>
                </g>
            </g>
        </g>
    </g>
</svg>