<svg class="icon" style="width: 1em; height: 1em;vertical-align: middle;fill: currentColor;overflow: hidden;" viewBox="0 0 1024 1024" version="1.1" xmlns="http://www.w3.org/2000/svg"><path d="M357.550344 44.421038C324.831885 17.115021 283.287731 0.02438 237.355111 0.02438A188.582177 188.582177 0 0 0 48.772934 188.582177c0 34.912693 10.117854 67.192305 26.672127 95.229732a598.416228 598.416228 0 0 1 282.080903-239.390871z m146.940501 49.88224C252.787886 94.303278 48.772934 298.318231 48.772934 550.04557 48.772934 801.699769 252.787886 1005.714721 504.490845 1005.714721c251.654199 0 455.669151-204.014952 455.669151-455.693531 0-251.702959-204.014952-455.717911-455.669151-455.717912z m0 817.132545c-199.626485 0-361.439013-161.812528-361.439013-361.414633 0-199.602105 161.812528-361.439013 361.439013-361.439013 199.577724 0 361.414633 161.836909 361.414633 361.439013s-161.836909 361.414633-361.414633 361.414633zM933.049023 282.885455c16.822457-27.964287 27.135354-60.121997 27.135354-94.912788C960.184377 84.185424 874.243566 0.02438 768.237709 0.02438c-46.810314 0-89.061499 17.04188-122.365087 44.250375a606.071665 606.071665 0 0 1 287.15202 238.6107zM677.323302 534.29585h-125.705198v-219.984096a31.45068 31.45068 0 0 0-31.450679-31.450679h-31.401919a31.45068 31.45068 0 0 0-31.45068 31.450679v282.836695c0 17.358825 14.091855 31.45068 31.45068 31.45068h188.557796a31.45068 31.45068 0 0 0 31.45068-31.45068v-31.4263a31.45068 31.45068 0 0 0-31.45068-31.426299z" /></svg>