<?xml version="1.0" encoding="UTF-8"?>
<svg width="33px" height="34px" viewBox="0 0 33 34" version="1.1" xmlns="http://www.w3.org/2000/svg" xmlns:xlink="http://www.w3.org/1999/xlink">
    <!-- Generator: Sketch 58 (84663) - https://sketch.com -->
    <title>时间</title>
    <desc>Created with Sketch.</desc>
    <g id="百科" stroke="none" stroke-width="1" fill="none" fill-rule="evenodd">
        <g id="百科首页" transform="translate(-1053.000000, -3062.000000)" fill-rule="nonzero">
            <g id="时间-2" transform="translate(1051.000000, 3060.000000)">
                <g id="时间">
                    <rect id="矩形" fill="#000000" opacity="0" x="0" y="0" width="37" height="37"></rect>
                    <path d="M18.685,34.78 C9.79597695,34.78 2.59,27.574023 2.59,18.685 C2.59,9.79597695 9.79597695,2.59 18.685,2.59 C27.574023,2.59 34.78,9.79597695 34.78,18.685 C34.7698052,27.5697968 27.5697968,34.7698052 18.685,34.78 L18.685,34.78 Z M18.685,5.186105 C13.225115,5.186105 8.30284884,8.47507027 6.21345858,13.5193535 C4.12406832,18.5636367 5.27902621,24.3698461 9.1397744,28.2305414 C13.0005226,32.0912367 18.8067479,33.246115 23.8510025,31.1566556 C28.895257,29.0671962 32.18408,24.144885 32.18408,18.685 C32.1756179,11.2332019 26.1367982,5.19446498 18.685,5.186105 Z M23.72588,25.2182766 C23.3699858,25.2188335 23.0295798,25.072754 22.784785,24.81442 L18.214175,20.00442 C17.7238276,19.4903033 17.4507939,18.8067912 17.4519712,18.09633 L17.4519712,11.84888 C17.4519712,11.3851635 17.6993648,10.9566719 18.100955,10.7248136 C18.5025452,10.4929554 18.9973248,10.4929554 19.398915,10.7248136 C19.8005052,10.9566719 20.047895,11.3851635 20.047895,11.84888 L20.047895,18.09707 C20.0478616,18.1416687 20.0649464,18.1845792 20.095625,18.21695 L24.66642,23.02695 C25.023225,23.4031649 25.1218937,23.9556379 24.9173727,24.4321026 C24.7128517,24.9085673 24.2443848,25.2175991 23.72588,25.21809 L23.72588,25.2182766 Z" id="形状" fill="#4895EF"></path>
                </g>
            </g>
        </g>
    </g>
</svg>