<?xml version="1.0" encoding="UTF-8"?>
<svg width="18px" height="15px" viewBox="0 0 18 15" version="1.1" xmlns="http://www.w3.org/2000/svg" xmlns:xlink="http://www.w3.org/1999/xlink">
    <!-- Generator: Sketch 58 (84663) - https://sketch.com -->
    <title>上传</title>
    <desc>Created with Sketch.</desc>
    <g id="简历板块" stroke="none" stroke-width="1" fill="none" fill-rule="evenodd">
        <g id="简历板块未填-" transform="translate(-1352.000000, -393.000000)" fill-rule="nonzero">
            <g id="编组-46" transform="translate(1283.000000, 346.000000)">
                <g id="编组-31" transform="translate(25.000000, 38.000000)">
                    <g id="编组-27" transform="translate(43.000000, 6.000000)">
                        <g id="上传-2">
                            <g id="上传">
                                <rect id="矩形" fill="#000000" opacity="0" x="0" y="0" width="20" height="20"></rect>
                                <path d="M15.0671875,7.98710937 C14.6371094,7.98710937 14.2146484,8.07207031 13.8230469,8.23339844 C13.4784362,7.74402832 13.0053885,7.35931797 12.4560547,7.12167969 C12.3101563,4.88359375 10.4427734,3.10703125 8.16835938,3.10703125 C5.79902344,3.10703125 3.87148438,5.03457031 3.87148438,7.40390625 C3.87148438,7.44765625 3.87207031,7.49160156 3.8734375,7.53535156 C2.55878906,8.09492187 1.66640625,9.39765625 1.66640625,10.8769531 C1.66640625,12.8792969 3.29550781,14.5082031 5.29765625,14.5082031 C5.50253906,14.5082031 5.83808594,14.5003906 5.85234375,14.5001953 L5.81367188,12.8339844 C5.81035156,12.8339844 5.48320312,12.8416016 5.29765625,12.8416016 C4.21425781,12.8416016 3.33300781,11.9601562 3.33300781,10.8769531 C3.33300781,9.93144531 4.00605469,9.11933594 4.93359375,8.94609375 L5.77304688,8.78925781 L5.59570313,7.95390625 C5.55742188,7.77402344 5.53808594,7.5890625 5.53808594,7.40410156 C5.53808594,5.95390625 6.71796875,4.77402344 8.16816406,4.77402344 C9.61835938,4.77402344 10.7982422,5.95390625 10.7982422,7.40410156 C10.7982422,7.48515625 10.7943359,7.56875 10.7865234,7.65253906 L10.7162109,8.40527344 L11.4583984,8.54824219 C12.0410156,8.66054687 12.5103516,9.08339844 12.6835938,9.65175781 L13.0558594,10.8740234 L14.0244141,10.040625 C14.314504,9.79119913 14.6844148,9.65405908 15.0669922,9.65410156 C15.9490234,9.65410156 16.6666016,10.3716797 16.6666016,11.2537109 C16.6666016,12.1101563 15.9033203,12.8337891 15,12.8337891 L15,14.5003906 C16.8380859,14.5003906 18.3333984,13.0439453 18.3333984,11.2535156 C18.3333984,9.45214844 16.8681641,7.98710938 15.0671875,7.98710937 Z M7.29941406,12.7734375 L8.53398438,13.8931641 L9.59472656,12.7238281 L9.58339844,17.4980469 L11.25,17.5019531 L11.2613281,12.7335938 L12.2957031,13.8892578 L13.5375,12.7775391 L10.4371094,9.31425781 L7.29941406,12.7734375 Z" id="形状" fill="#FFFFFF"></path>
                            </g>
                        </g>
                    </g>
                </g>
            </g>
        </g>
    </g>
</svg>