<?xml version="1.0" encoding="UTF-8"?>
<svg width="17px" height="17px" viewBox="0 0 17 17" version="1.1" xmlns="http://www.w3.org/2000/svg" xmlns:xlink="http://www.w3.org/1999/xlink">
    <!-- Generator: Sketch 58 (84663) - https://sketch.com -->
    <title>KHCFDC_放大</title>
    <desc>Created with Sketch.</desc>
    <g id="百科" stroke="none" stroke-width="1" fill="none" fill-rule="evenodd">
        <g id="百科首页" transform="translate(-818.000000, -2422.000000)" fill-rule="nonzero">
            <g id="编组-32" transform="translate(818.000000, 2419.000000)">
                <g id="KHCFDC_放大-2" transform="translate(0.000000, 3.000000)">
                    <g id="KHCFDC_放大">
                        <rect id="矩形" fill="#000000" opacity="0" x="0" y="0" width="17" height="17"></rect>
                        <path d="M14.1666667,0 L2.83333334,0 C1.24666666,0 0,1.24666666 0,2.83333334 L0,14.1666667 C0,15.7533333 1.24666666,17 2.83333334,17 L14.1666667,17 C15.7533333,17 17,15.7533333 17,14.1666667 L17,2.83333334 C17,1.24666666 15.7533333,0 14.1666667,0 Z M15.8666667,14.1666667 C15.8666667,15.0733333 15.0733333,15.8666667 14.1666667,15.8666667 L2.83333334,15.8666667 C1.92666668,15.8666667 1.13333334,15.0733333 1.13333334,14.1666667 L1.13333334,2.83333334 C1.13333334,1.92666666 1.92666666,1.13333334 2.83333334,1.13333334 L14.1666667,1.13333334 C15.0733333,1.13333334 15.8666667,1.92666668 15.8666667,2.83333334 L15.8666667,14.1666667 Z M6.68666666,9.52 L3.4,12.8066667 L3.4,10.7666667 C3.4,10.4266667 3.17333334,10.2 2.83333334,10.2 C2.49333334,10.2 2.26666666,10.4266667 2.26666666,10.7666667 L2.26666666,14.1666667 C2.26666666,14.5066667 2.49333332,14.7333333 2.83333334,14.7333333 L6.23333334,14.7333333 C6.57333334,14.7333333 6.8,14.5066667 6.8,14.1666667 C6.8,13.8266666 6.57333334,13.6 6.23333334,13.6 L4.19333334,13.6 L7.48,10.3133333 C7.70666666,10.0866667 7.70666666,9.74666668 7.48,9.52 C7.25333334,9.29333334 6.91333334,9.29333334 6.68666666,9.52 Z M14.1666667,2.26666666 L10.7666667,2.26666666 C10.4266667,2.26666666 10.2,2.49333332 10.2,2.83333334 C10.2,3.17333336 10.4266667,3.4 10.7666667,3.4 L12.8066667,3.4 L9.52,6.68666666 C9.29333334,6.91333332 9.29333334,7.25333332 9.52,7.48 C9.74666666,7.70666666 10.0866667,7.70666666 10.3133333,7.48 L13.6,4.19333334 L13.6,6.23333334 C13.6,6.57333334 13.8266667,6.8 14.1666667,6.8 C14.5066667,6.8 14.7333333,6.57333334 14.7333333,6.23333334 L14.7333333,2.83333334 C14.7333333,2.49333334 14.5066667,2.26666666 14.1666667,2.26666666 Z" id="形状" fill="#2853FF"></path>
                    </g>
                </g>
            </g>
        </g>
    </g>
</svg>