<?xml version="1.0" encoding="UTF-8"?>
<svg width="18px" height="18px" viewBox="0 0 18 18" version="1.1" xmlns="http://www.w3.org/2000/svg" xmlns:xlink="http://www.w3.org/1999/xlink">
    <!-- Generator: Sketch 58 (84663) - https://sketch.com -->
    <title>添加</title>
    <desc>Created with Sketch.</desc>
    <g id="活动版块" stroke="none" stroke-width="1" fill="none" fill-rule="evenodd">
        <g id="报名表" transform="translate(-788.000000, -482.000000)" fill-rule="nonzero">
            <g id="添加-3" transform="translate(787.000000, 481.000000)">
                <g id="添加">
                    <rect id="矩形" fill="#000000" opacity="0" x="0" y="0" width="20" height="20"></rect>
                    <path d="M18.0234375,6.61132812 C17.5839844,5.57421875 16.9570312,4.64257812 16.1582031,3.84375 C15.359375,3.04492187 14.4277344,2.41601562 13.390625,1.97851562 C12.3164062,1.5234375 11.1757812,1.29492187 10.0019531,1.29492187 C8.82617187,1.29492187 7.68554687,1.52539062 6.61328125,1.97851562 C5.57617187,2.41796875 4.64453125,3.04492187 3.84570312,3.84375 C3.046875,4.64257812 2.41796875,5.57421875 1.98046875,6.61132812 C1.52539062,7.68554687 1.296875,8.82617187 1.296875,10 C1.296875,11.1757812 1.52734375,12.3164062 1.98046875,13.3886719 C2.41992187,14.4257812 3.046875,15.3574219 3.84570312,16.15625 C4.64453125,16.9550781 5.57617187,17.5839844 6.61328125,18.0214844 C7.6875,18.4765625 8.828125,18.7050781 10.0019531,18.7050781 C11.1777344,18.7050781 12.3183594,18.4746094 13.390625,18.0214844 C14.4277344,17.5820312 15.359375,16.9550781 16.1582031,16.15625 C16.9570312,15.3574219 17.5859375,14.4257812 18.0234375,13.3886719 C18.4785156,12.3144531 18.7070312,11.1738281 18.7070312,10 C18.7070312,8.82421875 18.4765625,7.68359375 18.0234375,6.61132812 Z M15.2734375,15.2734375 C13.8652344,16.6816406 11.9921875,17.4570312 10,17.4570312 C8.0078125,17.4570312 6.13476562,16.6816406 4.7265625,15.2734375 C3.31835937,13.8652344 2.54296875,11.9921875 2.54296875,10 C2.54296875,8.0078125 3.31835937,6.13476562 4.7265625,4.7265625 C6.13476562,3.31835937 8.0078125,2.54296875 10,2.54296875 C11.9921875,2.54296875 13.8652344,3.31835937 15.2734375,4.7265625 C16.6816406,6.13476562 17.4570312,8.0078125 17.4570312,10 C17.4570312,11.9921875 16.6816406,13.8652344 15.2734375,15.2734375 Z M13.8261719,9.24414062 L10.9511719,9.24414062 L10.9511719,6.36914063 C10.9511719,6.0234375 10.671875,5.74414063 10.3261719,5.74414063 C9.98046875,5.74414063 9.70117188,6.0234375 9.70117188,6.36914063 L9.70117188,9.24414062 L6.82421875,9.24414062 C6.47851562,9.24414062 6.19921875,9.5234375 6.19921875,9.86914062 C6.19921875,10.2148437 6.47851562,10.4941406 6.82421875,10.4941406 L9.70117187,10.4941406 L9.70117187,13.3710937 C9.70117187,13.7167969 9.98046875,13.9960937 10.3261719,13.9960937 C10.671875,13.9960937 10.9511719,13.7167969 10.9511719,13.3710937 L10.9511719,10.4941406 L13.8261719,10.4941406 C14.171875,10.4941406 14.4511719,10.2148437 14.4511719,9.86914062 C14.4511719,9.5234375 14.171875,9.24414062 13.8261719,9.24414062 L13.8261719,9.24414062 Z" id="形状" fill="#4895EF"></path>
                </g>
            </g>
        </g>
    </g>
</svg>