<?xml version="1.0" encoding="UTF-8"?>
<svg width="29px" height="23px" viewBox="0 0 29 23" version="1.1" xmlns="http://www.w3.org/2000/svg" xmlns:xlink="http://www.w3.org/1999/xlink">
    <!-- Generator: Sketch 58 (84663) - https://sketch.com -->
    <title>下载</title>
    <desc>Created with Sketch.</desc>
    <g id="活动版块" stroke="none" stroke-width="1" fill="none" fill-rule="evenodd">
        <g id="报名信息管理页（查看报名表default）" transform="translate(-1185.000000, -299.000000)" fill-rule="nonzero">
            <g id="编组-46" transform="translate(651.000000, 280.000000)">
                <g id="编组-45" transform="translate(13.000000, 16.000000)">
                    <g id="下载-2" transform="translate(521.000000, 0.000000)">
                        <g id="下载">
                            <rect id="矩形" fill="#000000" opacity="0" x="0" y="0" width="29" height="29"></rect>
                            <path d="M22.1125,21.93125 C21.5121094,21.93125 21.025,21.4441406 21.025,20.84375 C21.025,20.2433594 21.5121094,19.75625 22.1125,19.75625 C24.7123047,19.75625 26.825,17.6407227 26.825,15.04375 C26.825,12.4835938 24.8170898,10.4162109 22.2569336,10.3397461 L21.5375977,10.3170898 L21.2770508,9.64589844 C20.2376953,6.978125 17.7200195,5.25341797 14.8625,5.25341797 C11.9993164,5.25341797 9.47880859,6.98378906 8.44511719,9.66005859 L8.14775391,10.424707 L7.33212891,10.3510742 C7.18486328,10.3369141 7.03759766,10.328418 6.89033203,10.328418 C4.29052734,10.328418 2.17783203,12.4411133 2.17783203,15.040918 C2.17783203,17.6407227 4.29052734,19.753418 6.89033203,19.753418 C7.49072266,19.753418 7.97783203,20.2405273 7.97783203,20.840918 C7.97783203,21.4413086 7.49072266,21.928418 6.89033203,21.928418 C3.08974609,21.93125 0,18.8415039 0,15.04375 C0,11.2998047 3.00478516,8.24121094 6.72890625,8.15908203 C8.24404297,5.04951172 11.3564453,3.08125 14.8625,3.08125 C18.3883789,3.08125 21.5234375,5.07783203 23.0272461,8.22138672 C26.4285156,8.66601562 29,11.5376953 29,15.04375 C29,18.8415039 25.9102539,21.93125 22.1125,21.93125 L22.1125,21.93125 Z" id="路径" fill="#4895EF"></path>
                            <path d="M18.8924805,20.4727539 C18.6800781,20.2603516 18.4025391,20.1555664 18.125,20.1555664 C17.8474609,20.1555664 17.5670898,20.2631836 17.3546875,20.4727539 L15.6214844,22.205957 L15.6214844,16.85625 C15.6214844,16.2558594 15.134375,15.76875 14.5339844,15.76875 C13.9335938,15.76875 13.4464844,16.2558594 13.4464844,16.85625 L13.4464844,22.205957 L11.7132812,20.4727539 C11.5008789,20.2603516 11.2233398,20.1555664 10.9458008,20.1555664 C10.6682617,20.1555664 10.3878906,20.2631836 10.1754883,20.4727539 C9.75068359,20.8975586 9.75068359,21.5857422 10.1754883,22.0105469 L13.7665039,25.6015625 C13.865625,25.7006836 13.9874023,25.7828125 14.1205078,25.8366211 C14.1261719,25.8394531 14.1318359,25.8394531 14.1375,25.8422852 C14.2621094,25.8904297 14.3952148,25.91875 14.5339844,25.91875 C14.6727539,25.91875 14.8086914,25.8904297 14.9304688,25.8422852 C14.9361328,25.8394531 14.9417969,25.8394531 14.9474609,25.8366211 C15.0805664,25.7799805 15.2023438,25.7006836 15.3042969,25.6015625 L18.8924805,22.0133789 C19.3172852,21.5857422 19.3172852,20.8975586 18.8924805,20.4727539 L18.8924805,20.4727539 Z" id="路径" fill="#4895EF"></path>
                        </g>
                    </g>
                </g>
            </g>
        </g>
    </g>
</svg>