<?xml version="1.0" standalone="no"?><!DOCTYPE svg PUBLIC "-//W3C//DTD SVG 1.1//EN" "http://www.w3.org/Graphics/SVG/1.1/DTD/svg11.dtd"><svg t="1584511024656" class="icon" viewBox="0 0 1024 1024" version="1.1" xmlns="http://www.w3.org/2000/svg" p-id="2817" xmlns:xlink="http://www.w3.org/1999/xlink" width="400" height="400"><defs><style type="text/css"></style></defs><path d="M746.666667 597.333333a235.093333 235.093333 0 0 1-192 167.68 262.4 262.4 0 0 1-298.666667-232.533333A256 256 0 0 1 512 256a261.12 261.12 0 0 1 96.853333 18.773333 21.333333 21.333333 0 0 0 27.306667-8.96l61.44-113.066666a22.186667 22.186667 0 0 0-9.813333-29.866667A426.666667 426.666667 0 0 0 85.333333 524.373333 431.786667 431.786667 0 0 0 493.653333 938.666667 426.666667 426.666667 0 0 0 938.666667 534.186667v-85.333334a21.76 21.76 0 0 0-21.333334-21.333333h-384a21.333333 21.333333 0 0 0-21.333333 21.333333v128a21.333333 21.333333 0 0 0 21.333333 21.333334h213.333334" p-id="2818"></path></svg>