<?xml version="1.0" standalone="no"?><!DOCTYPE svg PUBLIC "-//W3C//DTD SVG 1.1//EN" "http://www.w3.org/Graphics/SVG/1.1/DTD/svg11.dtd"><svg t="1587355033282" class="icon" viewBox="0 0 1024 1024" version="1.1" xmlns="http://www.w3.org/2000/svg" p-id="1192" xmlns:xlink="http://www.w3.org/1999/xlink" width="200" height="200"><defs><style type="text/css"></style></defs><path d="M295.002864 928.885149h-55.310286c-0.635833-52.145456 14.210504-99.182748 39.521974-143.66135-57.91505 30.118611-88.08895 78.02211-91.811797 143.625514h-56.019838c2.945718-82.602972 40.441423-144.565441 109.606924-188.3263-13.786616-11.052842-28.222375-21.149375-40.954389-33.066376-107.361544-100.496392-84.351769-278.177356 44.6414-348.836706 5.363111-2.938551 10.298239-8.917017 12.720751-14.629274 40.481354-95.473211 111.721247-153.565393 213.681796-170.096021 122.085014-19.793751 241.621578 48.593598 289.62849 162.475243 4.827619 11.451133 11.152159 19.316621 22.219335 25.942182 139.811541 83.696482 143.721759 280.264034 7.782553 370.329083-3.28872 2.178828-6.532388 4.426256-10.998577 7.456957 34.122002 20.019006 60.867935 46.30419 80.523462 79.563057 19.738461 33.398115 29.25138 69.642632 30.189259 109.090886h-56.063865c-1.593166-41.528789-15.344969-78.298559-43.616491-109.116483-13.536788-14.756235-29.252404-26.486889-48.165614-34.610396 25.644232 44.34345 40.228454 91.448318 39.956101 143.617323h-55.575471c-2.85664-70.548771-30.597789-128.35324-87.431616-171.275537-43.142432-32.582079-92.21828-45.950949-145.410146-42.321276-92.380053 6.30099-195.961412 83.655527-199.113955 213.839474z m215.150047-271.497528c114.761163 3.402371 216.875294-94.394036 216.470859-214.542884-0.401363-119.17718-97.158526-216.247652-215.745948-215.987585-118.44715 0.259043-215.175644 97.14112-215.091686 215.433663 0.084982 119.886733 95.263315 215.389636 214.366775 215.096806z m-271.411522-224.307678c-17.777721 16.967828-30.053082 34.673877-38.126418 54.969331-37.084103 93.229878 12.725871 190.847105 109.217848 219.144224 32.528837 9.53954 54.82394-3.989057 77.808117-21.371558-97.471835-55.390148-147.601261-138.376054-148.899547-252.741997z m544.833955-0.527301c-1.361767 115.206553-52.629753 198.106452-150.266435 253.690115 9.527253 5.867887 19.115939 10.479466 27.110436 17.036428 9.351145 7.669925 19.372934 8.554562 30.388916 7.133409 90.715216-11.700961 153.147647-92.242853 141.408803-183.196634-4.671989-36.199466-20.71832-67.056298-48.64172-94.663318z" fill="" p-id="1193"></path><path d="M509.664518 593.694786c-28.134321-0.818084-51.166621-13.740541-67.82626-37.898091-6.475051-9.389028-5.426592-17.082503 1.624906-22.035036 6.524197-4.581887 14.12757-2.223879 21.12685 6.55389 27.32238 34.263299 66.040603 34.276609 93.088582 0.03174 7.078119-8.962068 14.277057-11.172637 21.067464-6.470955 7.395524 5.120451 8.210536 12.923481 1.142656 22.854144-16.752812 23.543219-39.540403 36.255779-70.224198 36.964308zM612.60902 371.772761c18.371574-0.162798 32.285152 13.555218 32.228838 31.777305-0.052218 17.157246-14.516646 31.242837-32.014846 31.177309-17.564753-0.065529-32.043515-14.910842-31.846929-32.653751 0.182252-16.377046 14.559649-30.149327 31.632937-30.300863zM408.642872 434.732494c-17.419361-0.259043-31.753756-15.056234-31.123042-32.129522 0.673717-18.239493 14.051802-31.054442 32.175596-30.820996 17.741885 0.22935 31.313485 14.099925 31.182428 31.870479-0.126962 17.233014-14.758283 31.340106-32.234982 31.080039z" fill="" p-id="1194"></path></svg>