<?xml version="1.0" encoding="UTF-8"?>
<svg width="25px" height="29px" viewBox="0 0 25 29" version="1.1" xmlns="http://www.w3.org/2000/svg" xmlns:xlink="http://www.w3.org/1999/xlink">
    <!-- Generator: Sketch 58 (84663) - https://sketch.com -->
    <title>查看简历</title>
    <desc>Created with Sketch.</desc>
    <g id="活动版块" stroke="none" stroke-width="1" fill="none" fill-rule="evenodd">
        <g id="报名信息管理页（查看报名表default）" transform="translate(-1145.000000, -296.000000)" fill-rule="nonzero">
            <g id="编组-46" transform="translate(651.000000, 280.000000)">
                <g id="编组-45" transform="translate(13.000000, 16.000000)">
                    <g id="ic_preview-2" transform="translate(479.000000, 0.000000)">
                        <g id="ic_preview">
                            <rect id="矩形" fill="#000000" opacity="0" x="0" y="0" width="29" height="29"></rect>
                            <path d="M25.5136562,6.8204375 C24.9091875,5.99846875 24.0681875,5.035125 23.1465312,4.114375 C22.224875,3.193625 21.2624375,2.34990625 20.4404687,1.74815625 C19.0403125,0.721375 18.3624375,0.60446875 17.97275,0.60446875 L4.51221875,0.60446875 C3.31325,0.60446875 2.3399375,1.576875 2.3399375,2.77584375 L2.3399375,26.2241563 C2.3399375,27.423125 3.31325,28.3964375 4.51221875,28.3964375 L24.4850625,28.3964375 C25.6804062,28.3964375 26.6591562,27.4240312 26.6591562,26.2241563 L26.6591562,9.28996875 C26.65825,8.899375 26.538625,8.2196875 25.51275,6.82134375 L25.51275,6.82134375 L25.51275,6.82134375 L25.5136562,6.8204375 Z M21.9158437,5.34325 C22.7514062,6.17790625 23.4039062,6.92828125 23.8860312,7.55178125 L19.7073125,7.55178125 L19.7073125,3.3730625 C20.3308125,3.85609375 21.0820937,4.51040625 21.9158437,5.34234375 L21.9158437,5.34234375 L21.9158437,5.34234375 L21.9158437,5.34234375 L21.9158437,5.34325 Z M24.9227812,26.22325 C24.9227812,26.4606875 24.7243125,26.6591563 24.486875,26.6591563 L4.51403125,26.6591563 C4.27659375,26.6591563 4.078125,26.4606875 4.078125,26.22325 L4.078125,2.77584375 C4.078125,2.541125 4.27659375,2.34175 4.51403125,2.34175 L17.9745625,2.34175 L17.9745625,8.42178125 C17.9745625,8.899375 18.3633437,9.290875 18.8436562,9.290875 L24.9236875,9.290875 L24.9245937,26.2241563 L24.9227812,26.22325 Z M22.0862188,23.316 L17.1888437,18.4177188 C18.0108125,17.3873125 18.5038125,16.0823125 18.5038125,14.6595 C18.5038125,11.3290313 15.8040937,8.63021875 12.4745313,8.63021875 C9.14315625,8.63021875 6.44525,11.3290313 6.44525,14.6595 C6.44525,17.9899687 9.14496875,20.6887813 12.4745313,20.6887813 C13.785875,20.6887813 14.8461875,20.4241562 15.8358125,19.7118438 L20.7630938,24.639125 C20.948875,24.8249063 21.2470312,24.8249063 21.431,24.639125 L22.0862188,23.9857188 C22.268375,23.8008438 22.268375,23.500875 22.0862188,23.316 L22.0862188,23.316 L22.0862188,23.316 Z M12.473625,18.6016875 C10.2959062,18.6016875 8.53053125,16.8363125 8.53053125,14.6585937 C8.53053125,12.480875 10.2959063,10.7155 12.473625,10.7155 C14.6513437,10.7155 16.4167187,12.480875 16.4167187,14.6585937 C16.4167187,16.8363125 14.65225,18.6016875 12.473625,18.6016875 L12.473625,18.6016875 L12.473625,18.6016875 Z" id="形状" fill="#4895EF"></path>
                        </g>
                    </g>
                </g>
            </g>
        </g>
    </g>
</svg>
