<?xml version="1.0" encoding="UTF-8"?>
<svg width="1239px" height="335px" viewBox="0 0 1239 335" version="1.1" xmlns="http://www.w3.org/2000/svg" xmlns:xlink="http://www.w3.org/1999/xlink">
    <!-- Generator: Sketch 58 (84663) - https://sketch.com -->
    <title>编组 11</title>
    <desc>Created with Sketch.</desc>
    <defs>
        <linearGradient x1="43.1758322%" y1="-41.3736712%" x2="43.1758322%" y2="63.9469863%" id="linearGradient-1">
            <stop stop-color="#FEFDFA" offset="0%"></stop>
            <stop stop-color="#FFE99F" offset="100%"></stop>
        </linearGradient>
        <rect id="path-2" x="0" y="0" width="1201" height="296"></rect>
        <filter x="-2.5%" y="-9.0%" width="105.1%" height="120.6%" filterUnits="objectBoundingBox" id="filter-4">
            <feMorphology radius="1.5" operator="dilate" in="SourceAlpha" result="shadowSpreadOuter1"></feMorphology>
            <feOffset dx="0" dy="4" in="shadowSpreadOuter1" result="shadowOffsetOuter1"></feOffset>
            <feGaussianBlur stdDeviation="8" in="shadowOffsetOuter1" result="shadowBlurOuter1"></feGaussianBlur>
            <feColorMatrix values="0 0 0 0 0.749019608   0 0 0 0 0.780392157   0 0 0 0 0.843137255  0 0 0 0.31 0" type="matrix" in="shadowBlurOuter1"></feColorMatrix>
        </filter>
        <linearGradient x1="94.6304243%" y1="31.6006979%" x2="3.58590612%" y2="82.9672%" id="linearGradient-5">
            <stop stop-color="#B9F1FB" offset="0%"></stop>
            <stop stop-color="#E1F2F8" offset="100%"></stop>
        </linearGradient>
        <linearGradient x1="50%" y1="21.2827985%" x2="50%" y2="64.418441%" id="linearGradient-6">
            <stop stop-color="#B6F1FB" offset="0%"></stop>
            <stop stop-color="#E2F1F7" offset="100%"></stop>
        </linearGradient>
        <linearGradient x1="61.2976841%" y1="24.3271376%" x2="3.58590612%" y2="85.1576063%" id="linearGradient-7">
            <stop stop-color="#B6F1FB" offset="0%"></stop>
            <stop stop-color="#E3F2F8" offset="100%"></stop>
        </linearGradient>
        <linearGradient x1="58.2721687%" y1="15.1599756%" x2="44.4135426%" y2="71.1115063%" id="linearGradient-8">
            <stop stop-color="#BAF1FA" offset="0%"></stop>
            <stop stop-color="#E3F1F7" offset="100%"></stop>
        </linearGradient>
        <linearGradient x1="58.2721687%" y1="14.345679%" x2="44.4135426%" y2="71.6049339%" id="linearGradient-9">
            <stop stop-color="#BAF1FA" offset="0%"></stop>
            <stop stop-color="#E3F1F7" offset="100%"></stop>
        </linearGradient>
        <filter x="0.0%" y="0.0%" width="100.0%" height="100.0%" filterUnits="objectBoundingBox" id="filter-10">
            <feGaussianBlur stdDeviation="0" in="SourceGraphic"></feGaussianBlur>
        </filter>
        <filter x="-6.5%" y="-6.5%" width="113.0%" height="113.0%" filterUnits="objectBoundingBox" id="filter-11">
            <feGaussianBlur stdDeviation="2" in="SourceGraphic"></feGaussianBlur>
        </filter>
        <linearGradient x1="6.88920362%" y1="49.5651695%" x2="100%" y2="50.4348305%" id="linearGradient-12">
            <stop stop-color="#CBE8F4" offset="0%"></stop>
            <stop stop-color="#CEE8F5" offset="51.5123522%"></stop>
            <stop stop-color="#85B9E9" offset="100%"></stop>
        </linearGradient>
        <linearGradient x1="100%" y1="0%" x2="0%" y2="0%" id="linearGradient-13">
            <stop stop-color="#A7C4E5" offset="0%"></stop>
            <stop stop-color="#FFFFFF" stop-opacity="0" offset="100%"></stop>
        </linearGradient>
        <linearGradient x1="100%" y1="0%" x2="0%" y2="0%" id="linearGradient-14">
            <stop stop-color="#FFFFFF" stop-opacity="0" offset="0%"></stop>
            <stop stop-color="#A5E4EF" offset="100%"></stop>
        </linearGradient>
        <linearGradient x1="100%" y1="0%" x2="0%" y2="0%" id="linearGradient-15">
            <stop stop-color="#FFFFFF" stop-opacity="0" offset="0%"></stop>
            <stop stop-color="#88D4E6" stop-opacity="0.381118881" offset="100%"></stop>
        </linearGradient>
        <linearGradient x1="19.5591107%" y1="43.6581553%" x2="90.7988691%" y2="56.0841465%" id="linearGradient-16">
            <stop stop-color="#DAD5E1" offset="0%"></stop>
            <stop stop-color="#BECCDF" offset="43.6354503%"></stop>
            <stop stop-color="#A5BFDD" offset="100%"></stop>
        </linearGradient>
        <linearGradient x1="0%" y1="50%" x2="94.7257837%" y2="50%" id="linearGradient-17">
            <stop stop-color="#D1D2DF" offset="0%"></stop>
            <stop stop-color="#83B8E9" offset="100%"></stop>
        </linearGradient>
    </defs>
    <g id="导航栏+首页优化" stroke="none" stroke-width="1" fill="none" fill-rule="evenodd">
        <g id="首页未登录" transform="translate(-341.000000, -536.000000)">
            <g id="编组-12" transform="translate(341.000000, 536.000000)">
                <g id="编组-11" transform="translate(19.000000, 15.000000)">
                    <g id="编组-23备份">
                        <mask id="mask-3" fill="white">
                            <use xlink:href="#path-2"></use>
                        </mask>
                        <g id="蒙版">
                            <use fill="black" fill-opacity="1" filter="url(#filter-4)" xlink:href="#path-2"></use>
                            <use fill="url(#linearGradient-1)" fill-rule="evenodd" xlink:href="#path-2"></use>
                        </g>
                        <g id="编组-24备份" mask="url(#mask-3)">
                            <g transform="translate(762.000000, 12.000000)">
                                <path d="M147.009831,0 C134.430319,0 109.478436,51.1057167 109.478436,68.70227 C109.478436,86.2988232 69.6339643,84.9107667 62.7076807,111.823398 C58.0901583,129.765153 37.187598,160.157353 0,203 L250,203 C234.054046,160.711415 218.248742,132.945934 202.584087,119.703556 C179.087104,99.8399889 178.584367,67.705158 171.675941,58.5805358 C164.767516,49.4559136 159.589343,0 147.009831,0 Z" id="路径-26" fill="url(#linearGradient-5)"></path>
                                <path d="M147.271796,0 C118,55.7587188 110.682051,89.5920522 125.317949,101.5 C147.271796,119.361922 182.847505,115.132755 182.847505,137.688311 C182.847505,152.725348 200.615957,174.495911 236.152861,203 L250,203 C232.792498,158.519059 220.68233,135.338774 213.669496,133.459144 C203.430769,121.025443 197.545672,114.637284 196.014205,114.294666 C182.254436,87.5108181 174.644658,69.8403308 173.184871,61.2832042 C169.919304,50.3291389 167.60694,44.6807972 166.247781,44.3381792 C159.923415,15.7205622 155.615044,1.41175368 153.322668,1.41175368 C151.030292,1.41175368 149.013335,0.941169122 147.271796,0 Z" id="路径-27" fill="#A5E4EF"></path>
                            </g>
                        </g>
                        <g id="编组-24备份-2" mask="url(#mask-3)">
                            <g transform="translate(843.000000, -120.000000)">
                                <path d="M318.717313,0 C291.444931,0 213.929657,89.2031963 191.964829,157.358447 C170,225.513699 107.016183,200.666088 92,258.866311 C81.9892114,297.666459 51.3225447,357.711023 0,439 L542,439 C507.429172,347.548332 473.163272,287.503769 439.2023,258.866311 C388.260841,215.910124 387.170907,146.416573 372.19344,126.684016 C357.215974,106.951458 345.989695,0 318.717313,0 Z" id="路径-26" fill="url(#linearGradient-6)"></path>
                                <path d="M312.422224,0 C293.762963,117.908908 300.288888,189.739197 332,215.490868 C379.566668,254.118373 389.502927,248.981672 389.502927,297.75945 C389.502927,330.277969 428.00124,377.358152 504.997866,439 L535,439 C497.717078,342.807226 471.478381,292.678432 456.283908,288.613617 C434.099999,261.724974 421.348956,247.910186 418.030778,247.169253 C388.217945,189.247533 371.730093,151.034016 368.567221,132.528703 C361.491825,108.839862 356.481704,96.6249753 353.536858,95.8840428 C339.834065,33.9966838 330.499262,3.05300427 325.532448,3.05300427 C320.565633,3.05300427 316.195559,2.03533618 312.422224,0 Z" id="路径-27" fill="#A5E4EF"></path>
                            </g>
                        </g>
                        <g id="编组-24" mask="url(#mask-3)">
                            <g transform="translate(656.000000, 33.000000)">
                                <path d="M112.90355,0 C103.242485,0 84.0794388,40.5321201 84.0794388,54.4880072 C84.0794388,68.4438943 53.4788846,67.3430219 48.1594988,88.6875228 C44.6132416,102.91719 28.5600753,127.021349 0,161 L192,161 C179.753507,127.460778 167.615034,105.439879 155.584579,94.9373031 C137.538896,79.1834394 137.152793,53.6971943 131.847123,46.4604249 C126.541452,39.2236556 122.564615,0 112.90355,0 Z" id="路径-26" fill="url(#linearGradient-7)"></path>
                                <path d="M113.397359,0 C91,44.2224322 85.4006603,71.0557655 96.5993397,80.5 C113.397359,94.6663517 140.618167,91.3121851 140.618167,109.201074 C140.618167,121.127 154.213725,138.393309 181.404841,161 L192,161 C178.833654,125.722012 169.56754,107.337648 164.20166,105.846907 C156.367482,95.9856965 151.864492,90.9192253 150.692687,90.6474938 C140.164379,69.4051316 134.341746,55.3906072 133.224788,48.6039206 C130.726134,39.9162136 128.956826,35.4364943 127.916862,35.1647628 C123.077764,12.4680321 119.781208,1.11966671 118.027193,1.11966671 C116.273178,1.11966671 114.7299,0.746444476 113.397359,0 Z" id="路径-27" fill="#A5E4EF"></path>
                            </g>
                        </g>
                        <g id="编组-24备份-3" mask="url(#mask-3)">
                            <g transform="translate(-44.000000, 13.000000)">
                                <path d="M138.77728,0.5 C126.902221,0.5 103.347643,50.0952029 103.347643,67.171661 C103.347643,84.2481191 65.7344623,82.9010889 59.1960506,109.018273 C54.8371094,126.429729 35.1050926,155.923638 0,197.5 L236,197.5 C220.94702,156.461324 206.026812,129.516498 191.239378,116.66552 C169.058226,97.3890532 168.583642,66.2040203 162.062088,57.3490914 C155.540535,48.4941624 150.65234,0.5 138.77728,0.5 Z" id="路径-26" fill="url(#linearGradient-8)"></path>
                                <path d="M139.497747,0.5 C112,54.6106779 105.125563,87.4440112 118.874437,99 C139.497747,116.333983 172.917353,112.229817 172.917353,134.118705 C172.917353,148.711298 189.608929,169.838396 222.992082,197.5 L236,197.5 C224.181999,151.561903 214.979092,127.680818 208.391278,125.856744 C204.782501,124.769688 198.612018,120.0218 189.879827,111.61308 C176.781542,99 167.518873,71.8545291 165.4619,59.3982192 C165.4619,44.3473231 162.618509,32.8933674 156.931727,25.0363522 C148.401554,13.2508294 148.412066,1.87002697 145.1819,1.87002697 C143.028456,1.87002697 141.133739,1.41335132 139.497747,0.5 Z" id="路径-27" fill="#A5E4EF"></path>
                            </g>
                        </g>
                        <g id="编组-24备份-4" mask="url(#mask-3)">
                            <g transform="translate(162.000000, 108.000000)">
                                <path d="M52.9235391,0 C48.3949147,0 39.4122369,19.1331747 39.4122369,25.7210469 C39.4122369,32.308919 25.0682272,31.7892526 22.5747651,41.8649176 C20.912457,48.5820276 13.3875353,59.9603884 0,76 L90,76 C84.2594566,60.1678206 78.569547,49.7728621 72.9302712,44.8151244 C64.4713574,37.378518 64.2903719,25.3477439 61.8033388,21.9316292 C59.3163056,18.5155144 57.4521634,0 52.9235391,0 Z" id="路径-26" fill="url(#linearGradient-9)"></path>
                                <path d="M53.4225333,0 C43,20.8751854 40.3943667,33.541852 45.6056333,38 C53.4225333,44.6872219 66.0896418,43.1038886 66.0896418,51.5483331 C66.0896418,57.1779627 72.4162877,65.3285183 85.0695794,76 L90,76 C85.5205964,58.2776886 82.0323977,49.064681 79.5354039,48.3609773 C78.1675609,47.9416056 75.8287486,46.1099332 72.5189668,42.8659599 C67.5542941,38 64.0434437,27.5276356 63.2637847,22.7221556 C63.2637847,16.9157185 62.1860477,12.4969336 60.0305739,9.46580085 C56.7973631,4.91910171 56.8013477,0.528538325 55.5770106,0.528538325 C54.7607859,0.528538325 54.0426268,0.352358883 53.4225333,0 Z" id="路径-27" fill="#A5E4EF"></path>
                            </g>
                        </g>
                        <circle id="椭圆形备份-10" fill-opacity="0.79" fill="#FFFAE9" filter="url(#filter-10)" mask="url(#mask-3)" cx="315" cy="171" r="63"></circle>
                        <circle id="椭圆形" fill="#FEF6D4" filter="url(#filter-11)" mask="url(#mask-3)" cx="315" cy="171" r="46"></circle>
                        <circle id="椭圆形备份-11" fill="#FFF3AD" mask="url(#mask-3)" cx="315" cy="177" r="29"></circle>
                        <rect id="矩形" fill="url(#linearGradient-12)" mask="url(#mask-3)" x="0" y="184" width="1201" height="112"></rect>
                        <rect id="矩形" fill-opacity="0.78" fill="url(#linearGradient-13)" mask="url(#mask-3)" x="803" y="232" width="352" height="10"></rect>
                        <rect id="矩形备份-17" fill-opacity="0.78" fill="url(#linearGradient-14)" mask="url(#mask-3)" x="53" y="270" width="352" height="10"></rect>
                        <rect id="矩形备份-18" fill-opacity="0.78" fill="url(#linearGradient-15)" mask="url(#mask-3)" x="107" y="223" width="170" height="4"></rect>
                        <g id="编组-21" mask="url(#mask-3)" fill="#7C93A8">
                            <g transform="translate(-20.000000, 107.000000)">
                                <polygon id="路径-10" points="48.7237401 -1.15207323e-13 0 231 112 231 62.3096539 56.6829232 56 49.3749106 62.3096539 45.5917344"></polygon>
                                <polygon id="路径-11" transform="translate(115.000000, 155.673913) rotate(-360.000000) translate(-115.000000, -155.673913) " points="117.350145 99.4304348 75 211.917391 155 211.917391 136.35643 155.673913 126.795754 151.449402 132.454113 146.749016"></polygon>
                            </g>
                        </g>
                        <path d="M874,299.82241 C879.546802,290.567457 888.156191,285.93998 899.828168,285.93998 C917.336132,285.93998 931.049833,299.82241 941.286331,292.881195 C951.522829,285.93998 966.309655,272.05755 975.034022,285.93998 C983.758388,299.82241 1003.8307,322.022699 975.034022,322.022699 C946.237339,322.022699 937.906684,326.471627 905.953342,322.022699 C884.651114,319.056746 874,311.65665 874,299.82241 Z" id="路径-12" fill="#A9E8F1" mask="url(#mask-3)"></path>
                        <path d="M730,183.5 L1131.32345,192.543689 C1145.52488,203.332443 1141.1797,226.12086 1118.28791,260.90894 C1095.39613,295.69702 1139.30015,295.69702 1250,260.90894 L1229.88683,106.324977 C1188.06829,78.4087896 1159.01384,72.6952859 1142.72347,89.1844661 C1118.28791,113.918236 1097.45541,142.753291 1055.51453,128.335764 C1013.57365,113.918236 955.46083,136.260991 944.64331,145.518296 C933.825789,154.775601 855.69972,162.700829 848.995198,145.518296 C844.525517,134.063274 804.860451,146.723842 730,183.5 Z" id="路径-15" fill="url(#linearGradient-16)" mask="url(#mask-3)"></path>
                        <path d="M998,292.219844 C1006.02453,282.42535 1013.64416,277.528103 1020.85891,277.528103 C1031.68102,277.528103 1022.90569,259 1046.00848,259 C1069.11128,259 1094.68648,284.72844 1117.53103,275.609922 C1140.37559,266.491404 1172.9328,245.276893 1172.9328,275.609922 C1172.9328,305.942951 1189.07271,327 1147.305,327 C1119.45985,327 1069.69152,327 998,327 L998,292.219844 Z" id="路径-13" fill="#A9E8F1" mask="url(#mask-3)"></path>
                        <g id="编组-22" mask="url(#mask-3)">
                            <g transform="translate(772.000000, 150.000000)">
                                <polygon id="路径-17" fill="#A9E8F1" points="13.6892826 0.5 0.5 30.5 20.5 30.5"></polygon>
                                <polygon id="路径-20" fill="#8CD7E1" points="13.6892826 0.5 11.7203462 17.6314949 4.5 30.5 20.5 30.5"></polygon>
                            </g>
                        </g>
                        <g id="编组-22备份" mask="url(#mask-3)">
                            <g transform="translate(786.000000, 137.000000)">
                                <polygon id="路径-17" fill="#A9E8F1" points="19.6244598 0.5 0.5 43.5 29.5 43.5"></polygon>
                                <polygon id="路径-20" fill="#7C93A8" points="19.6244598 0.5 16.6084847 25.0551427 6.5 43.5 29.5 43.5"></polygon>
                            </g>
                        </g>
                        <path d="M1176,230 C1209.62854,255.118591 1219.69711,279.531866 1206.20571,303.239824 C1192.71431,326.947782 1182.64574,302.534508 1176,230 Z" id="路径-14备份" fill="#A9E8F1" mask="url(#mask-3)"></path>
                        <path d="M1145.25479,229 C1140.0841,271.646012 1150.8938,296.009095 1177.68391,302.089249 C1204.47401,308.169403 1193.66431,283.80632 1145.25479,229 Z" id="路径-14" fill="#A9E8F1" mask="url(#mask-3)"></path>
                        <g id="编组-21备份" mask="url(#mask-3)" fill="#7C93A8">
                            <g transform="translate(1067.000000, 134.000000)">
                                <polygon id="路径-10" points="6.52550091 -1.5959456e-14 0 32 15 32 8.34504294 7.85217984 7.5 6.83981445 8.34504294 6.3157381"></polygon>
                                <polygon id="路径-10备份" points="101.830601 34 94 74 112 74 104.014052 43.8152248 103 42.5497681 104.014052 41.8946726"></polygon>
                                <polygon id="路径-11" transform="translate(14.500000, 24.000000) rotate(-360.000000) translate(-14.500000, -24.000000) " points="14.823145 16 9 32 20 32 17.4365092 24 16.1219161 23.399111 16.8999406 22.7305341"></polygon>
                            </g>
                        </g>
                        <g id="编组-21备份-2" mask="url(#mask-3)" fill="#7C93A8">
                            <g transform="translate(1158.000000, 104.000000)">
                                <polygon id="路径-10" points="4.35033394 -9.97465999e-15 0 20 10 20 5.56336196 4.9076124 5 4.27488403 5.56336196 3.94733631"></polygon>
                                <polygon id="路径-11" transform="translate(10.500000, 13.000000) rotate(-360.000000) translate(-10.500000, -13.000000) " points="10.7056377 8 7 18 14 18 12.3686877 13 11.5321285 12.6244444 12.0272349 12.2065838"></polygon>
                            </g>
                        </g>
                        <path d="M314.572729,123.059611 C343.109898,124.701799 362.134063,124.698429 371.645225,123.0495 C381.156387,121.400572 397.591718,121.603565 420.951219,123.658481 C433.779974,130.539333 433.779367,133.980896 420.949396,133.98317 C408.119425,133.985442 372.660536,130.344256 314.572729,123.059611 Z" id="路径-28" fill="#FEE575" mask="url(#mask-3)" transform="translate(372.572529, 127.965765) scale(1, -1) rotate(-3.000000) translate(-372.572529, -127.965765) "></path>
                        <path d="M451.000033,78.380892 C479.537201,80.0230798 498.561367,80.0197094 508.072529,78.3707807 C517.583691,76.7218521 534.019022,76.9248458 557.378522,78.9797618 C570.207278,85.8606139 570.20667,89.3021769 557.376699,89.3044506 C544.546728,89.3067229 509.087839,85.6655367 451.000033,78.380892 Z" id="路径-28备份-2" fill="#FFEB91" mask="url(#mask-3)" transform="translate(508.999833, 83.287046) scale(1, -1) rotate(-3.000000) translate(-508.999833, -83.287046) "></path>
                        <path d="M736,63.0944625 C764.537195,64.7361564 783.561183,64.7361564 793.071966,63.0944625 C802.582749,61.4527687 819.017964,61.6579805 842.377611,63.7100977 C855.207463,70.5700326 855.207463,74 842.377611,74 C829.547759,74 794.088555,70.3648208 736,63.0944625 Z" id="路径-28备份" fill="#F8E9AB" mask="url(#mask-3)" transform="translate(794.000000, 68.000000) scale(1, -1) translate(-794.000000, -68.000000) "></path>
                        <path d="M736,183.138206 C790.925367,177.497284 829.458508,175.616977 851.599421,177.497284 C884.810792,180.317745 910.709619,185.960301 931.511997,177.497284 C952.314375,169.034267 985.210641,164.644431 1016.13496,171.070858 C1047.05928,177.497284 1066.25719,179.425465 1086.65079,177.497284 C1100.24653,176.21183 1115.0296,181.046069 1131,192 L736,183.138206 Z" id="路径-16" fill="url(#linearGradient-17)" mask="url(#mask-3)"></path>
                        <ellipse id="椭圆形" fill="#7C93A8" mask="url(#mask-3)" cx="1147" cy="187.5" rx="9" ry="3.5"></ellipse>
                        <ellipse id="椭圆形备份-9" fill="#7C93A8" mask="url(#mask-3)" cx="1152" cy="179" rx="5" ry="2"></ellipse>
                    </g>
                    <g id="编组-26" transform="translate(27.000000, 47.000000)">
                        <rect id="矩形" fill-opacity="0.75" fill="#FFFFFF" x="0" y="0" width="1148" height="202"></rect>
                        <g id="编组-25" transform="translate(531.000000, 16.000000)" font-family="PingFangSC-Semibold, PingFang SC" font-weight="500">
                            <text id="ABOUT-US" opacity="0.7" font-size="12" fill="#A9E8F1">
                                <tspan x="11" y="38">ABOUT US</tspan>
                            </text>
                            <text id="关于我们" font-size="21" fill="#4895EF">
                                <tspan x="0" y="22">关于我们</tspan>
                            </text>
                        </g>
                        <text id="我们是World-Elite，一个由留学" font-family="PingFangSC-Medium, PingFang SC" font-size="16" font-weight="400" line-spacing="27">
                            <tspan x="38.528" y="86" fill="#333333">我们是World Elite，一个由留学生创办并专为留学生服务的职业信息与成长型社交平台。我们致力于协助海归人才和国内名企大厂直接对接，通过大数据精</tspan>
                            <tspan x="336" y="113" fill="#333333">准匹配求职者与企业方需求海量资源免费内推，助你登上更高的起点！</tspan>
                            <tspan x="288" y="140" fill="#333333">名企百科应有尽有，和你一起云考察企业；活动宣讲热点讨论，让你走在招聘最前线</tspan>
                            <tspan x="413.123" y="167" font-size="21" fill="#4895EF">World Elite，WE build your career</tspan>
                        </text>
                    </g>
                </g>
            </g>
        </g>
    </g>
</svg>