<?xml version="1.0" encoding="UTF-8"?>
<svg width="31px" height="31px" viewBox="0 0 31 31" version="1.1" xmlns="http://www.w3.org/2000/svg" xmlns:xlink="http://www.w3.org/1999/xlink">
    <!-- Generator: Sketch 58 (84663) - https://sketch.com -->
    <title>地址-on</title>
    <desc>Created with Sketch.</desc>
    <g id="百科" stroke="none" stroke-width="1" fill="none" fill-rule="evenodd">
        <g id="百科首页" transform="translate(-360.000000, -1110.000000)" fill-rule="nonzero">
            <g id="编组-10" transform="translate(357.000000, 1107.000000)">
                <g id="地址-on-2">
                    <g id="地址-on">
                        <rect id="矩形" fill="#000000" opacity="0" x="0" y="0" width="37" height="37"></rect>
                        <path d="M9.25,13.1041667 C9.25,18.2128006 13.3913661,22.3541667 18.5,22.3541667 C23.6086339,22.3541667 27.75,18.2128006 27.75,13.1041667 C27.75,7.99553274 23.6086339,3.85416668 18.5,3.85416668 C13.3913661,3.85416668 9.25,7.99553274 9.25,13.1041667 Z" id="路径" fill="#CBE1FA"></path>
                        <path d="M29.3919775,13.9597917 C29.4044583,11.0702212 28.2576845,8.2963058 26.2083333,6.25916668 C21.9462481,2.01379441 15.0537519,2.01379441 10.7916667,6.25916668 C8.74119847,8.30030557 7.58846992,11.0742894 7.58846992,13.9675 C7.58846992,16.8607106 8.74119847,19.6346944 10.7916667,21.6758333 L16.1104167,26.9791667 C17.4311908,28.296375 19.5688092,28.296375 20.8895833,26.9791667 L26.2083333,21.6527083 C28.2557775,19.6174485 29.4023927,16.846693 29.3919775,13.9597917 L29.3919775,13.9597917 Z M24.605,20.0416667 L19.2708333,25.3527083 C19.0609351,25.5645422 18.7750878,25.6837133 18.476875,25.6837133 C18.1786622,25.6837133 17.8928149,25.5645422 17.6829167,25.3527083 L12.395,20.0416667 C10.7714453,18.429564 9.85837281,16.2361988 9.85837281,13.9482292 C9.85837281,11.6602596 10.7714453,9.46689433 12.395,7.85479168 C14.5719755,5.67230829 17.7479249,4.81701311 20.7264988,5.61108754 C23.7050726,6.40516197 26.0337546,8.72796722 26.8353529,11.704525 C27.6369512,14.6810829 26.7896839,17.8591833 24.6127083,20.0416667" id="形状" fill="#4895EF"></path>
                        <path d="M18.5,33.9166667 C11.400625,33.9166667 3.85416668,31.6735417 3.85416668,27.5110417 C3.85416668,26.455 4.37833336,24.8979167 6.85270832,23.5104167 C7.39090217,23.2589363 8.03194826,23.4657872 8.32164757,23.9844097 C8.61134687,24.5030322 8.45134162,25.1573453 7.955,25.48375 C6.78333332,26.1389583 6.105,26.8789583 6.105,27.5110417 C6.105,29.206875 10.938125,31.658125 18.5,31.658125 C26.061875,31.658125 30.895,29.206875 30.895,27.5110417 C30.895,26.8789584 30.2166667,26.1389584 29.045,25.48375 C28.5486584,25.1573453 28.3886531,24.5030322 28.6783524,23.9844097 C28.9680517,23.4657872 29.6090978,23.2589363 30.1472917,23.5104167 C32.6216667,24.8979167 33.1458333,26.455 33.1458333,27.5110417 C33.1458333,31.6735417 25.599375,33.9166667 18.5,33.9166667 L18.5,33.9166667 Z M18.5,18.6618814 C16.5974865,18.6649939 14.8805719,17.5213476 14.1503494,15.7645487 C13.4201269,14.0077497 13.8205123,11.9840368 15.1646903,10.6376517 C16.5088682,9.29126648 18.5319215,8.88756136 20.2899161,9.61490055 C22.0479108,10.3422397 23.194375,12.0572756 23.194375,13.9597917 C23.194375,16.5536733 21.0938781,18.6576227 18.5,18.6618814 L18.5,18.6618814 Z M18.5,11.1385311 C17.3582146,11.135422 16.3271211,11.8208161 15.8880154,12.8747942 C15.4489097,13.9287723 15.6883775,15.1435043 16.4946395,15.9519753 C17.3009015,16.7604462 18.5149738,17.0032365 19.5701494,16.5670162 C20.6253249,16.1307958 21.3135417,15.1015813 21.3135417,13.9597917 C21.3135417,12.4046637 20.0551222,11.1427907 18.5,11.1385311 Z" id="形状" fill="#4895EF"></path>
                    </g>
                </g>
            </g>
        </g>
    </g>
</svg>