<?xml version="1.0" encoding="UTF-8"?>
<svg width="18px" height="18px" viewBox="0 0 18 18" version="1.1" xmlns="http://www.w3.org/2000/svg" xmlns:xlink="http://www.w3.org/1999/xlink">
    <!-- Generator: Sketch 58 (84663) - https://sketch.com -->
    <title>选中1</title>
    <desc>Created with Sketch.</desc>
    <g id="活动版块" stroke="none" stroke-width="1" fill="none" fill-rule="evenodd">
        <g id="报名信息管理页（要审核的导出名单弹窗）" transform="translate(-745.000000, -492.000000)" fill-rule="nonzero">
            <g id="编组-38" transform="translate(704.000000, 343.000000)">
                <g id="编组-37" transform="translate(40.000000, 147.000000)">
                    <g id="编组-26">
                        <g id="选中1-2" transform="translate(0.000000, 1.000000)">
                            <g id="选中1">
                                <rect id="矩形" fill="#000000" opacity="0" x="0" y="0" width="20" height="20"></rect>
                                <path d="M15.8263672,7.59609375 L9.45585937,13.7916016 C9.27557062,13.9653931 9.03517855,14.0629212 8.78476562,14.0638672 C8.53231214,14.06803 8.28814035,13.9738215 8.10390625,13.8011719 L4.21367187,10.0568359 C3.89492187,9.67753906 3.91230469,9.11953125 4.25351562,8.76074219 C4.59492187,8.40195312 5.1515625,8.35683594 5.54609375,8.65625 L8.77519531,11.7394531 L14.4257812,6.20527344 C14.8099609,5.81855469 15.4347656,5.81640625 15.8214844,6.20039062 C16.2082031,6.58457031 16.2105469,7.209375 15.8263672,7.59609375 Z M16.7990234,1.24511719 L3.18261719,1.24511719 C2.10839844,1.24511719 1.23730469,2.11601563 1.23730469,3.19042969 L1.23730469,16.8068359 C1.23730469,17.3226563 1.4421875,17.8173828 1.80703125,18.1822266 C2.171875,18.5470703 2.66660156,18.7519531 3.18242187,18.7519531 L16.7988281,18.7519531 C17.3146484,18.7519531 17.809375,18.5470703 18.1742187,18.1822266 C18.5390625,17.8173828 18.7439453,17.3226563 18.7439453,16.8068359 L18.7439453,3.19023438 C18.7439453,2.67441406 18.5390625,2.17949219 18.1742187,1.81484375 C17.809375,1.45019531 17.3150391,1.24511719 16.7990234,1.24511719 Z" id="形状" fill="#4895EF"></path>
                            </g>
                        </g>
                    </g>
                </g>
            </g>
        </g>
    </g>
</svg>