<svg class="icon" style="width: 1em; height: 1em;vertical-align: middle;fill: currentColor;overflow: hidden;" viewBox="0 0 1024 1024" version="1.1" xmlns="http://www.w3.org/2000/svg"><path d="M198.358002 446.095623c0-38.373817 25.582545-63.956362 63.956362-63.956362s63.956362 25.582545 63.956362 63.956362-25.582545 63.956362-63.956362 63.956362S198.358002 484.46944 198.358002 446.095623L198.358002 446.095623zM454.183449 446.095623c0-38.373817 25.582545-63.956362 63.956362-63.956362s63.956362 25.582545 63.956362 63.956362-25.582545 63.956362-63.956362 63.956362S454.183449 484.46944 454.183449 446.095623L454.183449 446.095623zM901.877981 895.389065 831.781809 895.389065l0-63.956362 76.491809 0c31.978181 0 51.420915-27.181454 51.420915-65.555271l0-633.167982C959.694532 94.335634 940.251798 63.956362 908.273618 63.956362l-786.66325 0C89.632187 63.956362 64.305468 94.335634 64.305468 132.709451l0 633.167982C64.305468 804.251249 89.632187 831.432703 121.610368 831.432703l492.463986 0 0 0 0 0 0 0c6.395636 0 12.791272 5.62816 19.186909 12.023796l115.121451 127.528985c12.791272 12.791272 12.791272 31.786312 0 44.577584-12.791272 12.791272-31.978181 10.296974-44.769453-2.494298L601.283081 895.389065l-473.277077 0C57.654006 895.389065 0.349106 836.22943 0.349106 759.481796l0-620.376709C0.349106 62.357453 57.654006 0 128.006004 0l767.476341 0C965.834343 0 1023.650894 62.357453 1023.650894 139.105087l0 620.376709C1023.650894 829.833794 972.229979 895.389065 901.877981 895.389065L901.877981 895.389065zM710.008896 446.095623c0-38.373817 25.582545-63.956362 63.956362-63.956362s63.956362 25.582545 63.956362 63.956362-25.582545 63.956362-63.956362 63.956362S710.008896 484.46944 710.008896 446.095623L710.008896 446.095623z" /></svg>
