<svg class="icon" style="width: 1em; height: 1em;vertical-align: middle;fill: currentColor;overflow: hidden;" viewBox="0 0 1024 1024" version="1.1" xmlns="http://www.w3.org/2000/svg"><path d="M893.155556 944.355556h-28.444445c-5.688889-210.488889-91.022222-284.444444-182.044444-358.4-28.444444-22.755556-51.2-45.511111-79.644445-73.955556 28.444444-28.444444 51.2-51.2 79.644445-73.955556 85.333333-79.644444 170.666667-147.911111 182.044444-358.4h28.444445c22.755556 0 39.822222-22.755556 39.822222-39.822222 0-17.066667-22.755556-39.822222-39.822222-39.822222h-739.555556c-22.755556 0-39.822222 22.755556-39.822222 39.822222 0 22.755556 22.755556 39.822222 39.822222 39.822222h28.444444c11.377778 210.488889 91.022222 284.444444 182.044445 358.4 22.755556 22.755556 56.888889 45.511111 73.955555 73.955556-22.755556 28.444444-51.2 51.2-79.644444 73.955556-85.333333 79.644444-170.666667 147.911111-182.044444 358.4h-22.755556c-22.755556 0-39.822222 22.755556-39.822222 39.822222 0 17.066667 17.066667 39.822222 39.822222 39.822222h739.555556c22.755556 0 39.822222-22.755556 39.822222-39.822222 0-22.755556-22.755556-39.822222-39.822222-39.822222zM415.288889 381.155556C369.777778 341.333333 335.644444 301.511111 335.644444 301.511111c-39.822222-45.511111-68.266667-119.466667-73.955555-221.866667H796.444444c0 102.4-28.444444 164.977778-62.577777 210.488889 0 0-56.888889 68.266667-91.022223 85.333334-39.822222 34.133333-79.644444 62.577778-113.777777 113.777777-45.511111-45.511111-73.955556-79.644444-113.777778-108.088888z m290.133333 563.2c-11.377778-199.111111-182.044444-278.755556-182.044444-278.755556s-187.733333 85.333333-187.733334 278.755556H261.688889c5.688889-182.044444 79.644444-233.244444 153.6-301.511112 39.822222-34.133333 73.955556-62.577778 113.777778-108.088888 34.133333 45.511111 73.955556 73.955556 108.088889 108.088888 73.955556 68.266667 147.911111 119.466667 153.6 301.511112h-85.333334z"/></svg>
