<?xml version="1.0" encoding="UTF-8"?>
<svg width="19px" height="19px" viewBox="0 0 19 19" version="1.1" xmlns="http://www.w3.org/2000/svg" xmlns:xlink="http://www.w3.org/1999/xlink">
    <!-- Generator: Sketch 58 (84663) - https://sketch.com -->
    <title>实例类型</title>
    <desc>Created with Sketch.</desc>
    <g id="简历投递" stroke="none" stroke-width="1" fill="none" fill-rule="evenodd">
        <g id="简历投递职位详情页" transform="translate(-1232.000000, -517.000000)" fill-rule="nonzero">
            <g id="实例类型-2" transform="translate(1231.000000, 516.000000)">
                <g id="实例类型">
                    <rect id="矩形" fill="#000000" opacity="0" x="0" y="0" width="21" height="21"></rect>
                    <path d="M2.31,1.955625 C1.94756313,1.955625 1.65375,2.24943813 1.65375,2.611875 L1.65375,9.42375 C1.65375,9.78618687 1.94756313,10.08 2.31,10.08 L9.121875,10.08 C9.48431187,10.08 9.778125,9.78618687 9.778125,9.42375 L9.778125,2.625 C9.778125,2.26256313 9.48431187,1.96875 9.121875,1.96875 L2.31,1.955625 Z M8.465625,8.7675 L2.96625,8.7675 L2.96625,3.268125 L8.465625,3.268125 L8.465625,8.7675 Z M19.254375,6.024375 C19.254375,3.78451516 17.4386098,1.96875 15.19875,1.96875 C12.9588902,1.96875 11.143125,3.78451516 11.143125,6.024375 C11.143125,8.26423484 12.9588902,10.08 15.19875,10.08 C17.435619,10.0727959 19.2471709,8.26124399 19.254375,6.024375 L19.254375,6.024375 Z M12.4425,6.024375 C12.4425,4.5093889 13.6706389,3.28125 15.185625,3.28125 C16.7006111,3.28125 17.92875,4.5093889 17.92875,6.024375 C17.92875,7.5393611 16.7006111,8.7675 15.185625,8.7675 C13.6736242,8.76031698 12.449683,7.5363758 12.4425,6.024375 L12.4425,6.024375 Z M2.0475,19.044375 L9.541875,19.044375 C9.77562378,19.042969 9.99097949,18.917333 10.1072445,18.7145452 C10.2235096,18.5117573 10.2231307,18.2624336 10.10625,18.06 L6.365625,11.563125 C6.23951538,11.3705826 6.02485309,11.2545724 5.7946875,11.2545724 C5.56452191,11.2545724 5.34985962,11.3705826 5.22375,11.563125 L1.483125,18.06 C1.36624427,18.2624336 1.36586544,18.5117573 1.48213047,18.7145452 C1.59839551,18.917333 1.81375122,19.042969 2.0475,19.044375 L2.0475,19.044375 Z M5.788125,13.216875 L8.413125,17.731875 L3.163125,17.731875 L5.788125,13.216875 Z M17.0625,11.34 L13.426875,11.34 C13.1938334,11.3414066 12.9790187,11.4662989 12.8625,11.668125 L11.025,14.8575 C10.9077722,15.0605445 10.9077722,15.3107055 11.025,15.51375 L12.8625,18.703125 C12.9790187,18.9049511 13.1938334,19.0298434 13.426875,19.03125 L17.0625,19.03125 C17.2955416,19.0298434 17.5103563,18.9049511 17.626875,18.703125 L19.464375,15.51375 C19.5816028,15.3107055 19.5816028,15.0605445 19.464375,14.8575 L17.626875,11.668125 C17.5103563,11.4662989 17.2955416,11.3414066 17.0625,11.34 Z M16.681875,17.71875 L13.8075,17.71875 L12.3375,15.19875 L13.8075,12.665625 L16.734375,12.665625 L18.204375,15.19875 L16.681875,17.71875 Z" id="形状" fill="#4895EF"></path>
                </g>
            </g>
        </g>
    </g>
</svg>