<?xml version="1.0" encoding="UTF-8"?>
<svg width="405px" height="202px" viewBox="0 0 405 202" version="1.1" xmlns="http://www.w3.org/2000/svg" xmlns:xlink="http://www.w3.org/1999/xlink">
    <!-- Generator: Sketch 58 (84663) - https://sketch.com -->
    <title>编组 31</title>
    <desc>Created with Sketch.</desc>
    <defs>
        <linearGradient x1="50%" y1="0%" x2="50%" y2="100%" id="linearGradient-1">
            <stop stop-color="#FFFFFF" offset="0%"></stop>
            <stop stop-color="#C5E7FF" offset="100%"></stop>
        </linearGradient>
        <rect id="path-2" x="0" y="0" width="405" height="202"></rect>
        <linearGradient x1="100%" y1="52.9430956%" x2="0%" y2="44.1358604%" id="linearGradient-4">
            <stop stop-color="#4895EF" offset="0%"></stop>
            <stop stop-color="#2C5FB8" offset="100%"></stop>
        </linearGradient>
    </defs>
    <g id="导航栏+首页优化" stroke="none" stroke-width="1" fill="none" fill-rule="evenodd">
        <g id="首页未登录" transform="translate(-1156.000000, -111.000000)">
            <g id="编组-31" transform="translate(1156.000000, 111.000000)">
                <g id="编组-30">
                    <mask id="mask-3" fill="white">
                        <use xlink:href="#path-2"></use>
                    </mask>
                    <use id="蒙版" fill="url(#linearGradient-1)" xlink:href="#path-2"></use>
                    <g mask="url(#mask-3)">
                        <g transform="translate(202.000000, -28.000000)">
                            <g id="编组-27" transform="translate(0.000000, 148.000000)">
                                <g id="图层_8" transform="translate(14.500000, 13.500000)" fill-rule="nonzero" stroke-linecap="round" stroke-linejoin="round" stroke-width="2">
                                    <polyline id="路径" stroke="#000000" fill="#5BD0EF" points="0.186567164 9.2967033 29.0377239 0 177.882557 0 210.604478 11.5384615 0.186567164 9.2967033"></polyline>
                                    <polygon id="路径" stroke="#1D1D1D" fill="#BFE8E7" points="210.604478 10.7828858 210.604478 20 0.186567164 20 0.186567164 8.46153846"></polygon>
                                </g>
                                <g id="图层_7" transform="translate(0.500000, 0.500000)">
                                    <polygon id="路径" stroke="#000000" stroke-width="2" fill="#5683D2" fill-rule="nonzero" stroke-linecap="round" stroke-linejoin="round" points="0.183333333 24.442657 147.271667 0 210.027778 27.725999 75.2461111 59.8297872"></polygon>
                                    <polygon id="路径" stroke="#000000" stroke-width="2" fill="#D6DED3" fill-rule="nonzero" stroke-linecap="round" stroke-linejoin="round" points="0.972222222 24.4042553 0.972222222 35.5136551 75.9166667 72.4255319 75.9166667 59.1659257"></polygon>
                                    <polygon id="路径" stroke="#000000" stroke-width="2" fill="#D6DED3" fill-rule="nonzero" stroke-linecap="round" stroke-linejoin="round" points="75.9166667 74 210.816667 40.0292766 210.816667 28.3404255 75.9166667 60.484766"></polygon>
                                    <path d="M15.9611111,33.0638298 L157.172222,5.5106383" id="路径" stroke="#1D1D1D" stroke-width="2" stroke-linecap="round" stroke-linejoin="round"></path>
                                    <path d="M92.4833333,35.4255319 L127.194444,48.0212766" id="路径" stroke="#1D1D1D" stroke-width="2" stroke-linecap="round" stroke-linejoin="round"></path>
                                    <polyline id="路径" stroke="#1D1D1D" stroke-width="2" stroke-linecap="round" stroke-linejoin="round" points="210.816667 35.543127 76.1118279 67.7021277 3.33888889 33.0638298"></polyline>
                                    <polygon id="路径" fill="#000000" fill-rule="nonzero" points="3.33888889 37.787234 3.33888889 27.6062894 0.972222222 25.9787234 0.972222222 36.7137331"></polygon>
                                    <polyline id="路径" stroke="#1D1D1D" stroke-width="2" stroke-linecap="round" stroke-linejoin="round" points="3.33888889 29.9148936 76.1118279 64.5531915 210.816667 32.56013"></polyline>
                                    <polyline id="路径" stroke="#1D1D1D" stroke-width="2" stroke-linecap="round" stroke-linejoin="round" points="3.33888889 35.4255319 76.1118279 70.0638298 210.816667 38.3327381"></polyline>
                                </g>
                                <g id="图层_6" transform="translate(52.500000, 4.500000)" fill-rule="nonzero">
                                    <polygon id="路径" stroke="#000000" stroke-width="2" fill="#75A7E1" stroke-linecap="round" stroke-linejoin="round" points="27.1495411 0 0.186046512 20.925 134.604651 20.925 115.578635 0"></polygon>
                                    <rect id="矩形" stroke="#1D1D1D" stroke-width="2" fill="#BFE8E7" stroke-linecap="round" stroke-linejoin="round" x="0.186046512" y="20.925" width="134.418605" height="10.075"></rect>
                                    <path d="M107.72093,5.425 L116.418605,20.925" id="路径" stroke="#000000" stroke-width="2" fill="#559ADD" stroke-linecap="round" stroke-linejoin="round"></path>
                                    <path d="M96.0581395,5.425 L96.4534884,20.925" id="路径" stroke="#000000" stroke-width="2" fill="#559ADD" stroke-linecap="round" stroke-linejoin="round"></path>
                                    <ellipse id="椭圆形" fill="#3E8EC3" cx="57.1162791" cy="15.1125" rx="27.6744186" ry="2.7125"></ellipse>
                                    <path d="M0.186046512,23.25 L134.604651,23.25" id="路径" stroke="#000000" stroke-width="2" fill="#559ADD" stroke-linecap="round" stroke-linejoin="round"></path>
                                    <path d="M0.186046512,25.575 L134.604651,25.575" id="路径" stroke="#000000" stroke-width="2" fill="#559ADD" stroke-linecap="round" stroke-linejoin="round"></path>
                                    <path d="M0.186046512,29.45 L134.604651,29.45" id="路径" stroke="#000000" stroke-width="2" fill="#559ADD" stroke-linecap="round" stroke-linejoin="round"></path>
                                </g>
                            </g>
                            <g id="图层_3" transform="translate(127.500000, 93.000000) scale(-1, 1) rotate(-114.000000) translate(-127.500000, -93.000000) translate(52.000000, 35.000000)">
                                <polygon id="路径" stroke="#000000" stroke-width="2" fill="#3C5E82" fill-rule="nonzero" stroke-linecap="round" stroke-linejoin="round" points="5.3032612 46.0534035 0.180218693 51.7535216 92.8647825 10.2068864 100.180219 0.753521561"></polygon>
                                <path d="M98.8012381,1.61924164 C98.8012381,1.61924164 117.331445,17.0920549 137.920563,15.4844899 L133.271407,21.1109674 C133.271407,21.1109674 138.474034,22.3166412 142.237636,22.5175868 C142.237636,22.5175868 140.577223,25.5317712 139.248893,25.7327168 C139.248893,25.7327168 143.012495,27.1393362 145.669156,27.1393362 C145.669156,27.1393362 145.514184,28.4655773 143.743077,30.2138043 C143.743077,30.2138043 146.244765,31.3591944 148.325816,30.5554119 C148.325816,30.5554119 147.285291,33.167705 146.111932,33.8308256 C146.111932,33.8308256 148.038011,33.9714875 150.5397,33.9714875 C150.5397,33.9714875 141.241388,39.0353173 130.504052,58.9289343 C130.504052,58.9289343 131.655272,65.3190052 127.360338,70.9052937 L126.762589,65.4596672 C126.762589,65.4596672 125.722064,73.095601 121.737073,77.0743244 C121.40499,75.8284615 121.537824,72.131062 121.582101,71.166523 C121.582101,71.166523 120.984353,79.0034024 114.785478,82.4797617 C114.785478,82.4797617 115.228255,79.525861 114.785478,77.6570667 C114.785478,77.6570667 113.678536,82.4797617 110.114184,85.5542298 C110.114184,85.5542298 110.446266,84.6097854 109.959212,81.3946554 C109.959212,81.3946554 109.782101,85.0116766 107.125441,86.6192416 C107.125441,86.6192416 103.981726,33.8710147 91.5396997,11.0837806 L98.8012381,1.61924164 Z" id="路径" stroke="#1D1D1D" stroke-width="2" fill="#D2F8F7" fill-rule="nonzero" stroke-linecap="round" stroke-linejoin="round"></path>
                                <path d="M0.0652370809,52.7753668 C0.0652370809,52.7753668 8.46548466,86.2469041 6.23730228,113.080626 C6.23730228,113.080626 51.9150411,125.387822 108.065237,87.8609626 C108.065237,87.8609626 106.059873,37.8049746 92.3788331,11.0116041 L0.0652370809,52.7753668 Z" id="路径" stroke="#000000" stroke-width="2" fill="#8EC7FF" fill-rule="nonzero" stroke-linecap="round" stroke-linejoin="round"></path>
                                <path d="M96.5725919,16.4307014 C96.5725919,16.4307014 111.358713,43.5792958 110.539789,81.4307014" id="路径" stroke="#1D1D1D" stroke-width="2" stroke-linecap="round" stroke-linejoin="round"></path>
                                <path d="M115.323261,78.0467656 C112.255418,31.6886575 98.323261,15.0467656 98.323261,15.0467656" id="路径" stroke="#1D1D1D" stroke-width="2" stroke-linecap="round" stroke-linejoin="round"></path>
                                <path d="M122.097581,71.6992482 C117.100725,34.1411087 101.097581,14.6992482 101.097581,14.6992482" id="路径" stroke="#1D1D1D" stroke-width="2" stroke-linecap="round" stroke-linejoin="round"></path>
                                <path d="M101.588037,12.8348893 C101.588037,12.8348893 119.878559,32.1508801 126.588037,64.8348893" id="路径" stroke="#1D1D1D" stroke-width="2" stroke-linecap="round" stroke-linejoin="round"></path>
                                <path d="M106.645498,7.66593793 C106.645498,7.66593793 123.653543,20.290336 133.645498,20.6659379" id="路径" stroke="#1D1D1D" stroke-width="2" stroke-linecap="round" stroke-linejoin="round"></path>
                                <path d="M104.622697,10.3301525 C104.622697,10.3301525 116.496903,22.147146 139.622697,26.3301525" id="路径" stroke="#1D1D1D" stroke-width="2" stroke-linecap="round" stroke-linejoin="round"></path>
                                <path d="M145.006633,31.0808217 C116.883971,25.9980192 104.006633,12.0808217 104.006633,12.0808217" id="路径" stroke="#1D1D1D" stroke-width="2" stroke-linecap="round" stroke-linejoin="round"></path>
                                <path d="M146.760037,33.2409628 C111.640566,24.1809443 102.760037,11.2409628 102.760037,11.2409628" id="路径" stroke="#1D1D1D" stroke-width="2" stroke-linecap="round" stroke-linejoin="round"></path>
                                <path d="M112.549732,22.0150959 C112.549732,22.0150959 125.850331,35.4346801 130.549732,59.0150959" id="路径" stroke="#1D1D1D" stroke-width="2" stroke-linecap="round" stroke-linejoin="round"></path>
                                <polygon id="路径" fill="#000000" fill-rule="nonzero" points="92.9590572 12.9415265 101.043424 2.33937601 99.346154 0.941526544 92.0434245 11.0705588"></polygon>
                                <path d="M93.0421326,11.0740008 C93.0421326,11.0740008 110.84639,40.2112575 110.013817,85.1583245 L107.60149,86.0740008 C107.345313,86.1349923 103.780192,30.6277045 93.0421326,11.0740008 Z" id="路径" fill="#000000" fill-rule="nonzero"></path>
                                <path d="M126.633291,70.6565097 C126.633291,70.6565097 122.754238,40.2605706 110.862717,22.6565097 C110.862717,22.6565097 125.870198,45.6006721 127.862717,67.4280833 L126.633291,70.6565097 Z" id="路径" fill="#000000" fill-rule="nonzero"></path>
                                <path d="M113.12925,37.9257197 C113.12925,37.9257197 121.80864,71.4893919 119.633067,77.9257197 C119.633067,77.9257197 121.785739,76.0303593 122.12925,70.9760652 C122.12925,70.9563218 117.938411,44.7964008 113.12925,37.9257197 Z" id="路径" fill="#000000" fill-rule="nonzero"></path>
                                <path d="M112.91536,57.4551428 C112.91536,57.4551428 114.329502,80.4599313 112.975967,82.4551428 C112.975967,82.4551428 114.10728,80.5197877 114.91536,77.0281676 C114.91536,77.0281676 113.986068,59.2508332 112.91536,57.4551428 Z" id="路径" fill="#000000" fill-rule="nonzero"></path>
                                <path d="M121.452337,24.2455251 C121.452337,24.2455251 141.948527,32.2880783 147.452337,31.1178655 C147.452337,31.1178655 146.901956,33.1178655 145.603057,33.2455251 C145.603057,33.2242485 123.741922,26.7561634 121.452337,24.2455251 Z" id="路径" fill="#000000" fill-rule="nonzero"></path>
                                <path d="M120.620812,16.4867088 C120.620812,16.4867088 131.092261,19.8561669 136.620812,17.4916349 C136.620812,17.4916349 135.519787,19.3438516 134.043945,20.4867088 C134.043945,20.4867088 126.75844,19.6591226 120.620812,16.4867088 Z" id="路径" fill="#000000" fill-rule="nonzero"></path>
                                <path d="M123.425102,20.9643967 C123.425102,20.9643967 134.897874,25.7155279 141.425102,24.312813 C141.425102,24.312813 140.689953,25.4666591 139.576092,25.9643967 C139.576092,25.9417722 125.697379,22.9327225 123.425102,20.9643967 Z" id="路径" fill="#000000" fill-rule="nonzero"></path>
                                <path d="M132.919992,27.0453807 C132.919992,27.0453807 139.818313,29.4174738 144.919992,28.1849156 C144.919992,28.1849156 144.942146,29.4174738 143.722186,30.0453807 C143.722186,30.0453807 134.871928,28.7197993 132.919992,27.0453807 Z" id="路径" fill="#000000" fill-rule="nonzero"></path>
                                <path d="M99.3412093,29.873295 C99.3412093,29.873295 27.6920339,43.0832787 9.34120934,47.7007502 L92.3022288,10.7007502 C92.3022288,10.7007502 97.4746426,21.8830617 99.3412093,29.873295 Z" id="路径" fill="#5AA2DD" fill-rule="nonzero"></path>
                                <path d="M98.6240955,26.1546013 C98.6240955,26.1546013 62.5877234,48.5238017 2.62409551,66.1546013" id="路径" stroke="#1D1D1D" stroke-width="2" stroke-linecap="round" stroke-linejoin="round"></path>
                                <path d="M78.6518074,37.2520075 C78.6518074,37.2520075 87.1210949,62.0502271 87.6518074,98.2520075" id="路径" stroke="#1D1D1D" stroke-width="2" stroke-linecap="round" stroke-linejoin="round"></path>
                            </g>
                        </g>
                    </g>
                </g>
                <text id="CORPORATE-INFO" font-family="Roboto-Regular, Roboto" font-size="18" font-weight="normal" fill="#4895EF">
                    <tspan x="23" y="81">CORPORATE INFO</tspan>
                </text>
                <text id="企业信息、薪资、工作环境、实际体验，求职备份" font-family="PingFangSC-Regular, PingFang SC" font-size="14" font-weight="normal" fill="#666666">
                    <tspan x="23" y="122">企业信息、薪资、工作环</tspan>
                    <tspan x="23" y="142">境、实际体验，求职前你</tspan>
                    <tspan x="23" y="162">需要做的一切功课，百科</tspan>
                    <tspan x="23" y="182">已经为你准备好。</tspan>
                </text>
                <text id="企业百科备份" fill="url(#linearGradient-4)" font-family="PingFangSC-Medium, PingFang SC" font-size="36" font-weight="400">
                    <tspan x="23" y="52">企业百科</tspan>
                </text>
            </g>
        </g>
    </g>
</svg>