<?xml version="1.0" standalone="no"?><!DOCTYPE svg PUBLIC "-//W3C//DTD SVG 1.1//EN" "http://www.w3.org/Graphics/SVG/1.1/DTD/svg11.dtd"><svg t="1586327652573" class="icon" viewBox="0 0 1024 1024" version="1.1" xmlns="http://www.w3.org/2000/svg" p-id="3562" xmlns:xlink="http://www.w3.org/1999/xlink" width="400" height="400"><defs><style type="text/css"></style></defs><path d="M509.5 74.393c-240.308 0-435.107 194.8-435.107 435.107 0 240.287 194.8 435.107 435.107 435.107 240.201-0.275 434.832-194.906 435.107-435.107 0-240.308-194.82-435.107-435.107-435.107z m0 821.095c-213.177 0-385.977-172.811-385.977-385.988s172.8-385.977 385.977-385.977v-0.17c213.113 0.276 385.797 173.023 385.988 386.147 0 213.178-172.81 385.988-385.988 385.988z m28.087-357.328h155.56v-37.349h-155.56V387.827H495.17v285.519H389.389V474.944h-42.183v198.401H278.19l-0.244 37.816h464.32v-37.816H537.587V538.16z m0.573-289.533l10.22-13.831-55.26 0.16c-58.139 80.403-139.052 144.299-242.772 191.677 10.92 15.01 20.799 28.989 29.648 41.928C380.87 412.175 458.043 349.395 511.54 280.24c56.661 70.524 131.637 129.226 224.926 176.114 11.239-18.388 20.608-33.047 28.087-43.967-97.751-38.975-173.237-93.565-226.393-163.76z" p-id="3563"></path></svg>