<?xml version="1.0" encoding="UTF-8"?>
<svg width="18px" height="19px" viewBox="0 0 18 19" version="1.1" xmlns="http://www.w3.org/2000/svg" xmlns:xlink="http://www.w3.org/1999/xlink">
    <!-- Generator: Sketch 58 (84663) - https://sketch.com -->
    <title>编辑</title>
    <desc>Created with Sketch.</desc>
    <g id="简历板块" stroke="none" stroke-width="1" fill="none" fill-rule="evenodd">
        <g id="简历板块多重信息" transform="translate(-1117.000000, -330.000000)" fill-rule="nonzero">
            <g id="编组-25" transform="translate(428.000000, 329.000000)">
                <g id="编辑-2" transform="translate(687.000000, 0.000000)">
                    <g id="编辑">
                        <rect id="矩形" fill="#000000" opacity="0" x="0" y="0" width="21" height="21"></rect>
                        <path d="M16.884082,19.2527344 L4.70449219,19.2527344 C3.23613281,19.2527344 2.04257812,18.0591797 2.04257812,16.5908203 L2.04257812,4.41123047 C2.04257812,2.94287109 3.23613281,1.74931641 4.70449219,1.74931641 L10.7953125,1.74931641 C11.2792969,1.74931641 11.6709961,2.14101562 11.6709961,2.625 C11.6709961,3.10898437 11.2792969,3.50068359 10.7953125,3.50068359 L4.70449219,3.50068359 C4.20205078,3.50068359 3.79394531,3.90878906 3.79394531,4.41123047 L3.79394531,16.5908203 C3.79394531,17.0932617 4.20205078,17.5013672 4.70449219,17.5013672 L16.884082,17.5013672 C17.3865234,17.5013672 17.7946289,17.0932617 17.7946289,16.5908203 L17.7946289,10.5 C17.7946289,10.0160156 18.1863281,9.62431641 18.6703125,9.62431641 C19.1542969,9.62431641 19.5459961,10.0160156 19.5459961,10.5 L19.5459961,16.5908203 C19.5459961,18.0591797 18.3524414,19.2527344 16.884082,19.2527344 Z" id="路径" fill="#4895EF"></path>
                        <path d="M9.90527344,15.5141602 C9.86835937,15.5141602 9.83349609,15.5121094 9.79658203,15.5080078 L7.03828125,15.1634766 C6.64042969,15.1142578 6.32871094,14.8004883 6.27949219,14.4046875 L5.93496094,11.6463867 C5.90214844,11.3777344 5.99443359,11.109082 6.18515625,10.9183594 L13.8673828,3.23613281 C14.915332,2.18818359 16.6195312,2.18818359 17.6674805,3.23613281 L18.2068359,3.77548828 C18.7154297,4.28203125 18.9943359,4.95673828 18.9943359,5.6765625 C18.9943359,6.39433594 18.7154297,7.06904297 18.2068359,7.57763672 L10.5246094,15.2578125 C10.3584961,15.4239258 10.1349609,15.5141602 9.90527344,15.5141602 Z M7.93037109,13.5105469 L9.58740234,13.7176758 L16.9661133,6.33896484 C17.1424805,6.16259766 17.240918,5.92675781 17.240918,5.6765625 C17.240918,5.42636719 17.1424805,5.19052734 16.9661133,5.01416016 L16.4267578,4.47480469 C16.059668,4.10976563 15.4669922,4.10976563 15.1019531,4.47480469 L7.72324219,11.8535156 L7.93037109,13.5105469 Z" id="形状" fill="#4895EF"></path>
                    </g>
                </g>
            </g>
        </g>
    </g>
</svg>