<?xml version="1.0" encoding="UTF-8"?>
<svg width="19px" height="19px" viewBox="0 0 19 19" version="1.1" xmlns="http://www.w3.org/2000/svg" xmlns:xlink="http://www.w3.org/1999/xlink">
    <!-- Generator: Sketch 58 (84663) - https://sketch.com -->
    <title>添加备份</title>
    <desc>Created with Sketch.</desc>
    <g id="简历板块" stroke="none" stroke-width="1" fill="none" fill-rule="evenodd">
        <g id="简历板块多重信息" transform="translate(-1116.000000, -534.000000)" fill-rule="nonzero">
            <g id="添加备份-2" transform="translate(1115.000000, 533.000000)">
                <g id="添加备份">
                    <rect id="矩形" fill="#000000" opacity="0" x="0" y="0" width="21" height="21"></rect>
                    <path d="M10.7916667,1.75 C5.79809205,1.75 1.75,5.79809205 1.75,10.7916667 C1.75,15.7852413 5.79809205,19.8333333 10.7916667,19.8333333 C15.7852413,19.8333333 19.8333333,15.7852413 19.8333333,10.7916667 C19.8276062,5.80046624 15.7828671,1.75572714 10.7916667,1.75 L10.7916667,1.75 Z M10.7916667,18.3750268 C6.6034925,18.3750268 3.20830651,14.9798408 3.20830651,10.7916667 C3.20830651,6.6034925 6.6034925,3.20830651 10.7916667,3.20830651 C14.9798408,3.20830651 18.3750268,6.6034925 18.3750268,10.7916667 C18.3703303,14.9778939 14.9778939,18.3703303 10.7916667,18.3750268 Z M14.6561997,10.0625134 L11.5208199,10.0625134 L11.5208199,6.92713362 C11.5208199,6.5244334 11.1943669,6.19798036 10.7916667,6.19798036 C10.3889664,6.19798036 10.0625134,6.5244334 10.0625134,6.92713362 L10.0625134,10.0625134 L6.92713362,10.0625134 C6.5244334,10.0625134 6.19798036,10.3889664 6.19798036,10.7916667 C6.19798036,11.1943669 6.5244334,11.5208199 6.92713362,11.5208199 L10.0625134,11.5208199 L10.0625134,14.6561997 C10.0625134,15.0588999 10.3889664,15.385353 10.7916667,15.385353 C11.1943669,15.385353 11.5208199,15.0588999 11.5208199,14.6561997 L11.5208199,11.5208199 L14.6561997,11.5208199 C15.0588999,11.5208199 15.385353,11.1943669 15.385353,10.7916667 C15.385353,10.3889664 15.0588999,10.0625134 14.6561997,10.0625134 Z" id="形状" fill="#4895EF"></path>
                </g>
            </g>
        </g>
    </g>
</svg>