<?xml version="1.0" encoding="UTF-8"?>
<svg width="19px" height="22px" viewBox="0 0 19 22" version="1.1" xmlns="http://www.w3.org/2000/svg" xmlns:xlink="http://www.w3.org/1999/xlink">
    <!-- Generator: Sketch 58 (84663) - https://sketch.com -->
    <title>删 除备份 2</title>
    <desc>Created with Sketch.</desc>
    <g id="简历板块" stroke="none" stroke-width="1" fill="none" fill-rule="evenodd">
        <g id="简历板块求职意向编辑" transform="translate(-1116.000000, -609.000000)" fill-rule="nonzero">
            <g id="编组-26" transform="translate(428.000000, 533.000000)">
                <g id="编组-10" transform="translate(687.000000, 49.000000)">
                    <g id="删-除备份-4" transform="translate(0.000000, 28.000000)">
                        <g id="删-除备份-2">
                            <rect id="矩形" fill="#000000" opacity="0" x="0" y="0" width="21" height="21"></rect>
                            <path d="M10.6146387,0.44315332 C8.55772559,0.44315332 6.88830762,2.07381152 6.81726855,4.12102441 L2.02213184,4.12102441 C1.48935938,4.12102441 1.05344531,4.55371875 1.05344531,5.08973145 C1.05344531,5.62252441 1.48613965,6.05845898 2.02215234,6.05845898 L3.09095801,6.05845898 L3.09095801,16.8951152 C3.09095801,18.9294082 4.46975977,20.5923662 6.17471777,20.5923662 L14.8608018,20.5923662 C16.56254,20.5923662 17.9445615,18.9391084 17.9445615,16.8951152 L17.9445615,6.06491895 L18.9132686,6.06491895 C19.4460615,6.06491895 19.8819756,5.6322041 19.8819756,5.09619141 C19.8819756,4.56339844 19.4492813,4.12748438 18.9132686,4.12748438 L14.4055283,4.12748438 C14.3441689,2.07383203 12.6715313,0.44315332 10.6146387,0.44315332 L10.6146387,0.44315332 Z M8.63200488,4.12102441 C8.70304395,3.07159863 9.55875293,2.25788965 10.6178584,2.25788965 C11.6769639,2.25788965 12.5326729,3.07481836 12.5940322,4.12102441 L8.63200488,4.12102441 Z M6.17147754,18.7808701 C5.56764551,18.7808701 4.9024541,18.0059004 4.9024541,16.8951152 L4.9024541,6.06491895 L16.1266055,6.06491895 L16.1266055,16.9047949 C16.1266055,18.0123604 15.4614141,18.7905703 14.857582,18.7905703 L6.17147754,18.7905703 L6.17147754,18.7808701 Z M7.47278027,16.4527412 C7.91513379,16.4527412 8.2800293,16.0103672 8.2800293,15.4549746 L8.2800293,9.76216992 C8.2800293,9.20677734 7.91837402,8.76438281 7.47278027,8.76438281 C7.03038574,8.76438281 6.66551074,9.20677734 6.66551074,9.76216992 L6.66551074,15.4549746 C6.66551074,16.007127 7.02070605,16.4527412 7.47278027,16.4527412 Z M10.3950615,16.4527412 C10.8374355,16.4527412 11.2023105,16.0103672 11.2023105,15.4549746 L11.2023105,9.76216992 C11.2023105,9.20677734 10.8406553,8.76438281 10.3950615,8.76438281 C9.9526875,8.76438281 9.58779199,9.20677734 9.58779199,9.76216992 L9.58779199,15.4549746 C9.58779199,16.007127 9.9526875,16.4527412 10.3950615,16.4527412 L10.3950615,16.4527412 Z M13.4691006,16.4527412 C13.9114746,16.4527412 14.2763701,16.0103672 14.2763701,15.4549746 L14.2763701,9.76216992 C14.2763701,9.20677734 13.9147148,8.76438281 13.4691006,8.76438281 C13.0267266,8.76438281 12.6618516,9.20677734 12.6618516,9.76216992 L12.6618516,15.4549746 C12.6618516,16.007127 13.0138066,16.4527412 13.4691006,16.4527412 Z" id="形状" fill="#4895EF"></path>
                        </g>
                    </g>
                </g>
            </g>
        </g>
    </g>
</svg>