<?xml version="1.0" encoding="UTF-8"?>
<svg width="21px" height="19px" viewBox="0 0 21 19" version="1.1" xmlns="http://www.w3.org/2000/svg" xmlns:xlink="http://www.w3.org/1999/xlink">
    <!-- Generator: Sketch 58 (84663) - https://sketch.com -->
    <title>人数</title>
    <desc>Created with Sketch.</desc>
    <g id="简历投递" stroke="none" stroke-width="1" fill="none" fill-rule="evenodd">
        <g id="简历投递职位详情页" transform="translate(-1231.000000, -587.000000)" fill-rule="nonzero">
            <g id="人数-2" transform="translate(1231.000000, 586.000000)">
                <g id="人数">
                    <rect id="矩形" fill="#000000" opacity="0" x="0" y="0" width="21" height="21"></rect>
                    <path d="M20.5962251,15.3323337 C20.3961898,13.3467984 19.1885694,11.6131593 17.410478,10.738931 C18.0179926,10.261069 18.4736285,9.62762393 18.7329335,8.89416123 C19.0255777,8.06438526 19.0440995,7.18274829 18.7884989,6.33815487 C18.5291939,5.49726581 18.021697,4.7749162 17.3141648,4.25260186 C16.6066326,3.73028752 15.7694479,3.45246074 14.8878109,3.45246074 C14.5729405,3.45246074 14.2580702,3.49320868 13.9172694,3.57470453 L13.6320339,3.64138296 L13.8283648,3.85623566 C14.1061916,4.15628858 14.3506791,4.48968071 14.5581231,4.84529899 L14.6099841,4.93420356 L14.7137061,4.93049921 C14.7470454,4.93049921 14.7803846,4.9230905 14.8100194,4.91938613 C14.8396543,4.91568176 14.8655848,4.91197742 14.8878109,4.91197742 C15.5879344,4.91197742 16.2473099,5.18609983 16.7399894,5.67877933 C17.2363733,6.17516318 17.5067913,6.83083437 17.5067913,7.53095784 C17.5067913,8.23108131 17.2363733,8.89045687 16.7399894,9.38684072 C16.2436056,9.88322457 15.5879344,10.1536426 14.8878109,10.1536426 C14.8618804,10.1536426 14.8322455,10.1499382 14.795202,10.1462339 C14.7692715,10.1425295 14.743341,10.1388252 14.7174105,10.1388252 L14.6099841,10.1314165 L14.5581231,10.2240254 C14.3321573,10.6166872 14.0580349,10.9834186 13.7394602,11.309402 L13.3505027,11.7094726 L13.8950432,11.5946375 C14.1876874,11.5316634 14.484036,11.5020286 14.7729758,11.5020286 C16.9881813,11.5020286 18.8255424,13.1652849 19.0478038,15.3693773 L19.0626213,15.521256 L20.5925207,15.521256 L20.5925207,15.3508555 L20.5962251,15.3323337 L20.5962251,15.3323337 Z M16.4251191,17.1141295 C16.1509967,16.2917622 15.7472217,15.5175516 15.2286118,14.8211325 C14.7100018,14.121009 14.0913741,13.5134944 13.3838419,13.0097019 C12.7578056,12.565179 12.0762039,12.2095608 11.3538543,11.9539601 C12.3318045,11.2945846 13.0800847,10.3721997 13.5320162,9.27200564 C14.0284001,8.05327218 14.1061916,6.74192978 13.7616864,5.47503969 C13.4171812,4.2081496 12.6800141,3.11536427 11.6390898,2.3189275 C10.5944611,1.52249073 9.34979715,1.10019404 8.0347504,1.10019404 C6.69377315,1.10389841 5.37502206,1.56694303 4.33039337,2.40783207 C3.28206033,3.24872112 2.54489329,4.43041102 2.25224908,5.74175339 C1.95960487,7.05309579 2.12259657,8.4385253 2.70788499,9.64244135 C3.24131241,10.738931 4.1118363,11.6502029 5.17498677,12.2391956 C3.79696595,12.8726407 2.62638914,13.8654084 1.77438702,15.1285941 C0.848297769,16.4917975 0.363026979,18.0809667 0.363026979,19.7294055 L0.363026979,19.899806 L1.74845651,19.899806 L1.74845651,19.7294055 C1.74845651,19.703475 1.74845651,19.6812489 1.74475217,19.6590227 C1.74475217,19.640501 1.7410478,19.6256835 1.7410478,19.6145705 C1.7410478,15.8916917 4.76750749,12.8615276 8.48668195,12.8578233 C12.2058564,12.8578233 15.2323161,15.8879873 15.2323161,19.6108661 C15.2323161,19.6256835 15.2323161,19.640501 15.2286118,19.6590227 C15.2286118,19.6812489 15.2249074,19.703475 15.2249074,19.7257012 L15.2249074,19.8961016 L16.8474158,19.8961016 L16.8474158,19.7257012 C16.8474158,18.8366555 16.7066502,17.9550185 16.4251191,17.1141295 Z M12.4762745,7.03827836 C12.4762745,9.49056271 10.4833304,11.4835068 8.03104604,11.4835068 C5.57876169,11.4835068 3.58581761,9.49056269 3.58581761,7.03827836 C3.58581761,4.58599403 5.57876171,2.59304992 8.03104604,2.59304992 C10.4833304,2.59304992 12.4762745,4.58599401 12.4762745,7.03827836 Z" id="形状" fill="#4895EF"></path>
                </g>
            </g>
        </g>
    </g>
</svg>