<?xml version="1.0" encoding="UTF-8"?>
<svg width="37px" height="38px" viewBox="0 0 37 38" version="1.1" xmlns="http://www.w3.org/2000/svg" xmlns:xlink="http://www.w3.org/1999/xlink">
    <!-- Generator: Sketch 58 (84663) - https://sketch.com -->
    <title>员工风采</title>
    <desc>Created with Sketch.</desc>
    <g id="百科" stroke="none" stroke-width="1" fill="none" fill-rule="evenodd">
        <g id="百科首页" transform="translate(-1051.000000, -1107.000000)" fill-rule="nonzero">
            <g id="编组-26备份" transform="translate(1051.000000, 1107.000000)">
                <g id="员工风采-2">
                    <g id="员工风采">
                        <rect id="矩形" fill="#000000" opacity="0" x="0" y="0" width="37" height="37"></rect>
                        <path d="M17.9171182,1.2771423 C17.9171182,1.2771423 20.144692,27.2655027 2.32410196,29.4930765 L1.58157736,3.50471602 L6.77924945,1.2771423 L17.9171182,1.2771423 Z" id="路径" fill="#CBE1FA"></path>
                        <path d="M30.6142886,9.21473008 L30.6142886,7.05398355 C30.7635308,4.84581163 29.108027,2.92873817 26.9016657,2.7547662 L6.39313667,2.7547662 C4.19068531,2.93644519 2.53946583,4.84855735 2.68051374,7.05398355 L2.68051374,29.4113988 C2.53961527,31.6153948 4.19181454,33.5253372 6.39313667,33.7031908 L11.3606261,33.7031908 C12.074174,33.7031908 12.6526189,34.2816357 12.6526189,34.9951836 C12.6526189,35.7087315 12.074174,36.2871764 11.3606261,36.2871764 L6.39313667,36.2871764 C2.79168555,36.0873326 0.0244881582,33.0218744 0.193056389,29.418824 L0.193056389,7.05398355 C0.0285931605,3.45240397 2.79356747,0.389408474 6.39313667,0.185631132 L26.8942404,0.185631132 C30.4956915,0.3854749 33.2628889,3.45093311 33.0943207,7.05398355 L33.0943207,9.1998796 C33.0943207,9.88472155 32.5391466,10.4398956 31.8543046,10.4398956 C31.1694627,10.4398956 30.6142886,9.88472155 30.6142886,9.1998796 L30.6142886,9.21473008 Z M5.15303618,19.5283965 C5.14927127,19.1915167 5.27716323,18.8664579 5.50953241,18.6225165 C5.7422966,18.3832937 6.05946331,18.2446999 6.39313667,18.2364038 L13.8183825,18.2364038 C14.5319304,18.2364038 15.1103753,18.8148486 15.1103753,19.5283965 C15.1103753,20.2419444 14.5319304,20.8203893 13.8183825,20.8203893 L6.39313667,20.8203893 C6.05946331,20.8120932 5.7422966,20.6734994 5.50953241,20.4342765 C5.27716323,20.1903351 5.14927127,19.8652764 5.15303618,19.5283965 Z M5.15312062,11.7912904 C5.14927127,11.4544106 5.27716323,11.1293518 5.50953241,10.8854104 C5.7422966,10.6461876 6.05946331,10.5075937 6.39313667,10.4992976 L16.3355408,10.4992976 C17.0490887,10.4992976 17.6275336,11.0777425 17.6275336,11.7912904 C17.6275336,12.5048383 17.0490887,13.0832832 16.3355408,13.0832832 L6.39313667,13.0832832 C5.69476615,13.0670535 5.14067664,12.4897386 5.15312062,11.7912904 L5.15312062,11.7912904 Z M21.3178808,25.0230785 C19.3555556,23.5374884 18.2037623,21.2174083 18.2067028,18.756171 C18.2065177,16.1032628 19.6217211,13.6517953 21.9191762,12.3252878 C24.2166312,10.9987803 27.047266,10.9987803 29.3447211,12.3252878 C31.6421761,13.6517953 33.0573795,16.1032628 33.0571945,18.756171 C33.0636266,21.2182238 31.9111021,23.5397767 29.9460164,25.0230785 C33.8905043,27.1030657 36.4797748,31.0740294 36.7920931,35.5223761 C36.8089448,35.9772505 36.5752214,36.4047933 36.1832229,36.636163 C35.7927017,36.8675193 35.3069803,36.867015 34.9169403,36.6348484 C34.5269003,36.4026817 34.2948803,35.9759589 34.312061,35.5223761 C34.312061,31.9508328 30.4212322,26.4932772 25.6245234,26.4932772 C20.8278145,26.4932772 16.9666867,31.9285571 16.9666867,35.5223761 C16.9818269,35.9845616 16.7385291,36.416773 16.3355408,36.6435882 C15.9435276,36.8735098 15.457837,36.8735098 15.0658238,36.6435882 C14.6742683,36.4090272 14.4432281,35.9783226 14.4643789,35.5223761 C14.7694479,31.0757175 17.3538626,27.1035846 21.2956051,25.0230785 L21.3178808,25.0230785 Z M30.6142886,18.756171 C30.4885362,16.0452733 28.2104583,13.937026 25.4979531,14.0212579 C22.7854479,14.1054899 20.6425687,16.3510219 20.6852603,19.0644988 C20.727952,21.7779758 22.9404118,23.9549845 25.6542244,23.9538435 C28.4465283,23.892947 30.6640237,21.5858223 30.6142886,18.7932972 L30.6142886,18.756171 Z" id="形状" fill="#4895EF"></path>
                    </g>
                </g>
            </g>
        </g>
    </g>
</svg>