<?xml version="1.0" encoding="UTF-8"?>
<svg width="297px" height="164px" viewBox="0 0 297 164" version="1.1" xmlns="http://www.w3.org/2000/svg" xmlns:xlink="http://www.w3.org/1999/xlink">
    <!-- Generator: Sketch 58 (84663) - https://sketch.com -->
    <title>编组 3</title>
    <desc>Created with Sketch.</desc>
    <defs>
        <ellipse id="path-1" cx="81.5067669" cy="82" rx="81.4142857" ry="82"></ellipse>
        <path d="M56,87 C86.927946,87 112,72.4308215 112,54.458829 C112,36.4868365 87.0412933,0 56.1133474,0 C25.1854014,0 0,36.4868365 0,54.458829 C0,72.4308215 25.072054,87 56,87 Z" id="path-3"></path>
        <path d="M109.560625,0.521580414 L2.47487273,19.5600673 C1.04304784,19.8146275 -2.07567759e-13,21.0594723 -2.13162821e-13,22.5137499 L-2.13162821e-13,24.6209643 C-2.14027602e-13,27.3097547 1.87450306,29.6348041 4.50210196,30.2051702 C46.5352165,39.32918 81.554724,50.6217174 109.560625,64.0827825 L111.164543,7.43158296 L109.560625,0.521580414 Z" id="path-5"></path>
        <linearGradient x1="100%" y1="50%" x2="0%" y2="50%" id="linearGradient-7">
            <stop stop-color="#6F344E" offset="0%"></stop>
            <stop stop-color="#252447" offset="100%"></stop>
        </linearGradient>
    </defs>
    <g id="注册流程优化" stroke="none" stroke-width="1" fill="none" fill-rule="evenodd">
        <g id="重置密码1.1" transform="translate(-1104.000000, -306.000000)">
            <g id="编组-5" transform="translate(1104.000000, 306.000000)">
                <g id="编组-3">
                    <g id="路径-18">
                        <mask id="mask-2" fill="white">
                            <use xlink:href="#path-1"></use>
                        </mask>
                        <use id="蒙版" fill="#739EE5" xlink:href="#path-1"></use>
                        <path d="M0,82 C23.8960194,116.257778 48.6486554,133.386667 74.2579079,133.386667 C112.671787,133.386667 133.612314,127.300071 157.526316,82 C155.303533,150.265619 132.718907,184.522948 89.7724396,184.771985 C46.825972,185.021023 16.9018255,150.763695 0,82 Z" id="路径-21" fill="#6692DB" mask="url(#mask-2)"></path>
                        <path d="M29.4800804,19.0144928 C31.1129928,19.0465786 31.1129928,24.0341278 29.4800804,33.9771403 C27.030712,48.8916591 62.4445669,66.4739148 74.3286886,66.4739148 C86.2128103,66.4739148 39.4503275,85.829325 19.5088491,76.7015705 C6.21453016,70.6164008 -1.31038827,70.6164008 -3.06590619,76.7015705 C-3.91478455,41.0347919 -3.24512286,22.5035843 -1.05692113,21.1079477 C1.1312806,19.7123111 11.3102811,19.0144928 29.4800804,19.0144928 Z" id="路径-19" fill="#B0EACD" mask="url(#mask-2)"></path>
                        <path d="M131.422341,16.6376812 C119.302764,34.3892075 118.007027,46.3857834 127.535131,52.6274089 C137.063234,58.8690344 132.849018,62.8913551 114.892481,64.694371 C122.160914,77.3818337 130.913506,81.6050072 141.150257,77.3638915 C151.387009,73.1227758 162.372627,73.1227758 174.10711,77.3638915 L180.492481,16.6376812 L131.422341,16.6376812 Z" id="路径-22" fill="#B0EACD" mask="url(#mask-2)"></path>
                    </g>
                    <g id="路径-25" transform="translate(40.000000, 6.000000)">
                        <mask id="mask-4" fill="white">
                            <use xlink:href="#path-3"></use>
                        </mask>
                        <use id="蒙版" fill="#FFFFFF" xlink:href="#path-3"></use>
                        <path d="M33.9030454,-12.0565396 C29.5038276,-1.42600182 28.2990214,5.8442834 30.2886267,9.75431608 C33.2730348,15.6193651 85.8557864,27.1522068 85.8557864,9.75431608 C85.8557864,2.94907288 86.6199555,-6.64664822 81.9939313,-12.0565396 C79.8216694,-14.5968854 74.3900064,-16.8985517 65.6989422,-18.9615385 L36.3356451,-14.9304791 L33.9030454,-12.0565396 Z" fill="#B0EACD" mask="url(#mask-4)"></path>
                    </g>
                    <g id="编组-2" transform="translate(84.162506, 101.017901) rotate(-95.000000) translate(-84.162506, -101.017901) translate(73.162506, 91.517901)">
                        <path d="M19.5193427,4.37333333 C18.9035841,12.2035861 14.2145255,15.1009114 5.45216691,13.0653091 C7.82064274,17.1319315 9.71256767,18.9521746 11.1279417,18.5260384 C12.5433157,18.0999022 15.3404494,17.3607506 19.5193427,16.3085837 L21.8086677,11.48 L21.8086677,6.45418392 L19.5193427,4.37333333 Z" id="路径-24" fill="#6692DB"></path>
                        <path d="M0,0 C4.46465265,14.1008276 9.89132561,20.1784304 16.2800189,18.2328085 C22.6687122,16.2871866 23.5205098,11.0895966 18.8354117,2.64003859" id="路径-23" stroke="#333333" stroke-width="2" stroke-linecap="round"></path>
                    </g>
                    <g id="编组-2备份" transform="translate(125.200704, 96.644568) scale(-1, 1) rotate(-95.000000) translate(-125.200704, -96.644568) translate(114.200704, 87.144568)">
                        <path d="M19.5193427,4.37333333 C18.9035841,12.2035861 14.2145255,15.1009114 5.45216691,13.0653091 C7.82064274,17.1319315 9.71256767,18.9521746 11.1279417,18.5260384 C12.5433157,18.0999022 15.3404494,17.3607506 19.5193427,16.3085837 L21.8086677,11.48 L21.8086677,6.45418392 L19.5193427,4.37333333 Z" id="路径-24" fill="#6692DB"></path>
                        <path d="M0,0 C4.46465265,14.1008276 9.89132561,20.1784304 16.2800189,18.2328085 C22.6687122,16.2871866 23.5205098,11.0895966 18.8354117,2.64003859" id="路径-23" stroke="#333333" stroke-width="2" stroke-linecap="round"></path>
                    </g>
                    <ellipse id="椭圆形备份-5" fill="#FFD9D9" transform="translate(82.327720, 67.786667) scale(-1, 1) rotate(97.000000) translate(-82.327720, -67.786667) " cx="82.3277204" cy="67.7866667" rx="9.29296791" ry="10.9047649"></ellipse>
                    <ellipse id="椭圆形备份-6" fill="#FFD9D9" transform="translate(135.758956, 67.786667) scale(-1, 1) rotate(97.000000) translate(-135.758956, -67.786667) " cx="135.758956" cy="67.7866667" rx="9.29296791" ry="10.9047649"></ellipse>
                    <g id="编组" transform="translate(165.173608, 79.193739) rotate(-5.000000) translate(-165.173608, -79.193739) translate(98.173608, 41.693739)">
                        <path d="M6.59369522,16.917375 L2.83686772,30.0708404 C2.68519216,30.6018893 2.99273505,31.1553469 3.52378398,31.3070225 C3.87829265,31.4082755 4.25975704,31.306251 4.51638845,31.0415457 L6.46151875,29.0352197 L6.46151875,29.0352197 L11.430499,23.9099102 L8.47865352,16.8081908 C8.26667721,16.298206 7.68141209,16.0566224 7.1714273,16.2685987 C6.89006654,16.385547 6.67737527,16.6243931 6.59369522,16.917375 Z" id="路径-115" fill="#1F1E42" transform="translate(6.586450, 24.033767) rotate(-7.000000) translate(-6.586450, -24.033767) "></path>
                        <g id="路径-113" transform="translate(61.667803, 37.280505) rotate(5.000000) translate(-61.667803, -37.280505) translate(5.667803, 4.780505)">
                            <mask id="mask-6" fill="white">
                                <use xlink:href="#path-5"></use>
                            </mask>
                            <use id="蒙版" fill="#FF4D4F" xlink:href="#path-5"></use>
                            <path d="M90.122457,3.28 C82.5757912,29.5801313 81.6452665,46.1773863 87.3308828,53.0717651 C93.0164992,59.9661439 85.2288638,59.9661439 63.9679766,53.0717651 C65.2892095,23.6932876 68.2386166,7.09603261 72.8161979,3.28 C77.3937792,-0.536032608 83.1625323,-0.536032608 90.122457,3.28 Z" fill="#FFC069" mask="url(#mask-6)"></path>
                            <path d="M57.6726583,5.46666667 C51.1259666,25.1397196 48.943736,37.8952752 51.1259666,43.7333333 C53.3081972,49.5713915 48.592538,48.6044401 36.978989,40.8324792 C41.3434502,15.7974931 44.7923951,3.28 47.3258237,3.28 C49.8592523,3.28 54.1186542,4.00888889 60.1040294,5.46666667 L57.6726583,5.46666667 Z" id="路径-41" fill="#FFC069" mask="url(#mask-6)"></path>
                            <path d="M24.5001246,10.7413814 C21.3774477,28.2638748 20.3365554,38.7692199 21.3774477,42.2574167 C22.41834,45.7456136 19.0872335,43.7824158 11.3841283,36.3678234 L17.9421265,10.7413814 L24.5001246,10.7413814 Z" id="路径-114" fill="#FFC069" mask="url(#mask-6)"></path>
                            <path d="M-8.57019999,27.2188086 C46.128192,24.6825938 76.7709124,27.075115 83.3579609,34.3963723 C89.9450095,41.7176295 95.8197292,52.1439097 100.98212,65.6752129 L-14.4832707,34.3963723 L-8.57019999,27.2188086 Z" id="路径-116" fill-opacity="0.23" fill="#5C0011" mask="url(#mask-6)"></path>
                        </g>
                        <ellipse id="椭圆形" fill="#FF5556" transform="translate(116.134441, 41.938840) rotate(5.000000) translate(-116.134441, -41.938840) " cx="116.134441" cy="41.9388401" rx="14.7652075" ry="31.7011746"></ellipse>
                        <ellipse id="椭圆形备份-65" fill="url(#linearGradient-7)" transform="translate(116.132301, 41.963971) rotate(5.000000) translate(-116.132301, -41.963971) " cx="116.132301" cy="41.9639712" rx="12.8602474" ry="28.3991001"></ellipse>
                    </g>
                    <path d="M84.0989953,39 L96.1441333,45.2417106 C96.6344918,45.4958111 96.8260167,46.0993143 96.5719162,46.5896727 C96.4668755,46.7923783 96.2956356,46.9530383 96.0866516,47.0449556 L78,55 L78,55" id="路径-117" stroke="#292549" stroke-width="4" stroke-linecap="round"></path>
                    <path d="M115.098995,39 L127.144133,45.2417106 C127.634492,45.4958111 127.826017,46.0993143 127.571916,46.5896727 C127.466876,46.7923783 127.295636,46.9530383 127.086652,47.0449556 L109,55 L109,55" id="路径-117备份" stroke="#292549" stroke-width="4" stroke-linecap="round" transform="translate(119.000000, 47.000000) scale(-1, 1) translate(-119.000000, -47.000000) "></path>
                    <g id="编组-46" transform="translate(262.570764, 78.861924) rotate(19.000000) translate(-262.570764, -78.861924) translate(224.570764, 28.361924)" fill-rule="nonzero">
                        <path d="M16.5362101,64.935578 C15.6852308,66.7429836 17.0727272,68.9592565 19.1906066,69.1995031 C20.224814,69.316797 21.0121358,68.9347534 21.6797575,68.2652011 C24.7836405,65.1528713 27.8986075,62.0510954 31.0188234,58.9544552 C39.3398402,50.6968397 37.6800442,52.2161057 46.0084953,43.9659103 C46.6831788,43.2975786 47.2991958,42.6160435 47.1760482,41.6003007 C47.099681,40.1477717 46.2873452,39.0985053 44.9148356,38.615032 C43.5180984,38.1231692 42.5563019,38.683721 41.7001743,39.534244 C30.2395796,50.9192981 28.7583346,52.5264768 17.3016798,63.9150943 C17.0014439,64.2135774 16.7159184,64.5540251 16.5362101,64.935578 L16.5362101,64.935578 Z" id="路径" fill="#FFC069" transform="translate(31.736965, 53.825959) rotate(23.000000) translate(-31.736965, -53.825959) "></path>
                        <path d="M66.3522532,85.3615585 C65.9398939,84.4899533 65.2584835,84.0666722 64.286481,84.1196523 C63.2556269,84.1758775 62.2236536,84.2267771 61.1955782,84.3242328 C59.9740476,84.4399781 59.0343803,84.0822995 58.3647428,83.0453108 C57.8640347,82.2700412 57.2531611,81.564946 56.7144606,80.8124568 C56.0898443,79.9401606 55.2868416,79.4498355 54.1851257,79.8691019 C53.0906629,80.2856917 52.8073645,81.2008842 52.8641797,82.2558778 C52.9116973,83.1416014 52.9171554,84.0316837 52.9977334,84.9137249 C53.1071683,86.1131294 52.7058345,87.0381344 51.6418631,87.7185455 C50.8755842,88.2085594 50.1600283,88.7757756 49.4150424,89.2991697 C48.4935421,89.9465604 47.8991406,90.7113895 48.3332518,91.8767761 C48.7447555,92.98153 49.6344389,93.1963555 50.7180329,93.103626 C51.6645545,93.0226499 52.6160395,93.0114456 53.5614938,92.9205267 C54.758398,92.8056298 55.6196134,93.2578036 56.2706099,94.2091573 C56.8605495,95.0715924 57.4899751,95.9094995 58.1334048,96.7342682 C58.6883426,97.4454617 59.4285101,97.664387 60.3271382,97.3595998 C61.2704526,97.0397488 61.7615464,96.4037365 61.739892,95.4334746 C61.7148677,94.3042649 61.6755448,93.1750684 61.6108387,92.0484599 C61.5552506,91.0808801 61.8809073,90.3181464 62.7165575,89.741528 C63.6701641,89.0835404 64.6015788,88.3934809 65.5339945,87.7061515 C66.3611696,87.096733 66.6348138,86.3058628 66.3522532,85.3615585 L66.3522532,85.3615585 Z" id="路径" fill="#FFC069" transform="translate(57.324179, 88.605184) rotate(23.000000) translate(-57.324179, -88.605184) "></path>
                        <path d="M55.4006838,43.6915895 C56.3088459,43.9409803 57.2033075,44.2420261 58.1224339,44.4471496 C59.2556433,44.7002646 59.8693572,45.3887373 60.1536623,46.4530546 C60.4235473,47.4627083 60.7150051,48.4677962 61.0422843,49.4596496 C61.3483247,50.3871042 62.0086356,50.9824427 63.0410544,50.9312496 C64.0022364,50.8835824 64.6305918,50.3106906 64.9160143,49.3901366 C65.2413618,48.3405986 65.5859585,47.2964751 65.9145378,46.2479116 C66.2184951,45.2783902 66.8301738,44.6417708 67.8536795,44.3609989 C68.971816,44.0543701 70.0803858,43.7071628 71.1809224,43.3402791 C72.1123373,43.0299367 72.5650746,42.3442855 72.631336,41.407824 C72.5539129,40.4419275 72.0119904,39.8447076 71.1067189,39.5742217 C70.0875883,39.2699327 69.0562754,39.0002584 68.0249252,38.7339026 C66.9406615,38.4539915 66.2427014,37.8378602 65.9833285,36.7324399 C65.7630568,35.7937973 65.4617872,34.8746577 65.183268,33.9510838 C64.8786038,32.9406591 64.3167089,32.2451233 63.1011796,32.2860708 C61.9459598,32.3251997 61.4101786,33.0156612 61.1073374,33.9907967 C60.8416684,34.845779 60.5329098,35.6918586 60.3226784,36.5587814 C60.0093365,37.8512811 59.2120393,38.5956951 57.9086825,38.9092698 C57.0644132,39.1123254 56.243076,39.4126545 55.4045407,39.6432024 C54.3548565,39.9317646 53.5846629,40.4421636 53.5559341,41.6324145 C53.525807,42.8813984 54.3280832,43.3969787 55.4006838,43.6915895 L55.4006838,43.6915895 Z" id="路径" fill="#FFC069" transform="translate(63.093224, 41.609332) rotate(23.000000) translate(-63.093224, -41.609332) "></path>
                        <path d="M20.8432238,14.7999587 C20.6598204,15.8371126 20.5355745,16.8831365 20.3948509,17.9263122 C20.262343,18.9075058 20.5580224,19.6947005 21.518182,20.104523 C22.4729128,20.512097 23.2885455,20.2209198 23.9636203,19.4654452 C24.7046833,18.6358104 25.4609518,17.817261 26.1649019,16.9584598 C26.8075766,16.1741998 27.6132958,15.8994341 28.5822221,16.0018662 C29.7683169,16.1270084 30.9520004,16.2699224 32.1389103,16.3881309 C33.0818433,16.4819046 33.725146,16.0477795 34.1195172,15.217492 C34.5643063,14.3212949 34.3638784,13.5578652 33.6403965,12.9304737 C32.8774966,12.2691803 32.1164305,11.6020958 31.3107905,10.9924888 C30.3445167,10.2615898 29.9443947,9.35046433 30.159449,8.14676333 C30.3306041,7.18938114 30.4402446,6.22301071 30.5874152,5.26185316 C30.7441376,4.2378332 30.4956156,3.41246482 29.4628996,2.9793487 C28.4345854,2.54805959 27.6253201,2.92832519 26.9367461,3.71756323 C26.3143226,4.43134098 25.667056,5.12591611 25.0716688,5.8604595 C24.2692515,6.85018807 23.2988778,7.2691616 22.0179017,7.03498707 C21.0508438,6.85823561 20.0621927,6.77953678 19.0807613,6.67493416 C18.0776877,6.56797321 17.2611286,6.90215294 16.828709,7.83875346 C16.3971967,8.77332411 16.6738273,9.5765983 17.4397378,10.2192479 C18.2447846,10.8946481 19.0483311,11.5723733 19.8626351,12.2372842 C20.682345,12.9064636 21.0319921,13.7314394 20.8432238,14.7999587 Z" id="路径" fill="#FFC069" transform="translate(25.489787, 11.544072) rotate(23.000000) translate(-25.489787, -11.544072) "></path>
                        <path d="M51.676517,57.6806116 C48.2986587,59.0466929 44.9418676,60.4662105 41.5911286,61.8980686 C40.612065,62.3164166 39.985445,63.0494284 39.9828334,64.3813527 C39.953299,65.9181476 41.5504793,67.0935146 43.2675647,66.4168722 C46.7340137,65.0508247 50.1691139,63.6018791 53.5877862,62.1194996 C55.0040481,61.5054663 55.5278804,60.1217775 54.9814192,58.8932847 C54.4279144,57.6488555 53.1046026,57.1030927 51.676517,57.6806116 Z" id="路径" fill="#FF4D4F" transform="translate(47.588081, 62.031337) rotate(23.000000) translate(-47.588081, -62.031337) "></path>
                        <path d="M35.1831618,45.1418116 C36.1829432,45.1483123 37.0148598,44.7724138 37.4220868,43.860761 C38.95754,40.4236486 40.4795065,36.9799042 41.9292537,33.5091113 C42.4567358,32.2464244 41.8446219,31.0229829 40.6394953,30.4933745 C39.4645838,29.9771388 38.0365991,30.3754742 37.4636623,31.6167329 C35.8856705,35.0352705 34.3512054,38.4762672 32.9485949,41.9631316 C32.2672313,43.657004 33.4388208,45.1492591 35.1831618,45.1418116 Z" id="路径" fill="#FF4D4F" transform="translate(37.435818, 37.707502) rotate(23.000000) translate(-37.435818, -37.707502) "></path>
                        <path d="M2.42856262,31.9961416 C3.15071378,34.2083477 3.94283694,36.398431 4.75007708,38.5812785 C5.32715086,40.1413982 6.60341418,40.7680375 8.03392236,40.2764761 C9.34619662,39.8254587 9.98220491,38.4810739 9.47937541,36.9514428 C8.75249689,34.7401545 7.96229838,32.5493286 7.14706639,30.3693104 C6.76728225,29.3537983 6.01791698,28.7210652 4.62242188,28.7474046 C3.00516395,28.7532484 1.85844749,30.249982 2.42856262,31.9961416 Z" id="路径" fill="#FF4D4F" transform="translate(5.965755, 34.593587) rotate(23.000000) translate(-5.965755, -34.593587) "></path>
                        <path d="M31.357866,83.5090862 C30.4482635,83.151942 29.5132359,82.853507 28.5849999,82.5410031 C27.1928662,82.0723171 25.8162363,81.5489263 24.3967147,81.1692676 C22.9539732,80.7833726 21.6624084,81.4374374 21.225546,82.6246829 C20.7217783,83.9937237 21.3075816,85.2497713 22.8215017,85.7944442 C25.1236526,86.6227225 27.4393999,87.4217085 29.7786609,88.1484451 C31.4704222,88.6738461 32.9844926,87.5159936 32.9940967,85.9949992 C33.0251927,84.6337631 32.3891296,83.9140857 31.357866,83.5090862 L31.357866,83.5090862 Z" id="路径" fill="#FF4D4F" transform="translate(27.021998, 84.667691) rotate(23.000000) translate(-27.021998, -84.667691) "></path>
                        <path d="M62.1844998,59.5799224 C60.6236075,59.6069299 59.5775298,60.609586 59.5742154,62.0818923 C59.5710882,63.5126469 60.609165,64.4908981 62.0707428,64.4343997 C63.5401373,64.3775267 64.6813806,63.2360447 64.6618266,61.8434828 C64.6428784,60.5149701 63.5929437,59.5556044 62.1844998,59.5799224 Z" id="路径" fill="#FF4D4F" transform="translate(62.118145, 62.008098) rotate(23.000000) translate(-62.118145, -62.008098) "></path>
                        <path d="M6.18989795,24.2067432 C7.54072689,24.2329771 8.75572653,23.0736587 8.77650527,21.7385047 C8.79734086,20.3983007 7.6685144,19.2320562 6.32942588,19.2104537 C4.98665171,19.1888919 3.73881948,20.3709337 3.72410377,21.678177 C3.70921102,23.0011477 4.85955457,24.1808605 6.18989795,24.2067432 L6.18989795,24.2067432 Z" id="路径" fill="#FF4D4F" transform="translate(6.250375, 21.708672) rotate(23.000000) translate(-6.250375, -21.708672) "></path>
                        <path d="M36.9911781,91.4305464 C35.6641463,91.3985679 34.3990455,92.5956598 34.3827535,93.8988809 C34.3668559,95.1801686 35.5576337,96.3820865 36.8750764,96.4147476 C38.2116794,96.4476305 39.4563995,95.2670656 39.4783524,93.9454599 C39.4999448,92.6558861 38.3196825,91.4626528 36.9911781,91.4305464 L36.9911781,91.4305464 Z" id="路径" fill="#FF4D4F" transform="translate(36.930620, 93.922669) rotate(23.000000) translate(-36.930620, -93.922669) "></path>
                        <path d="M47.7830528,30.4149619 C49.2559543,30.4262895 50.4846721,29.2268575 50.4637617,27.7976661 C50.4442058,26.470747 49.3949198,25.4930521 48.0020998,25.504358 C46.599255,25.5157743 45.4050775,26.684818 45.3843589,28.067003 C45.3643823,29.3963774 46.3938721,30.4041543 47.7830528,30.4149619 L47.7830528,30.4149619 Z" id="路径" fill="#FF4D4F" transform="translate(47.924049, 27.959651) rotate(23.000000) translate(-47.924049, -27.959651) "></path>
                        <path d="M18.8720657,21.5739153 C17.2955674,22.2146726 16.5210427,23.9740599 17.1407718,25.5031244 C21.5234082,36.3098154 19.1353788,42.704467 12.8520044,51.4030261 C11.8643139,52.7710506 12.1786281,54.6396279 13.5557675,55.5760565 C14.0668636,55.9248984 14.6791528,56.1082161 15.3088559,56.1011354 C16.2733061,56.0903003 17.2308306,55.6342467 17.8372714,54.7951305 C24.8872006,45.0320735 28.1856973,36.3381234 22.8491173,23.181406 C22.2293689,21.6540729 20.4486078,20.9292621 18.8720657,21.5739153 L18.8720657,21.5739153 Z" id="路径" fill="#FFC069" transform="translate(18.883051, 38.719732) rotate(23.000000) translate(-18.883051, -38.719732) "></path>
                        <path d="M49.5288868,70.137415 C36.0808478,64.9157262 27.1976136,68.1459753 17.2268689,75.0512072 C15.8283022,76.0182172 15.4718356,77.8941848 16.4310313,79.2407593 C17.0166641,80.0667418 17.9641573,80.5018067 18.9286076,80.4911809 C19.5376177,80.4844711 20.1546635,80.3007985 20.6939493,79.9275469 C29.5820624,73.7759322 36.1132629,71.4380787 47.1579043,75.7248355 C48.7223745,76.3358923 50.5178355,75.5715362 51.1721366,74.029445 C51.8264491,72.4863436 51.0913481,70.7435888 49.5288868,70.137415 L49.5288868,70.137415 Z" id="路径" fill="#FFC069" transform="translate(33.651818, 74.022982) rotate(23.000000) translate(-33.651818, -74.022982) "></path>
                    </g>
                </g>
            </g>
        </g>
    </g>
</svg>