<?xml version="1.0" encoding="UTF-8"?>
<svg width="29px" height="29px" viewBox="0 0 29 29" version="1.1" xmlns="http://www.w3.org/2000/svg" xmlns:xlink="http://www.w3.org/1999/xlink">
    <!-- Generator: Sketch 58 (84663) - https://sketch.com -->
    <title>google </title>
    <desc>Created with Sketch.</desc>
    <g id="简历投递" stroke="none" stroke-width="1" fill="none" fill-rule="evenodd">
        <g id="简历投递职位详情页" transform="translate(-1357.000000, -1074.000000)" fill-rule="nonzero">
            <g id="编组-8" transform="translate(1231.000000, 1074.000000)">
                <g id="google--2" transform="translate(126.000000, 0.000000)">
                    <g id="google-">
                        <rect id="矩形" fill="#000000" opacity="0" x="0" y="0" width="29" height="29"></rect>
                        <path d="M28.546875,2.925375 L28.546875,26.0737187 C28.546875,26.7497812 28.3030938,27.3293281 27.8168906,27.8164375 C27.328875,28.304 26.7479688,28.546875 26.074625,28.546875 L2.925375,28.546875 C2.25203125,28.546875 1.66976563,28.304 1.18310937,27.8164375 C0.697359375,27.3293281 0.453125,26.7497812 0.453125,26.0737187 L0.453125,2.925375 C0.453125,2.25157812 0.697359375,1.671125 1.18310937,1.18310937 C1.66976562,0.696453125 2.25203125,0.453125 2.925375,0.453125 L26.074625,0.453125 C26.7479688,0.453125 27.328875,0.696453125 27.8168906,1.18310937 C28.3030938,1.67067187 28.546875,2.25157812 28.546875,2.925375 Z M15.8498594,5.06004687 C15.8498594,4.85478125 15.6427813,4.75146875 15.2304375,4.75146875 C15.1737969,4.75146875 14.6885,4.74648437 13.7700156,4.73742187 C12.8510781,4.72790625 12.1722969,4.72790625 11.7318594,4.73742187 C11.2927813,4.7469375 10.7259219,4.78454687 10.0335469,4.85025 C9.33845313,4.9155 8.787,5.01382812 8.37601562,5.14432812 C7.28942187,5.50003125 6.42395312,6.08048437 5.77689062,6.8875 C5.13073437,7.69179687 4.80765625,8.64653125 4.80765625,9.75260937 C4.80765625,11.0635 5.21954687,12.1215469 6.04378125,12.9253906 C6.86620312,13.7301406 7.935125,14.1239062 9.24601563,14.1053281 L9.41548438,14.1053281 C9.41548438,14.5561875 9.4340625,14.8828906 9.47076563,15.0904219 C9.508375,15.2961406 9.55595312,15.4039844 9.61259375,15.4135 C9.66923437,15.4230156 9.73901562,15.4687812 9.82239063,15.5539687 C9.90621875,15.6373437 9.9850625,15.7732813 10.0620937,15.960875 C9.0316875,15.960875 8.0710625,16.0718906 7.18157812,16.2966406 C6.29209375,16.5222969 5.49323438,16.9699844 4.78001562,17.6465 C4.06951562,18.3198438 3.71335937,19.1721719 3.71335937,20.2030313 C3.71335937,21.6439688 4.28928125,22.7174219 5.44157812,23.4202188 C6.593875,24.1212031 7.9369375,24.4728281 9.47167187,24.4728281 C11.1958125,24.4728281 12.6897656,24.0468906 13.9530781,23.1941094 C15.21775,22.3417813 15.8507656,21.0929688 15.8507656,19.4440469 C15.8507656,18.7330938 15.6681563,18.0493281 15.3024844,17.3936563 C14.938625,16.7379844 14.5299063,16.2227813 14.0813125,15.8480469 C13.6309063,15.4746719 13.2244531,15.1135313 12.8596875,14.7673438 C12.4940156,14.4193438 12.3109531,14.1529063 12.3109531,13.9648594 C12.3109531,13.7595938 12.4514219,13.5207969 12.7337187,13.2489219 C13.0142031,12.9775 13.3264062,12.7060781 13.6739531,12.4342031 C14.0219531,12.1627813 14.3350625,11.7273281 14.616,11.1260313 C14.8964844,10.5288125 15.0374063,9.83326563 15.0374063,9.04664063 C15.0374063,7.62473438 14.6255156,6.62242188 13.8012812,6.04196875 C13.8212187,6.04196875 13.9639531,6.02746875 14.2376406,5.999375 C14.5095156,5.97128125 14.7002812,5.94364063 14.8135625,5.91509375 C14.924125,5.88654688 15.0854375,5.84078125 15.2911563,5.774625 C15.496875,5.70892188 15.6414219,5.615125 15.7266094,5.4936875 C15.8059062,5.3740625 15.8498594,5.22996875 15.8498594,5.06004688 L15.8498594,5.06004687 Z M13.601,19.5292344 C13.601,20.3539219 13.198625,21.01775 12.3934219,21.5220781 C11.5873125,22.029125 10.7440469,22.2815156 9.86317187,22.2815156 C8.98410937,22.2815156 8.1834375,22.058125 7.46296875,21.6081719 C6.74204687,21.1582187 6.38045312,20.5202187 6.38045312,19.6968906 C6.38045312,18.7969844 6.76425,18.1231875 7.53275,17.6741406 C8.29989062,17.2250937 9.16173437,17.0003437 10.1169219,17.0003437 C10.9796719,17.0003437 11.7753594,17.2210156 12.5067031,17.6600938 C13.234875,18.1014375 13.601,18.7244844 13.601,19.5292344 L13.601,19.5292344 Z M12.0549375,9.83598437 C12.0549375,10.4925625 11.9099375,11.0548906 11.6190313,11.5211563 C11.3290312,11.9905938 10.875,12.2257656 10.2578437,12.2257656 C9.45173437,12.2257656 8.81192187,11.7998281 8.33296875,10.9470469 C7.85628125,10.0947188 7.61703125,9.2383125 7.61703125,8.3755625 C7.61703125,7.72034375 7.76203125,7.15982813 8.05339062,6.69084375 C8.3429375,6.22321875 8.79742187,5.9885 9.41639062,5.9885 C10.2211406,5.9885 10.8623125,6.41398438 11.3399062,7.2663125 C11.8179531,8.11954687 12.0549375,8.97595313 12.0549375,9.83598437 L12.0549375,9.83598437 Z M21.8895625,9.64023438 L25.288,9.64023438 L25.288,7.95415625 L21.8895625,7.95415625 L21.8895625,4.52671875 L20.2039375,4.52671875 L20.2039375,7.95415625 L16.7769531,7.95415625 L16.7769531,9.64023437 L20.2039375,9.64023437 L20.2039375,13.039125 L21.8895625,13.039125 L21.8895625,9.64023437 L21.8895625,9.64023438 Z" id="形状" fill="#DD5044"></path>
                    </g>
                </g>
            </g>
        </g>
    </g>
</svg>