<?xml version="1.0" encoding="UTF-8"?>
<svg width="39px" height="39px" viewBox="0 0 39 39" version="1.1" xmlns="http://www.w3.org/2000/svg" xmlns:xlink="http://www.w3.org/1999/xlink">
    <!-- Generator: Sketch 58 (84663) - https://sketch.com -->
    <title>google备份</title>
    <desc>Created with Sketch.</desc>
    <g id="注册流程优化" stroke="none" stroke-width="1" fill="none" fill-rule="evenodd">
        <g id="登录页面" transform="translate(-1241.000000, -644.000000)" fill-rule="nonzero">
            <g id="编组-12" transform="translate(1152.000000, 644.000000)">
                <g id="google备份-2" transform="translate(89.000000, 0.000000)">
                    <g id="google备份">
                        <rect id="矩形" fill="#000000" opacity="0" x="0" y="0" width="39" height="39"></rect>
                        <path d="M8.15424999,19.5 C8.15424999,18.26175 8.3655,17.073875 8.73924999,15.96075 L2.17749999,11.05325 C0.859136373,13.6735194 0.174509561,16.5667635 0.178730409,19.5 C0.178730409,22.5355 0.897,25.39875 2.17425,27.94025 L8.73275001,23.024625 C8.35033445,21.888826 8.15495678,20.6984492 8.15424999,19.5" id="路径" fill="#FBBC05"></path>
                        <path d="M19.67875,8.233875 C22.425,8.233875 24.906375,9.18612501 26.856375,10.746125 L32.52925,5.19999999 C29.072875,2.25387501 24.6415,0.433875 19.67875,0.433875 C11.973,0.433875 5.34949997,4.74825 2.17749999,11.05325 L8.74250001,15.96075 C10.25375,11.466 14.56325,8.233875 19.67875,8.233875" id="路径" fill="#EA4335"></path>
                        <path d="M19.67875,30.766125 C14.561625,30.766125 10.252125,27.534 8.73924999,23.03925 L2.17749999,27.94675 C5.347875,34.25175 11.971375,38.566125 19.67875,38.566125 C24.4335,38.566125 28.97375,36.9135 32.383,33.814625 L26.15275,29.098875 C24.396125,30.18275 22.182875,30.766125 19.677125,30.766125" id="路径" fill="#34A853"></path>
                        <path d="M38.2915,19.5 C38.2915,18.373875 38.11275,17.16 37.847875,16.033875 L19.677125,16.033875 L19.677125,23.4 L30.135625,23.4 C29.614,25.91225 28.1905,27.84275 26.154375,29.098875 L32.383,33.814625 C35.962875,30.561375 38.2915,25.715625 38.2915,19.5" id="路径" fill="#4285F4"></path>
                    </g>
                </g>
            </g>
        </g>
    </g>
</svg>