<?xml version="1.0" encoding="UTF-8"?>
<svg width="13px" height="13px" viewBox="0 0 13 13" version="1.1" xmlns="http://www.w3.org/2000/svg" xmlns:xlink="http://www.w3.org/1999/xlink">
    <!-- Generator: Sketch 58 (84663) - https://sketch.com -->
    <title>帮助问号-面状</title>
    <desc>Created with Sketch.</desc>
    <g id="简历板块" stroke="none" stroke-width="1" fill="none" fill-rule="evenodd">
        <g id="简历板块未填-" transform="translate(-967.000000, -291.000000)" fill-rule="nonzero">
            <g id="编组-5" transform="translate(967.000000, 288.000000)">
                <g id="帮助问号-面状-2" transform="translate(0.000000, 3.000000)">
                    <g id="帮助问号-面状">
                        <rect id="矩形" fill="#000000" opacity="0" x="0" y="0" width="13" height="13"></rect>
                        <path d="M6.49289063,0.0661933594 C2.97659375,0.0661933594 0.12715625,2.91705273 0.12715625,6.43192773 C0.12715625,9.94680273 2.97801562,12.7976621 6.49289063,12.7976621 C10.0077656,12.7976621 12.858625,9.94680273 12.858625,6.43192773 C12.858625,2.91705273 10.0091875,0.0661933594 6.49289063,0.0661933594 Z M6.38198438,10.2880527 C6.16301563,10.2880527 5.9596875,10.171459 5.84878125,9.98092773 C5.73929688,9.79039648 5.73929688,9.55578711 5.84878125,9.36667773 C5.95826563,9.17614648 6.16159375,9.05955273 6.38198438,9.05955273 C6.7218125,9.05955273 6.99623437,9.33397461 6.99623437,9.67380273 C6.99623437,10.012209 6.72039063,10.2880527 6.38198438,10.2880527 L6.38198438,10.2880527 Z M7.67446875,6.26983398 C7.25359375,6.65089648 6.82134375,7.04333398 6.82134375,7.39880273 L6.82134375,8.13959961 C6.82134375,8.37989648 6.60521875,8.57895898 6.33790625,8.57895898 C6.0734375,8.57895898 5.85446875,8.38274023 5.85446875,8.14102148 L5.85446875,7.40022461 C5.85446875,6.68359961 6.45876563,6.13617773 6.99054687,5.65131836 C7.3815625,5.29584961 7.78395313,4.93042773 7.78395313,4.63752148 C7.78395313,3.90667773 7.13415625,3.31233398 6.3350625,3.31233398 C5.52459375,3.31233398 4.88617187,3.88108398 4.88617187,4.60766211 C4.88617187,4.84795898 4.67004687,5.04559961 4.40273437,5.04559961 C4.13826562,5.04559961 3.91929687,4.84938086 3.91929687,4.60766211 C3.91929687,3.41044336 5.00276563,2.43503711 6.33364063,2.43503711 C7.66451562,2.43503711 8.74799541,3.42324023 8.74799541,4.63752148 C8.75082813,5.29300586 8.20340625,5.79066211 7.67446875,6.26983398 Z" id="形状" fill="#FF4D4F"></path>
                    </g>
                </g>
            </g>
        </g>
    </g>
</svg>