<?xml version="1.0" encoding="UTF-8"?>
<svg width="18px" height="16px" viewBox="0 0 18 16" version="1.1" xmlns="http://www.w3.org/2000/svg" xmlns:xlink="http://www.w3.org/1999/xlink">
    <!-- Generator: Sketch 58 (84663) - https://sketch.com -->
    <title>健康百科</title>
    <desc>Created with Sketch.</desc>
    <g id="导航栏+首页优化" stroke="none" stroke-width="1" fill="none" fill-rule="evenodd">
        <g id="首页未登录" transform="translate(-1633.000000, -1034.000000)" fill-rule="nonzero">
            <g id="编组-18" transform="translate(1631.000000, 891.000000)">
                <g id="健康百科" transform="translate(0.000000, 140.000000)">
                    <rect id="矩形" fill="#000000" opacity="0" x="0" y="0" width="21" height="21"></rect>
                    <path d="M17.5505859,3.34892578 L12.0011719,3.34892578 L10.5246094,4.46044922 L9.04804688,3.34892578 L3.49042969,3.34892578 C2.67216797,3.34892578 2.00976562,4.01132812 2.00976562,4.82958984 L2.00976562,15.9304687 C2.00976562,16.7487305 2.67216797,17.4111328 3.49042969,17.4111328 L9.04804688,17.4111328 L10.5246094,18.5226562 L12.0011719,17.4111328 L17.5526367,17.4111328 C18.3708984,17.4111328 19.0333008,16.7487305 19.0333008,15.9304687 L19.0333008,4.82958984 C19.03125,4.01132812 18.3688477,3.34892578 17.5505859,3.34892578 L17.5505859,3.34892578 Z M9.54023437,15.9304687 L3.48837891,15.9304687 L3.48837891,4.82958984 L5.33818359,4.82958984 L5.33818359,8.34462891 C5.33818359,8.85527344 5.75244141,9.26953125 6.26308594,9.26953125 C6.77373047,9.26953125 7.18798828,8.85527344 7.18798828,8.34462891 L7.18798828,4.82958984 L8.55175781,4.82958984 L9.63251953,5.64375 L10.1493164,6.03339844 L10.1493164,16.3898438 L9.93603516,16.2298828 L9.54023437,15.9304687 Z M17.5505859,15.9304687 L11.5048828,15.9304687 L11.109082,16.227832 L10.8896484,16.3939453 L10.8896484,6.0375 L11.4125977,5.64375 L12.4933594,4.82958984 L17.5505859,4.82958984 L17.5505859,15.9304687 L17.5505859,15.9304687 Z" id="形状" fill="#4895EF"></path>
                </g>
            </g>
        </g>
    </g>
</svg>