<?xml version="1.0" encoding="UTF-8"?>
<svg width="20px" height="19px" viewBox="0 0 20 19" version="1.1" xmlns="http://www.w3.org/2000/svg" xmlns:xlink="http://www.w3.org/1999/xlink">
    <!-- Generator: Sketch 58 (84663) - https://sketch.com -->
    <title>编组</title>
    <desc>Created with Sketch.</desc>
    <g id="导航栏+首页优化" stroke="none" stroke-width="1" fill="none" fill-rule="evenodd">
        <g id="首页未登录" transform="translate(-1632.000000, -1033.000000)" fill="#4895EF" fill-rule="nonzero">
            <g id="编组-18" transform="translate(1632.000000, 892.000000)">
                <g id="编组" transform="translate(0.000000, 141.000000)">
                    <path d="M11.4878191,16.8421053 L11.4878191,16.8421053 C10.5618078,16.8421053 9.99195469,16.5052632 9.92072305,16.5052632 C9.84949141,16.5052632 9.77825977,16.3705263 9.70702813,16.3031579 C9.70702813,16.1684211 9.27963829,15.6294737 9.35086993,14.6863158 C8.2111637,14.5515789 7.21392075,13.9452632 6.14544617,13.0694737 C5.14820322,12.1263158 4.5783501,11.1157895 4.43588682,10.0378947 C3.43864387,10.0378947 2.72632748,9.70105263 2.72632748,9.70105263 C2.5838642,9.70105263 2.5838642,9.56631579 2.51263256,9.49894737 C2.37016929,9.36421053 0.9455365,7.00631579 4.43588682,3.70526316 C5.93175125,2.29052632 7.49884731,2.08842105 8.78101682,3.03157895 L8.78101682,3.03157895 C8.99471174,2.82947368 9.13717501,2.69473684 9.20840665,2.69473684 C12.2001355,0.404210526 14.6932429,0 16.2603389,0 C18.1123616,0 19.1096045,0.673684211 19.1096045,0.673684211 C19.2520678,0.673684211 19.2520678,0.808421053 19.3232994,0.875789474 C19.4657627,1.01052632 21.7451752,4.78315789 17.043887,10.24 L17.043887,10.24 C16.9014237,10.3747368 16.8301921,10.4421053 16.6877288,10.6442105 L16.6877288,10.6442105 C17.6849717,11.9242105 17.4712768,13.3389474 15.9754124,14.7536842 C14.1233898,16.4378947 12.4850621,16.8421053 11.4878191,16.8421053 Z M10.5618078,15.5621053 C10.7042711,15.6968421 10.9891976,15.6968421 11.4878191,15.6968421 L11.4878191,15.6968421 C12.2713671,15.6968421 13.6247683,15.36 15.263096,13.8778947 C16.7589604,12.4631579 16.1891073,11.52 15.6192542,10.9810526 C15.263096,10.6442105 15.4767909,10.24 15.9754124,9.90315789 C16.1178757,9.76842105 16.1891073,9.70105263 16.1891073,9.70105263 C16.1891073,9.70105263 16.1891073,9.56631579 16.3315706,9.56631579 C20.1068475,5.12 18.9671412,2.15578947 18.610983,1.48210526 C18.3972881,1.34736842 17.6137401,1.07789474 16.4740339,1.07789474 C15.1206327,1.07789474 12.8412203,1.48210526 10.0631863,3.63789474 C10.0631863,3.63789474 9.92072305,3.63789474 9.92072305,3.77263158 C9.77825977,3.77263158 9.70702813,3.90736842 9.70702813,3.97473684 C9.27963829,4.31157895 9.13717501,4.37894737 8.9234801,4.37894737 L8.9234801,4.37894737 C8.78101682,4.37894737 8.5673219,4.24421053 8.49609026,4.24421053 C7.57007895,3.36842105 6.572836,3.50315789 5.43312977,4.58105263 C3.01125404,6.87157895 3.36741223,8.48842105 3.58110715,8.89263158 C3.79480207,9.02736842 4.36465518,9.09473684 5.07697158,9.02736842 C5.21943486,9.02736842 5.43312977,9.02736842 5.50436141,9.16210526 C5.64682469,9.29684211 5.71805633,9.36421053 5.71805633,9.56631579 C5.71805633,10.5094737 6.14544617,11.52 7.21392075,12.3957895 C8.13993206,13.2715789 9.13717501,13.8105263 10.2056496,13.8105263 C10.3481129,13.8105263 10.5618078,13.9452632 10.6330394,14.0126316 C10.7755027,14.1473684 10.7755027,14.3494737 10.7755027,14.4168421 C10.3481129,14.8884211 10.4193445,15.36 10.5618078,15.5621053 Z" id="形状"></path>
                    <path d="M1.52204836,17.8947368 C1.40825036,17.8947368 1.23755334,17.8947368 1.18065434,17.7804239 C1.00995733,17.6089545 1.00995733,17.3231722 1.18065434,17.1517028 L3.45661451,14.8654442 C3.62731152,14.6939748 3.91180654,14.6939748 4.08250356,14.8654442 C4.25320057,15.0369136 4.25320057,15.3226959 4.08250356,15.4941653 L1.92034139,17.666111 C1.80654339,17.8375804 1.69274538,17.8947368 1.52204836,17.8947368 Z" id="路径"></path>
                    <path d="M0.475847152,13.6842105 C0.360490267,13.6842105 0.187454939,13.6842105 0.129776496,13.5680581 C-0.043258832,13.3938294 -0.043258832,13.1034483 0.129776496,12.9292196 L1.34102379,11.7096189 C1.51405912,11.5353902 1.80245133,11.5353902 1.97548666,11.7096189 C2.14852199,11.8838475 2.14852199,12.1742287 1.97548666,12.3484574 L0.764239366,13.5680581 C0.764239366,13.6842105 0.591204037,13.6842105 0.475847152,13.6842105 Z" id="路径"></path>
                    <path d="M5.73900505,18.9473684 C5.62364816,18.9473684 5.45061283,18.9473684 5.39293439,18.831216 C5.21989906,18.6569873 5.21989906,18.3666062 5.39293439,18.1923775 L6.60418169,16.9727768 C6.77721702,16.7985481 7.06560923,16.7985481 7.23864456,16.9727768 C7.41167988,17.1470054 7.41167988,17.4373866 7.23864456,17.6116152 L6.02739726,18.831216 C5.91204037,18.9473684 5.85436193,18.9473684 5.73900505,18.9473684 Z" id="路径"></path>
                    <path d="M11.5934664,9.47368421 C11.0127042,9.47368421 10.4900181,9.25589837 10.0834846,8.67513612 C9.27041742,7.65880218 9.27041742,5.98911071 10.0834846,4.97277677 C10.8965517,3.95644283 12.2903811,3.95644283 13.0453721,4.97277677 C13.3938294,5.40834846 13.6842105,6.13430127 13.6842105,6.86025408 C13.6842105,7.5862069 13.5099819,8.23956443 13.0453721,8.7477314 C12.6969147,9.1107078 12.1161525,9.47368421 11.5934664,9.47368421 Z M11.5934664,5.33575318 C11.3030853,5.33575318 10.9546279,5.48094374 10.7803993,5.77132486 C10.3157895,6.35208711 10.3157895,7.29582577 10.7803993,7.87658802 C11.2450091,8.45735027 12,8.45735027 12.4646098,7.87658802 C12.6388385,7.65880218 12.8130672,7.15063521 12.8130672,6.86025408 C12.8130672,6.49727768 12.6969147,6.06170599 12.4646098,5.84392015 C12.2323049,5.6261343 11.9419238,5.33575318 11.5934664,5.33575318 Z" id="形状"></path>
                </g>
            </g>
        </g>
    </g>
</svg>