<?xml version="1.0" encoding="UTF-8"?>
<svg width="20px" height="22px" viewBox="0 0 20 22" version="1.1" xmlns="http://www.w3.org/2000/svg" xmlns:xlink="http://www.w3.org/1999/xlink">
    <!-- Generator: Sketch 58 (84663) - https://sketch.com -->
    <title>编组</title>
    <desc>Created with Sketch.</desc>
    <g id="导航栏+首页优化" stroke="none" stroke-width="1" fill="none" fill-rule="evenodd">
        <g id="首页未登录" transform="translate(-1632.000000, -996.000000)" fill="#4895EF" fill-rule="nonzero">
            <g id="编组-18" transform="translate(1632.000000, 892.000000)">
                <g id="编组" transform="translate(0.000000, 104.000000)">
                    <path d="M3.50877193,4.21052632 L0.701754386,4.21052632 C0.263157895,4.21052632 0,3.94736842 0,3.50877193 L0,0.701754386 C0,0.263157895 0.263157895,0 0.701754386,0 L3.50877193,0 C3.94736842,0 4.21052632,0.263157895 4.21052632,0.701754386 L4.21052632,3.50877193 C4.21052632,3.85964912 3.85964912,4.21052632 3.50877193,4.21052632 Z M1.40350877,2.80701754 L2.80701754,2.80701754 L2.80701754,1.40350877 L1.40350877,1.40350877 L1.40350877,2.80701754 Z" id="形状"></path>
                    <path d="M10.877193,4.21052632 L8.07017544,4.21052632 C7.63157895,4.21052632 7.36842105,3.94736842 7.36842105,3.50877193 L7.36842105,0.701754386 C7.36842105,0.263157895 7.63157895,0 8.07017544,0 L10.877193,0 C11.3157895,0 11.5789474,0.263157895 11.5789474,0.701754386 L11.5789474,3.50877193 C11.5789474,3.85964912 11.2280702,4.21052632 10.877193,4.21052632 Z M8.77192982,2.80701754 L10.1754386,2.80701754 L10.1754386,1.40350877 L8.77192982,1.40350877 L8.77192982,2.80701754 Z" id="形状"></path>
                    <path d="M19.2982456,4.21052632 L16.4912281,4.21052632 C16.0526316,4.21052632 15.7894737,3.94736842 15.7894737,3.50877193 L15.7894737,0.701754386 C15.7894737,0.263157895 16.0526316,0 16.4912281,0 L19.2982456,0 C19.7368421,0 20,0.263157895 20,0.701754386 L20,3.50877193 C20,3.85964912 19.6491228,4.21052632 19.2982456,4.21052632 Z M17.1929825,2.80701754 L18.5964912,2.80701754 L18.5964912,1.40350877 L17.1929825,1.40350877 L17.1929825,2.80701754 Z" id="形状"></path>
                    <path d="M3.50877193,12.6315789 L0.701754386,12.6315789 C0.263157895,12.6315789 0,12.3684211 0,11.9298246 L0,9.12280702 C0,8.68421053 0.263157895,8.42105263 0.701754386,8.42105263 L3.50877193,8.42105263 C3.94736842,8.42105263 4.21052632,8.68421053 4.21052632,9.12280702 L4.21052632,11.9298246 C4.21052632,12.2807018 3.85964912,12.6315789 3.50877193,12.6315789 Z M1.40350877,11.2280702 L2.80701754,11.2280702 L2.80701754,9.8245614 L1.40350877,9.8245614 L1.40350877,11.2280702 Z" id="形状"></path>
                    <path d="M10.877193,12.6315789 L8.07017544,12.6315789 C7.63157895,12.6315789 7.36842105,12.3684211 7.36842105,11.9298246 L7.36842105,9.12280702 C7.36842105,8.68421053 7.63157895,8.42105263 8.07017544,8.42105263 L10.877193,8.42105263 C11.3157895,8.42105263 11.5789474,8.68421053 11.5789474,9.12280702 L11.5789474,11.9298246 C11.5789474,12.2807018 11.2280702,12.6315789 10.877193,12.6315789 Z M8.77192982,11.2280702 L10.1754386,11.2280702 L10.1754386,9.8245614 L8.77192982,9.8245614 L8.77192982,11.2280702 Z" id="形状"></path>
                    <path d="M19.2982456,12.6315789 L16.4912281,12.6315789 C16.0526316,12.6315789 15.7894737,12.3684211 15.7894737,11.9298246 L15.7894737,9.12280702 C15.7894737,8.68421053 16.0526316,8.42105263 16.4912281,8.42105263 L19.2982456,8.42105263 C19.7368421,8.42105263 20,8.68421053 20,9.12280702 L20,11.9298246 C20,12.2807018 19.6491228,12.6315789 19.2982456,12.6315789 Z M17.1929825,11.2280702 L18.5964912,11.2280702 L18.5964912,9.8245614 L17.1929825,9.8245614 L17.1929825,11.2280702 Z" id="形状"></path>
                    <path d="M3.50877193,20 L0.701754386,20 C0.263157895,20 0,19.7368421 0,19.2982456 L0,16.4912281 C0,16.0526316 0.263157895,15.7894737 0.701754386,15.7894737 L3.50877193,15.7894737 C3.94736842,15.7894737 4.21052632,16.0526316 4.21052632,16.4912281 L4.21052632,19.2982456 C4.21052632,19.6491228 3.85964912,20 3.50877193,20 Z M1.40350877,18.5964912 L2.80701754,18.5964912 L2.80701754,17.1929825 L1.40350877,17.1929825 L1.40350877,18.5964912 Z" id="形状"></path>
                    <path d="M10.877193,20 L8.07017544,20 C7.63157895,20 7.36842105,19.7368421 7.36842105,19.2982456 L7.36842105,16.4912281 C7.36842105,16.0526316 7.63157895,15.7894737 8.07017544,15.7894737 L10.877193,15.7894737 C11.3157895,15.7894737 11.5789474,16.0526316 11.5789474,16.4912281 L11.5789474,19.2982456 C11.5789474,19.6491228 11.2280702,20 10.877193,20 Z M8.77192982,18.5964912 L10.1754386,18.5964912 L10.1754386,17.1929825 L8.77192982,17.1929825 L8.77192982,18.5964912 Z" id="形状"></path>
                    <path d="M16.8951791,21.0526316 C16.6828837,21.0526316 16.3644405,20.8464017 16.2582928,20.8464017 L13.9230429,18.3716434 C13.6045997,18.0622986 13.6045997,17.546724 13.9230429,17.2373792 L16.2582928,14.9688507 C16.576736,14.6595059 17.1074746,14.6595059 17.4259177,14.9688507 L19.7611676,17.2373792 C20.0796108,17.546724 20.0796108,18.0622986 19.7611676,18.3716434 L17.4259177,20.6401719 C17.31977,21.0526316 17.0013268,21.0526316 16.8951791,21.0526316 Z M15.6214065,17.9591837 L16.7890314,19.0934479 L17.9566563,17.9591837 L16.7890314,16.8249194 L15.6214065,17.9591837 Z" id="形状"></path>
                </g>
            </g>
        </g>
    </g>
</svg>