<?xml version="1.0" encoding="UTF-8"?>
<svg width="20px" height="16px" viewBox="0 0 20 16" version="1.1" xmlns="http://www.w3.org/2000/svg" xmlns:xlink="http://www.w3.org/1999/xlink">
    <!-- Generator: Sketch 58 (84663) - https://sketch.com -->
    <title>编组</title>
    <desc>Created with Sketch.</desc>
    <g id="导航栏+首页优化" stroke="none" stroke-width="1" fill="none" fill-rule="evenodd">
        <g id="首页未登录" transform="translate(-1632.000000, -1070.000000)" fill="#4895EF" fill-rule="nonzero">
            <g id="编组-11" transform="translate(1632.000000, 1070.000000)">
                <g id="编组">
                    <path d="M18.2142857,15.3454545 C17.7857143,15.3454545 17.4285714,15.2 17.0714286,14.9090909 L15.2142857,13.3090909 L4.5,13.3090909 C2.35714286,13.3090909 0.5,11.4181818 0.5,9.23636364 L0.5,4.58181818 C0.5,2.4 2.35714286,0.509090909 4.5,0.509090909 L15.9285714,0.509090909 C18.0714286,0.509090909 19.9285714,2.4 19.9285714,4.58181818 L19.9285714,13.6727273 C19.9285714,14.5454545 19.1428571,15.3454545 18.2142857,15.3454545 Z M4.5,1.6 C2.92857143,1.6 1.64285714,2.90909091 1.64285714,4.50909091 L1.64285714,9.16363636 C1.64285714,10.7636364 2.92857143,12.0727273 4.5,12.0727273 L15.5,12.0727273 C15.6428571,12.0727273 15.7142857,12.0727273 15.8571429,12.2181818 L17.9285714,14.1090909 C18.2857143,14.4727273 18.8571429,14.2545455 18.8571429,13.6727273 L18.8571429,4.58181818 C18.8571429,2.98181818 17.5714286,1.67272727 16,1.67272727 C15.9285714,1.6 4.5,1.6 4.5,1.6 Z" id="形状"></path>
                    <path d="M5.64285714,7.92727273 C5.42857143,7.92727273 5.21428571,7.78181818 5.07142857,7.70909091 C4.92857143,7.56363636 4.85714286,7.34545455 4.85714286,7.12727273 C4.85714286,6.90909091 5,6.69090909 5.07142857,6.54545455 C5.42857143,6.18181818 6,6.18181818 6.35714286,6.54545455 C6.5,6.69090909 6.57142857,6.90909091 6.57142857,7.12727273 C6.57142857,7.34545455 6.42857143,7.56363636 6.35714286,7.70909091 C6.14285714,7.78181818 5.92857143,7.92727273 5.64285714,7.92727273 Z" id="路径"></path>
                    <path d="M10.2142857,7.92727273 C10,7.92727273 9.78571429,7.78181818 9.64285714,7.70909091 C9.5,7.56363636 9.42857143,7.34545455 9.42857143,7.12727273 C9.42857143,6.90909091 9.57142857,6.69090909 9.64285714,6.54545455 C10,6.18181818 10.5714286,6.18181818 10.9285714,6.54545455 C11.0714286,6.69090909 11.1428571,6.90909091 11.1428571,7.12727273 C11.1428571,7.34545455 11,7.56363636 10.9285714,7.70909091 C10.7142857,7.78181818 10.5,7.92727273 10.2142857,7.92727273 Z" id="路径"></path>
                    <path d="M14.7857143,7.92727273 C14.5714286,7.92727273 14.3571429,7.78181818 14.2142857,7.70909091 C14.0714286,7.56363636 14,7.34545455 14,7.12727273 C14,6.90909091 14.1428571,6.69090909 14.2142857,6.54545455 C14.5714286,6.18181818 15.1428571,6.18181818 15.5,6.54545455 C15.6428571,6.69090909 15.7142857,6.90909091 15.7142857,7.12727273 C15.7142857,7.34545455 15.5714286,7.56363636 15.5,7.70909091 C15.2857143,7.78181818 15.0714286,7.92727273 14.7857143,7.92727273 Z" id="路径"></path>
                </g>
            </g>
        </g>
    </g>
</svg>