<?xml version="1.0" encoding="UTF-8"?>
<svg width="20px" height="19px" viewBox="0 0 20 19" version="1.1" xmlns="http://www.w3.org/2000/svg" xmlns:xlink="http://www.w3.org/1999/xlink">
    <!-- Generator: Sketch 58 (84663) - https://sketch.com -->
    <title>编组</title>
    <desc>Created with Sketch.</desc>
    <g id="导航栏+首页优化" stroke="none" stroke-width="1" fill="none" fill-rule="evenodd">
        <g id="首页未登录" transform="translate(-1632.000000, -961.000000)" fill="#4895EF" fill-rule="nonzero">
            <g id="编组-18" transform="translate(1632.000000, 892.000000)">
                <g id="编组" transform="translate(0.000000, 69.000000)">
                    <path d="M17.0588235,18.9473684 L2.94117647,18.9473684 C1.32352941,18.9473684 0,17.5809717 0,15.9109312 L0,6.19433198 C0,4.5242915 1.32352941,3.15789474 2.94117647,3.15789474 L17.0588235,3.15789474 C18.6764706,3.15789474 20,4.5242915 20,6.19433198 L20,15.9109312 C20,17.5809717 18.75,18.9473684 17.0588235,18.9473684 Z M2.94117647,4.37246964 C1.98529412,4.37246964 1.17647059,5.20748988 1.17647059,6.19433198 L1.17647059,15.9109312 C1.17647059,16.8977733 1.98529412,17.7327935 2.94117647,17.7327935 L17.0588235,17.7327935 C18.0147059,17.7327935 18.8235294,16.8977733 18.8235294,15.9109312 L18.8235294,6.19433198 C18.8235294,5.20748988 18.0147059,4.37246964 17.0588235,4.37246964 L2.94117647,4.37246964 Z" id="形状"></path>
                    <rect id="矩形" x="0" y="9.47368421" width="18.9473684" height="1.05263158"></rect>
                    <g transform="translate(6.315789, 7.368421)" id="路径">
                        <path d="M1.05263158,4.47368421 C0.701754386,4.47368421 0.49122807,4.21052632 0.49122807,3.77192982 L0.49122807,0.964912281 C0.49122807,0.526315789 0.701754386,0.263157895 1.05263158,0.263157895 C1.40350877,0.263157895 1.61403509,0.526315789 1.61403509,0.964912281 L1.61403509,3.77192982 C1.61403509,4.21052632 1.40350877,4.47368421 1.05263158,4.47368421 Z"></path>
                        <path d="M7.78947368,4.47368421 C7.43859649,4.47368421 7.22807018,4.21052632 7.22807018,3.77192982 L7.22807018,0.964912281 C7.22807018,0.526315789 7.43859649,0.263157895 7.78947368,0.263157895 C8.14035088,0.263157895 8.35087719,0.526315789 8.35087719,0.964912281 L8.35087719,3.77192982 C8.35087719,4.21052632 8.14035088,4.47368421 7.78947368,4.47368421 Z"></path>
                    </g>
                    <path d="M6.31578947,3.15789474 L6.31578947,1.63533835 C6.31578947,0.733082707 7.27608495,0 8.45798707,0 L12.5946445,0 C13.7765466,0 14.7368421,0.733082707 14.7368421,1.63533835 L14.7368421,3.15789474 L13.55494,3.15789474 L13.55494,1.63533835 C13.55494,1.29699248 13.1855956,0.902255639 12.5946445,0.902255639 L8.45798707,0.902255639 C8.01477378,0.902255639 7.4976916,1.18421053 7.4976916,1.63533835 L7.4976916,3.15789474 L6.31578947,3.15789474 Z" id="路径"></path>
                </g>
            </g>
        </g>
    </g>
</svg>