<?xml version="1.0" encoding="UTF-8"?>
<svg width="18px" height="18px" viewBox="0 0 18 18" version="1.1" xmlns="http://www.w3.org/2000/svg" xmlns:xlink="http://www.w3.org/1999/xlink">
    <!-- Generator: Sketch 58 (84663) - https://sketch.com -->
    <title>二维码</title>
    <desc>Created with Sketch.</desc>
    <g id="导航栏+首页优化" stroke="none" stroke-width="1" fill="none" fill-rule="evenodd">
        <g id="首页未登录" transform="translate(-1633.000000, -893.000000)" fill-rule="nonzero">
            <g id="编组-18" transform="translate(1632.000000, 892.000000)">
                <g id="二维码">
                    <rect id="矩形" fill="#000000" opacity="0" x="0" y="0" width="20" height="20"></rect>
                    <path d="M7.81,3.13 L7.81,8.13 L2.81,8.13 L2.81,3.13 L7.81,3.13 M7.81,1.88 L2.81,1.88 C2.12,1.88 1.56,2.44 1.56,3.13 L1.56,8.13 C1.56,8.82 2.12,9.38 2.81,9.38 L7.81,9.38 C8.5,9.38 9.06,8.82 9.06,8.13 L9.06,3.13 C9.06,2.44 8.5,1.88 7.81,1.88 Z M17.19,3.13 L17.19,8.13 L12.19,8.13 L12.19,3.13 L17.19,3.13 M17.19,1.88 L12.19,1.88 C11.5,1.88 10.94,2.44 10.94,3.13 L10.94,8.13 C10.94,8.82 11.5,9.38 12.19,9.38 L17.19,9.38 C17.88,9.38 18.44,8.82 18.44,8.13 L18.44,3.13 C18.44,2.44 17.88,1.88 17.19,1.88 Z M7.81,11.88 L7.81,16.88 L2.81,16.88 L2.81,11.88 L7.81,11.88 M7.81,10.63 L2.81,10.63 C2.12,10.63 1.56,11.19 1.56,11.88 L1.56,16.88 C1.56,17.57 2.12,18.13 2.81,18.13 L7.81,18.13 C8.5,18.13 9.06,17.57 9.06,16.88 L9.06,11.88 C9.06,11.19 8.5,10.63 7.81,10.63 Z M11.56,17.5 C11.18,17.5 10.93,17.25 10.93,16.87 L10.93,11.87 C10.93,11.49 11.18,11.24 11.56,11.24 C11.94,11.24 12.19,11.49 12.19,11.87 L12.19,16.87 C12.19,17.19 11.88,17.5 11.56,17.5 Z M14.63,17.5 C14.25,17.5 14,17.25 14,16.87 L14,11.87 C14,11.49 14.25,11.24 14.63,11.24 C15.01,11.24 15.26,11.49 15.26,11.87 L15.26,16.87 C15.25,17.19 14.94,17.5 14.63,17.5 Z M17.81,17.5 C17.43,17.5 17.18,17.25 17.18,16.87 L17.18,11.87 C17.18,11.49 17.43,11.24 17.81,11.24 C18.19,11.24 18.44,11.49 18.44,11.87 L18.44,16.87 C18.44,17.19 18.13,17.5 17.81,17.5 Z" id="形状" fill="#4895EF"></path>
                </g>
            </g>
        </g>
    </g>
</svg>