<?xml version="1.0" encoding="UTF-8"?>
<svg width="20px" height="17px" viewBox="0 0 20 17" version="1.1" xmlns="http://www.w3.org/2000/svg" xmlns:xlink="http://www.w3.org/1999/xlink">
    <!-- Generator: Sketch 58 (84663) - https://sketch.com -->
    <title>编组</title>
    <desc>Created with Sketch.</desc>
    <g id="导航栏+首页优化" stroke="none" stroke-width="1" fill="none" fill-rule="evenodd">
        <g id="首页未登录" transform="translate(-1632.000000, -928.000000)" fill="#4895EF" fill-rule="nonzero">
            <g id="编组-18" transform="translate(1632.000000, 892.000000)">
                <g id="编组" transform="translate(0.000000, 36.000000)">
                    <path d="M18.125,17 L1.875,17 C0.859375,17 0,16.1651786 0,15.1785714 L0,1.82142857 C0,0.834821429 0.859375,0 1.875,0 L6.875,0 C7.890625,0 8.75,0.834821429 8.75,1.82142857 L8.75,3.03571429 C8.75,3.41517857 8.984375,3.64285714 9.375,3.64285714 L18.125,3.64285714 C19.140625,3.64285714 20,4.47767857 20,5.46428571 L20,15.1785714 C20,16.1651786 19.140625,17 18.125,17 Z M1.875,1.21428571 C1.484375,1.21428571 1.25,1.44196429 1.25,1.82142857 L1.25,15.1785714 C1.25,15.5580357 1.484375,15.7857143 1.875,15.7857143 L18.125,15.7857143 C18.515625,15.7857143 18.75,15.5580357 18.75,15.1785714 L18.75,5.46428571 C18.75,5.08482143 18.515625,4.85714286 18.125,4.85714286 L9.375,4.85714286 C8.359375,4.85714286 7.5,4.02232143 7.5,3.03571429 L7.5,1.82142857 C7.5,1.44196429 7.265625,1.21428571 6.875,1.21428571 L1.875,1.21428571 Z" id="形状"></path>
                    <path d="M12.4224435,15 C12.2550972,15 12.0040778,15 11.9204046,14.8453039 L10.8326537,14.3812155 L9.66122963,14.8453039 C9.24286388,15.0773481 8.5734787,15 8.32245925,14.6132597 C8.07143981,14.3812155 8.07143981,14.1491713 8.07143981,13.7624309 L8.2387861,12.5248619 L7.31838147,11.6740331 C7.06736203,11.441989 6.90001573,11.0552486 7.06736203,10.6685083 C7.23470832,10.281768 7.48572777,10.0497238 7.98776666,9.89502762 L9.32653703,9.66298343 L9.99592222,8.5801105 C10.414288,7.80662983 11.585712,7.80662983 12.0040778,8.5801105 L12.673463,9.66298343 L14.0122333,9.89502762 C14.4305991,10.0497238 14.8489648,10.281768 14.932638,10.6685083 C15.0999843,11.0552486 14.932638,11.441989 14.6816185,11.6740331 L13.7612139,12.5248619 L13.9285602,13.7624309 C13.9285602,13.9944751 13.9285602,14.3812155 13.6775407,14.6132597 C13.0918287,14.9226519 12.7571361,15 12.4224435,15 Z M8.48980555,11.2099448 L9.15919074,11.8287293 C9.41021018,12.0607735 9.57755648,12.4475138 9.41021018,12.679558 L9.41021018,13.6850829 L10.3306148,13.2983425 C10.5816343,13.1436464 11,13.1436464 11.2510194,13.2983425 L12.1714241,13.6850829 L12.0040778,12.8342541 C12.0040778,12.4475138 12.0040778,12.2154696 12.2550972,11.9834254 L12.9244824,11.3646409 L12.0040778,11.2099448 C11.585712,11.2099448 11.3346926,10.9779006 11.1673463,10.7458564 L10.6653074,9.74033149 L10.2469417,10.5911602 C10.0795954,10.8232044 9.82857592,11.0552486 9.41021018,11.0552486 L8.48980555,11.2099448 Z" id="形状"></path>
                </g>
            </g>
        </g>
    </g>
</svg>