<?xml version="1.0" encoding="UTF-8"?>
<svg width="17px" height="17px" viewBox="0 0 17 17" version="1.1" xmlns="http://www.w3.org/2000/svg" xmlns:xlink="http://www.w3.org/1999/xlink">
    <!-- Generator: Sketch 58 (84663) - https://sketch.com -->
    <title>二维码</title>
    <desc>Created with Sketch.</desc>
    <g id="导航栏+首页优化" stroke="none" stroke-width="1" fill="none" fill-rule="evenodd">
        <g id="首页未登录" transform="translate(-1633.000000, -893.000000)" fill-rule="nonzero">
            <g id="编组-18" transform="translate(1631.000000, 891.000000)">
                <g id="二维码">
                    <rect id="矩形" fill="#000000" opacity="0" x="0" y="0" width="21" height="21"></rect>
                    <path d="M3.118731,2.532957 C5.204724,2.532957 7.290738,2.532957 9.376731,2.532957 C10.013115,2.595978 9.859731,3.716181 9.859731,4.443957 C9.859731,5.751186 9.859731,6.612774 9.859731,7.908957 C9.859731,8.662038 10.001544,9.585051 9.502731,9.798957 C9.177882,9.938271 8.306067,9.840957 7.885731,9.840957 C6.731718,9.840957 5.793669,9.840957 4.567731,9.840957 C3.800727,9.840957 2.753415,10.024035 2.635731,9.357957 C2.635731,7.24395 2.635731,5.129964 2.635731,3.015957 C2.721495,2.779728 2.872359,2.608599 3.118731,2.532957 Z M3.979731,3.960957 C3.979731,5.465964 3.979731,6.97095 3.979731,8.475957 C5.484738,8.475957 6.989724,8.475957 8.494731,8.475957 C8.494731,6.94995 8.494731,5.423964 8.494731,3.897957 C6.996738,3.897957 5.498724,3.897957 4.000731,3.897957 C3.976266,3.901485 3.977925,3.931158 3.979731,3.960957 Z M11.518731,2.532957 C13.604724,2.532957 15.690738,2.532957 17.776731,2.532957 C18.032007,2.627667 18.20742,2.802282 18.259731,3.099957 C18.259731,5.157957 18.259731,7.215978 18.259731,9.273957 C18.202464,9.530514 18.068505,9.74967 17.818731,9.819957 C17.410533,9.934806 16.732275,9.840957 16.243731,9.840957 C15.092679,9.840957 14.148876,9.840957 13.030731,9.840957 C12.546198,9.840957 11.828103,9.943017 11.434731,9.819957 C10.879428,9.646224 11.035731,8.562225 11.035731,7.803957 C11.035731,6.796713 11.035731,5.620986 11.035731,4.569957 C11.035731,3.694446 10.84356,2.655282 11.518731,2.532957 Z M12.379731,3.960957 C12.379731,5.465964 12.379731,6.97095 12.379731,8.475957 C13.884738,8.475957 15.389724,8.475957 16.894731,8.475957 C16.894731,6.94995 16.894731,5.423964 16.894731,3.897957 C15.396738,3.897957 13.898724,3.897957 12.400731,3.897957 C12.376266,3.901485 12.377925,3.931158 12.379731,3.960957 Z M6.037731,5.283957 C6.666534,5.165286 7.161042,5.590158 7.171731,6.165957 C7.185822,6.925275 6.410292,7.342398 5.806731,7.026957 C5.11623,6.666072 5.161674,5.44929 6.037731,5.283957 Z M14.437731,5.283957 C15.918882,5.00724 15.89049,7.352919 14.437731,7.110957 C13.513206,6.956985 13.483365,5.462268 14.437731,5.283957 Z M9.334731,18.366957 C7.269738,18.366957 5.204745,18.366957 3.139731,18.366957 C2.882544,18.288144 2.708811,18.125877 2.635731,17.862957 C2.635731,15.755964 2.635731,13.64895 2.635731,11.541957 C2.696904,11.356989 2.838108,11.141193 3.055731,11.079957 C3.466806,10.964289 4.138281,11.058957 4.630731,11.058957 C5.762547,11.058957 6.78783,11.058957 7.843731,11.058957 C8.318583,11.058957 9.009651,10.95297 9.439731,11.079957 C10.021578,11.251737 9.859731,12.318138 9.859731,13.074957 C9.859731,14.238357 9.859731,15.230775 9.859731,16.413957 C9.859731,17.230794 10.035627,18.294024 9.334731,18.366957 Z M3.979731,12.486957 C3.979731,13.991985 3.979731,15.49695 3.979731,17.001957 C5.484738,17.001957 6.989724,17.001957 8.494731,17.001957 C8.494731,15.47595 8.494731,13.949964 8.494731,12.423957 C6.996738,12.423957 5.498724,12.423957 4.000731,12.423957 C3.976266,12.427485 3.977925,12.457158 3.979731,12.486957 Z M18.259731,11.625957 C18.259731,12.213957 18.259731,12.801957 18.259731,13.389957 C18.210738,13.984971 18.252717,14.670936 18.238731,15.300957 C16.747731,15.300957 15.256731,15.300957 13.765731,15.300957 C13.765731,14.957964 13.765731,14.61495 13.765731,14.271957 C13.34571,14.222985 12.834759,14.264943 12.379731,14.250957 C12.330738,15.580971 12.372738,17.001936 12.358731,18.366957 C12.085731,18.366957 11.812731,18.366957 11.539731,18.366957 C10.835538,18.225816 11.035731,17.169138 11.035731,16.329957 C11.035731,15.159396 11.035731,14.196273 11.035731,13.074957 C11.035731,12.585531 10.936674,11.851812 11.056731,11.457957 C11.199972,10.988061 11.821152,11.058957 12.442731,11.058957 C13.493571,11.058957 14.429772,11.058957 15.487731,11.058957 C15.487731,11.98995 15.487731,12.920964 15.487731,13.851957 C15.956724,13.851957 16.425738,13.851957 16.894731,13.851957 C16.908717,12.927957 16.866738,11.947971 16.915731,11.058957 C17.592792,11.018889 18.219957,11.028759 18.259731,11.625957 Z M6.142731,13.788957 C6.814164,13.714638 7.369194,14.359926 7.108731,15.069957 C6.747699,16.054122 5.021478,15.684228 5.344731,14.439957 C5.434086,14.096019 5.692176,13.838832 6.142731,13.788957 Z M15.277731,18.366957 C14.773731,18.366957 14.269731,18.366957 13.765731,18.366957 C13.779717,17.827929 13.737759,17.232978 13.786731,16.728957 C14.283738,16.728957 14.780724,16.728957 15.277731,16.728957 C15.277731,17.274957 15.277731,17.820957 15.277731,18.366957 Z M18.259731,16.728957 C18.259731,17.085957 18.259731,17.442957 18.259731,17.799957 C18.201351,18.098577 18.026736,18.280962 17.755731,18.366957 C17.398731,18.366957 17.041731,18.366957 16.684731,18.366957 C16.698717,17.827929 16.656759,17.232978 16.705731,16.728957 C17.223738,16.728957 17.741724,16.728957 18.259731,16.728957 Z" id="形状" fill="#4895EF"></path>
                </g>
            </g>
        </g>
    </g>
</svg>