<?xml version="1.0" encoding="UTF-8"?>
<svg width="19px" height="19px" viewBox="0 0 19 19" version="1.1" xmlns="http://www.w3.org/2000/svg" xmlns:xlink="http://www.w3.org/1999/xlink">
    <!-- Generator: Sketch 58 (84663) - https://sketch.com -->
    <title>职位svg</title>
    <desc>Created with Sketch.</desc>
    <g id="导航栏+首页优化" stroke="none" stroke-width="1" fill="none" fill-rule="evenodd">
        <g id="首页未登录" transform="translate(-1632.000000, -962.000000)" fill-rule="nonzero">
            <g id="编组-18" transform="translate(1631.000000, 891.000000)">
                <g id="职位svg" transform="translate(0.000000, 70.000000)">
                    <rect id="矩形" fill="#000000" opacity="0" x="0" y="0" width="21" height="21"></rect>
                    <path d="M17.9072727,5.09727272 L14.3802273,5.09727272 L14.3802273,3.60818181 C14.3697671,2.40498591 13.3927841,1.43438846 12.1895455,1.43181819 L8.72931819,1.43181819 C7.52130231,1.43445003 6.54340623,2.41448126 6.54340909,3.6225 L6.54340909,5.11159091 L3.09272728,5.11159091 C1.95905855,5.11408924 1.03699773,6.02552723 1.02136363,7.15909091 L1.02136363,17.5111364 C1.0318191,18.6484346 1.95538387,19.5656153 3.09272728,19.5681818 L17.8881818,19.5681818 C19.0310756,19.5655575 19.9569211,18.6397119 19.9595455,17.4968182 L19.9595455,7.15909091 C19.9518144,6.0273098 19.0390058,5.11025559 17.9072727,5.09727272 L17.9072727,5.09727272 Z M7.97522728,3.60818181 C7.98298808,3.1965248 8.31759571,2.86615272 8.72931819,2.86363637 L12.1895455,2.86363637 C12.6086543,2.86363637 12.9484091,3.20339119 12.9484091,3.6225 L12.9484091,5.11159091 L7.97522728,5.11159091 L7.97522728,3.60818181 Z M2.45318181,7.15909091 C2.45318181,6.80587971 2.73951608,6.51954546 3.09272728,6.51954546 L17.8881818,6.51954546 C18.0607081,6.51570617 18.2275639,6.58123514 18.3513697,6.70145236 C18.4751755,6.82166958 18.5455826,6.98652634 18.5468182,7.15909091 L18.5468182,10.1181818 C18.5442193,10.4703109 18.2594018,10.7551284 17.9072727,10.7577273 L3.11181819,10.7577273 C2.75860698,10.7577273 2.47227272,10.471393 2.47227272,10.1181818 L2.45318181,7.15909091 Z M17.9072727,18.1363636 L3.11181819,18.1363636 C2.75860699,18.1363636 2.47227272,17.8500294 2.47227272,17.4968182 L2.47227272,12.0845455 C2.67799911,12.1565234 2.89389854,12.195192 3.11181819,12.1990909 L17.9072727,12.1990909 C18.1251924,12.195192 18.3410918,12.1565234 18.5468182,12.0845455 L18.5468182,17.5111364 C18.5365547,17.857662 18.2539419,18.1339476 17.9072727,18.1363636 Z" id="形状" fill="#4895EF"></path>
                </g>
            </g>
        </g>
    </g>
</svg>