<?xml version="1.0" encoding="UTF-8"?>
<svg width="19px" height="19px" viewBox="0 0 19 19" version="1.1" xmlns="http://www.w3.org/2000/svg" xmlns:xlink="http://www.w3.org/1999/xlink">
    <!-- Generator: Sketch 58 (84663) - https://sketch.com -->
    <title>返回顶部3</title>
    <desc>Created with Sketch.</desc>
    <g id="导航栏+首页优化" stroke="none" stroke-width="1" fill="none" fill-rule="evenodd">
        <g id="首页未登录" transform="translate(-1632.000000, -1102.000000)" fill-rule="nonzero">
            <g id="编组-18" transform="translate(1631.000000, 891.000000)">
                <g id="返回顶部3" transform="translate(0.000000, 210.000000)">
                    <rect id="矩形" fill="#000000" opacity="0" x="0" y="0" width="21" height="21"></rect>
                    <path d="M13.944,9.888375 L13.9505625,9.8818125 L10.7218125,6.6530625 C10.5800625,6.5113125 10.350375,6.5113125 10.208625,6.6530625 L7.021875,9.841125 L7.0258125,9.84375 C6.8026875,10.08525 6.8985,10.5538125 7.247625,10.9029375 C7.59675,11.2520625 8.0653125,11.3465625 8.3068125,11.12475 L8.308125,11.127375 L9.5865,9.849 L9.5865,13.8613125 C9.5865,14.3535 9.9841875,14.7538125 10.476375,14.7538125 C10.9685625,14.7538125 11.36625,14.3535 11.36625,13.8613125 L11.36625,9.87 L12.6315,11.13525 C12.6328125,11.1365625 12.6328125,11.1365625 12.634125,11.137875 L12.63675,11.1391875 L12.665625,11.1680625 L12.6695625,11.164125 C12.9163125,11.363625 13.3665,11.2651875 13.7064375,10.9265625 C14.04375,10.5853125 14.1421875,10.135125 13.944,9.888375 Z M10.5,1.3125 C5.425875,1.3125 1.3125,5.425875 1.3125,10.5 C1.3125,15.574125 5.425875,19.6875 10.5,19.6875 C15.5728125,19.6875 19.6875,15.5728125 19.6875,10.5 C19.6875,5.4271875 15.5728125,1.3125 10.5,1.3125 Z M10.5,17.724 C6.51,17.724 3.2773125,14.4886875 3.2773125,10.5 C3.2773125,6.5113125 6.51,3.2773125 10.5,3.2773125 C14.4886875,3.2773125 17.7226875,6.5113125 17.7226875,10.5 C17.7226875,14.4886875 14.4886875,17.724 10.5,17.724 Z" id="形状" fill="#4895EF"></path>
                </g>
            </g>
        </g>
    </g>
</svg>