<?xml version="1.0" encoding="UTF-8"?>
<svg width="22px" height="28px" viewBox="0 0 22 28" version="1.1" xmlns="http://www.w3.org/2000/svg" xmlns:xlink="http://www.w3.org/1999/xlink">
    <!-- Generator: Sketch 58 (84663) - https://sketch.com -->
    <title>编组</title>
    <desc>Created with Sketch.</desc>
    <g id="导航栏+首页优化" stroke="none" stroke-width="1" fill="none" fill-rule="evenodd">
        <g id="首页登陆了" transform="translate(-1450.000000, -31.000000)" fill="#4895EF" fill-rule="nonzero">
            <g id="编组-9" transform="translate(294.000000, 10.000000)">
                <g id="编组-10" transform="translate(1155.500000, 21.000000)">
                    <g id="编组">
                        <g>
                            <path d="M17.7,27.5 L4.9,27.5 C2.7,27.5 0.9,25.7 0.9,23.5 L0.9,4.3 C0.9,2.1 2.7,0.3 4.9,0.3 L10.7,0.3 C11.3,0.3 12,0.6 12.5,0.9 L21.1,9.5 C21.6,10 21.7,10.6 21.7,11.3 L21.7,23.5 C21.7,25.7 20,27.5 17.7,27.5 Z M4.9,1.9 C3.6,1.9 2.5,3 2.5,4.3 L2.5,23.5 C2.5,24.8 3.6,25.9 4.9,25.9 L17.7,25.9 C19,25.9 20.1,24.8 20.1,23.5 L20.1,11.3 C20.1,11.1 19.9,10.8 19.9,10.7 L11.3,2.1 C11.1,1.9 11,1.9 10.7,1.9 L4.9,1.9 L4.9,1.9 Z" id="形状"></path>
                            <path d="M12.1,1.1 L12.1,7.5 C12.1,8.8 13.2,9.9 14.5,9.9 L20.9,9.9 L20.9,11.5 L14.5,11.5 C12.3,11.5 10.5,9.7 10.5,7.5 L10.5,1.1 L12.1,1.1 Z" id="路径"></path>
                        </g>
                        <path d="M16.1,23.5 L6.5,23.5 C6,23.5 5.7,23.2 5.7,22.7 C5.7,22.2 6,21.9 6.5,21.9 L16.1,21.9 C16.6,21.9 16.9,22.2 16.9,22.7 C16.9,23.2 16.6,23.5 16.1,23.5 Z" id="路径"></path>
                        <path d="M16.1,19.5 L6.5,19.5 C6,19.5 5.7,19.2 5.7,18.7 C5.7,18.2 6,17.9 6.5,17.9 L16.1,17.9 C16.6,17.9 16.9,18.2 16.9,18.7 C16.9,19.2 16.6,19.5 16.1,19.5 Z" id="路径"></path>
                        <path d="M16.1,15.5 L6.5,15.5 C6,15.5 5.7,15.2 5.7,14.7 C5.7,14.2 6,13.9 6.5,13.9 L16.1,13.9 C16.6,13.9 16.9,14.2 16.9,14.7 C16.9,15.2 16.6,15.5 16.1,15.5 Z" id="路径"></path>
                    </g>
                </g>
            </g>
        </g>
    </g>
</svg>