<?xml version="1.0" encoding="UTF-8"?>
<svg width="19px" height="19px" viewBox="0 0 19 19" version="1.1" xmlns="http://www.w3.org/2000/svg" xmlns:xlink="http://www.w3.org/1999/xlink">
    <!-- Generator: Sketch 58 (84663) - https://sketch.com -->
    <title>活动_2</title>
    <desc>Created with Sketch.</desc>
    <g id="导航栏+首页优化" stroke="none" stroke-width="1" fill="none" fill-rule="evenodd">
        <g id="首页未登录" transform="translate(-1632.000000, -1067.000000)" fill-rule="nonzero">
            <g id="编组-18" transform="translate(1631.000000, 891.000000)">
                <g id="活动_2" transform="translate(0.000000, 175.000000)">
                    <rect id="矩形" fill="#000000" opacity="0" x="0" y="0" width="21" height="21"></rect>
                    <path d="M8.69121094,17.9238281 L4.95263672,17.9238281 L4.95263672,2.24970703 C4.95263672,1.73496094 4.53427734,1.31660156 4.01953125,1.31660156 C3.50478516,1.31660156 3.08642578,1.73496094 3.08642578,2.24970703 L3.08642578,17.9238281 L2.76035156,17.9238281 C2.24560547,17.9238281 1.82724609,18.3421875 1.82724609,18.8569336 C1.82724609,19.3716797 2.24560547,19.7900391 2.76035156,19.7900391 L8.68916016,19.7900391 C9.20390625,19.7900391 9.62227313,19.3716797 9.62227313,18.8569336 C9.62431641,18.3421875 9.20595703,17.9238281 8.69121094,17.9238281 Z" id="路径" fill="#4895EF"></path>
                    <path d="M18.6272461,2.33173828 C18.3770508,2.15742187 18.0571289,2.11640625 17.7720703,2.22304688 L17.2696289,2.40966797 C15.9673828,2.89160156 14.5892578,2.88134766 13.2911133,2.38095703 L13.1619141,2.33173828 C11.8494141,1.82519531 10.4958984,1.69394531 9.14033203,1.94208984 L6.44355469,2.43632812 C6.00058594,2.51835937 5.67861328,2.90390625 5.67861328,3.35302734 L5.67861328,12.5302734 C5.67861328,12.8255859 5.82011719,13.106543 6.05800781,13.2808594 C6.29794922,13.4572266 6.60556641,13.5064453 6.88857422,13.4203125 L8.83886719,12.8112305 C10.0754883,12.4236328 11.3756836,12.4769531 12.5979492,12.9650391 C13.5105469,13.3280273 14.4477539,13.5105469 15.3849609,13.5105469 C16.3119141,13.5105469 17.2388672,13.3321289 18.1412109,12.9773438 L18.4365234,12.8604492 C18.7933594,12.7189453 19.0251185,12.3764648 19.0251185,11.9929688 L19.0251185,3.09667969 C19.0271484,2.79111328 18.8774414,2.50605469 18.6272461,2.33173828 Z M17.1609375,11.3490234 C15.8853516,11.7755859 14.5523437,11.7366211 13.2870117,11.2321289 C12.3805664,10.8711914 11.4392578,10.6886719 10.4979492,10.6886719 C9.75351563,10.6886719 9.00908203,10.8014648 8.27900391,11.0291016 L7.53867188,11.2608398 L7.53867188,4.12822266 L9.47050781,3.77548828 C10.481543,3.58886719 11.4987305,3.68935547 12.4831055,4.06875 L12.6123047,4.11796875 C14.0929687,4.69013672 15.6515625,4.78037109 17.1568359,4.39277344 L17.1568359,11.3490234 L17.1609375,11.3490234 Z" id="形状" fill="#4895EF"></path>
                </g>
            </g>
        </g>
    </g>
</svg>