<?xml version="1.0" encoding="UTF-8"?>
<svg width="25px" height="28px" viewBox="0 0 25 28" version="1.1" xmlns="http://www.w3.org/2000/svg" xmlns:xlink="http://www.w3.org/1999/xlink">
    <!-- Generator: Sketch 58 (84663) - https://sketch.com -->
    <title>编组</title>
    <desc>Created with Sketch.</desc>
    <g id="导航栏+首页优化" stroke="none" stroke-width="1" fill="none" fill-rule="evenodd">
        <g id="首页登陆了" transform="translate(-1540.000000, -31.000000)" fill="#4895EF" fill-rule="nonzero">
            <g id="编组-9" transform="translate(294.000000, 10.000000)">
                <g id="编组-12" transform="translate(1246.500000, 21.000000)">
                    <g id="编组">
                        <path d="M12.3,23.1 C6.5,23.1 0.3,21.8 0.3,19.1 C0.3,18.6 0.6,18.3 1.1,18.3 C2.4,18.3 3.5,17.2 3.5,15.9 L3.5,12.7 C3.5,7.9 7.5,3.9 12.3,3.9 C17.1,3.9 21.1,7.9 21.1,12.7 L21.1,15.9 C21.1,17.2 22.2,18.3 23.5,18.3 C24,18.3 24.3,18.6 24.3,19.1 C24.3,21.8 18.1,23.1 12.3,23.1 Z M2.4,19.7 C3.7,20.5 6.9,21.5 12.3,21.5 C17.7,21.5 20.9,20.5 22.2,19.7 C20.6,19.2 19.5,17.6 19.5,15.9 L19.5,12.7 C19.5,8.7 16.3,5.5 12.3,5.5 C8.3,5.5 5.1,8.7 5.1,12.7 L5.1,15.9 C5.1,17.6 4,19.1 2.4,19.7 Z" id="形状"></path>
                        <path d="M12.3,27.1 C9.6,27.1 7.5,25 7.5,22.3 C7.5,21.8 7.8,21.5 8.3,21.5 C8.8,21.5 9.1,21.8 9.1,22.3 C9.1,24.1 10.5,25.5 12.3,25.5 C14.1,25.5 15.5,24.1 15.5,22.3 C15.5,21.8 15.8,21.5 16.3,21.5 C16.8,21.5 17.1,21.8 17.1,22.3 C17.1,25 15.1,27.1 12.3,27.1 Z" id="路径"></path>
                        <path d="M11.5,4.7 L11.5,1.5 C11.5,1 11.8,0.7 12.3,0.7 C12.8,0.7 13.1,1 13.1,1.5 L13.1,4.7 L11.5,4.7 Z" id="路径"></path>
                    </g>
                </g>
            </g>
        </g>
    </g>
</svg>