<?xml version="1.0" encoding="UTF-8"?>
<svg width="20px" height="20px" viewBox="0 0 20 20" version="1.1" xmlns="http://www.w3.org/2000/svg" xmlns:xlink="http://www.w3.org/1999/xlink">
    <!-- Generator: Sketch 58 (84663) - https://sketch.com -->
    <title>编组</title>
    <desc>Created with Sketch.</desc>
    <g id="导航栏+首页优化" stroke="none" stroke-width="1" fill="none" fill-rule="evenodd">
        <g id="首页未登录" transform="translate(-1632.000000, -1100.000000)" fill="#4895EF" fill-rule="nonzero">
            <g id="编组-18" transform="translate(1632.000000, 892.000000)">
                <g id="编组" transform="translate(0.000000, 208.000000)">
                    <path d="M10.2142857,19.6428571 C4.85714286,19.6428571 0.5,15.2857143 0.5,9.92857143 C0.5,4.57142857 4.85714286,0.214285714 10.2142857,0.214285714 C15.5714286,0.214285714 19.9285714,4.57142857 19.9285714,9.92857143 C19.9285714,15.2857143 15.6428571,19.6428571 10.2142857,19.6428571 Z M10.2142857,1.35714286 C5.5,1.35714286 1.64285714,5.21428571 1.64285714,9.92857143 C1.64285714,14.6428571 5.5,18.5 10.2142857,18.5 C14.9285714,18.5 18.7857143,14.6428571 18.7857143,9.92857143 C18.7857143,5.21428571 14.9285714,1.35714286 10.2142857,1.35714286 Z" id="形状"></path>
                    <path d="M13.0714286,11.1428571 C12.9285714,11.1428571 12.7142857,11.1428571 12.6428571,11 L10.5,8.71428571 C10.3571429,8.57142857 10.1428571,8.57142857 9.92857143,8.71428571 L7.78571429,10.8571429 C7.57142857,11.0714286 7.21428571,11.0714286 7,10.8571429 C6.78571429,10.6428571 6.78571429,10.2857143 7,10.0714286 L9.14285714,7.92857143 C9.71428571,7.35714286 10.7142857,7.35714286 11.2857143,7.92857143 L13.4285714,10.0714286 C13.6428571,10.2857143 13.6428571,10.6428571 13.4285714,10.8571429 C13.4285714,11.0714286 13.2142857,11.1428571 13.0714286,11.1428571 Z" id="路径"></path>
                </g>
            </g>
        </g>
    </g>
</svg>