<?xml version="1.0" encoding="UTF-8"?>
<svg width="18px" height="19px" viewBox="0 0 18 19" version="1.1" xmlns="http://www.w3.org/2000/svg" xmlns:xlink="http://www.w3.org/1999/xlink">
    <!-- Generator: Sketch 58 (84663) - https://sketch.com -->
    <title>订阅</title>
    <desc>Created with Sketch.</desc>
    <g id="导航栏+首页优化" stroke="none" stroke-width="1" fill="none" fill-rule="evenodd">
        <g id="首页未登录" transform="translate(-1632.000000, -927.000000)" fill-rule="nonzero">
            <g id="编组-18" transform="translate(1631.000000, 891.000000)">
                <g id="订阅" transform="translate(0.000000, 35.000000)">
                    <rect id="矩形" fill="#000000" opacity="0" x="0" y="0" width="21" height="21"></rect>
                    <path d="M8.56816406,13.2193565 C8.29951172,13.2193565 8.03085937,13.1352539 7.80322266,12.9691406 C7.39921875,12.6758789 7.20029297,12.1857422 7.28642578,11.6935547 L7.50585937,10.4138672 L6.57480469,9.50742187 C6.21796875,9.15878906 6.09082031,8.64814453 6.24462891,8.17236328 C6.3984375,7.69658203 6.80244141,7.35615234 7.29667969,7.284375 L8.58251953,7.09775391 L9.15673828,5.93291016 C9.37822266,5.48378906 9.82734375,5.20693359 10.3256836,5.20693359 C10.8260742,5.20693359 11.2731445,5.48583984 11.4946289,5.93496094 L12.0688477,7.09980469 L13.3546875,7.28642578 C13.8489258,7.35820313 14.2529297,7.69863281 14.4067383,8.17236328 C14.5605469,8.64814453 14.4354492,9.15878906 14.0765625,9.50742188 L13.1455078,10.4138672 L13.3649414,11.6935547 C13.4490234,12.1857422 13.2500977,12.6738281 12.8460937,12.9691406 C12.4420898,13.2624023 11.9150391,13.3013672 11.4741211,13.0675781 L10.3236328,12.4625977 L9.17314453,13.0675781 C8.98242187,13.1701172 8.77529297,13.2193565 8.56816406,13.2193565 Z M10.3256836,10.5594727 C10.5348633,10.5594727 10.7419922,10.6086914 10.9327148,10.7091797 L11.3756836,10.940918 L11.2916016,10.4487305 C11.2198242,10.0262695 11.3592773,9.59560547 11.6648438,9.29619141 L12.0237305,8.94755859 L11.5294922,8.87578125 C11.1029297,8.81425781 10.7378906,8.54560547 10.547168,8.16210938 L10.3256836,7.71503906 L10.1041992,8.16210938 C9.91552734,8.54560547 9.5484375,8.81220703 9.12392578,8.87578125 L8.62763672,8.94755859 L8.98447266,9.29619141 C9.29208984,9.59560547 9.43154297,10.0262695 9.35976563,10.4507813 L9.27568359,10.9429687 L9.71865234,10.7112305 C9.909375,10.6086914 10.1165039,10.5594727 10.3256836,10.5594727 L10.3256836,10.5594727 Z M13.1344336,9.15673828 L13.1606836,9.15673828 L13.1344336,9.15673828 Z" id="形状" fill="#4895EF"></path>
                    <path d="M4.50761719,19.6669922 C3.99492188,19.6669922 3.48837891,19.5152344 3.05361328,19.2178711 C2.35224609,18.7379883 1.93388672,17.9443359 1.93388672,17.0932617 L1.93388672,3.88417969 C1.93388672,2.46503906 3.08847656,1.31044922 4.50761719,1.31044922 L16.1416992,1.31044922 C17.5608398,1.31044922 18.7154297,2.46503906 18.7154297,3.88417969 L18.7154297,17.0953125 C18.7154297,17.9443359 18.2970703,18.7379883 17.5957031,19.2178711 C16.8943359,19.6977539 16.0022461,19.800293 15.2106445,19.4926758 L10.5922852,17.700293 C10.4200195,17.6326172 10.2313477,17.6326172 10.059082,17.700293 L5.43867187,19.4926758 C5.13720703,19.6095703 4.82138672,19.6669922 4.50761719,19.6669922 Z M15.8750977,17.7823242 C16.1047852,17.8725586 16.3549805,17.8438477 16.5580078,17.7043945 C16.7610352,17.5649414 16.8779297,17.343457 16.8779297,17.0953125 L16.8779297,3.88417969 C16.8779297,3.478125 16.5477539,3.14589844 16.1396484,3.14589844 L4.50761719,3.14589844 C4.1015625,3.14589844 3.76933594,3.47607422 3.76933594,3.88417969 L3.76933594,17.0953125 C3.76933594,17.343457 3.88623047,17.5649414 4.08925781,17.7043945 C4.29433594,17.8438477 4.54248047,17.8725586 4.77216797,17.784375 L9.39257813,15.9878906 C9.99140625,15.7541016 10.6538086,15.7541016 11.2546875,15.9878906 L15.8750977,17.7823242 Z" id="形状" fill="#4895EF"></path>
                </g>
            </g>
        </g>
    </g>
</svg>