<?xml version="1.0" encoding="UTF-8"?>
<svg width="131px" height="99px" viewBox="0 0 131 99" version="1.1" xmlns="http://www.w3.org/2000/svg" xmlns:xlink="http://www.w3.org/1999/xlink">
    <!-- Generator: Sketch 58 (84663) - https://sketch.com -->
    <title>编组</title>
    <desc>Created with Sketch.</desc>
    <defs>
        <ellipse id="path-1" cx="43.7353383" cy="44" rx="43.6857143" ry="44"></ellipse>
        <path d="M36,45 C55.882251,45 72,37.464218 72,28.1683598 C72,18.8725017 55.9551172,0 36.0728662,0 C16.1906152,0 0,18.8725017 0,28.1683598 C0,37.464218 16.117749,45 36,45 Z" id="path-3"></path>
        <path d="M40.8486164,80.8611367 C30.7568721,74.7921474 27.5724182,69.2632177 31.2952545,64.2743476 C35.0180908,59.2854774 35.0180908,52.1843019 31.2952545,42.9708209 C36.9626912,33.3551165 41.7334165,28.5472644 45.6074305,28.5472644 C49.4814445,28.5472644 51.8492043,25.0899614 52.7107099,18.1753555 C34.1669398,16.1392802 23.1830885,18.2961043 19.759156,24.6458277 C14.6232572,34.1704129 12.6144581,35.833423 12.6144581,42.9708209 C12.6144581,50.1082187 6.30952101,54.1085444 6.30952101,60.9027485 C6.30952101,67.6969526 -5.72359993,74.4318232 3.44542907,82.9404526 C12.6144581,91.449082 28.4104532,102.376852 49.3174961,96.1791054 C70.224539,89.981359 110.840593,93.7568421 110.840593,93.7568421 C122.223098,92.6187496 127.592321,87.1524358 126.948263,77.3579006 C126.304205,67.5633655 123.970961,62.0783148 119.94853,60.9027485 C118.431921,57.5120656 118.431921,52.1880133 119.94853,44.9305917 C122.223443,34.0444593 113.463422,12.3565106 105.778213,15.265933 C100.654739,17.205548 91.2223575,18.1753555 77.4810669,18.1753555 C78.5344784,25.0899614 81.9877491,28.5472644 87.8408789,28.5472644 C96.6205737,28.5472644 102.641794,43.9875017 100.459037,52.4451251 C99.0038654,58.0835407 98.085158,63.3005394 97.7029144,68.0961212 C96.1999375,71.9247301 94.8215441,74.6123948 93.5677341,76.1591153 C91.9039457,78.2115918 89.7353557,79.4062058 87.5081627,80.8611367 C85.9204802,81.8983025 83.710015,83.1400888 82.0952894,83.814805 C73.1620986,87.5475554 65.9579153,89.189459 51.266055,85.5477113 C47.9487663,84.7254377 44.4762867,83.1632462 40.8486164,80.8611367 Z" id="path-5"></path>
    </defs>
    <g id="职位搜索优化" stroke="none" stroke-width="1" fill="none" fill-rule="evenodd">
        <g id="职位搜索优化暂无搜索结果" transform="translate(-756.000000, -392.000000)">
            <g id="编组-16" transform="translate(757.000000, 392.000000)">
                <g id="编组">
                    <g id="路径-18" transform="translate(21.000000, 0.000000)">
                        <mask id="mask-2" fill="white">
                            <use xlink:href="#path-1"></use>
                        </mask>
                        <use id="蒙版" fill="#739EE5" xlink:href="#path-1"></use>
                        <path d="M0,44 C12.8222543,62.3822222 26.1041565,71.5733333 39.8457067,71.5733333 C60.4580319,71.5733333 71.6944124,68.3073551 84.5263158,44 C83.3336029,80.6303323 71.2150234,99.0123134 48.1705774,99.1459433 C25.1261313,99.2795733 9.06927221,80.8975922 0,44 Z" id="路径-21" fill="#6692DB" mask="url(#mask-2)"></path>
                        <path d="M15.8185798,10.2028986 C16.6947766,10.2201153 16.6947766,12.8963612 15.8185798,18.2316363 C14.5042845,26.2345488 33.5068408,35.6689299 39.8836866,35.6689299 C46.2605324,35.6689299 21.1684684,46.0547598 10.4681629,41.1569403 C3.33462594,37.8917273 -0.703135172,37.8917273 -1.6451204,41.1569403 C-2.1006161,22.0186688 -1.74128544,12.075094 -0.567128411,11.3262158 C0.607028616,10.5773376 6.06893134,10.2028986 15.8185798,10.2028986 Z" id="路径-19" fill="#B0EACD" mask="url(#mask-2)"></path>
                        <path d="M70.5193052,8.92753623 C64.0161172,18.4527455 63.3208438,24.8899326 68.4334848,28.2390975 C73.5461258,31.5882624 71.2848389,33.7465808 61.6496241,34.7140528 C65.5497585,41.5219595 70.2462713,43.7880526 75.7391625,41.512332 C81.2320537,39.2366114 87.1267753,39.2366114 93.4233273,41.512332 L96.8496241,8.92753623 L70.5193052,8.92753623 Z" id="路径-22" fill="#B0EACD" mask="url(#mask-2)"></path>
                    </g>
                    <g id="路径-25" transform="translate(28.000000, 5.000000)">
                        <mask id="mask-4" fill="white">
                            <use xlink:href="#path-3"></use>
                        </mask>
                        <use id="蒙版" fill="#FFFFFF" xlink:href="#path-3"></use>
                        <path d="M20.8929417,-6.26634179 C18.0920661,-0.814282892 17.3249951,2.91441119 18.5917287,4.91974044 C20.4918292,7.92773433 53.9699959,13.8425557 53.9699959,4.91974044 C53.9699959,1.42955137 54.4565239,-3.49178353 51.5112461,-6.26634179 C50.1282195,-7.56920295 46.6700109,-8.74965313 41.1366205,-9.80769231 L22.4417191,-7.7402924 L20.8929417,-6.26634179 Z" fill="#B0EACD" mask="url(#mask-4)"></path>
                    </g>
                    <ellipse id="椭圆形" fill="#FFD9D9" transform="translate(48.385650, 24.208333) rotate(-11.000000) translate(-48.385650, -24.208333) " cx="48.3856502" cy="24.2083333" rx="5.24675929" ry="7.2914966"></ellipse>
                    <ellipse id="椭圆形备份" fill="#FFD9D9" transform="translate(80.448430, 24.791667) rotate(12.000000) translate(-80.448430, -24.791667) " cx="80.4484305" cy="24.7916667" rx="5.24678224" ry="7.29146475"></ellipse>
                    <path d="M58.740322,59 C58.401507,62.8563628 55.8213997,64.2832819 51,63.2807573 C52.30323,65.2835498 53.3442427,66.180011 54.123038,65.9701409 C54.9018333,65.7602708 56.440928,65.3962421 58.740322,64.8780548 L60,62.5 L60,60.0248092 L58.740322,59 Z" id="路径-24" fill="#6692DB"></path>
                    <path d="M78.740322,59 C78.401507,62.8563628 75.8213997,64.2832819 71,63.2807573 C72.30323,65.2835498 73.3442427,66.180011 74.123038,65.9701409 C74.9018333,65.7602708 76.440928,65.3962421 78.740322,64.8780548 L80,62.5 L80,60.0248092 L78.740322,59 Z" id="路径-24备份" fill="#6692DB" transform="translate(75.500000, 62.500000) scale(-1, 1) translate(-75.500000, -62.500000) "></path>
                    <path d="M48,56 C50.4566302,63.5865285 53.4426024,66.8564009 56.9579166,65.8096172 C60.4732308,64.7628335 60.9419239,61.9664257 58.3639958,57.4203938" id="路径-23" stroke="#333333" stroke-width="2" stroke-linecap="round"></path>
                    <path d="M71,56 C73.4566302,63.5865285 76.4426024,66.8564009 79.9579166,65.8096172 C83.4732308,64.7628335 83.9419239,61.9664257 81.3639958,57.4203938" id="路径-23备份" stroke="#333333" stroke-width="2" stroke-linecap="round" transform="translate(77.000000, 61.000000) scale(-1, 1) translate(-77.000000, -61.000000) "></path>
                    <rect id="矩形" fill="#333333" x="51" y="16" width="8" height="3" rx="1.5"></rect>
                    <rect id="矩形备份-3" fill="#333333" x="71" y="16" width="8" height="3" rx="1.5"></rect>
                    <path d="M64.4537863,21.7612016 C64.4177841,24.8457866 63.7374194,26.6820845 62.4126922,27.2700954 C60.9607309,27.9145822 63.3400603,28.1322702 69.5506804,27.9231593 L69.5506811,27.9231804 C70.1026647,27.9045952 70.5350695,27.4420578 70.5164843,26.8900742 C70.5117592,26.7497389 70.4775336,26.6119718 70.4160353,26.4857408 C69.9789628,25.5886078 69.408947,24.6371931 68.7059879,23.6314967 C67.9764848,22.5878247 67.0839301,21.6954643 66.0283238,20.9544156 L66.0283458,20.9543842 C65.576307,20.6370473 64.9526047,20.7462448 64.6352678,21.1982836 C64.519401,21.3633331 64.4561398,21.5595562 64.4537863,21.7612016 Z" id="路径-39" stroke="#E43F5A" fill="#EC5858"></path>
                    <rect id="矩形" stroke="#90D0EA" stroke-width="2" fill="#DBFAFF" x="17" y="12" width="7" height="2" rx="1"></rect>
                    <path d="M7.98707927,25.9388497 C7.26050751,25.939028 6.55935828,26.2063193 6.01705355,26.6898605 C5.79547632,26.8874279 5.77186168,27.2256429 5.963834,27.4520849 L6.11374582,27.6289142 C6.63770471,28.2469528 7.40701729,28.6032028 8.21726696,28.603004 L12.893342,28.6018565 C13.6294204,28.6016759 14.2260847,28.0050116 14.2262655,27.2689331 C14.2262655,27.2686064 14.2262655,27.2686064 14.2262655,27.2682798 C14.2260851,26.5332103 13.6300473,25.937465 12.8949778,25.9376453 L7.98707927,25.9388497 Z" id="矩形备份-2" stroke="#90D0EA" stroke-width="2" fill="#DBFAFF" transform="translate(9.726042, 27.270252) rotate(-65.000000) translate(-9.726042, -27.270252) "></path>
                    <path d="M102.019133,7.41770726 C101.282548,7.4179229 100.685483,8.01498859 100.685267,8.75157286 C100.685267,8.75196261 100.685267,8.75196261 100.685267,8.75235236 C100.685483,9.48773313 101.281801,10.0837025 102.017182,10.0834872 L106.097459,10.0822927 C106.834043,10.0820771 107.431109,9.48501141 107.431325,8.74842714 C107.431325,8.74803739 107.431325,8.74803739 107.431325,8.74764764 C107.431109,8.01226687 106.834791,7.41629749 106.09941,7.41651277 L102.019133,7.41770726 Z" id="矩形备份" stroke="#90D0EA" stroke-width="2" fill="#DBFAFF" transform="translate(104.058296, 8.750000) rotate(-33.000000) translate(-104.058296, -8.750000) "></path>
                    <path d="M123.003729,11.4998461 C123.003339,11.499846 123.003339,11.499846 123.002949,11.4998461 C122.267569,11.5000613 121.671599,12.0963797 121.671814,12.8317605 C121.67203,13.5683447 122.269096,14.1654104 123.00568,14.1656261 L127.085957,14.1668206 C127.086347,14.1668206 127.086347,14.1668206 127.086737,14.1668206 C127.822118,14.1666053 128.418087,13.570287 128.417872,12.8349062 C128.417656,12.0983219 127.820591,11.5012562 127.084006,11.5010406 L123.003729,11.4998461 Z" id="矩形备份-4" stroke="#90D0EA" stroke-width="2" fill="#DBFAFF" transform="translate(125.044843, 12.833333) rotate(33.000000) translate(-125.044843, -12.833333) "></path>
                    <mask id="mask-6" fill="white">
                        <use xlink:href="#path-5"></use>
                    </mask>
                    <use id="蒙版" stroke="#90D0EA" stroke-width="2" fill-opacity="0.8" fill="#DBFAFF" xlink:href="#path-5"></use>
                    <path d="M63.626087,90 C82.1276261,90 98,82.5560476 98,75.954023 C98,69.3519984 83.0015391,64 64.5,64 C45.9984609,64 31,69.3519984 31,75.954023 C31,82.5560476 45.1245478,90 63.626087,90 Z" id="椭圆形" fill="#BBCCD8" mask="url(#mask-6)"></path>
                    <path d="M19.9462383,26.0891772 L17,31.587016 C18.5090807,30.4481797 19.6247574,30.4481797 20.3470302,31.587016 C21.4304394,33.2952704 21.4014172,35 23.2298173,35 C25.0582173,35 27.2641441,32.7254569 28.5266108,34.2887221 C29.3682553,35.3308988 30.5260517,33.2352654 32,28.0018217 C29.4538751,29.3404152 27.8488263,29.4677265 27.1848536,28.3837557 C26.1888946,26.7577994 24.3635871,25.2305975 23.2298173,26.4285156 C22.4739707,27.2271277 21.3794444,27.1140149 19.9462383,26.0891772 Z" id="路径-44" fill-opacity="0.93" fill="#FFFFFF" mask="url(#mask-6)"></path>
                    <path d="M103.052833,27.6862452 L99.1572055,33.0041125 C101.152069,31.9021901 102.626639,31.9017359 103.580915,33.0027499 C105.012329,34.654271 104.973463,36.3028363 107.390026,36.3020922 C109.80659,36.3013475 113.670512,34.5220658 115.338626,36.0333025 C116.450702,37.0407936 117.665661,34.8733444 118.983503,29.5309549 C115.617937,30.8264742 113.496535,30.9502436 112.619297,29.9022633 C111.30344,28.3302928 108.891419,26.8541601 107.392579,28.0130646 C106.393352,28.7856677 104.94677,28.6767279 103.052833,27.6862452 Z" id="路径-44备份" fill-opacity="0.93" fill="#FFFFFF" mask="url(#mask-6)" transform="translate(109.070354, 31.950186) rotate(-37.000000) translate(-109.070354, -31.950186) "></path>
                    <path d="M6.03743751,63 C5.67119885,72.6920355 7.99205302,78.6920355 13,81" id="路径-42" stroke="#90D0EA" stroke-width="2" stroke-linecap="round" mask="url(#mask-6)"></path>
                    <path d="M119.682019,62 C120.734616,69.2671177 119.173943,73.600451 115,75" id="路径-45" stroke="#90D0EA" stroke-width="2" stroke-linecap="round" mask="url(#mask-6)"></path>
                    <path d="M30,69 C28.6666667,74.6480072 28.6666667,78.6480072 30,81" id="路径-46" stroke="#90D0EA" stroke-width="2" stroke-linecap="round" mask="url(#mask-6)"></path>
                    <path d="M97,69 C103.222222,73.8806903 105.296296,77.8806903 103.222222,81" id="路径-47" stroke="#90D0EA" stroke-width="2" stroke-linecap="round" mask="url(#mask-6)"></path>
                </g>
            </g>
        </g>
    </g>
</svg>