<?xml version="1.0" encoding="UTF-8"?>
<svg width="19px" height="18px" viewBox="0 0 19 18" version="1.1" xmlns="http://www.w3.org/2000/svg" xmlns:xlink="http://www.w3.org/1999/xlink">
    <!-- Generator: Sketch 58 (84663) - https://sketch.com -->
    <title>聊天</title>
    <desc>Created with Sketch.</desc>
    <g id="简历投递" stroke="none" stroke-width="1" fill="none" fill-rule="evenodd">
        <g id="简历投递职位详情页" transform="translate(-1309.000000, -258.000000)" fill-rule="nonzero">
            <g id="编组-14" transform="translate(1299.000000, 248.000000)">
                <g id="聊天-3" transform="translate(9.000000, 9.000000)">
                    <g id="聊天">
                        <rect id="矩形" fill="#000000" opacity="0" x="0" y="0" width="21" height="21"></rect>
                        <path d="M16.61541,1.89 L8.243655,1.89 C6.51182057,1.89411181 5.07009127,3.22062673 4.922085,4.94613 L4.384485,4.94613 C2.54152773,4.95052999 1.04999613,6.44584248 1.04999613,8.288805 L1.04999613,13.276305 C1.04769194,14.8000797 2.07728492,16.132118 3.552465,16.513875 C3.62402779,16.5334775 3.67304518,16.5992959 3.671325,16.673475 L3.66513,17.847375 C3.66063658,18.2531459 3.87134406,18.6309578 4.21892955,18.8403727 C4.56651503,19.0497875 4.99900236,19.0594905 5.35563,18.865875 L9.477405,16.639875 C9.5016226,16.6267604 9.52871943,16.6198689 9.55626,16.61982 L13.87512,16.61982 C15.7181423,16.6155355 17.2098887,15.1201723 17.20971,13.277145 L17.20971,8.289645 C17.2098309,6.44664159 15.7181183,4.9513122 13.87512,4.94697 L6.351135,4.94697 C6.49136675,4.0092125 7.29547407,3.314452 8.243655,3.311805 L16.61541,3.311805 C17.6744966,3.31429452 18.5317208,4.17358552 18.53166,5.232675 L18.53166,9.408 C18.5315895,9.85456377 18.3762863,10.2872154 18.09234,10.63188 C17.8419106,10.9335724 17.8834676,11.3811556 18.18516,11.631585 C18.4868524,11.8820144 18.9344356,11.8404574 19.184865,11.538765 C19.6792673,10.9387183 19.9497438,10.1854893 19.95,9.408 L19.95,5.232675 C19.95,3.38967159 18.4584083,1.8943422 16.61541,1.89 Z M15.792,8.288805 L15.792,13.276305 C15.792,14.3354184 14.9348606,15.1947432 13.87575,15.197175 L9.556575,15.197175 C9.29418932,15.1974433 9.03596074,15.26274 8.804985,15.387225 L5.08599,17.396505 L5.089665,16.68135 C5.09599006,15.9560716 4.60802593,15.3195063 3.906,15.13722 C3.05855639,14.9175946 2.46725826,14.1521642 2.46875715,13.276725 L2.46875715,8.289225 C2.46875715,7.23013552 3.32592344,6.37084452 4.38501,6.368355 L13.875855,6.368355 C14.9347606,6.37084423 15.792,7.22989646 15.792,8.288805 L15.792,8.288805 Z M6.89178125,10.917165 C6.89056306,10.505378 6.55597233,10.1724308 6.14418434,10.17324 C5.73239635,10.1740521 5.39911917,10.5083142 5.39952325,10.9201028 C5.39992807,11.3318914 5.73386121,11.6655 6.14565,11.6655 C6.3438499,11.6652774 6.53383589,11.5862933 6.67377754,11.4459381 C6.81371918,11.3055829 6.89214231,11.1153647 6.89178125,10.917165 L6.89178125,10.917165 Z M9.7989156,10.917165 C9.79792969,10.5053089 9.46341955,10.1721452 9.05156284,10.17282 C8.63970613,10.1734968 8.30629114,10.5077565 8.30665713,10.9196136 C8.30702372,11.3314707 8.64103274,11.6651368 9.05289,11.66508 C9.25099881,11.6648295 9.44089408,11.5858908 9.58080094,11.4456295 C9.7207078,11.3053682 9.79916579,11.1152738 9.7989156,10.917165 L9.7989156,10.917165 Z M12.7061555,10.917165 C12.7051697,10.5053226 12.3706809,10.1721645 11.9588378,10.17282 C11.5469948,10.1734774 11.2135697,10.5077001 11.2138971,10.9195436 C11.214225,11.331387 11.5481814,11.66508 11.960025,11.66508 C12.3725822,11.6645584 12.7066192,11.3297223 12.7061555,10.917165 L12.7061555,10.917165 Z" id="形状" fill="#4895EF"></path>
                    </g>
                </g>
            </g>
        </g>
    </g>
</svg>