<?xml version="1.0" encoding="UTF-8"?>
<svg width="20px" height="20px" viewBox="0 0 20 20" version="1.1" xmlns="http://www.w3.org/2000/svg" xmlns:xlink="http://www.w3.org/1999/xlink">
    <!-- Generator: Sketch 58 (84663) - https://sketch.com -->
    <title>加</title>
    <desc>Created with Sketch.</desc>
    <g id="职位搜索优化" stroke="none" stroke-width="1" fill="none" fill-rule="evenodd">
        <g id="报名信息管理页无快速筛选记录" transform="translate(-1241.000000, -664.000000)" fill="#000000" fill-rule="nonzero">
            <g id="编组-8" transform="translate(1240.000000, 663.000000)">
                <g id="加-2">
                    <g id="加">
                        <rect id="矩形" opacity="0" x="0" y="0" width="22" height="22"></rect>
                        <path d="M19.8633574,7.25542383 C19.3788203,6.10985547 18.6853047,5.08116211 17.802082,4.19793945 C16.9188594,3.3147168 15.890166,2.62120117 14.7445762,2.13666406 C13.5581875,1.63485352 12.2983438,1.38041406 11,1.38041406 C9.70165625,1.38041406 8.4418125,1.63485352 7.25542383,2.13664258 C6.10985547,2.62117969 5.08116211,3.31469531 4.19793945,4.19791797 C3.3147168,5.08114063 2.62120117,6.10983398 2.13666406,7.25540234 C1.63485352,8.4418125 1.38041406,9.70165625 1.38041406,11 C1.38041406,12.2983438 1.63485352,13.5581875 2.13664258,14.7445762 C2.62117969,15.8901445 3.31469531,16.9188379 4.19791797,17.802082 C5.08114063,18.6853047 6.10983398,19.3788418 7.25540234,19.8633574 C8.44179102,20.3651465 9.70165625,20.6195859 10.9999785,20.6195859 C12.2983008,20.6195859 13.558166,20.3651465 14.7445547,19.8633574 C15.890123,19.3788203 16.9188164,18.6853047 17.8020605,17.802082 C18.6853047,16.9188594 19.3788203,15.890166 19.8633359,14.7445762 C20.365125,13.5581875 20.6195645,12.2983438 20.6195645,11 C20.6195645,9.70165625 20.3651465,8.4418125 19.8633574,7.25542383 Z M11,19.2554141 C6.44795508,19.2554141 2.74458594,15.5520449 2.74458594,11 C2.74458594,6.44795508 6.44795508,2.74458594 11,2.74458594 C15.5520449,2.74458594 19.2554141,6.44795508 19.2554141,11 C19.2554141,15.5520449 15.5520449,19.2554141 11,19.2554141 Z M15.8984375,10.3125 L11.6875,10.3125 L11.6875,6.1015625 C11.6875,5.76932813 11.3796934,5.5 11,5.5 C10.6203066,5.5 10.3125,5.76932813 10.3125,6.1015625 L10.3125,10.3125 L6.1015625,10.3125 C5.76932813,10.3125 5.5,10.6203066 5.5,11 C5.5,11.3796934 5.76932813,11.6875 6.1015625,11.6875 L10.3125,11.6875 L10.3125,15.8984375 C10.3125,16.2306719 10.6203066,16.5 11,16.5 C11.3796934,16.5 11.6875,16.2306719 11.6875,15.8984375 L11.6875,11.6875 L15.8984375,11.6875 C16.2306719,11.6875 16.5,11.3796934 16.5,11 C16.5,10.6203066 16.2306719,10.3125 15.8984375,10.3125 Z" id="形状"></path>
                    </g>
                </g>
            </g>
        </g>
    </g>
</svg>