<?xml version="1.0" encoding="UTF-8"?>
<svg width="19px" height="19px" viewBox="0 0 19 19" version="1.1" xmlns="http://www.w3.org/2000/svg" xmlns:xlink="http://www.w3.org/1999/xlink">
    <!-- Generator: Sketch 58 (84663) - https://sketch.com -->
    <title>删除</title>
    <desc>Created with Sketch.</desc>
    <g id="职位搜索优化" stroke="none" stroke-width="1" fill="none" fill-rule="evenodd">
        <g id="报名信息管理页（全部）" transform="translate(-1410.000000, -311.000000)" fill="#000000" fill-rule="nonzero">
            <g id="编组-8" transform="translate(1205.000000, 308.000000)">
                <g id="编组-7" transform="translate(204.000000, 2.000000)">
                    <g id="删除-2">
                        <g id="删除">
                            <rect id="矩形" opacity="0" x="0" y="0" width="21" height="21"></rect>
                            <path d="M5.2742282,16.5357648 L5.27019896,16.4045148 C5.27019896,16.4492374 5.27181058,16.4928097 5.2742282,16.5357648 Z M12.5957126,5.31227527 C12.1421471,5.31227527 11.7744344,5.67958923 11.7744344,6.13355345 L11.7820523,16.4317753 C11.7820523,16.884942 12.149765,17.2530744 12.6033304,17.2530744 C13.0568959,17.2530744 13.4246296,16.884942 13.4246296,16.4317753 L13.4174315,6.13355345 C13.4174315,5.67961023 13.0496978,5.31227527 12.5957126,5.31227527 Z M18.3182807,2.87326692 L11.7785057,2.87630985 L11.7748542,2.02714159 C11.7748542,1.57317737 11.4070785,1.20584244 10.9531563,1.20584244 C10.8035697,1.20584244 10.6634477,1.2460092 10.5426326,1.31584985 C10.4217546,1.2460092 10.2815696,1.20584244 10.1318361,1.20584244 C9.67829162,1.20584244 9.31055795,1.57317739 9.31055795,2.02714159 L9.31441932,2.87746407 L4.59524393,2.87964659 C4.52903382,2.86243826 4.45961289,2.8532465 4.38803043,2.8532465 C4.31619614,2.8532465 4.24654437,2.8625222 4.18014538,2.87983547 L2.68169834,2.880528 C2.22815383,2.880528 1.86039919,3.2486604 1.86039919,3.70180617 C1.86039919,4.15577039 2.22813287,4.52310532 2.68169834,4.52310532 L3.56715099,4.52268561 L3.57315293,17.1945241 L3.57437011,17.1945241 L3.57437011,18.0671545 C3.57437011,18.9742854 4.30983746,19.7097318 5.21694744,19.7097318 L6.03824659,19.7097318 L6.03824659,19.7159436 L15.0724114,19.7106761 L15.0724114,19.7097318 L15.8937106,19.7097318 C16.7891525,19.7097318 17.5168341,18.9929837 17.5354485,18.1020118 L17.528691,6.13838014 C17.528691,5.68443693 17.1609784,5.31710197 16.7073919,5.31710197 C16.2538474,5.31710197 15.8861137,5.68443693 15.8861137,6.13838014 L15.8920107,16.5835023 C15.8631553,17.8204247 15.5106783,18.047092 14.251511,18.047092 L15.1041419,18.0680568 L5.78452861,18.0735131 L6.85910505,18.047092 C5.57295006,18.047092 5.23272873,17.8107922 5.21715729,16.5026861 L5.22727244,18.0738279 L5.21612899,18.0738279 L5.20970734,4.52188812 L10.0664235,4.51964264 C10.0904942,4.52176221 10.1148376,4.52306332 10.139454,4.52306332 C10.1643851,4.52306332 10.1890014,4.52176221 10.2133659,4.51957968 L10.882728,4.51926489 C10.9084356,4.52169925 10.934437,4.5230633 10.9607741,4.5230633 C10.9874261,4.5230633 11.0137422,4.52167825 11.0397646,4.51920193 L18.3182598,4.5158442 C18.7718043,4.5158442 19.1396009,4.14850925 19.1396009,3.69456603 C19.1396009,3.24060187 18.7718252,2.87326692 18.3182807,2.87326692 Z M15.9688271,16.7199099 L15.9736623,18.0675952 L15.9133576,18.0675952 L15.9688271,16.7199099 Z M8.48927978,5.31227527 C8.03571429,5.31227527 7.66798063,5.67958923 7.66798063,6.13355345 L7.67559846,16.4317753 C7.67559846,16.884942 8.04333214,17.2530744 8.49691861,17.2530744 C8.95046312,17.2530744 9.31819678,16.884942 9.31819678,16.4317753 L9.31057895,6.13355345 C9.31055795,5.67961023 8.94282426,5.31227527 8.48927978,5.31227527 Z" id="形状"></path>
                        </g>
                    </g>
                </g>
            </g>
        </g>
    </g>
</svg>