<?xml version="1.0" encoding="UTF-8"?>
<svg width="26px" height="26px" viewBox="0 0 26 26" version="1.1" xmlns="http://www.w3.org/2000/svg" xmlns:xlink="http://www.w3.org/1999/xlink">
    <!-- Generator: Sketch 58 (84663) - https://sketch.com -->
    <title>向左边</title>
    <desc>Created with Sketch.</desc>
    <g id="活动版块" stroke="none" stroke-width="1" fill="none" fill-rule="evenodd">
        <g id="报名信息管理页（查看报名表default）" transform="translate(-668.000000, -297.000000)" fill-rule="nonzero">
            <g id="编组-46" transform="translate(651.000000, 280.000000)">
                <g id="编组-45" transform="translate(13.000000, 16.000000)">
                    <g id="向左边-2" transform="translate(3.000000, 0.000000)">
                        <g id="向左边">
                            <rect id="矩形" fill="#000000" opacity="0" x="0" y="0" width="29" height="29"></rect>
                            <path d="M14.2734375,21.0986328 C14.0412109,21.0986328 13.8089844,21.0108398 13.6333984,20.8324219 L7.74277344,14.9417969 C7.38876953,14.587793 7.38876953,14.0128906 7.74277344,13.6588867 L13.6333984,7.76826172 C13.9874023,7.41425781 14.5623047,7.41425781 14.9163086,7.76826172 C15.2703125,8.12226563 15.2703125,8.69716797 14.9163086,9.05117188 L9.66572266,14.3017578 L14.9163086,19.5523437 C15.2703125,19.9063477 15.2703125,20.48125 14.9163086,20.8352539 C14.7378906,21.0108398 14.5056641,21.0986328 14.2734375,21.0986328 L14.2734375,21.0986328 Z" id="路径" fill="#4895EF"></path>
                            <path d="M14.2734375,26.9892578 C12.5600586,26.9892578 10.9004883,26.6550781 9.334375,25.9923828 C7.82207031,25.3523438 6.46552734,24.4375977 5.3015625,23.2736328 C4.13759766,22.109668 3.22285156,20.753125 2.5828125,19.2408203 C1.92011719,17.674707 1.5859375,16.0151367 1.5859375,14.3017578 C1.5859375,12.5883789 1.92011719,10.9288086 2.5828125,9.36269531 C3.22285156,7.85039063 4.13759766,6.49384766 5.3015625,5.32988281 C6.46552734,4.16591797 7.82207031,3.25117188 9.334375,2.61113281 C10.9004883,1.9484375 12.5600586,1.61425781 14.2734375,1.61425781 C15.9868164,1.61425781 17.6463867,1.9484375 19.2125,2.61113281 C20.7248047,3.25117188 22.0813477,4.16591797 23.2453125,5.32988281 C24.4092773,6.49384766 25.3240234,7.85039063 25.9640625,9.36269531 C26.6267578,10.9288086 26.9609375,12.5883789 26.9609375,14.3017578 C26.9609375,16.0151367 26.6267578,17.674707 25.9640625,19.2408203 C25.3240234,20.753125 24.4092773,22.109668 23.2453125,23.2736328 C22.0813477,24.4375977 20.7248047,25.3523438 19.2125,25.9923828 C17.6463867,26.6550781 15.9868164,26.9892578 14.2734375,26.9892578 Z M14.2734375,3.42675781 C8.27802734,3.42675781 3.3984375,8.30634766 3.3984375,14.3017578 C3.3984375,20.297168 8.27802734,25.1767578 14.2734375,25.1767578 C20.2688477,25.1767578 25.1484375,20.297168 25.1484375,14.3017578 C25.1484375,8.30634766 20.2688477,3.42675781 14.2734375,3.42675781 Z" id="形状" fill="#4895EF"></path>
                            <path d="M20.1640625,15.2080078 L9.36552734,15.2080078 C8.86425781,15.2080078 8.45927734,14.8030273 8.45927734,14.3017578 C8.45927734,13.8004883 8.86425781,13.3955078 9.36552734,13.3955078 L20.1640625,13.3955078 C20.665332,13.3955078 21.0703125,13.8004883 21.0703125,14.3017578 C21.0703125,14.8030273 20.665332,15.2080078 20.1640625,15.2080078 Z" id="路径" fill="#4895EF"></path>
                        </g>
                    </g>
                </g>
            </g>
        </g>
    </g>
</svg>