<?xml version="1.0" encoding="UTF-8"?>
<svg width="14px" height="19px" viewBox="0 0 14 19" version="1.1" xmlns="http://www.w3.org/2000/svg" xmlns:xlink="http://www.w3.org/1999/xlink">
    <!-- Generator: Sketch 58 (84663) - https://sketch.com -->
    <title>PDF</title>
    <desc>Created with Sketch.</desc>
    <g id="简历板块" stroke="none" stroke-width="1" fill="none" fill-rule="evenodd">
        <g id="简历板块问号" transform="translate(-1286.000000, -436.000000)" fill-rule="nonzero">
            <g id="编组-38" transform="translate(1283.000000, 436.000000)">
                <g id="PDF-2">
                    <g id="PDF">
                        <rect id="矩形" fill="#000000" opacity="0" x="0" y="0" width="20" height="20"></rect>
                        <path d="M12.1269531,1.3125 L4.61914062,1.3125 C4.02734375,1.3125 3.546875,1.80078125 3.546875,2.40429688 L3.546875,17.6914062 C3.546875,18.2949219 4.02734375,18.7832031 4.61914062,18.7832031 L15.3417969,18.7832031 C15.9335937,18.7832031 16.4140625,18.2949219 16.4140625,17.6914062 L16.4140625,5.6796875 L12.1269531,1.3125 Z" id="路径" fill="#FF4242"></path>
                        <polygon id="路径" fill="#FFFFFF" points="15.6640625 18.0839844 4.29882812 18.0839844 4.29882812 2.14257812 11.7128906 2.14257812 11.7128906 6.41796875 15.6640625 6.41796875"></polygon>
                        <polygon id="路径" fill="#FF6464" points="15.6640625 18.0195312 4.29882812 18.0195312 4.29882812 2.078125 11.7128906 2.078125 11.7128906 6.3515625 15.6640625 6.3515625"></polygon>
                        <path d="M6.81445312,12.703125 C7.5,12.703125 7.84179688,12.9941406 7.84179688,13.578125 C7.84179688,14.1660156 7.49414062,14.4609375 6.8046875,14.4609375 L6.05859375,14.4609375 L6.05859375,15.5820312 L5.61914062,15.5820312 L5.61914062,12.703125 L6.81445312,12.703125 Z M6.06054687,14.0859375 L6.77734375,14.0859375 C6.99414062,14.0859375 7.15234375,14.0449219 7.25390625,13.9648437 C7.3515625,13.8847656 7.40234375,13.7558594 7.40234375,13.578125 C7.40234375,13.4003906 7.34960938,13.2714844 7.25,13.1992188 C7.1484375,13.1191406 6.9921875,13.078125 6.77734375,13.078125 L6.06054687,13.078125 L6.06054687,14.0859375 L6.06054687,14.0859375 Z M9.29882812,12.703125 C9.76171875,12.703125 10.1132812,12.8320312 10.3554688,13.09375 C10.5820313,13.3359375 10.6933594,13.6855469 10.6933594,14.1425781 C10.6933594,14.59375 10.5761719,14.9453125 10.3457031,15.1953125 C10.1035156,15.453125 9.75390625,15.5820312 9.2890625,15.5820312 L8.24804688,15.5820312 L8.24804688,12.703125 L9.29882812,12.703125 Z M8.68945312,15.2070312 L9.20898438,15.2070312 C9.57226563,15.2070312 9.84179688,15.1191406 10.0117188,14.9453125 C10.1777344,14.7714844 10.2617188,14.5058594 10.2617188,14.1425781 C10.2617188,13.7714844 10.1777344,13.5058594 10.015625,13.3359375 C9.84570312,13.1621094 9.58007812,13.078125 9.21679688,13.078125 L8.68945312,13.078125 L8.68945312,15.2070312 L8.68945312,15.2070312 Z M13.0957031,12.703125 L13.0957031,13.078125 L11.5800781,13.078125 L11.5800781,13.9160156 L13.0117187,13.9160156 L13.0117187,14.2910156 L11.5800781,14.2910156 L11.5800781,15.5820313 L11.140625,15.5820313 L11.140625,12.703125 L13.0957031,12.703125 Z" id="形状" fill="#FFFFFF"></path>
                    </g>
                </g>
            </g>
        </g>
    </g>
</svg>