<?xml version="1.0" encoding="UTF-8"?>
<svg width="17px" height="16px" viewBox="0 0 17 16" version="1.1" xmlns="http://www.w3.org/2000/svg" xmlns:xlink="http://www.w3.org/1999/xlink">
    <!-- Generator: Sketch 58 (84663) - https://sketch.com -->
    <title>编组 34</title>
    <desc>Created with Sketch.</desc>
    <g id="简历板块" stroke="none" stroke-width="1" fill="none" fill-rule="evenodd">
        <g id="简历板块问号" transform="translate(-1431.000000, -220.000000)" fill-rule="nonzero">
            <g id="编组-35" transform="translate(1430.000000, 218.000000)">
                <g id="编组-43">
                    <g id="编组-34">
                        <rect id="矩形" fill="#000000" opacity="0" x="0" y="0" width="20" height="20"></rect>
                        <path d="M9.91,17.5066667 C6.68,17.5066667 3.90333334,15.3666667 2.53666666,14.09 C2.12,13.7 1.88333334,13.1533333 1.88333334,12.58 C1.88333334,12.0066667 2.12333334,11.46 2.53666666,11.07 C3.90333332,9.79333334 6.68,7.65333334 9.91,7.65333334 C13.13,7.65333334 15.9,9.78333334 17.2633333,11.05 C17.6866667,11.4433333 17.93,12 17.93,12.5766667 C17.93,13.1533333 17.6866667,13.71 17.2633333,14.1033333 C15.8966667,15.3766667 13.1266667,17.5066667 9.91,17.5066667 Z M9.91,8.98666666 C7.13666666,8.98666666 4.67,10.9033333 3.44666666,12.0433333 C3.29666666,12.1833333 3.21666666,12.3733333 3.21666666,12.5766667 C3.21666666,12.78 3.3,12.9733333 3.44666666,13.11 C4.67,14.2533333 7.13666666,16.1666667 9.91,16.1666667 C12.6733333,16.1666667 15.1333333,14.2633333 16.3533333,13.1266667 C16.51,12.98 16.5966667,12.7833333 16.5966667,12.5733333 C16.5966667,12.3633333 16.51,12.1666667 16.3533333,12.0233333 C15.1333333,10.8933333 12.6733333,8.98666666 9.91,8.98666666 Z M9.96,6.30666666 C9.59333334,6.30666666 9.29333334,6.00666666 9.29333334,5.64 L9.29333334,4 C9.29333334,3.63333334 9.59333334,3.33333334 9.96,3.33333334 C10.3266667,3.33333334 10.6266667,3.63333334 10.6266667,4 L10.6266667,5.64 C10.6266667,6.00818983 10.3281898,6.30666666 9.96,6.30666666 Z M15.2733333,7.65333334 C15.003732,7.65224806 14.7612111,7.48920321 14.6584496,7.23995207 C14.5556882,6.99070092 14.6128329,6.7041097 14.8033333,6.51333334 L15.9633333,5.35333334 C16.2233333,5.09333334 16.6466667,5.09333334 16.9066667,5.35333334 C17.1666666,5.61333334 17.1666667,6.03666668 16.9066667,6.29666666 L15.7466667,7.45666666 C15.6166667,7.58666666 15.4433333,7.65333334 15.2733333,7.65333334 L15.2733333,7.65333334 Z M4.64333334,7.65333365 C4.47333334,7.65333365 4.30333334,7.58666668 4.17333334,7.45666666 L3.01333334,6.29666666 C2.75333334,6.03666666 2.75333334,5.61333332 3.01333334,5.35333334 C3.27333334,5.09333336 3.69666668,5.09333334 3.95666666,5.35333334 L5.11666666,6.51333334 C5.30759208,6.7045394 5.36452282,6.99193604 5.26090769,7.24148799 C5.15729255,7.49103994 4.91354105,7.65359191 4.64333334,7.65333365 L4.64333334,7.65333365 Z M10.19,14.6033333 C8.66333334,14.6033333 7.42,13.36 7.42,11.8333333 L8.75333334,11.8333333 C8.75333334,12.6267824 9.39655091,13.27 10.19,13.27 C10.9834491,13.27 11.6266667,12.6267824 11.6266667,11.8333333 L12.96,11.8333333 C12.96,13.36 11.7166667,14.6033333 10.19,14.6033333 L10.19,14.6033333 Z" id="形状" fill="#4895EF"></path>
                    </g>
                </g>
            </g>
        </g>
    </g>
</svg>