<?xml version="1.0" encoding="UTF-8"?>
<svg width="10px" height="11px" viewBox="0 0 10 11" version="1.1" xmlns="http://www.w3.org/2000/svg" xmlns:xlink="http://www.w3.org/1999/xlink">
    <!-- Generator: Sketch 58 (84663) - https://sketch.com -->
    <title>问号</title>
    <desc>Created with Sketch.</desc>
    <g id="活动版块" stroke="none" stroke-width="1" fill="none" fill-rule="evenodd">
        <g id="活动发布页（未选中）" transform="translate(-431.000000, -261.000000)" fill-rule="nonzero">
            <g id="问号-2" transform="translate(430.000000, 261.000000)">
                <g id="问号">
                    <rect id="矩形" fill="#000000" opacity="0" x="0" y="0" width="12" height="12"></rect>
                    <path d="M6,0.954 C3.26619049,0.954 1.05,3.17019049 1.05,5.904 C1.05,8.63780951 3.26619049,10.854 6,10.854 C8.73380951,10.854 10.95,8.63780951 10.95,5.904 C10.95,4.59117838 10.4284836,3.33212651 9.50017857,2.40382143 C8.57187349,1.47551636 7.31282162,0.954 6,0.954 Z M6.312,8.334 C6.21309745,8.42734355 6.08199219,8.47892595 5.946,8.478 C5.80852352,8.48067216 5.67606008,8.42638386 5.58,8.328 C5.48254316,8.23378681 5.42827349,8.10353959 5.43,7.968 C5.42441783,7.831743 5.47931882,7.6999806 5.58,7.608 C5.67707498,7.51181612 5.80941001,7.45974988 5.946,7.464 C6.08452679,7.4587984 6.21908019,7.51088359 6.318,7.608 C6.41868118,7.6999806 6.47358217,7.831743 6.468,7.968 C6.47005406,8.10831001 6.41351919,8.24312393 6.312,8.34 L6.312,8.334 Z M7.332,5.574 C7.14253299,5.76912992 6.94221511,5.95342237 6.732,6.126 C6.60862445,6.22524261 6.50830653,6.35012818 6.438,6.492 C6.3603405,6.63558313 6.32107294,6.79678681 6.324,6.96 L6.324,7.08 L5.574,7.08 L5.574,6.96 C5.56558844,6.72752955 5.61507084,6.49661172 5.718,6.288 C5.93162199,5.95064988 6.19918029,5.65066027 6.51,5.4 L6.63,5.268 C6.75272959,5.12350384 6.82256633,4.94150506 6.828,4.752 C6.82448509,4.54579936 6.74302384,4.34857739 6.6,4.2 C6.43660976,4.05177206 6.22016435,3.97601617 6,3.99 C5.73286769,3.96766459 5.47277135,4.08301166 5.31,4.296 C5.17121752,4.50954478 5.10397442,4.7617064 5.118,5.016 L4.398,5.016 C4.37788367,4.57245512 4.53802813,4.13963225 4.842,3.816 C5.17235877,3.5027307 5.61747554,3.3398831 6.072,3.366 C6.47792982,3.33127368 6.8817023,3.45369406 7.2,3.708 C7.4890723,3.96344359 7.64590492,4.33674941 7.626,4.722 C7.62841744,5.03311083 7.52471498,5.33575273 7.332,5.58 L7.332,5.574 Z" id="形状" fill="#CCCCCC"></path>
                </g>
            </g>
        </g>
    </g>
</svg>