<?xml version="1.0" encoding="UTF-8"?>
<svg width="17px" height="19px" viewBox="0 0 17 19" version="1.1" xmlns="http://www.w3.org/2000/svg" xmlns:xlink="http://www.w3.org/1999/xlink">
    <!-- Generator: Sketch 58 (84663) - https://sketch.com -->
    <title>编组 32</title>
    <desc>Created with Sketch.</desc>
    <g id="简历板块" stroke="none" stroke-width="1" fill="none" fill-rule="evenodd">
        <g id="简历板块问号" transform="translate(-1303.000000, -218.000000)" fill-rule="nonzero">
            <g id="编组-33" transform="translate(1302.000000, 218.000000)">
                <g id="编组-40">
                    <g id="编组-32">
                        <rect id="矩形" fill="#000000" opacity="0" x="0" y="0" width="20" height="20"></rect>
                        <path d="M16.3294922,8.44871094 L8.26173828,16.5164453 L8.13826172,17.5094727 C8.09152229,17.7519526 8.15628131,18.002598 8.31462891,18.1920898 C8.44661209,18.3208793 8.62841736,18.3853407 8.81205078,18.368457 L8.99724609,18.368457 L9.99027344,18.245 L18.0580078,10.1772656 L16.3294922,8.44871094 Z M6.58613281,17.1355469 L3.91744141,17.1355469 C3.72790923,17.1456059 3.54231788,17.0788767 3.40258514,16.9504306 C3.2628524,16.8219846 3.18076501,16.6426564 3.17486328,16.4529492 L3.17486328,3.54529297 C3.18074417,3.35526035 3.26307205,3.17564432 3.40319345,3.04714149 C3.54331484,2.91863867 3.72936851,2.85212677 3.91919922,2.86267578 L14.8408203,2.86267578 C15.030651,2.85212677 15.2167047,2.91863867 15.3568261,3.04714149 C15.4969475,3.17564432 15.5792754,3.35526035 15.5851563,3.54529297 L15.5851563,6.58611328 C15.5598661,6.82241859 15.6716889,7.05242741 15.8731519,7.1784927 C16.0746149,7.304558 16.3303656,7.304558 16.5318285,7.1784927 C16.7332915,7.05242741 16.8451144,6.82241859 16.8198242,6.58611328 L16.8198242,3.5453125 C16.8152218,3.02700554 16.603422,2.53208865 16.2316493,2.17091233 C15.8598765,1.80973601 15.3590437,1.61233193 14.8408203,1.62271484 L3.91746094,1.62271484 C3.399539,1.61280739 2.89916108,1.81042253 2.52777157,2.17154733 C2.15638206,2.53267214 1.94482369,3.02731631 1.94021484,3.5453125 L1.94021484,16.4529297 C1.94432405,16.9727889 2.15688887,17.4692527 2.53025184,17.831013 C2.90361482,18.1927733 3.40653962,18.3895645 3.92626953,18.3772656 L6.58613281,18.3772656 C6.90168787,18.3435411 7.14101448,18.0772739 7.14101448,17.7599219 C7.14101448,17.4425698 6.90168787,17.1763026 6.58613281,17.1425781 L6.58613281,17.1355469 Z M13.7225586,5.34615234 C13.7186658,5.17179454 13.6434266,5.00666491 13.5144082,4.88931906 C13.3853897,4.77197321 13.2138862,4.71268338 13.0399414,4.72529297 L5.71832031,4.72529297 C5.47844907,4.69378549 5.2420427,4.80408034 5.11207303,5.00813626 C4.98210335,5.21219218 4.98210335,5.47306173 5.11207303,5.67711765 C5.2420427,5.88117357 5.47844907,5.99146842 5.71832031,5.95996094 L13.0399414,5.95996094 C13.2126972,5.97253793 13.3831213,5.91419215 13.5119208,5.79837579 C13.6407203,5.68255942 13.7167782,5.51926886 13.7225586,5.34615234 L13.7225586,5.34615234 Z M6.89654297,12.7930273 L5.661875,12.7930273 C5.34635984,12.8267948 5.10708464,13.0930444 5.10708464,13.4103613 C5.10708464,13.7276783 5.34635984,13.9939279 5.661875,14.0276953 L6.89654297,14.0276953 C7.13283005,14.0529481 7.36280367,13.9411144 7.48884732,13.7396639 C7.61489096,13.5382135 7.61489096,13.2824897 7.48884732,13.0810392 C7.36280367,12.8795887 7.13283005,12.767755 6.89654297,12.7930078 L6.89654297,12.7930273 Z M5.71832031,8.44871094 C5.47846321,8.41723471 5.24208574,8.5275392 5.11213398,8.73158509 C4.98218221,8.93563097 4.98218221,9.19647841 5.11213398,9.40052429 C5.24208574,9.60457017 5.47846321,9.71487466 5.71832031,9.68339844 L11.1861719,9.68339844 C11.426029,9.71487466 11.6624064,9.60457017 11.7923582,9.40052429 C11.92231,9.19647841 11.92231,8.93563097 11.7923582,8.73158509 C11.6624064,8.5275392 11.426029,8.41723471 11.1861719,8.44871094 L5.71832031,8.44871094 Z" id="形状" fill="#4895EF"></path>
                    </g>
                </g>
            </g>
        </g>
    </g>
</svg>