<?xml version="1.0" encoding="UTF-8"?>
<svg width="21px" height="16px" viewBox="0 0 21 16" version="1.1" xmlns="http://www.w3.org/2000/svg" xmlns:xlink="http://www.w3.org/1999/xlink">
    <!-- Generator: Sketch 58 (84663) - https://sketch.com -->
    <title>心</title>
    <desc>Created with Sketch.</desc>
    <g id="登陆注册页面" stroke="none" stroke-width="1" fill="none" fill-rule="evenodd">
        <g id="注册页面推荐备份" transform="translate(-916.000000, -653.000000)" fill-rule="nonzero">
            <g id="编组-8" transform="translate(804.000000, 645.000000)">
                <g id="编组-12" transform="translate(95.000000, 0.000000)">
                    <g id="编组-10" transform="translate(15.000000, 4.000000)">
                        <g id="心-2备份">
                            <g id="心">
                                <rect id="矩形" fill="#000000" opacity="0" x="0" y="0" width="23" height="23"></rect>
                                <path d="M15.741889,3.49363131 C14.0625096,3.49363131 12.5008794,5.12646726 11.4732691,6.35201932 C10.4459806,5.12619144 8.88471816,3.49363131 7.2044424,3.49363131 C4.17693506,3.49363131 1.71401692,5.86955344 1.71401692,8.78990744 C1.71401692,10.5321952 2.59622778,11.7544835 3.30525105,12.7365846 C5.3661028,15.5890886 10.5481004,19.1388249 10.7675556,19.2884764 C10.9789203,19.4325427 11.2263016,19.5047598 11.4728554,19.5047598 C11.7200528,19.5047598 11.9669514,19.4325427 12.1780633,19.2884764 C12.3977943,19.1388249 17.5802516,15.5890886 19.6404598,12.7365846 C20.3499198,11.7545065 21.2323375,10.5321952 21.2323375,8.78990744 C21.2323375,5.86953046 18.7693734,3.49363131 15.741889,3.49363131 L15.741889,3.49363131 Z" id="路径" fill="#FF3D00"></path>
                            </g>
                        </g>
                    </g>
                </g>
            </g>
        </g>
    </g>
</svg>