<?xml version="1.0" encoding="UTF-8"?>
<svg width="20px" height="20px" viewBox="0 0 20 20" version="1.1" xmlns="http://www.w3.org/2000/svg" xmlns:xlink="http://www.w3.org/1999/xlink">
    <!-- Generator: Sketch 58 (84663) - https://sketch.com -->
    <title>添加</title>
    <desc>Created with Sketch.</desc>
    <g id="活动版块" stroke="none" stroke-width="1" fill="none" fill-rule="evenodd">
        <g id="活动详情页举报弹窗" transform="translate(-765.000000, -523.000000)" fill-rule="nonzero">
            <g id="添加-2" transform="translate(764.000000, 522.000000)">
                <g id="添加">
                    <rect id="矩形" fill="#000000" opacity="0" x="0" y="0" width="22" height="22"></rect>
                    <path d="M19.8257812,7.27246094 C19.3423828,6.13164063 18.6527344,5.10683594 17.7740234,4.228125 C16.8953125,3.34941406 15.8705078,2.65761719 14.7296875,2.17636719 C13.5480469,1.67578125 12.2933594,1.42441406 11.0021484,1.42441406 C9.70878906,1.42441406 8.45410156,1.67792969 7.27460937,2.17636719 C6.13378906,2.65976562 5.10898437,3.34941406 4.23027344,4.228125 C3.3515625,5.10683594 2.65976562,6.13164063 2.17851562,7.27246094 C1.67792969,8.45410156 1.4265625,9.70878906 1.4265625,11 C1.4265625,12.2933594 1.68007812,13.5480469 2.17851562,14.7275391 C2.66191406,15.8683594 3.3515625,16.8931641 4.23027344,17.771875 C5.10898437,18.6505859 6.13378906,19.3423828 7.27460937,19.8236328 C8.45625,20.3242188 9.7109375,20.5755859 11.0021484,20.5755859 C12.2955078,20.5755859 13.5501953,20.3220703 14.7296875,19.8236328 C15.8705078,19.3402344 16.8953125,18.6505859 17.7740234,17.771875 C18.6527344,16.8931641 19.3445312,15.8683594 19.8257812,14.7275391 C20.3263672,13.5458984 20.5777344,12.2912109 20.5777344,11 C20.5777344,9.70664063 20.3242187,8.45195313 19.8257812,7.27246094 Z M16.8007812,16.8007812 C15.2517578,18.3498047 13.1914063,19.2027344 11,19.2027344 C8.80859375,19.2027344 6.74824219,18.3498047 5.19921875,16.8007812 C3.65019531,15.2517578 2.79726562,13.1914062 2.79726562,11 C2.79726562,8.80859375 3.65019531,6.74824219 5.19921875,5.19921875 C6.74824219,3.65019531 8.80859375,2.79726562 11,2.79726562 C13.1914063,2.79726562 15.2517578,3.65019531 16.8007812,5.19921875 C18.3498047,6.74824219 19.2027344,8.80859375 19.2027344,11 C19.2027344,13.1914062 18.3498047,15.2517578 16.8007812,16.8007812 Z M15.2087891,10.1685547 L12.0462891,10.1685547 L12.0462891,7.00605469 C12.0462891,6.62578125 11.7390625,6.31855469 11.3587891,6.31855469 C10.9785156,6.31855469 10.6712891,6.62578125 10.6712891,7.00605469 L10.6712891,10.1685547 L7.50664062,10.1685547 C7.12636719,10.1685547 6.81914062,10.4757813 6.81914062,10.8560547 C6.81914062,11.2363281 7.12636719,11.5435547 7.50664062,11.5435547 L10.6712891,11.5435547 L10.6712891,14.7082031 C10.6712891,15.0884766 10.9785156,15.3957031 11.3587891,15.3957031 C11.7390625,15.3957031 12.0462891,15.0884766 12.0462891,14.7082031 L12.0462891,11.5435547 L15.2087891,11.5435547 C15.5890625,11.5435547 15.8962891,11.2363281 15.8962891,10.8560547 C15.8962891,10.4757812 15.5890625,10.1685547 15.2087891,10.1685547 L15.2087891,10.1685547 Z" id="形状" fill="#4895EF"></path>
                </g>
            </g>
        </g>
    </g>
</svg>