<?xml version="1.0" encoding="UTF-8"?>
<svg width="20px" height="18px" viewBox="0 0 20 18" version="1.1" xmlns="http://www.w3.org/2000/svg" xmlns:xlink="http://www.w3.org/1999/xlink">
    <!-- Generator: Sketch 58 (84663) - https://sketch.com -->
    <title>编组 41</title>
    <desc>Created with Sketch.</desc>
    <g id="简历板块" stroke="none" stroke-width="1" fill="none" fill-rule="evenodd">
        <g id="简历板块问号" transform="translate(-1301.000000, -274.000000)" fill-rule="nonzero">
            <g id="编组-42" transform="translate(1301.000000, 274.000000)">
                <g id="编组-44">
                    <g id="编组-41">
                        <rect id="矩形" fill="#000000" opacity="0" x="0" y="0" width="20" height="20"></rect>
                        <path d="M16.0000586,7.92283203 C16.0000586,4.60916016 13.3137109,1.92302734 10.0000391,1.92302734 C6.68636719,1.92302734 4.00013672,4.60916016 4.00013672,7.92283203 C1.79105469,7.92283203 0.00013671875,9.71365234 0.00013671875,11.9228516 C0.00013671875,14.1320508 1.79105469,15.9228711 4.00013672,15.9228711 L6.00013672,15.9228711 L6.00013672,14.3228516 L4.00013672,14.3228516 C2.67679687,14.3228516 1.60013672,13.2462891 1.60013672,11.9228516 C1.60013672,10.5993945 2.67679687,9.52283203 4.00013672,9.52283203 L5.60013672,9.52283203 L5.60013672,7.92283203 C5.60013672,5.49666016 7.57386719,3.52283203 10.0000391,3.52283203 C12.4262305,3.52283203 14.4000586,5.49666016 14.4000586,7.92283203 L14.4000586,9.52283203 L16.0000586,9.52283203 C17.3234961,9.52283203 18.3998828,10.5993945 18.3998828,11.9228516 C18.3998828,13.2462891 17.3234961,14.3228516 16.0000586,14.3228516 L14.0000586,14.3228516 L14.0000586,15.9228711 L16.0000586,15.9228711 C18.2088477,15.9228711 19.9998828,14.1320508 19.9998828,11.9228516 C19.9998828,9.71365234 18.2088477,7.92283203 16.0000586,7.92283203 Z" id="路径" fill="#4895EF"></path>
                        <polygon id="路径" fill="#4895EF" points="9.98814453 18.0769727 14.3100391 13.4281445 13.0514258 12.2562695 10.8875586 14.5847852 10.8875586 8.01210937 9.08755859 8.01210937 9.08755859 14.5837891 6.92359375 12.2562695 5.66517578 13.4281445"></polygon>
                    </g>
                </g>
            </g>
        </g>
    </g>
</svg>