<?xml version="1.0" encoding="UTF-8"?>
<svg width="29px" height="23px" viewBox="0 0 29 23" version="1.1" xmlns="http://www.w3.org/2000/svg" xmlns:xlink="http://www.w3.org/1999/xlink">
    <!-- Generator: Sketch 58 (84663) - https://sketch.com -->
    <title>编组 15</title>
    <desc>Created with Sketch.</desc>
    <g id="简历投递" stroke="none" stroke-width="1" fill="none" fill-rule="evenodd">
        <g id="简历投递职位详情页申请岗位浏览简历" transform="translate(-1306.000000, -112.000000)" fill-rule="nonzero">
            <g id="编组-98" transform="translate(534.000000, 102.000000)">
                <g id="编组-97" transform="translate(62.000000, 7.000000)">
                    <g id="编组-16" transform="translate(710.000000, 0.000000)">
                        <g id="编组-15">
                            <rect id="矩形" fill="#000000" opacity="0" x="0" y="0" width="29" height="29"></rect>
                            <path d="M23.2001813,11.5712452 C23.2001813,6.83737542 19.3049277,3 14.5000425,3 C9.69515726,3 5.80007363,6.83737542 5.80007363,11.5712452 C2.59686402,11.5712452 0,14.1295885 0,17.2856226 C0,20.4416567 2.59686402,23 5.80007363,23 L8.70011045,23 L8.70011045,20.7142323 L5.80007363,20.7142323 C3.8812065,20.7142323 2.32002945,19.1762687 2.32002945,17.2856226 C2.32002945,15.3949486 3.8812065,13.856985 5.80007363,13.856985 L8.12010309,13.856985 L8.12010309,11.5712452 C8.12010309,8.10524671 10.9820486,5.28546078 14.5000425,5.28546078 C18.0180647,5.28546078 20.8801518,8.10524671 20.8801518,11.5712452 L20.8801518,13.856985 L23.2001813,13.856985 C25.11919,13.856985 26.6799705,15.3949486 26.6799705,17.2856226 C26.6799705,19.1762687 25.11919,20.7142323 23.2001813,20.7142323 L20.3001444,20.7142323 L20.3001444,23 L23.2001813,23 C26.4029661,23 29,20.4416567 29,17.2856226 C29,14.1295885 26.4029661,11.5712452 23.2001813,11.5712452 Z" id="路径" fill="#4F69ED"></path>
                            <polygon id="路径" fill="#4F69ED" points="14.5008077 26 21 19.0716971 19.1073185 17.3252128 15.8533314 20.795477 15.8533314 11 13.1465217 11 13.1465217 20.7939925 9.89238778 17.3252128 8 19.0716971"></polygon>
                        </g>
                    </g>
                </g>
            </g>
        </g>
    </g>
</svg>