<?xml version="1.0" encoding="UTF-8"?>
<svg width="18px" height="19px" viewBox="0 0 18 19" version="1.1" xmlns="http://www.w3.org/2000/svg" xmlns:xlink="http://www.w3.org/1999/xlink">
    <!-- Generator: Sketch 58 (84663) - https://sketch.com -->
    <title>编辑备份 3</title>
    <desc>Created with Sketch.</desc>
    <g id="简历板块" stroke="none" stroke-width="1" fill="none" fill-rule="evenodd">
        <g id="简历板块问号" transform="translate(-1475.000000, -436.000000)" fill-rule="nonzero">
            <g id="编辑备份-6" transform="translate(1474.000000, 436.000000)">
                <g id="编辑备份-3">
                    <rect id="矩形" fill="#000000" opacity="0" x="0" y="0" width="20" height="20"></rect>
                    <path d="M16.0800781,18.3359375 L4.48046875,18.3359375 C3.08203125,18.3359375 1.9453125,17.1992188 1.9453125,15.8007812 L1.9453125,4.20117187 C1.9453125,2.80273437 3.08203125,1.66601562 4.48046875,1.66601562 L10.28125,1.66601562 C10.7421875,1.66601562 11.1152344,2.0390625 11.1152344,2.5 C11.1152344,2.9609375 10.7421875,3.33398437 10.28125,3.33398437 L4.48046875,3.33398437 C4.00195313,3.33398437 3.61328125,3.72265625 3.61328125,4.20117187 L3.61328125,15.8007812 C3.61328125,16.2792969 4.00195313,16.6679688 4.48046875,16.6679688 L16.0800781,16.6679688 C16.5585938,16.6679688 16.9472656,16.2792969 16.9472656,15.8007812 L16.9472656,10 C16.9472656,9.5390625 17.3203125,9.16601562 17.78125,9.16601562 C18.2421875,9.16601562 18.6152344,9.5390625 18.6152344,10 L18.6152344,15.8007812 C18.6152344,17.1992188 17.4785156,18.3359375 16.0800781,18.3359375 Z" id="路径" fill="#4895EF"></path>
                    <path d="M9.43359375,14.7753906 C9.3984375,14.7753906 9.36523437,14.7734375 9.33007812,14.7695312 L6.703125,14.4414062 C6.32421875,14.3945312 6.02734375,14.0957031 5.98046875,13.71875 L5.65234375,11.0917969 C5.62109375,10.8359375 5.70898437,10.5800781 5.890625,10.3984375 L13.2070312,3.08203125 C14.2050781,2.08398437 15.828125,2.08398437 16.8261719,3.08203125 L17.3398437,3.59570312 C17.8242187,4.078125 18.0898437,4.72070312 18.0898437,5.40625 C18.0898437,6.08984375 17.8242187,6.73242187 17.3398437,7.21679687 L10.0234375,14.53125 C9.86523437,14.6894531 9.65234375,14.7753906 9.43359375,14.7753906 Z M7.55273438,12.8671875 L9.13085938,13.0644531 L16.1582031,6.03710938 C16.3261719,5.86914063 16.4199219,5.64453125 16.4199219,5.40625 C16.4199219,5.16796875 16.3261719,4.94335938 16.1582031,4.77539063 L15.6445312,4.26171875 C15.2949219,3.9140625 14.7304688,3.9140625 14.3828125,4.26171875 L7.35546875,11.2890625 L7.55273438,12.8671875 Z" id="形状" fill="#4895EF"></path>
                </g>
            </g>
        </g>
    </g>
</svg>