<?xml version="1.0" encoding="UTF-8"?>
<svg width="19px" height="18px" viewBox="0 0 19 18" version="1.1" xmlns="http://www.w3.org/2000/svg" xmlns:xlink="http://www.w3.org/1999/xlink">
    <!-- Generator: Sketch 58 (84663) - https://sketch.com -->
    <title>添加</title>
    <desc>Created with Sketch.</desc>
    <g id="简历板块" stroke="none" stroke-width="1" fill="none" fill-rule="evenodd">
        <g id="简历板块能力标签编辑" transform="translate(-676.000000, -1614.000000)" fill-rule="nonzero">
            <g id="编组-39" transform="translate(420.000000, 1427.000000)">
                <g id="添加-2" transform="translate(255.000000, 185.000000)">
                    <g id="添加">
                        <rect id="矩形" fill="#000000" opacity="0" x="0.5" y="0" width="21" height="21"></rect>
                        <path d="M10.5,2 C5.52943725,2 1.5,6.02943725 1.5,11 C1.5,15.9705627 5.52943725,20 10.5,20 C15.4705627,20 19.5,15.9705627 19.5,11 C19.4942992,6.0318005 15.4681995,2.00570075 10.5,2 L10.5,2 Z M10.5,18.5484138 C6.33112618,18.5484138 2.95158621,15.1688738 2.95158621,11 C2.95158621,6.83112618 6.33112618,3.45158621 10.5,3.45158621 C14.6688738,3.45158621 18.0484138,6.83112618 18.0484138,11 C18.0437389,15.1669359 14.6669359,18.5437389 10.5,18.5484138 Z M14.3467241,10.2742069 L11.2257931,10.2742069 L11.2257931,7.15327586 C11.2257931,6.7524314 10.9008445,6.42748276 10.5,6.42748276 C10.0991555,6.42748276 9.7742069,6.7524314 9.7742069,7.15327586 L9.7742069,10.2742069 L6.65327586,10.2742069 C6.2524314,10.2742069 5.92748276,10.5991555 5.92748276,11 C5.92748276,11.4008445 6.2524314,11.7257931 6.65327586,11.7257931 L9.7742069,11.7257931 L9.7742069,14.8467241 C9.7742069,15.2475686 10.0991555,15.5725172 10.5,15.5725172 C10.9008445,15.5725172 11.2257931,15.2475686 11.2257931,14.8467241 L11.2257931,11.7257931 L14.3467241,11.7257931 C14.7475686,11.7257931 15.0725172,11.4008445 15.0725172,11 C15.0725172,10.5991555 14.7475686,10.2742069 14.3467241,10.2742069 Z" id="形状" fill="#4CC9F0"></path>
                    </g>
                </g>
            </g>
        </g>
    </g>
</svg>