<?xml version="1.0" encoding="UTF-8"?>
<svg width="11px" height="11px" viewBox="0 0 11 11" version="1.1" xmlns="http://www.w3.org/2000/svg" xmlns:xlink="http://www.w3.org/1999/xlink">
    <!-- Generator: Sketch 58 (84663) - https://sketch.com -->
    <title>问号</title>
    <desc>Created with Sketch.</desc>
    <g id="简历板块" stroke="none" stroke-width="1" fill="none" fill-rule="evenodd">
        <g id="简历板块问号" transform="translate(-565.000000, -690.000000)" fill-rule="nonzero">
            <g id="编组-39" transform="translate(428.000000, 684.000000)">
                <g id="问号-2" transform="translate(137.000000, 6.000000)">
                    <g id="问号">
                        <rect id="矩形" fill="#000000" opacity="0" x="0" y="0" width="11" height="11"></rect>
                        <path d="M5.5,0.8745 C2.99400795,0.8745 0.9625,2.90600795 0.9625,5.412 C0.9625,7.91799205 2.99400795,9.9495 5.5,9.9495 C8.00599205,9.9495 10.0375,7.91799205 10.0375,5.412 C10.0375,4.20858018 9.55944334,3.0544493 8.70849702,2.20350298 C7.8575507,1.35255666 6.70341982,0.8745 5.5,0.8745 Z M5.786,7.6395 C5.69533933,7.72506492 5.5751595,7.77234879 5.4505,7.7715 C5.32447989,7.77394948 5.20305507,7.7241852 5.115,7.634 C5.02566457,7.54763791 4.97591736,7.42824462 4.9775,7.304 C4.97238301,7.17909775 5.02270892,7.05831555 5.115,6.974 C5.2039854,6.88583144 5.32529251,6.83810406 5.4505,6.842 C5.57748289,6.83723186 5.70082351,6.88497662 5.7915,6.974 C5.88379108,7.05831555 5.93411699,7.17909775 5.929,7.304 C5.93088289,7.43261751 5.87905925,7.55619694 5.786,7.645 L5.786,7.6395 Z M6.721,5.1095 C6.54732191,5.28836909 6.36369719,5.45730384 6.171,5.6155 C6.05790575,5.70647239 5.96594766,5.82095084 5.9015,5.951 C5.83031213,6.08261787 5.79431686,6.23038791 5.797,6.38 L5.797,6.49 L5.1095,6.49 L5.1095,6.38 C5.10178941,6.16690209 5.14714827,5.95522741 5.2415,5.764 C5.43732016,5.45476239 5.68258194,5.17977191 5.9675,4.95 L6.0775,4.829 C6.19000212,4.69654519 6.25401914,4.52971297 6.259,4.356 C6.255778,4.16698275 6.18110519,3.98619594 6.05,3.85 C5.90022562,3.71412439 5.70181732,3.64468149 5.5,3.6575 C5.25512871,3.63702588 5.01670707,3.74276069 4.8675,3.938 C4.74028273,4.13374939 4.67864322,4.36489753 4.6915,4.598 L4.0315,4.598 C4.01306003,4.19141719 4.15985912,3.7946629 4.4385,3.498 C4.74132888,3.21083647 5.14935258,3.06155951 5.566,3.0855 C5.93810233,3.05366754 6.30822711,3.16588623 6.6,3.399 C6.86498294,3.63315663 7.00874618,3.97535362 6.9905,4.3285 C6.99271599,4.61368493 6.89765539,4.89110667 6.721,5.115 L6.721,5.1095 Z" id="形状" fill="#CCCCCC"></path>
                    </g>
                </g>
            </g>
        </g>
    </g>
</svg>