<?xml version="1.0" encoding="UTF-8"?>
<svg width="17px" height="21px" viewBox="0 0 17 21" version="1.1" xmlns="http://www.w3.org/2000/svg" xmlns:xlink="http://www.w3.org/1999/xlink">
    <!-- Generator: Sketch 58 (84663) - https://sketch.com -->
    <title>我的简历</title>
    <desc>Created with Sketch.</desc>
    <g id="活动版块" stroke="none" stroke-width="1" fill="none" fill-rule="evenodd">
        <g id="活动列表页（线下城市划分）" transform="translate(-1497.000000, -35.000000)" fill-rule="nonzero">
            <g id="我的简历-2" transform="translate(1494.000000, 34.000000)">
                <g id="我的简历">
                    <rect id="矩形" fill="#000000" opacity="0" x="0" y="0" width="23" height="23"></rect>
                    <path d="M19.7542776,6.30887282 C19.7542776,6.28858705 19.7502205,6.27235844 19.7461633,6.25612982 L19.7339919,6.20744399 C19.7339919,6.20744399 19.7339919,6.20338683 19.7299347,6.20338685 C19.7258776,6.19121538 19.7218204,6.17498677 19.7137061,6.16281532 C19.7137061,6.15875816 19.709649,6.15470101 19.709649,6.15064385 C19.7055918,6.13847238 19.6974775,6.12630093 19.6934204,6.11818663 C19.6893632,6.11412946 19.6893632,6.11007232 19.6853061,6.10195802 C19.6812489,6.09384371 19.6731346,6.08167224 19.6690774,6.07355794 C19.6650203,6.06950077 19.6609631,6.06138647 19.656906,6.05732932 C19.6528488,6.04921502 19.6447345,6.04110071 19.6366202,6.03298641 C19.6325631,6.02892924 19.6285059,6.02081494 19.6203916,6.0167578 C19.6122773,6.00864349 19.6082201,6.00052918 19.6001058,5.99647204 L19.5919915,5.98835774 L14.6990651,1.47274651 C14.6950079,1.46868935 14.6909508,1.46868935 14.6868936,1.46463221 C14.6828365,1.46057504 14.6747222,1.45246074 14.6666079,1.44840359 C14.6584936,1.44434643 14.6544364,1.44028929 14.6463221,1.43217498 C14.6382078,1.42811782 14.6341506,1.42406068 14.6260363,1.42000354 C14.617922,1.41594637 14.6138649,1.41188923 14.6057506,1.40783207 L14.5814077,1.39566062 C14.5732934,1.39160346 14.5692362,1.38754631 14.5611219,1.38754631 L14.536779,1.37537484 C14.5286647,1.37131768 14.5246075,1.37131768 14.5164932,1.36726054 C14.5083789,1.3632034 14.5002646,1.35914623 14.4880931,1.35914623 C14.4799788,1.35914623 14.4759217,1.35508907 14.4678074,1.35508909 C14.4596931,1.35103193 14.4515788,1.35103193 14.4434645,1.34697479 C14.4353502,1.34697479 14.4272359,1.34291762 14.4191215,1.34291762 C14.4110072,1.34291762 14.4028929,1.33886046 14.3988358,1.33886048 C14.3826072,1.33886048 14.3663785,1.33480332 14.3501499,1.33480332 L5.96401482,1.33480332 C4.46286823,1.33480332 3.24572236,2.55600635 3.24572236,4.05309578 L3.24572236,18.9428471 C3.24572236,20.4439936 4.46692539,21.6611395 5.96401482,21.6611395 L17.0400423,21.6611395 C18.5411889,21.6611395 19.7583348,20.4399365 19.7583348,18.9428471 L19.7583348,6.3616158 C19.7583348,6.34538719 19.7542776,6.32510141 19.7542776,6.30887282 Z M14.8613512,3.00229316 L17.9529017,5.85447168 L16.5694126,5.85447168 C15.6281531,5.85447168 14.8654084,5.08766979 14.8654084,4.15046745 L14.8654084,3.00229316 L14.8613512,3.00229316 Z M17.0359852,20.6509085 L5.96401482,20.6509085 C5.02275534,20.6509085 4.26001059,19.8841066 4.26001059,18.9469042 L4.26001059,4.05715294 C4.26001059,3.11589346 5.02681248,2.35314871 5.96401482,2.35314871 L13.847063,2.35314871 L13.847063,4.15046745 C13.847063,5.65161404 15.068266,6.86875991 16.5653555,6.86875991 L18.7440466,6.86875991 L18.7440466,18.9428471 C18.7440466,19.8841065 17.9772447,20.6509085 17.0359852,20.6509085 L17.0359852,20.6509085 Z M15.8228964,16.9102134 L7.14058916,16.9102134 C6.88904569,16.9102134 6.60098783,17.0643852 6.60098783,17.3686717 C6.60098783,17.6242724 6.82413124,17.82713 7.14058916,17.82713 L15.9567825,17.82713 C16.313812,17.82713 16.366555,17.6567296 16.366555,17.3686717 C16.3624978,17.0887282 16.2488975,16.9102134 15.8228964,16.9102134 L15.8228964,16.9102134 Z M15.8228964,13.7456342 L9.08802257,13.7456342 C8.83647909,13.7456342 8.54842123,13.899806 8.54842123,14.2040924 C8.54842123,14.4596931 8.77156465,14.6625507 9.08802257,14.6625507 L15.9567825,14.6625507 C16.313812,14.6625507 16.366555,14.4921503 16.366555,14.2040924 C16.3624978,13.9241489 16.2488975,13.7456342 15.8228964,13.7456342 L15.8228964,13.7456342 Z M15.8228964,10.743341 L12.3337449,10.743341 C12.0822014,10.743341 11.7941436,10.8975128 11.7941436,11.2017993 C11.7941436,11.4573999 12.017287,11.6602575 12.3337449,11.6602575 L15.9567825,11.6602575 C16.313812,11.6602575 16.366555,11.4898571 16.366555,11.2017993 C16.3624978,10.9218557 16.2488975,10.743341 15.8228964,10.743341 L15.8228964,10.743341 Z M7.5949903,9.87511024 L9.76556713,9.87511024 C10.2970542,9.87511024 10.771741,9.57488093 11.0029988,9.09613687 C11.2301993,8.62550712 11.1733992,8.07779148 10.8488269,7.66801905 C10.6175692,7.37590405 10.3335685,7.13653202 10.0130535,6.96207444 C10.2767684,6.65373082 10.4349974,6.25612982 10.4349974,5.82201446 C10.4349974,4.8523549 9.64790968,4.06526725 8.67825012,4.06526725 C7.70859056,4.06526725 6.92150289,4.85235492 6.92150291,5.82201446 C6.92150291,6.25612982 7.07973188,6.65778797 7.34344681,6.96207444 C7.03916033,7.13247486 6.76327394,7.35561828 6.53607338,7.63556183 C6.19527254,8.04939142 6.12630093,8.60927853 6.35755866,9.09207973 C6.58881638,9.57488093 7.06350327,9.87511024 7.5949903,9.87511024 L7.5949903,9.87511024 Z M8.68230729,5.03898395 C9.11236549,5.03898395 9.46533779,5.39195626 9.46533779,5.82201446 C9.46533779,6.25207266 9.11236549,6.60504499 8.68230729,6.60504499 C8.25224908,6.60504499 7.89927678,6.25207268 7.89927678,5.82201446 C7.89927678,5.39195626 8.24819192,5.03898395 8.68230729,5.03898395 Z M7.29070383,8.25630623 C7.63150467,7.83841947 8.13864878,7.59904745 8.67825012,7.59904745 C9.23002293,7.59904745 9.74122419,7.84653378 10.0860822,8.28064914 C10.2159111,8.44699242 10.159111,8.61333568 10.1266537,8.67825012 C10.1023108,8.73099312 9.99682485,8.9054507 9.76556713,8.9054507 L7.5949903,8.9054507 C7.37184689,8.9054507 7.27041808,8.74722173 7.23796083,8.68230729 C7.21361792,8.62550715 7.14464631,8.43482095 7.29070383,8.25630623 L7.29070383,8.25630623 Z" id="形状" fill="#4895EF"></path>
                </g>
            </g>
        </g>
    </g>
</svg>