<?xml version="1.0" encoding="UTF-8"?>
<svg width="31px" height="25px" viewBox="0 0 31 25" version="1.1" xmlns="http://www.w3.org/2000/svg" xmlns:xlink="http://www.w3.org/1999/xlink">
    <!-- Generator: Sketch 58 (84663) - https://sketch.com -->
    <title>钱</title>
    <desc>Created with Sketch.</desc>
    <g id="百科" stroke="none" stroke-width="1" fill="none" fill-rule="evenodd">
        <g id="百科首页" transform="translate(-1054.000000, -2417.000000)" fill-rule="nonzero">
            <g id="钱-2" transform="translate(1051.000000, 2411.000000)">
                <g id="钱">
                    <rect id="矩形" fill="#000000" opacity="0" x="0" y="0" width="37" height="37"></rect>
                    <path d="M15.8957612,22.0343241 L23.1194236,22.0343241 C25.1036055,20.8252132 26.4057249,18.6550142 26.4057249,16.1747868 C26.4057249,12.3614371 23.3054406,9.29215571 19.5230938,9.29215571 C15.7097442,9.29215571 12.6404627,12.39244 12.6404627,16.1747868 C12.6094599,18.6550142 13.9115793,20.8252132 15.8957612,22.0343241 L15.8957612,22.0343241 Z" id="路径" fill="#CBE1FA"></path>
                    <path d="M19.1103039,19.3990824 C18.5321789,19.3990824 18.1117244,19.1510597 18.1117244,18.8100284 L18.1117244,18.3449858 C18.1117244,18.0039545 18.5321789,17.7249289 19.1103039,17.7249289 C19.6884289,17.7249289 20.1614403,17.9729517 20.1614403,18.3139829 L20.1614403,18.7790256 C20.1614403,19.1200569 19.6884289,19.3990824 19.1103039,19.3990824 L19.1103039,19.3990824 Z M18.8475198,11.8963945 C18.2693948,11.8963945 17.8489403,11.6483718 17.8489403,11.3073405 L17.8489403,10.811295 C17.8489403,10.4702637 18.2693948,10.1912381 18.8475198,10.1912381 C19.4256448,10.1912381 19.8986562,10.4392609 19.8986562,10.7802922 L19.8986562,11.2763376 C19.8460994,11.6173689 19.4256448,11.8653917 18.8475198,11.8963945 L18.8475198,11.8963945 Z" id="形状" fill="#4895EF"></path>
                    <path d="M18.4069915,18.6240114 C17.1978806,18.6240114 16.3608039,17.8489403 16.1127811,17.6009176 C15.8957612,17.3528948 15.8957612,16.9808607 16.1127811,16.732838 C16.3608039,16.5158181 16.732838,16.5158181 16.9808607,16.732838 C17.1048721,16.8568493 17.7249289,17.4459033 18.5620057,17.3838977 C18.9960455,17.3528948 19.7091109,17.1048721 19.8641251,16.6398294 C19.9571336,16.329801 19.8331222,15.9267641 19.5850995,15.6167356 C19.3060739,15.3067072 18.903037,15.2447015 18.2829801,15.1826958 C17.6319204,15.1206901 16.8568493,15.0276816 16.2987982,14.3146162 C15.8647584,13.7255622 15.740747,12.9194883 15.9887697,12.2374258 C16.3608039,11.2453348 17.507909,10.8422978 18.4069915,10.8733007 C19.4610881,10.9043035 20.1431507,11.5863661 20.3911734,11.8653917 C20.6081933,12.1134144 20.5771905,12.4854485 20.3291677,12.7024684 C20.081145,12.9194883 19.7091109,12.8884855 19.492091,12.6404627 C19.3680796,12.5164514 18.9960455,12.0824116 18.3759886,12.0514087 C17.8799431,12.0204059 17.2908891,12.2374258 17.1358749,12.6714656 C17.0428664,12.9504912 17.1048721,13.3225253 17.2908891,13.570548 C17.507909,13.8495736 17.8489403,13.9115793 18.4379943,13.973585 C19.089054,14.0355906 19.8951279,14.1285992 20.5151848,14.8106617 C21.0422331,15.3997157 21.259253,16.2677953 21.0422331,16.9808607 C20.7322047,18.0349574 19.5850995,18.5 18.7170199,18.5930085 C18.5930085,18.6240114 18.5,18.6240114 18.4069915,18.6240114 L18.4069915,18.6240114 Z" id="路径" fill="#4895EF"></path>
                    <path d="M33.288356,22.8093951 L3.71164402,22.8093951 C3.37061275,22.8093951 3.12259001,22.5303696 3.12259001,22.2203411 L3.12259001,7.4009823 C3.12259001,7.05995103 3.40161559,6.81192829 3.71164402,6.81192829 L33.288356,6.81192829 C33.6293873,6.81192829 33.87741,7.09095388 33.87741,7.4009823 L33.87741,22.1893383 C33.87741,22.5303696 33.6293873,22.8093951 33.288356,22.8093951 Z M4.33170087,21.6002843 L32.699302,21.6002843 L32.699302,8.02103916 L4.33170087,8.02103916 L4.33170087,21.6002843 Z M33.288356,26.4057249 L3.71164402,26.4057249 C3.37061275,26.4057249 3.12259001,26.1266993 3.12259001,25.8166709 C3.12259001,25.5066425 3.40161559,25.2276169 3.71164402,25.2276169 L33.288356,25.2276169 C33.6293873,25.2276169 33.87741,25.5066425 33.87741,25.8166709 C33.87741,26.1266993 33.6293873,26.4057249 33.288356,26.4057249 Z M33.288356,30.1880717 L3.71164402,30.1880717 C3.37061275,30.1880717 3.12259001,29.9090461 3.12259001,29.5990177 C3.12259001,29.2579864 3.40161559,29.0099637 3.71164402,29.0099637 L33.288356,29.0099637 C33.6293873,29.0099637 33.87741,29.2889893 33.87741,29.5990177 C33.87741,29.940049 33.6293873,30.1880717 33.288356,30.1880717 Z" id="形状" fill="#4895EF"></path>
                    <path d="M3.71164402,12.3614371 C3.37061275,12.3614371 3.12259001,12.0824116 3.12259001,11.7723831 L3.12259001,7.43198515 C3.12259001,7.09095388 3.40161559,6.84293113 3.71164402,6.84293113 L8.052042,6.84293113 C8.39307327,6.84293113 8.64109601,7.12195672 8.64109601,7.43198515 C8.67209886,10.1292325 6.43989418,12.3614371 3.71164402,12.3614371 Z M4.33170087,8.02103916 L4.33170087,11.1213234 C5.91284585,10.8733007 7.15295956,9.60218414 7.43198515,8.02103916 L4.33170087,8.02103916 Z M33.288356,12.3614371 C30.5601058,12.3614371 28.3279011,10.1292325 28.3279011,7.4009823 C28.3279011,7.05995103 28.6069267,6.81192829 28.9169552,6.81192829 L33.2573531,6.81192829 C33.5983844,6.81192829 33.8464072,7.09095388 33.8464072,7.4009823 L33.8464072,11.7413803 C33.87741,12.0824116 33.6293873,12.3614371 33.288356,12.3614371 Z M29.5990177,8.02103916 C29.8470404,9.60218414 31.118157,10.8422978 32.699302,11.1213234 L32.699302,8.02103916 L29.5990177,8.02103916 Z M33.288356,22.8093951 L28.947958,22.8093951 C28.6069267,22.8093951 28.358904,22.5303696 28.358904,22.2203411 C28.358904,19.492091 30.5911087,17.2598863 33.3193588,17.2598863 C33.6603901,17.2598863 33.9084128,17.5389119 33.9084128,17.8489403 L33.9084128,22.1893383 C33.87741,22.5303696 33.6293873,22.8093951 33.288356,22.8093951 L33.288356,22.8093951 Z M29.5990177,21.6002843 L32.699302,21.6002843 L32.699302,18.5 C31.118157,18.7480227 29.8470404,20.0191393 29.5990177,21.6002843 Z" id="形状" fill="#4895EF"></path>
                    <path d="M8.052042,22.8093951 L3.71164402,22.8093951 C3.37061275,22.8093951 3.12259001,22.5303696 3.12259001,22.2203411 L3.12259001,17.8799431 C3.12259001,17.5389119 3.40161559,17.2908891 3.71164402,17.2908891 C6.43989418,17.2908891 8.67209886,19.5230938 8.67209886,22.251344 C8.67209886,22.5303696 8.39307327,22.8093951 8.052042,22.8093951 L8.052042,22.8093951 Z M4.33170087,21.6002843 L7.43198515,21.6002843 C7.1839624,20.0191393 5.91284585,18.7790256 4.33170087,18.5 L4.33170087,21.6002843 Z" id="形状" fill="#4895EF"></path>
                    <path d="M22.1893383,22.8093951 L14.8106617,22.8093951 C14.7176532,22.8093951 14.6246447,22.7783923 14.5316361,22.7473895 C11.4933575,21.2282502 9.63318698,18.1899716 9.63318698,14.8106617 C9.63318698,11.4313519 11.5243604,8.39307327 14.5316361,6.87393398 C14.6246447,6.84293113 14.7176532,6.81192829 14.8106617,6.81192829 L22.1583354,6.81192829 C22.251344,6.81192829 22.3443525,6.84293113 22.437361,6.87393398 C25.4756396,8.39307327 27.3358102,11.4313519 27.3358102,14.8106617 C27.3358102,18.1899716 25.4446368,21.2282502 22.437361,22.7473895 C22.3753553,22.7783923 22.2823468,22.8093951 22.1893383,22.8093951 Z M14.9656759,21.6002843 L22.0343241,21.6002843 C24.5765572,20.267162 26.1577022,17.6939261 26.1577022,14.8106617 C26.1577022,11.9273973 24.5765572,9.3541614 22.0343241,8.02103916 L14.9656759,8.02103916 C12.4234428,9.3541614 10.8422978,11.9273973 10.8422978,14.8106617 C10.8422978,17.6939261 12.4234428,20.267162 14.9656759,21.6002843 Z" id="形状" fill="#4895EF"></path>
                </g>
            </g>
        </g>
    </g>
</svg>