<?xml version="1.0" encoding="UTF-8"?>
<svg width="344px" height="265px" viewBox="0 0 344 265" version="1.1" xmlns="http://www.w3.org/2000/svg" xmlns:xlink="http://www.w3.org/1999/xlink">
    <!-- Generator: Sketch 58 (84663) - https://sketch.com -->
    <title>编组 17</title>
    <desc>Created with Sketch.</desc>
    <defs>
        <linearGradient x1="50%" y1="50%" x2="50%" y2="0%" id="linearGradient-1">
            <stop stop-color="#F5F7FA" stop-opacity="0" offset="0%"></stop>
            <stop stop-color="#CADFF7" offset="100%"></stop>
        </linearGradient>
        <linearGradient x1="50%" y1="50%" x2="50%" y2="0%" id="linearGradient-2">
            <stop stop-color="#F5F7FA" stop-opacity="0" offset="0%"></stop>
            <stop stop-color="#CADFF7" offset="100%"></stop>
        </linearGradient>
        <linearGradient x1="100%" y1="86.6046083%" x2="0%" y2="0%" id="linearGradient-3">
            <stop stop-color="#FFC944" offset="0%"></stop>
            <stop stop-color="#FFF7C6" offset="100%"></stop>
        </linearGradient>
        <linearGradient x1="50%" y1="100%" x2="50%" y2="0%" id="linearGradient-4">
            <stop stop-color="#FF7C00" offset="0%"></stop>
            <stop stop-color="#FED431" offset="100%"></stop>
        </linearGradient>
        <linearGradient x1="85.3553391%" y1="85.3553391%" x2="14.6446609%" y2="14.6446609%" id="linearGradient-5">
            <stop stop-color="#FFCA44" offset="0%"></stop>
            <stop stop-color="#FFF1B5" offset="100%"></stop>
        </linearGradient>
        <linearGradient x1="50%" y1="100%" x2="50%" y2="0%" id="linearGradient-6">
            <stop stop-color="#FFF4BD" offset="0%"></stop>
            <stop stop-color="#FFCA44" offset="100%"></stop>
        </linearGradient>
        <linearGradient x1="50%" y1="88.4174972%" x2="50%" y2="-7.12435118%" id="linearGradient-7">
            <stop stop-color="#FFCA45" offset="0%"></stop>
            <stop stop-color="#FFFFFF" offset="100%"></stop>
        </linearGradient>
        <linearGradient x1="50%" y1="50%" x2="-2.85857652%" y2="68.5255196%" id="linearGradient-8">
            <stop stop-color="#FFCA47" offset="0%"></stop>
            <stop stop-color="#FFF0B2" offset="100%"></stop>
        </linearGradient>
        <linearGradient x1="90.4895802%" y1="99.2126724%" x2="4.99174114%" y2="19.1905785%" id="linearGradient-9">
            <stop stop-color="#FF8B28" offset="0%"></stop>
            <stop stop-color="#EFBC48" offset="100%"></stop>
        </linearGradient>
        <path d="M29.0573575,2.77356318 C10.8337603,2.37916728 1.7330135,4.90485444 1.75511704,10.3506247 C1.78835287,18.51928 19.9009218,24.0237127 29.1328379,21.3475129 C35.2874486,19.5633797 35.2622885,13.3720632 29.0573575,2.77356318 Z" id="path-10"></path>
        <path d="M29.0573575,2.77356318 C10.8337603,2.37916728 1.7330135,4.90485444 1.75511704,10.3506247 C1.78835287,18.51928 19.9009218,24.0237127 29.1328379,21.3475129 C35.2874486,19.5633797 35.2622885,13.3720632 29.0573575,2.77356318 Z" id="path-12"></path>
        <ellipse id="path-14" cx="75.5428571" cy="75" rx="75.4571429" ry="75"></ellipse>
        <path d="M75.2004644,78.7563851 C106.670704,79.8316498 118.134471,65.334116 117.460902,50.8181949 C116.787333,36.3022738 93.0026125,13.9756549 61.5323727,12.9003901 C30.0621329,11.8251254 5.70130889,27.5164391 6.47618134,54.9357333 C7.25105379,82.3550274 43.7302246,77.6811204 75.2004644,78.7563851 Z" id="path-16"></path>
        <path d="M3.71296454,5.67326442 C10.4276811,5.67326442 18.0435505,7.03439202 22.7794356,3.97772868 C27.5153208,0.921065339 32.9221541,-2.28210161 33.7496085,4.59124729 C34.5770629,11.4645962 33.5863535,18.6542672 27.2243437,21.1028214 C20.8623339,23.5513756 8.29701337,25.5523535 4.50683949,19.5669125 C0.716665607,13.5814714 -3.001752,5.67326442 3.71296454,5.67326442 Z" id="path-18"></path>
        <linearGradient x1="50%" y1="65.2392904%" x2="50%" y2="-27.1732481%" id="linearGradient-20">
            <stop stop-color="#FFA028" offset="0%"></stop>
            <stop stop-color="#EFC248" offset="100%"></stop>
        </linearGradient>
        <linearGradient x1="50%" y1="100%" x2="50%" y2="41.1856105%" id="linearGradient-21">
            <stop stop-color="#FDD25D" offset="0%"></stop>
            <stop stop-color="#FFFFFF" stop-opacity="0" offset="100%"></stop>
        </linearGradient>
        <linearGradient x1="50%" y1="100%" x2="50%" y2="0%" id="linearGradient-22">
            <stop stop-color="#FFC943" offset="0%"></stop>
            <stop stop-color="#FFF8C9" offset="100%"></stop>
        </linearGradient>
        <linearGradient x1="101.857305%" y1="66.5919576%" x2="-9.10728217%" y2="37.4064986%" id="linearGradient-23">
            <stop stop-color="#FF8426" offset="0%"></stop>
            <stop stop-color="#FFDE91" offset="100%"></stop>
        </linearGradient>
        <linearGradient x1="0%" y1="23.4157987%" x2="100%" y2="100.842699%" id="linearGradient-24">
            <stop stop-color="#FFCC4A" offset="0%"></stop>
            <stop stop-color="#FFF2B7" offset="100%"></stop>
        </linearGradient>
    </defs>
    <g id="百科" stroke="none" stroke-width="1" fill="none" fill-rule="evenodd">
        <g id="百科评分缺省页" transform="translate(-788.000000, -996.000000)">
            <g id="编组-19" transform="translate(788.000000, 996.000000)">
                <g id="编组-18">
                    <g id="编组-17">
                        <path d="M35.5909091,16 C42.8189866,16 49.2789429,19.2438432 53.5560641,24.3361203 C54.4943518,24.161626 55.4636212,24.0701754 56.4545454,24.0701754 C65.040063,24.0701754 72,30.9351426 72,39.4035088 C72,47.8718749 65.040063,54.736842 56.4545454,54.736842 C55.2520179,54.736842 54.081381,54.6021643 52.9572927,54.3472667 C48.6892747,59.0447367 42.4899856,62 35.5909091,62 C28.7606084,62 22.6162127,59.1033641 18.3514886,54.4875703 C17.4422263,54.6512753 16.5039712,54.736842 15.5454546,54.736842 C6.95993713,54.736842 0,47.8718749 0,39.4035088 C0,30.9351426 6.95993713,24.0701754 15.5454546,24.0701754 C16.2845322,24.0701754 17.0115636,24.1210482 17.7231456,24.2194373 C22.0022496,19.1941574 28.4184013,16 35.5909091,16 Z" id="形状结合" fill="url(#linearGradient-1)" fill-rule="nonzero"></path>
                        <path d="M233.420455,0 C243.660231,0 252.811836,4.65420986 258.871091,11.9605205 C260.200332,11.7101591 261.573463,11.5789473 262.977273,11.5789473 C275.140089,11.5789473 285,21.4286829 285,33.5789474 C285,45.7292118 275.140089,55.5789472 262.977273,55.5789472 C261.273692,55.5789472 259.61529,55.3857141 258.022831,55.0199914 C251.976473,61.7598396 243.194146,66 233.420455,66 C223.744195,66 215.039635,61.8439572 208.997942,55.2212965 C207.709821,55.4561776 206.380626,55.5789472 205.022727,55.5789472 C192.859911,55.5789472 183,45.7292118 183,33.5789474 C183,21.4286829 192.859911,11.5789473 205.022727,11.5789473 C206.069754,11.5789473 207.099715,11.6519387 208.10779,11.7931057 C214.169854,4.58292154 223.259402,0 233.420455,0 Z" id="形状结合备份" fill="url(#linearGradient-2)" fill-rule="nonzero"></path>
                        <ellipse id="椭圆形" fill="#6F7D8F" fill-rule="nonzero" opacity="0.300000012" style="mix-blend-mode: multiply;" cx="155" cy="254" rx="131" ry="11"></ellipse>
                        <path d="M39,104 C39.9664984,104 40.75,104.783502 40.75,105.75 L40.75,109.25 L44.25,109.25 C45.2164984,109.25 46,110.033502 46,111 C46,111.966498 45.2164984,112.75 44.25,112.75 L40.75,112.75 L40.75,116.25 C40.75,117.216498 39.9664984,118 39,118 C38.0335016,118 37.25,117.216498 37.25,116.25 L37.25,112.75 L33.75,112.75 C32.7835016,112.75 32,111.966498 32,111 C32,110.033502 32.7835016,109.25 33.75,109.25 L37.25,109.25 L37.25,105.75 C37.25,104.783502 38.0335016,104 39,104 Z" id="形状结合" fill="url(#linearGradient-3)" fill-rule="nonzero"></path>
                        <path d="M23.8179778,151.04996 C20.504269,151.04996 17.8179778,153.736251 17.8179778,157.04996 C17.8179778,160.363668 20.504269,163.04996 23.8179778,163.04996 C27.1316866,163.04996 29.8179778,160.363668 29.8179778,157.04996 C29.8179778,153.736251 27.1316866,151.04996 23.8179778,151.04996 Z M24.3179778,153.04996 C26.2509741,153.04996 27.8179778,154.616963 27.8179778,156.54996 C27.8179778,158.482956 26.2509741,160.04996 24.3179778,160.04996 C22.3849815,160.04996 20.8179778,158.482956 20.8179778,156.54996 C20.8179778,154.616963 22.3849815,153.04996 24.3179778,153.04996 Z" id="椭圆形" fill="url(#linearGradient-4)" fill-rule="nonzero"></path>
                        <path d="M279.563018,120.563018 C280.313707,119.812328 281.530818,119.812327 282.281509,120.563018 L285,123.281509 L287.718491,120.563018 C288.469181,119.812328 289.686292,119.812327 290.436982,120.563018 C291.187673,121.313708 291.187672,122.530819 290.436982,123.281509 L287.718491,126 L290.436982,128.718491 C291.187673,129.469182 291.187672,130.686293 290.436982,131.436982 C289.686293,132.187672 288.469182,132.187673 287.718491,131.436982 L285,128.718491 L282.281509,131.436982 C281.530819,132.187672 280.313708,132.187673 279.563018,131.436982 C278.812327,130.686292 278.812328,129.469181 279.563018,128.718491 L282.281509,126 L279.563018,123.281509 C278.812327,122.530818 278.812328,121.313707 279.563018,120.563018 Z" id="形状结合备份-2" fill="url(#linearGradient-5)" fill-rule="nonzero"></path>
                        <path d="M265,191 L41,191 L71.3042961,91.90048 C72.1947652,88.9877867 74.876543,87 77.9136787,87 L228.086322,87 C231.123454,87 233.805235,88.9877867 234.695704,91.90048 L265,191 Z" id="Fill-3" fill="url(#linearGradient-6)" fill-rule="nonzero"></path>
                        <path d="M51,183.540541 L76.8988842,99.8138814 C77.7837289,96.9526595 80.4485681,95 83.4672077,95 L222.532793,95 C225.551432,95 228.216271,96.9526595 229.101116,99.8138814 L255,183.540541 L242.996202,221 L61.6305032,221 L51,183.540541 Z" id="Fill-5" fill="url(#linearGradient-7)" fill-rule="nonzero"></path>
                        <path d="M214,126 C247.434611,120.002496 268.102375,115.440067 273.327382,77.0749864 C273.636611,74.8044402 272.383289,71.5892793 270.206276,70.9698108 C259.837341,68.0193307 247.207125,87.0091225 268.083201,85.8807529 C291.398275,84.6205535 275.618575,69.6885944 306,70.0049555" id="路径-27" stroke="url(#linearGradient-8)" stroke-width="2" stroke-linecap="round" stroke-dasharray="3"></path>
                        <path d="M53.7276292,65.4888485 C55.1147596,66.0842572 55.9285076,66.5770099 56.9489406,67.1380734 C57.9033245,67.6873282 58.8471663,68.2397795 59.7554966,68.8239189 C61.5903953,69.9748432 63.3494699,71.1942376 65.0624166,72.4785559 C68.4883346,75.0371792 71.709597,77.8688816 74.6630489,80.9527895 C77.6010872,84.0750284 80.213652,87.5306265 82.388051,91.195489 C84.529762,94.9130151 86.0424339,98.9604413 86.9575717,102.99076 C87.1555951,103.851218 86.6410837,104.726708 85.8179097,104.949021 C85.2141875,105.110249 84.6123957,104.87795 84.2544329,104.408902 L84.1809355,104.311122 C81.9148245,101.33079 79.3736249,98.8340838 76.5142345,96.8268018 C73.6135679,94.8593235 70.5663759,93.2810077 67.3785219,92.0436865 C64.1608975,90.8399505 60.8707395,89.9228973 57.5406413,89.2799159 C55.8799108,88.9548419 54.2036885,88.6981363 52.5483277,88.525154 C51.7182965,88.4211843 50.900589,88.3680526 50.0876826,88.309827 C49.3379052,88.282487 48.3746869,88.2079862 47.960723,88.3116767 C41.3410626,89.9986862 34.7790854,85.7822701 33.2983361,78.8927117 C31.8194922,72.0071231 35.9823667,65.0554106 42.601062,63.3714223 C45.2266937,62.7026322 47.8414121,62.9622004 50.1354377,63.9475324 L53.7276292,65.4888485 Z" id="Fill-3" fill="url(#linearGradient-9)" fill-rule="nonzero"></path>
                        <g id="编组-3" transform="translate(55.000000, 21.000000)">
                            <g id="编组-6备份" transform="translate(21.000000, 117.000000) rotate(15.000000) translate(-21.000000, -117.000000) translate(3.000000, 104.000000)">
                                <g id="路径-31">
                                    <mask id="mask-11" fill="white">
                                        <use xlink:href="#path-10"></use>
                                    </mask>
                                    <use id="蒙版" stroke="#333333" stroke-width="1.5" fill="#739EE5" transform="translate(17.742560, 12.382066) rotate(10.000000) translate(-17.742560, -12.382066) " xlink:href="#path-10"></use>
                                    <path d="M4.25145505,8.4152427 C12.3461279,14.2547381 19.4044703,16.2012366 25.4264825,14.2547381 C31.4484946,12.3082397 32.9734382,15.2256453 30.0013132,23.0069549 C22.9901888,23.7849462 18.3471396,23.318782 16.0721654,21.6084624 C12.6597041,19.0429829 2.92101129,16.9926683 3.58623317,12.0541202 C4.02971443,8.7617549 4.25145505,7.54879572 4.25145505,8.4152427 Z" fill="#6692DB" mask="url(#mask-11)"></path>
                                </g>
                                <path d="M29.4242197,3.96190922 C11.1956868,3.53952194 2.09618944,6.07235479 2.12572747,11.5604078 C2.17017833,19.7924872 20.2946471,25.364407 29.5251289,22.6800732 C35.6787834,20.8905174 35.645147,14.6511294 29.4242197,3.96190922 Z" id="路径-30备份" stroke="#333333" stroke-width="1.5" transform="translate(18.120504, 13.638773) rotate(10.000000) translate(-18.120504, -13.638773) "></path>
                            </g>
                            <g id="编组-6备份-2" transform="translate(181.000000, 90.000000) scale(-1, 1) rotate(31.000000) translate(-181.000000, -90.000000) translate(163.000000, 77.000000)">
                                <g id="路径-31">
                                    <mask id="mask-13" fill="white">
                                        <use xlink:href="#path-12"></use>
                                    </mask>
                                    <use id="蒙版" stroke="#333333" stroke-width="1.5" fill="#739EE5" transform="translate(17.742560, 12.382066) rotate(10.000000) translate(-17.742560, -12.382066) " xlink:href="#path-12"></use>
                                    <path d="M4.25145505,8.4152427 C12.3461279,14.2547381 19.4044703,16.2012366 25.4264825,14.2547381 C31.4484946,12.3082397 32.9734382,15.2256453 30.0013132,23.0069549 C22.9901888,23.7849462 18.3471396,23.318782 16.0721654,21.6084624 C12.6597041,19.0429829 2.92101129,16.9926683 3.58623317,12.0541202 C4.02971443,8.7617549 4.25145505,7.54879572 4.25145505,8.4152427 Z" fill="#6692DB" mask="url(#mask-13)"></path>
                                </g>
                                <path d="M29.4242197,3.96190922 C11.1956868,3.53952194 2.09618944,6.07235479 2.12572747,11.5604078 C2.17017833,19.7924872 20.2946471,25.364407 29.5251289,22.6800732 C35.6787834,20.8905174 35.645147,14.6511294 29.4242197,3.96190922 Z" id="路径-30备份" stroke="#333333" stroke-width="1.5" transform="translate(18.120504, 13.638773) rotate(10.000000) translate(-18.120504, -13.638773) "></path>
                            </g>
                            <g id="编组-2" transform="translate(25.000000, 23.000000)">
                                <g id="路径-18" transform="translate(0.000000, 9.000000)">
                                    <mask id="mask-15" fill="white">
                                        <use xlink:href="#path-14"></use>
                                    </mask>
                                    <use id="蒙版" fill="#739EE5" xlink:href="#path-14"></use>
                                    <path d="M9,93 C30.2373577,116.666667 52.2360252,128.5 74.9960023,128.5 C109.135968,128.5 127.746661,124.295132 149,93 C147.024523,140.160667 126.952654,163.827023 88.7843934,163.999069 C50.6161328,164.171114 24.021335,140.504758 9,93 Z" id="路径-21" fill="#6692DB" mask="url(#mask-15)" transform="translate(79.000000, 128.500000) rotate(-4.000000) translate(-79.000000, -128.500000) "></path>
                                    <path d="M27.3230014,37.717615 C28.8364323,37.7501061 28.8364323,42.8006573 27.3230014,52.8692686 C25.052855,67.9721855 40.9854482,71.1561648 52,71.1561648 C63.0145518,71.1561648 36.5637182,105.376443 18.0813723,96.1333878 C5.75980844,89.9713511 -1.21450621,89.9713511 -2.84157159,96.1333878 C-3.6283369,60.0160714 -3.00767485,41.2507802 -0.979585436,39.8375141 C1.04850397,38.424248 10.4826996,37.717615 27.3230014,37.717615 Z" id="路径-19" fill="#B0EACD" mask="url(#mask-15)"></path>
                                    <path d="M116.806073,19 C101.381655,28.8589734 98.0849095,37.6428246 106.915835,45.3515538 C115.74676,53.060283 113.441482,55.7001645 100,53.2711984 C107.178946,72.8564771 115.512279,80.0301183 125,74.7921218 C134.487721,69.5541253 144.943576,75.9567514 156.367565,94 L162.285714,19 L116.806073,19 Z" id="路径-22" fill="#B0EACD" mask="url(#mask-15)"></path>
                                </g>
                                <g id="路径-25" transform="translate(8.000000, 0.000000)">
                                    <mask id="mask-17" fill="white">
                                        <use xlink:href="#path-16"></use>
                                    </mask>
                                    <use id="蒙版" fill="#FFFFFF" transform="translate(61.973485, 45.830615) rotate(-14.000000) translate(-61.973485, -45.830615) " xlink:href="#path-16"></use>
                                    <path d="M28.0651131,3.42672064 C23.8588817,11.3485929 22.9168367,16.8735509 25.2389782,20.0015947 C28.7221904,24.6936605 85.6725119,36.6947189 84.8346977,23.3021685 C84.5069839,18.0636276 84.8644622,10.7224224 79.642537,6.28321931 C77.1904554,4.1986838 71.2541633,2.10427736 61.8336609,-7.81597009e-14 L30.535676,1.35891049 L28.0651131,3.42672064 Z" fill="#B0EACD" mask="url(#mask-17)" transform="translate(54.421925, 14.720940) rotate(-17.000000) translate(-54.421925, -14.720940) "></path>
                                </g>
                                <path d="M46,46.4928429 C47.9898202,42 50.9898202,40.8767893 55,43.1232107" id="路径-36" stroke="#333333" stroke-width="6" stroke-linecap="round"></path>
                                <path d="M77,38.4928429 C79.1889404,34 82.4891487,32.8767893 86.9006248,35.1232107" id="路径-36备份" stroke="#333333" stroke-width="6" stroke-linecap="round" transform="translate(81.950312, 36.246421) rotate(15.000000) translate(-81.950312, -36.246421) "></path>
                                <g id="编组" transform="translate(55.000000, 44.000000)">
                                    <g id="路径-38" transform="translate(0.000000, 0.283485)">
                                        <mask id="mask-19" fill="white">
                                            <use xlink:href="#path-18"></use>
                                        </mask>
                                        <use id="蒙版" stroke="#E43F5A" stroke-width="2" fill="#EC5858" xlink:href="#path-18"></use>
                                        <path d="M5,21.079545 C6.9562613,17.3264729 10.5646503,14.9552182 15.8251671,13.9657811 C21.0856838,12.976344 26.8106281,13.5632682 33,15.7265536 C30.5971578,19.2952145 28.4534092,21.079545 26.5687543,21.079545 C23.741772,21.079545 14.7319084,24.3643698 11.4062105,23.2807006 C9.18907859,22.5582545 7.05367508,21.8245359 5,21.079545 Z" fill="#FFA4A4" mask="url(#mask-19)"></path>
                                    </g>
                                    <path d="M3.75589182,5.39818896 C10.4706084,5.39818896 18.0864778,6.81849602 22.8223629,3.62893427 C27.5582481,0.439372528 32.9650813,-2.90306255 33.7925357,4.26912761 C34.6199901,11.4413178 33.6292807,18.9435832 27.2672709,21.4985963 C20.9052612,24.0536094 8.33994064,26.1415863 4.54976676,19.8959087 C0.759592884,13.650231 -2.95882472,5.39818896 3.75589182,5.39818896 Z" id="路径-37备份" stroke="#E43F5A" stroke-width="2"></path>
                                </g>
                                <ellipse id="椭圆形备份-4" fill="#FFD9D9" transform="translate(34.500000, 60.000000) rotate(-57.000000) translate(-34.500000, -60.000000) " cx="34.5" cy="60" rx="8.5" ry="10"></ellipse>
                                <ellipse id="椭圆形备份-5" fill="#FFD9D9" transform="translate(106.500000, 42.000000) scale(-1, 1) rotate(-22.000000) translate(-106.500000, -42.000000) " cx="106.5" cy="42" rx="8.5" ry="10"></ellipse>
                            </g>
                            <g id="爱心块状" transform="translate(84.000000, 0.000000)" fill-rule="nonzero">
                                <rect id="矩形" fill="#000000" opacity="0" x="0" y="0" width="60" height="60"></rect>
                                <path d="M30,14.4518178 C21.65,1.90781516 5,9.25430274 5,22.8977797 C5,32.1433593 13.325,38.7152172 19.575,43.6878398 C24.15,47.3111075 26.4,48.9353309 28.075,50.3096738 C29.2,51.2342318 30.8,51.2342318 31.9,50.2846858 C33.55,48.8853548 35.775,47.2361433 40.4,43.6878398 C46.775,38.8151694 55,32.018419 55,22.8228155 C55,9.25430274 38.35,1.90781516 30,14.4518178 Z M44.725,24.6469434 C44.1,24.6469434 43.575,24.1971584 43.45,23.5974452 C42.925,21.0486638 41.175,19.274512 39.2,18.5498585 C38.7,18.349954 38.35,17.875181 38.35,17.3254438 C38.35,16.4258739 39.25,15.8011726 40.075,16.1010293 C42.925,17.1505275 45.3,19.724297 45.975,23.1226721 C46.15,23.9222898 45.525,24.6469434 44.725,24.6469434 Z" id="形状" fill="#EC5858"></path>
                            </g>
                            <g id="爱心块状备份" transform="translate(144.000000, 22.000000)" fill-rule="nonzero">
                                <rect id="矩形" fill="#000000" opacity="0" x="0" y="0" width="32" height="32"></rect>
                                <path d="M17,7.4509723 C12.658,0.741389505 4,4.67090612 4,11.9685798 C4,16.9138899 8.329,20.4290697 11.579,23.0888445 C13.958,25.0268714 15.128,25.8956421 15.999,26.6307557 C16.584,27.1252868 17.416,27.1252868 17.988,26.6173901 C18.846,25.8689107 20.003,24.9867743 22.408,23.0888445 C25.723,20.4825325 30,16.8470613 30,11.9284827 C30,4.67090612 21.342,0.741389505 17,7.4509723 Z M24.657,12.904179 C24.332,12.904179 24.059,12.6635964 23.994,12.3428195 C23.721,10.9795178 22.811,10.0305529 21.784,9.64294754 C21.524,9.53602193 21.342,9.28207357 21.342,8.9880281 C21.342,8.5068628 21.81,8.17272022 22.239,8.33310868 C23.721,8.8944682 24.956,10.2711356 25.307,12.0888711 C25.398,12.5165736 25.073,12.904179 24.657,12.904179 Z" id="形状" fill="#EC5858"></path>
                            </g>
                            <g id="爱心块状备份-2" transform="translate(58.000000, 8.000000)" fill-rule="nonzero">
                                <rect id="矩形" fill="#000000" opacity="0" x="0" y="0" width="22" height="22"></rect>
                                <path d="M12,5.40067638 C8.994,0.733140525 3,3.4667173 3,8.54335988 C3,11.9835756 5.997,14.428918 8.247,16.2791962 C9.894,17.6273888 10.704,18.231751 11.307,18.7431344 C11.712,19.087156 12.288,19.087156 12.684,18.7338366 C13.278,18.2131553 14.079,17.5994952 15.744,16.2791962 C18.039,14.4661096 21,11.9370861 21,8.51546624 C21,3.4667173 15.006,0.733140525 12,5.40067638 Z M17.301,9.1942115 C17.076,9.1942115 16.887,9.02684965 16.842,8.80370053 C16.653,7.85531675 16.023,7.19516727 15.312,6.92552873 C15.132,6.85114569 15.006,6.67448596 15.006,6.46993259 C15.006,6.1352089 15.33,5.90276189 15.627,6.01433648 C16.653,6.40484744 17.508,7.36252911 17.751,8.6270408 C17.814,8.92457296 17.589,9.1942115 17.301,9.1942115 Z" id="形状" fill="#EC5858"></path>
                            </g>
                        </g>
                        <circle id="椭圆形" fill="#FFCA45" fill-rule="nonzero" cx="168" cy="168" r="4"></circle>
                        <circle id="椭圆形" fill="url(#linearGradient-20)" fill-rule="nonzero" cx="75" cy="132" r="15"></circle>
                        <polygon id="路径-32" fill="url(#linearGradient-21)" fill-rule="nonzero" points="93.6714283 204 47 110 289 110 243.713392 203.999999"></polygon>
                        <path d="M203.75748,155.717263 L198.782237,185.334684 C198.227823,188.633947 195.351629,191.052631 191.980324,191.052631 L114.019676,191.052631 C110.649061,191.052631 107.772177,188.633947 107.217764,185.334684 L102.242521,155.717263 C101.688107,152.418 98.811913,150 95.4406083,150 L45.8957379,150 C41.9093373,150 38.7531783,153.343737 39.0152146,157.290947 L45.0034351,247.606737 C45.2420261,251.203632 48.2513069,254 51.8839583,254 L254.116042,254 C257.748693,254 260.758663,251.203632 260.996565,247.606737 L266.984785,157.290947 C267.246822,153.343737 264.090663,150 260.104262,150 L210.559392,150 C207.188777,150 204.311894,152.418 203.75748,155.717263" id="Fill-1" fill="url(#linearGradient-22)" fill-rule="nonzero"></path>
                        <path d="M224.037465,147.206004 C228.046005,145.833502 232.099991,145.180446 236.370364,145.026596 C240.615356,144.890578 245.013688,145.267652 249.372615,146.357039 C253.708944,147.439314 258.133192,149.019083 262.217481,151.336922 C266.416782,153.536863 270.221021,156.420871 273.922513,159.563259 L274.35621,159.930531 C279.757605,164.513114 280.563954,172.724291 276.159621,178.270536 C271.755289,183.816781 263.809992,184.597654 258.408597,180.01507 C256.830002,178.678035 255.62182,176.969463 254.845051,175.17137 C253.609359,172.287919 252.237291,169.30448 250.364365,166.678169 C248.581869,163.914137 246.317151,161.512689 243.759388,159.242234 C241.19211,156.972535 238.208028,155.081012 234.947113,153.533839 C231.714349,151.991364 228.07192,150.820564 224.501123,150.289995 L224.315961,150.262109 C223.481348,150.137236 222.899053,149.339584 223.014616,148.47881 C223.095631,147.86706 223.507302,147.389389 224.037465,147.206004" id="Fill-1" fill="url(#linearGradient-23)" fill-rule="nonzero"></path>
                        <g id="编组-4" transform="translate(320.000000, 48.500000) scale(-1, 1) translate(-320.000000, -48.500000) translate(296.000000, 31.000000)" fill-rule="nonzero">
                            <polygon id="路径-18" fill="url(#linearGradient-24)" points="0 0 11.046449 31.4219292 24 25.4093861 35.4492497 35 35.4492497 20.1981081 48 15.3300799"></polygon>
                            <polygon id="路径-19" fill="#FF9B41" points="0 0 35 20.1981081 35 35 26.6473563 23.8255297"></polygon>
                        </g>
                    </g>
                </g>
            </g>
        </g>
    </g>
</svg>