<?xml version="1.0" encoding="UTF-8"?>
<svg width="19px" height="17px" viewBox="0 0 19 17" version="1.1" xmlns="http://www.w3.org/2000/svg" xmlns:xlink="http://www.w3.org/1999/xlink">
    <!-- Generator: Sketch 58 (84663) - https://sketch.com -->
    <title>排序</title>
    <desc>Created with Sketch.</desc>
    <g id="活动版块" stroke="none" stroke-width="1" fill="none" fill-rule="evenodd">
        <g id="发布活动管理主页面filter" transform="translate(-1500.000000, -220.000000)" fill="#000000" fill-rule="nonzero">
            <g id="编组-5" transform="translate(397.000000, 143.000000)">
                <g id="排序-2" transform="translate(1100.000000, 73.000000)">
                    <g id="排序">
                        <rect id="矩形" opacity="0" x="0" y="0" width="25" height="25"></rect>
                        <path d="M19.5375,18.1125 L20.7,16.95 C21.0037566,16.6462434 21.4962434,16.6462434 21.8,16.95 C22.1037566,17.2537566 22.1037566,17.7462434 21.8,18.05 L19.3,20.55 C19.0782872,20.7733421 18.7435295,20.840436 18.452872,20.7197857 C18.1622145,20.5991354 17.9733748,20.3146993 17.9749896,20 L17.9749896,5 C18.0248726,4.60650836 18.3596104,4.31151862 18.75625,4.31151862 C19.1528896,4.31151862 19.4876274,4.60650836 19.5375,5 L19.5375,18.1125 Z M3.75,5.7875 C3.35650836,5.73762736 3.06151862,5.40288957 3.06151862,5.00625 C3.06151862,4.60961043 3.35650836,4.27487264 3.75,4.225 L15,4.225 C15.3934916,4.27487264 15.6884814,4.60961043 15.6884814,5.00625 C15.6884814,5.40288957 15.3934916,5.73762736 15,5.7875 L3.75,5.7875 Z M3.75,13.2875 C3.35650836,13.2376274 3.06151862,12.9028896 3.06151862,12.50625 C3.06151862,12.1096104 3.35650836,11.7748726 3.75,11.725 L15,11.725 C15.3934916,11.7748726 15.6884814,12.1096104 15.6884814,12.50625 C15.6884814,12.9028896 15.3934916,13.2376274 15,13.2875 L3.75,13.2875 Z M3.75,20.7875 C3.35650836,20.7376274 3.06151862,20.4028896 3.06151862,20.00625 C3.06151862,19.6096104 3.35650836,19.2748726 3.75,19.225 L15,19.225 C15.3934916,19.2748726 15.6884814,19.6096104 15.6884814,20.00625 C15.6884814,20.4028896 15.3934916,20.7376274 15,20.7875 L3.75,20.7875 Z" id="形状"></path>
                    </g>
                </g>
            </g>
        </g>
    </g>
</svg>