<?xml version="1.0" encoding="UTF-8"?>
<svg width="31px" height="29px" viewBox="0 0 31 29" version="1.1" xmlns="http://www.w3.org/2000/svg" xmlns:xlink="http://www.w3.org/1999/xlink">
    <!-- Generator: Sketch 58 (84663) - https://sketch.com -->
    <title>架构</title>
    <desc>Created with Sketch.</desc>
    <g id="百科" stroke="none" stroke-width="1" fill="none" fill-rule="evenodd">
        <g id="百科首页" transform="translate(-363.000000, -2415.000000)" fill-rule="nonzero">
            <g id="编组-29" transform="translate(360.000000, 2411.000000)">
                <g id="架构-2">
                    <g id="架构">
                        <rect id="矩形" fill="#000000" opacity="0" x="0" y="0" width="37" height="37"></rect>
                        <path d="M22.4664,14.1081 L14.9776,14.1081 C14.56875,14.1081 14.2376,13.77695 14.2376,13.3681 L14.2376,5.8793 C14.2376,5.47045 14.56875,5.1393 14.9776,5.1393 L22.4664,5.1393 C22.87525,5.1393 23.2064,5.47045 23.2064,5.8793 L23.2064,13.3681 C23.2064,13.77695 22.8734,14.1081 22.4664,14.1081 L22.4664,14.1081 Z" id="路径" fill="#CBE1FA"></path>
                        <path d="M32.1937,21.57285 L29.3743,21.57285 L29.3743,18.4112 C29.3743,17.9006 28.9599,17.4862 28.4493,17.4862 L19.58225,17.4862 L19.58225,15.0331 L22.46455,15.0331 C23.38215,15.0331 24.12955,14.2857 24.12955,13.3681 L24.12955,5.8793 C24.12955,4.9617 23.38215,4.2143 22.46455,4.2143 L14.9776,4.2143 C14.06,4.2143 13.3126,4.9617 13.3126,5.8793 L13.3126,13.3681 C13.3126,14.2857 14.06,15.0331 14.9776,15.0331 L17.7341,15.0331 L17.7341,17.4862 L8.9207,17.4862 C8.4101,17.4862 7.9957,17.9006 7.9957,18.4112 L7.9957,21.57285 L5.1763,21.57285 C4.2587,21.57285 3.5113,22.32025 3.5113,23.23785 L3.5113,30.72665 C3.5113,31.64425 4.2587,32.39165 5.1763,32.39165 L12.6651,32.39165 C13.5827,32.39165 14.3301,31.64425 14.3301,30.72665 L14.3301,23.23785 C14.3301,22.32025 13.5827,21.57285 12.6651,21.57285 L9.8457,21.57285 L9.8457,19.3362 L27.5243,19.3362 L27.5243,21.57285 L24.7049,21.57285 C23.7873,21.57285 23.0399,22.32025 23.0399,23.23785 L23.0399,30.72665 C23.0399,31.64425 23.7873,32.39165 24.7049,32.39165 L32.1937,32.39165 C33.1113,32.39165 33.8587,31.64425 33.8587,30.72665 L33.8587,23.23785 C33.8587,22.32025 33.1113,21.57285 32.1937,21.57285 Z M15.1626,6.0643 L22.2814,6.0643 L22.2814,13.1831 L15.1626,13.1831 L15.1626,6.0643 Z M12.4801,30.54165 L5.3613,30.54165 L5.3613,23.42285 L12.4801,23.42285 L12.4801,30.54165 Z M32.0087,30.54165 L24.8899,30.54165 L24.8899,23.42285 L32.0087,23.42285 L32.0087,30.54165 Z" id="形状" fill="#4895EF"></path>
                    </g>
                </g>
            </g>
        </g>
    </g>
</svg>