<?xml version="1.0" encoding="UTF-8"?>
<svg width="16px" height="15px" viewBox="0 0 16 15" version="1.1" xmlns="http://www.w3.org/2000/svg" xmlns:xlink="http://www.w3.org/1999/xlink">
    <!-- Generator: Sketch 58 (84663) - https://sketch.com -->
    <title>添加</title>
    <desc>Created with Sketch.</desc>
    <g id="活动版块" stroke="none" stroke-width="1" fill="none" fill-rule="evenodd">
        <g id="模板管理" transform="translate(-974.000000, -783.000000)" fill-rule="nonzero">
            <g id="添加-2备份-2" transform="translate(973.000000, 782.000000)">
                <g id="添加">
                    <rect id="矩形" fill="#000000" opacity="0" x="0" y="0" width="18" height="17"></rect>
                    <path d="M14.4105469,3.26884766 C11.3888672,0.415039063 6.48808594,0.415039063 3.46640625,3.26884766 C0.444726562,6.12265625 0.444726563,10.7511719 3.46640625,13.6066406 C6.48808594,16.4604492 11.3888672,16.4604492 14.4123047,13.6066406 C17.4357422,10.752832 17.4339844,6.12265625 14.4105469,3.26884766 Z M8.93847656,13.6232422 C8.34785156,13.6232422 7.86445312,13.1666992 7.86445312,12.6088867 L7.86445312,9.45126953 L4.52285156,9.45126953 C3.93222656,9.45126953 3.44882813,8.99472656 3.44882813,8.43691406 C3.44882813,7.87910156 3.93222656,7.42255859 4.52285156,7.42255859 L7.86445312,7.42255859 L7.86445312,4.26660156 C7.86445312,3.70878906 8.34785156,3.25224609 8.93847656,3.25224609 C9.52910156,3.25224609 10.0125,3.70878906 10.0125,4.26660156 L10.0125,7.42255859 L13.3541016,7.42255859 C13.9447266,7.42255859 14.428125,7.87910156 14.428125,8.43691406 C14.428125,8.99472656 13.9447266,9.45126953 13.3541016,9.45126953 L10.0125,9.45126953 L10.0125,12.6072266 C10.0125,13.1666992 9.52910156,13.6232422 8.93847656,13.6232422 Z" id="形状" fill="#4895EF"></path>
                </g>
            </g>
        </g>
    </g>
</svg>