<?xml version="1.0" encoding="UTF-8"?>
<svg width="17px" height="17px" viewBox="0 0 17 17" version="1.1" xmlns="http://www.w3.org/2000/svg" xmlns:xlink="http://www.w3.org/1999/xlink">
    <!-- Generator: Sketch 58 (84663) - https://sketch.com -->
    <title>删 除备份 2</title>
    <desc>Created with Sketch.</desc>
    <g id="活动版块" stroke="none" stroke-width="1" fill="none" fill-rule="evenodd">
        <g id="模板管理" transform="translate(-1056.000000, -692.000000)" fill-rule="nonzero">
            <g id="删-除备份-4" transform="translate(1056.000000, 692.000000)">
                <g id="删-除备份-2">
                    <rect id="矩形" fill="#000000" opacity="0" x="0" y="0" width="17" height="17"></rect>
                    <path d="M8.59280273,0.358743164 C6.92768262,0.358743164 5.57624902,1.6787998 5.51874121,3.33606738 L1.63696387,3.33606738 C1.20567187,3.33606738 0.852789062,3.68634375 0.852789062,4.12025879 C0.852789062,4.55156738 1.20306543,4.9044668 1.63698047,4.9044668 L2.5022041,4.9044668 L2.5022041,13.676998 C2.5022041,15.3238066 3.61837695,16.6700107 4.99858105,16.6700107 L12.0301729,16.6700107 C13.4077705,16.6700107 14.5265498,15.3316592 14.5265498,13.676998 L14.5265498,4.90969629 L15.3107412,4.90969629 C15.7420498,4.90969629 16.0949326,4.55940332 16.0949326,4.12548828 C16.0949326,3.69417969 15.7446563,3.34129688 15.3107412,3.34129688 L11.6616182,3.34129688 C11.6119463,1.67881641 10.2579062,0.358743164 8.59280273,0.358743164 L8.59280273,0.358743164 Z M6.98781348,3.33606738 C7.04532129,2.48653223 7.73803809,1.82781543 8.59540918,1.82781543 C9.45278027,1.82781543 10.1454971,2.48913867 10.1951689,3.33606738 L6.98781348,3.33606738 Z M4.99595801,15.2035615 C4.5071416,15.2035615 3.96865332,14.5762051 3.96865332,13.676998 L3.96865332,4.90969629 L13.0548711,4.90969629 L13.0548711,13.684834 C13.0548711,14.5814346 12.5163828,15.2114141 12.0275664,15.2114141 L4.99595801,15.2114141 L4.99595801,15.2035615 Z M6.04939355,13.3188857 C6.40748926,13.3188857 6.70288086,12.9607734 6.70288086,12.5111699 L6.70288086,7.90270898 C6.70288086,7.45310547 6.4101123,7.09497656 6.04939355,7.09497656 C5.69126465,7.09497656 5.39588965,7.45310547 5.39588965,7.90270898 L5.39588965,12.5111699 C5.39588965,12.9581504 5.68342871,13.3188857 6.04939355,13.3188857 Z M8.4150498,13.3188857 C8.77316211,13.3188857 9.06853711,12.9607734 9.06853711,12.5111699 L9.06853711,7.90270898 C9.06853711,7.45310547 8.77576855,7.09497656 8.4150498,7.09497656 C8.0569375,7.09497656 7.7615459,7.45310547 7.7615459,7.90270898 L7.7615459,12.5111699 C7.7615459,12.9581504 8.0569375,13.3188857 8.4150498,13.3188857 L8.4150498,13.3188857 Z M10.9035576,13.3188857 C11.2616699,13.3188857 11.5570615,12.9607734 11.5570615,12.5111699 L11.5570615,7.90270898 C11.5570615,7.45310547 11.264293,7.09497656 10.9035576,7.09497656 C10.5454453,7.09497656 10.2500703,7.45310547 10.2500703,7.90270898 L10.2500703,12.5111699 C10.2500703,12.9581504 10.5349863,13.3188857 10.9035576,13.3188857 Z" id="形状" fill="#4895EF"></path>
                </g>
            </g>
        </g>
    </g>
</svg>