<?xml version="1.0" encoding="UTF-8"?>
<svg width="13px" height="13px" viewBox="0 0 13 13" version="1.1" xmlns="http://www.w3.org/2000/svg" xmlns:xlink="http://www.w3.org/1999/xlink">
    <!-- Generator: Sketch 58 (84663) - https://sketch.com -->
    <title>提示</title>
    <desc>Created with Sketch.</desc>
    <g id="简历板块" stroke="none" stroke-width="1" fill="none" fill-rule="evenodd">
        <g id="简历板块问号" transform="translate(-1352.000000, -352.000000)" fill-rule="nonzero">
            <g id="编组-46" transform="translate(1283.000000, 346.000000)">
                <g id="编组-22">
                    <g id="编组-28" transform="translate(69.000000, 4.000000)">
                        <g id="提示-2" transform="translate(0.000000, 2.000000)">
                            <g id="提示">
                                <rect id="矩形" fill="#000000" opacity="0" x="0" y="0" width="13" height="13"></rect>
                                <path d="M6.5,0 C2.91014913,0 0,2.91014913 0,6.5 C0,10.0898509 2.91014913,13 6.5,13 C10.0898509,13 13,10.0898509 13,6.5 C13,4.77609282 12.3151805,3.12279238 11.0961941,1.90380592 C9.87720762,0.684819462 8.22390718,0 6.5,0 Z M6.5,11.3923333 C5.97419908,11.3923333 5.50017191,11.0755985 5.29895661,10.5898218 C5.09774131,10.1040451 5.20896379,9.54489191 5.58076118,9.17309451 C5.95255858,8.80129712 6.51171176,8.69007464 6.99748846,8.89128994 C7.48326517,9.09250524 7.8,9.56653241 7.8,10.0923333 C7.8,10.8103035 7.21797017,11.3923333 6.5,11.3923333 L6.5,11.3923333 Z M6.5,8.0795 C5.63333333,8.0795 4.93783333,4.03 4.93783333,3.16766667 C4.93783333,2.30490584 5.63723917,1.6055 6.5,1.6055 C7.36276083,1.6055 8.06216667,2.30490584 8.06216667,3.16766667 C8.06216667,4.03 7.36666667,8.0795 6.5,8.0795 Z" id="形状" fill="#FF4D4F"></path>
                            </g>
                        </g>
                    </g>
                </g>
            </g>
        </g>
    </g>
</svg>