<?xml version="1.0" encoding="UTF-8"?>
<svg width="18px" height="18px" viewBox="0 0 18 18" version="1.1" xmlns="http://www.w3.org/2000/svg" xmlns:xlink="http://www.w3.org/1999/xlink">
    <!-- Generator: Sketch 58 (84663) - https://sketch.com -->
    <title>未选中</title>
    <desc>Created with Sketch.</desc>
    <g id="活动版块" stroke="none" stroke-width="1" fill="none" fill-rule="evenodd">
        <g id="报名信息管理页（要审核的导出名单弹窗）" transform="translate(-1034.000000, -492.000000)" fill-rule="nonzero">
            <g id="编组-38" transform="translate(704.000000, 343.000000)">
                <g id="编组-37" transform="translate(40.000000, 147.000000)">
                    <g id="编组-32" transform="translate(289.000000, 0.000000)">
                        <g id="未选中-2备份-3" transform="translate(0.000000, 1.000000)">
                            <g id="未选中">
                                <rect id="矩形" fill="#000000" opacity="0" x="0" y="0" width="20" height="20"></rect>
                                <path d="M16.0761719,18.4628906 L3.984375,18.4628906 C2.6640625,18.4628906 1.58789062,17.3886719 1.58789062,16.0664062 L1.58789062,3.97460938 C1.58789062,2.65429688 2.66210938,1.578125 3.984375,1.578125 L16.0761719,1.578125 C17.3964844,1.578125 18.4726562,2.65234375 18.4726562,3.97460938 L18.4726562,16.0664062 C18.4726562,17.3886719 17.3964844,18.4628906 16.0761719,18.4628906 Z M3.984375,2.69921875 C3.28125,2.69921875 2.70703125,3.27148438 2.70703125,3.9765625 L2.70703125,16.0683594 C2.70703125,16.7714844 3.27929688,17.3457031 3.984375,17.3457031 L16.0761719,17.3457031 C16.7792969,17.3457031 17.3535156,16.7734375 17.3535156,16.0683594 L17.3535156,3.97460938 C17.3535156,3.27148438 16.78125,2.69726562 16.0761719,2.69726562 L3.984375,2.69726562 L3.984375,2.69921875 Z" id="形状" fill="#4895EF"></path>
                            </g>
                        </g>
                    </g>
                </g>
            </g>
        </g>
    </g>
</svg>