<?xml version="1.0" encoding="UTF-8"?>
<svg width="21px" height="17px" viewBox="0 0 21 17" version="1.1" xmlns="http://www.w3.org/2000/svg" xmlns:xlink="http://www.w3.org/1999/xlink">
    <!-- Generator: Sketch 58 (84663) - https://sketch.com -->
    <title>官方网站</title>
    <desc>Created with Sketch.</desc>
    <g id="简历投递" stroke="none" stroke-width="1" fill="none" fill-rule="evenodd">
        <g id="简历投递职位详情页" transform="translate(-1231.000000, -623.000000)" fill-rule="nonzero">
            <g id="官方网站-2" transform="translate(1231.000000, 621.000000)">
                <g id="官方网站">
                    <rect id="矩形" fill="#000000" opacity="0" x="0" y="0" width="21" height="21"></rect>
                    <path d="M10.2516522,18.7173913 C5.71291305,18.7173913 2.03426087,15.0382826 2.03426087,10.5 C2.03426087,5.9617174 5.71291305,2.2826087 10.2516522,2.2826087 C14.7894783,2.2826087 18.4690435,5.9617174 18.4690435,10.5 C18.4690435,15.0382826 14.7894783,18.7173913 10.2516522,18.7173913 Z M10.2516522,16.8913043 C13.7814783,16.8913043 16.6429565,14.0298261 16.6429565,10.5 C16.6429565,6.9701739 13.7814783,4.10869565 10.2516522,4.10869565 C6.72182608,4.10869565 3.86034783,6.9701739 3.86034783,10.5 C3.86034783,14.0298261 6.72182608,16.8913043 10.2516522,16.8913043 Z" id="形状" fill="#4895EF"></path>
                    <path d="M6.59947825,8.67391305 C6.59947825,9.00011207 6.77350335,9.30153241 7.05599999,9.46463193 C7.33849663,9.62773144 7.68654685,9.62773144 7.96904349,9.46463193 C8.25154013,9.30153241 8.42556522,9.00011207 8.42556522,8.67391305 C8.42556522,8.34771402 8.25154013,8.04629369 7.96904349,7.88319417 C7.68654685,7.72009466 7.33849663,7.72009466 7.05599999,7.88319417 C6.77350335,8.04629369 6.59947825,8.34771402 6.59947825,8.67391305 L6.59947825,8.67391305 Z" id="路径" fill="#4895EF"></path>
                    <path d="M2.32643478,13.9083913 C2.40632608,13.976413 2.53963043,14.049 2.72497825,14.1165652 C3.17236955,14.28 3.83432608,14.3813478 4.65469565,14.4028043 C6.42280435,14.4493696 8.74832608,14.1284348 11.1578478,13.482913 C13.5673696,12.8373913 15.7413261,11.9521957 17.2496739,11.0277391 C17.9495217,10.5986087 18.4717826,10.1804348 18.7776522,9.8152174 C18.9045652,9.66456522 18.984,9.53445652 19.0191522,9.43584783 C19.035587,9.38836957 19.0369565,9.3742174 19.037413,9.37513043 C19.0301087,9.35002173 18.9456522,9.27013043 18.7068913,9.16832608 C18.3517174,9.01630433 17.8185,8.90810868 17.145587,8.86017392 L17.2752391,7.03865217 C19.1935435,7.17469565 20.4859565,7.72708695 20.8009565,8.90217392 C21.4145217,11.1925435 17.2642826,13.7367391 11.6303478,15.246913 C5.99686957,16.7561739 1.13034783,16.6278913 0.516326077,14.3375217 C0.193108679,13.1300217 1.08971738,11.9750217 2.77519565,10.8693261 L3.77680435,12.3963913 C3.1773913,12.7894565 2.73684783,13.167913 2.48393478,13.4929565 C2.38213043,13.6244348 2.31958695,13.7358261 2.2931087,13.818913 C2.28215217,13.8545217 2.28078262,13.8654783 2.28032608,13.8650217 C2.2807826,13.8650217 2.28991303,13.8778043 2.32597825,13.9083913 L2.32643478,13.9083913 Z" id="路径" fill="#4895EF"></path>
                </g>
            </g>
        </g>
    </g>
</svg>