<?xml version="1.0" encoding="UTF-8"?>
<svg width="39px" height="39px" viewBox="0 0 39 39" version="1.1" xmlns="http://www.w3.org/2000/svg" xmlns:xlink="http://www.w3.org/1999/xlink">
    <!-- Generator: Sketch 58 (84663) - https://sketch.com -->
    <title>微信备份</title>
    <desc>Created with Sketch.</desc>
    <defs>
        <rect id="path-1" x="360" y="125" width="1200" height="655" rx="24"></rect>
        <filter x="-2.5%" y="-4.0%" width="105.1%" height="109.3%" filterUnits="objectBoundingBox" id="filter-2">
            <feMorphology radius="1.5" operator="dilate" in="SourceAlpha" result="shadowSpreadOuter1"></feMorphology>
            <feOffset dx="0" dy="4" in="shadowSpreadOuter1" result="shadowOffsetOuter1"></feOffset>
            <feGaussianBlur stdDeviation="8" in="shadowOffsetOuter1" result="shadowBlurOuter1"></feGaussianBlur>
            <feColorMatrix values="0 0 0 0 0.749019608   0 0 0 0 0.780392157   0 0 0 0 0.843137255  0 0 0 0.31 0" type="matrix" in="shadowBlurOuter1"></feColorMatrix>
        </filter>
    </defs>
    <g id="注册流程优化" stroke="none" stroke-width="1" fill="none" fill-rule="evenodd">
        <g id="登录页面" transform="translate(-1152.000000, -644.000000)">
            <rect id="矩形" fill="#F6F9FC" x="0" y="90" width="1920" height="990"></rect>
            <g id="矩形">
                <use fill="black" fill-opacity="1" filter="url(#filter-2)" xlink:href="#path-1"></use>
                <use fill="#FFFFFF" fill-rule="evenodd" xlink:href="#path-1"></use>
            </g>
            <g id="编组-12" transform="translate(1152.000000, 644.000000)" fill-rule="nonzero">
                <g id="微信备份-2">
                    <g id="微信备份">
                        <rect id="矩形" fill="#000000" opacity="0" x="0" y="0" width="39" height="39"></rect>
                        <path d="M12.849711,13.0187861 C12.1734104,13.0187861 11.4971098,13.4696532 11.4971098,14.1459537 C11.4971098,14.8222543 12.1734104,15.2731214 12.849711,15.2731214 C13.5260116,15.2731214 13.9768786,14.8222543 13.9768786,14.1459537 C13.9768786,13.441474 13.5260116,13.0187861 12.849711,13.0187861 Z M22.007948,19.5563584 C21.5570809,19.5563584 21.1343931,20.0354046 21.1343931,20.4580925 C21.1343931,20.9371387 21.5852601,21.3598266 22.007948,21.3598266 C22.6842485,21.3598266 23.1351156,20.9089596 23.1351156,20.4580925 C23.1351156,20.0072254 22.6842486,19.5563584 22.007948,19.5563584 Z M19.1054913,15.2731214 C19.7817919,15.2731214 20.232659,14.7940751 20.232659,14.1459537 C20.232659,13.4696532 19.7817919,13.0187861 19.1054913,13.0187861 C18.4291907,13.0187861 17.7528902,13.4696532 17.7528902,14.1459537 C17.7528902,14.8222543 18.4291907,15.2731214 19.1054913,15.2731214 Z M26.9111272,19.5563584 C26.4602601,19.5563584 26.0375722,20.0354046 26.0375722,20.4580925 C26.0375722,20.9371387 26.4884393,21.3598266 26.9111272,21.3598266 C27.5874277,21.3598266 28.0382948,20.9089596 28.0382948,20.4580925 C28.0382948,20.0072254 27.5874278,19.5563584 26.9111272,19.5563584 Z" id="形状" fill="#28C445"></path>
                        <path d="M19.4436416,0.112716779 C8.70736992,0.112716779 0,8.8200867 0,19.5563584 C0,30.2926301 8.70736992,39 19.4436416,39 C30.1799133,39 38.8872832,30.2926301 38.8872832,19.5563584 C38.8872832,8.8200867 30.1799133,0.112716779 19.4436416,0.112716779 Z M15.7521676,24.5440751 C14.625,24.5440751 13.7232659,24.3186416 12.6524566,24.0650289 L9.55274566,25.6430636 L10.4263006,22.9096821 C8.20014449,21.3316474 6.84754337,19.2745665 6.84754337,16.8229769 C6.84754337,12.5115607 10.8771676,9.13005779 15.7521676,9.13005779 C20.1199422,9.13005779 23.9804913,11.8352601 24.7413295,15.4703757 C24.4595376,15.4421966 24.1777457,15.4140173 23.8959537,15.4140173 C19.6690751,15.4703757 16.3439306,18.6546243 16.3439306,22.599711 C16.3439306,23.2478324 16.4566474,23.8677746 16.6257225,24.4877168 C16.3439306,24.515896 16.0339596,24.5440752 15.7521676,24.5440751 L15.7521676,24.5440751 Z M28.9400289,27.7001445 L29.6163295,29.9544798 L27.1929191,28.6018786 C26.3193642,28.8273121 25.41763,29.0527457 24.515896,29.0527457 C20.2608382,29.0527457 16.9075145,26.1221098 16.9075145,22.4869942 C16.8793353,18.8800578 20.232659,15.9494219 24.4595376,15.9494219 C28.4891618,15.9494219 32.0397399,18.908237 32.0397399,22.5151734 C32.0397399,24.5440751 30.7153179,26.3475433 28.9400289,27.7001445 L28.9400289,27.7001445 Z" id="形状" fill="#28C445"></path>
                    </g>
                </g>
            </g>
        </g>
    </g>
</svg>